<svg viewBox="0 0 330 200" xmlns="http://www.w3.org/2000/svg"><g><g><g><g><g><line x1="71.6875" y1="174" x2="66.6875" y2="174" style="visibility: inherit;" fill="rgb(0, 0, 0)" stroke="rgb(204, 204, 204)" stroke-width="1px"></line><line x1="71.6875" y1="154.66666666666666" x2="66.6875" y2="154.66666666666666" style="visibility: inherit;" fill="rgb(0, 0, 0)" stroke="rgb(204, 204, 204)" stroke-width="1px"></line><line x1="71.6875" y1="135.33333333333334" x2="66.6875" y2="135.33333333333334" style="visibility: inherit;" fill="rgb(0, 0, 0)" stroke="rgb(204, 204, 204)" stroke-width="1px"></line><line x1="71.6875" y1="116" x2="66.6875" y2="116" style="visibility: inherit;" fill="rgb(0, 0, 0)" stroke="rgb(204, 204, 204)" stroke-width="1px"></line><line x1="71.6875" y1="96.66666666666667" x2="66.6875" y2="96.66666666666667" style="visibility: inherit;" fill="rgb(0, 0, 0)" stroke="rgb(204, 204, 204)" stroke-width="1px"></line><line x1="71.6875" y1="77.33333333333334" x2="66.6875" y2="77.33333333333334" style="visibility: inherit;" fill="rgb(0, 0, 0)" stroke="rgb(204, 204, 204)" stroke-width="1px"></line><line x1="71.6875" y1="58.00000000000001" x2="66.6875" y2="58.00000000000001" style="visibility: inherit;" fill="rgb(0, 0, 0)" stroke="rgb(204, 204, 204)" stroke-width="1px"></line><line x1="71.6875" y1="38.666666666666664" x2="66.6875" y2="38.666666666666664" style="visibility: inherit;" fill="rgb(0, 0, 0)" stroke="rgb(204, 204, 204)" stroke-width="1px"></line><line x1="71.6875" y1="19.333333333333343" x2="66.6875" y2="19.333333333333343" style="visibility: inherit;" fill="rgb(0, 0, 0)" stroke="rgb(204, 204, 204)" stroke-width="1px"></line><line x1="71.6875" y1="0" x2="66.6875" y2="0" style="visibility: inherit;" fill="rgb(0, 0, 0)" stroke="rgb(204, 204, 204)" stroke-width="1px"></line></g><g transform="translate(61.6875, 0)"><text x="0" y="174" dx="0em" dy="0.3em" style="text-anchor: end; visibility: hidden; font-family: Roboto, sans-serif; font-size: 12px; font-weight: 200;" fill="rgb(33, 33, 33)" stroke="none" stroke-width="1px">5e-5</text><text x="0" y="154.66666666666666" dx="0em" dy="0.3em" style="text-anchor: end; visibility: inherit; font-family: Roboto, sans-serif; font-size: 12px; font-weight: 200;" fill="rgb(33, 33, 33)" stroke="none" stroke-width="1px">1e-4</text><text x="0" y="135.33333333333334" dx="0em" dy="0.3em" style="text-anchor: end; visibility: hidden; font-family: Roboto, sans-serif; font-size: 12px; font-weight: 200;" fill="rgb(33, 33, 33)" stroke="none" stroke-width="1px">1.5e-4</text><text x="0" y="116" dx="0em" dy="0.3em" style="text-anchor: end; visibility: inherit; font-family: Roboto, sans-serif; font-size: 12px; font-weight: 200;" fill="rgb(33, 33, 33)" stroke="none" stroke-width="1px">2e-4</text><text x="0" y="96.66666666666667" dx="0em" dy="0.3em" style="text-anchor: end; visibility: hidden; font-family: Roboto, sans-serif; font-size: 12px; font-weight: 200;" fill="rgb(33, 33, 33)" stroke="none" stroke-width="1px">2.5e-4</text><text x="0" y="77.33333333333334" dx="0em" dy="0.3em" style="text-anchor: end; visibility: inherit; font-family: Roboto, sans-serif; font-size: 12px; font-weight: 200;" fill="rgb(33, 33, 33)" stroke="none" stroke-width="1px">3e-4</text><text x="0" y="58.00000000000001" dx="0em" dy="0.3em" style="text-anchor: end; visibility: hidden; font-family: Roboto, sans-serif; font-size: 12px; font-weight: 200;" fill="rgb(33, 33, 33)" stroke="none" stroke-width="1px">3.5e-4</text><text x="0" y="38.666666666666664" dx="0em" dy="0.3em" style="text-anchor: end; visibility: inherit; font-family: Roboto, sans-serif; font-size: 12px; font-weight: 200;" fill="rgb(33, 33, 33)" stroke="none" stroke-width="1px">4e-4</text><text x="0" y="19.333333333333343" dx="0em" dy="0.3em" style="text-anchor: end; visibility: hidden; font-family: Roboto, sans-serif; font-size: 12px; font-weight: 200;" fill="rgb(33, 33, 33)" stroke="none" stroke-width="1px">4.5e-4</text><text x="0" y="0" dx="0em" dy="0.3em" style="text-anchor: end; visibility: hidden; font-family: Roboto, sans-serif; font-size: 12px; font-weight: 200;" fill="rgb(33, 33, 33)" stroke="none" stroke-width="1px">5e-4</text></g><line x1="71.6875" y1="0" x2="71.6875" y2="174" fill="rgb(0, 0, 0)" stroke="rgb(204, 204, 204)" stroke-width="1px"></line></g></g><g transform="translate(71, 0)" clip-path="url(#clip_0)"><clipPath id="clip_0"><rect width="258" height="174"></rect></clipPath><g><g><g><line x1="0" y1="0" x2="0" y2="174" fill="rgb(0, 0, 0)" stroke="rgb(66, 66, 66)" stroke-width="1px" opacity="0.25"></line><line x1="21.526041666666664" y1="0" x2="21.526041666666664" y2="174" fill="rgb(0, 0, 0)" stroke="rgb(66, 66, 66)" stroke-width="1px" opacity="0.25"></line><line x1="43.05208333333333" y1="0" x2="43.05208333333333" y2="174" fill="rgb(0, 0, 0)" stroke="rgb(66, 66, 66)" stroke-width="1px" opacity="0.25"></line><line x1="64.578125" y1="0" x2="64.578125" y2="174" fill="rgb(0, 0, 0)" stroke="rgb(66, 66, 66)" stroke-width="1px" opacity="0.25"></line><line x1="86.10416666666666" y1="0" x2="86.10416666666666" y2="174" fill="rgb(0, 0, 0)" stroke="rgb(66, 66, 66)" stroke-width="1px" opacity="0.25"></line><line x1="107.63020833333334" y1="0" x2="107.63020833333334" y2="174" fill="rgb(0, 0, 0)" stroke="rgb(66, 66, 66)" stroke-width="1px" opacity="0.25"></line><line x1="129.15625" y1="0" x2="129.15625" y2="174" fill="rgb(0, 0, 0)" stroke="rgb(66, 66, 66)" stroke-width="1px" opacity="0.25"></line><line x1="150.68229166666669" y1="0" x2="150.68229166666669" y2="174" fill="rgb(0, 0, 0)" stroke="rgb(66, 66, 66)" stroke-width="1px" opacity="0.25"></line><line x1="172.20833333333331" y1="0" x2="172.20833333333331" y2="174" fill="rgb(0, 0, 0)" stroke="rgb(66, 66, 66)" stroke-width="1px" opacity="0.25"></line><line x1="193.734375" y1="0" x2="193.734375" y2="174" fill="rgb(0, 0, 0)" stroke="rgb(66, 66, 66)" stroke-width="1px" opacity="0.25"></line><line x1="215.26041666666669" y1="0" x2="215.26041666666669" y2="174" fill="rgb(0, 0, 0)" stroke="rgb(66, 66, 66)" stroke-width="1px" opacity="0.25"></line><line x1="236.78645833333331" y1="0" x2="236.78645833333331" y2="174" fill="rgb(0, 0, 0)" stroke="rgb(66, 66, 66)" stroke-width="1px" opacity="0.25"></line><line x1="258.3125" y1="0" x2="258.3125" y2="174" fill="rgb(0, 0, 0)" stroke="rgb(66, 66, 66)" stroke-width="1px" opacity="0.25"></line></g><g><line x1="0" y1="174" x2="258.3125" y2="174" fill="rgb(0, 0, 0)" stroke="rgb(66, 66, 66)" stroke-width="1px" opacity="0.25"></line><line x1="0" y1="154.66666666666666" x2="258.3125" y2="154.66666666666666" fill="rgb(0, 0, 0)" stroke="rgb(66, 66, 66)" stroke-width="1px" opacity="0.25"></line><line x1="0" y1="135.33333333333334" x2="258.3125" y2="135.33333333333334" fill="rgb(0, 0, 0)" stroke="rgb(66, 66, 66)" stroke-width="1px" opacity="0.25"></line><line x1="0" y1="116" x2="258.3125" y2="116" fill="rgb(0, 0, 0)" stroke="rgb(66, 66, 66)" stroke-width="1px" opacity="0.25"></line><line x1="0" y1="96.66666666666667" x2="258.3125" y2="96.66666666666667" fill="rgb(0, 0, 0)" stroke="rgb(66, 66, 66)" stroke-width="1px" opacity="0.25"></line><line x1="0" y1="77.33333333333334" x2="258.3125" y2="77.33333333333334" fill="rgb(0, 0, 0)" stroke="rgb(66, 66, 66)" stroke-width="1px" opacity="0.25"></line><line x1="0" y1="58.00000000000001" x2="258.3125" y2="58.00000000000001" fill="rgb(0, 0, 0)" stroke="rgb(66, 66, 66)" stroke-width="1px" opacity="0.25"></line><line x1="0" y1="38.666666666666664" x2="258.3125" y2="38.666666666666664" fill="rgb(0, 0, 0)" stroke="rgb(66, 66, 66)" stroke-width="1px" opacity="0.25"></line><line x1="0" y1="19.333333333333343" x2="258.3125" y2="19.333333333333343" fill="rgb(0, 0, 0)" stroke="rgb(66, 66, 66)" stroke-width="1px" opacity="0.25"></line><line x1="0" y1="0" x2="258.3125" y2="0" fill="rgb(0, 0, 0)" stroke="rgb(66, 66, 66)" stroke-width="1px" opacity="0.25"></line></g></g></g><g><g><line x1="0" y1="193.33333333333334" x2="258.3125" y2="193.33333333333334" fill="rgb(0, 0, 0)" stroke="rgb(153, 153, 153)" stroke-width="1.5px"></line></g></g><g><g><line x1="21.526041666666664" y1="0" x2="21.526041666666664" y2="174" fill="rgb(0, 0, 0)" stroke="rgb(153, 153, 153)" stroke-width="1.5px"></line></g></g><g><g><g><g><g><path stroke="rgb(255, 112, 67)" stroke-width="2px" d="M21.633671875,0.17619782437880405L21.9565625,0.5093149320843362L22.064192708333334,0.7017652483872139L22.709973958333336,1.274065513725345L22.817604166666666,1.6423902935201078L23.14049479166667,2.065529492322768L23.248124999999998,2.378649093349476L23.571015625,2.7746762890891308L23.67864583333333,3.0786650177480146L23.786276041666667,3.329399463345304L24.001536458333334,3.6189717776960473L24.109166666666667,3.8619019760269646L24.432057291666666,4.216314741371539L24.5396875,4.498163362459082L25.185468750000002,5.082660966813382L25.508359375,5.640053928555547L25.615989583333334,6.043208984502138L25.723619791666664,6.353810587476474L25.83125,6.608837790816917L25.938880208333334,6.830465901981004L26.692291666666666,7.442018120269017L26.799921875,7.877056832166843L26.907552083333336,8.206128983002156L27.1228125,8.539490799162353L27.230442708333335,8.807370063336853L27.445703124999998,9.103643294914082L27.76859375,9.484253365725985L28.091484375,9.914902856769125L28.199114583333333,10.240597226762164L28.306744791666667,10.503260088542184L28.414375,10.72803655819155L28.62963541666667,10.997079937548074L28.737265625,11.225500178400885L28.844895833333332,11.429488023491496L28.952526041666665,11.618753414102692L29.16778645833333,11.865873462969848L29.275416666666665,12.080833620129033L29.921197916666667,12.608646589767593L30.136458333333334,13.057792344647945L30.244088541666667,13.393418756203449L30.459348958333333,13.726883462831578L30.566979166666666,13.992916688758104L30.782239583333336,14.284265372750623L31.21276041666667,14.721802854522847L31.320390624999998,15.049856614743865L31.858541666666667,15.573440446990732L32.2890625,16.147910772755186L32.39669270833333,16.557521052813442L32.71958333333333,16.99772036607021L33.04247395833334,17.455737433546233L33.150104166666665,17.795057129144418L33.36536458333334,18.12749680381894L33.903515625000004,18.64804493165234L34.11877604166666,19.08839340945857L34.65692708333333,19.671620680039165L35.08744791666667,20.275719163951496L35.195078125,20.701571364087307L35.41033854166667,21.083693349440384L35.625598958333335,21.43934763490927L35.73322916666667,21.715840725470237L35.840859375,21.944783082377104L36.27138020833333,22.33374482439233L36.37901041666667,22.6298757816629L37.024791666666665,23.182871455218983L37.132421875,23.577022147486563L37.34768229166667,23.938043584809673L37.4553125,24.216834181032176L37.778203125,24.570304135818255L38.53161458333334,25.214843883567422L38.746874999999996,25.724617796065438L38.854505208333336,26.091921649032052L39.069765625,26.435011918834793L39.28502604166666,26.76334896911695L39.500286458333335,27.082609018064634L39.93080729166667,27.518005476123363L40.0384375,27.840066165661586L40.146067708333334,28.094066875985728L40.46895833333333,28.428422587550564L40.576588541666666,28.68957524146849L40.68421875,28.90675204408892L40.79184895833333,29.09748931922156L41.007109375,29.332623018508986L41.11473958333334,29.53396337872892L41.43763020833334,29.83522391654741L41.545260416666665,30.076019811656238L41.652890625,30.28048290442993L41.975781250000004,30.582784324178512L42.08341145833333,30.82393016350631L42.19104166666666,31.02832863787231L42.298671875000004,31.210624676551927L42.6215625,31.498635557506383L43.05208333333333,31.908859027751618L43.15971354166667,32.21420892749927L43.37497395833333,32.51568845242084L43.48260416666667,32.75562993484629L43.590234375,32.958594575064716L43.697864583333335,33.13931909324966L43.913125,33.36547872074788L44.12838541666667,33.61868784838922L44.34364583333333,33.887906107886664L44.55890625,34.1665137796605L44.774166666666666,34.450543533355244L44.881796875,34.67931293582335L45.097057291666665,34.93311112628629L45.2046875,35.14357954068731L45.31231770833333,35.328000574134286L45.41994791666667,35.49673466090709L45.527578125,35.65600256296604L45.74283854166667,35.86746065545645L45.85046875,36.052205412210434L46.28098958333334,36.39399620560093L46.926770833333336,36.94389534841348L47.14203125,37.388354759268196L47.249661458333335,37.71221159399683L47.35729166666666,37.963652866340475L47.572552083333335,38.2286144240241L47.68018229166666,38.444560981405246L47.895442708333334,38.68791061264027L48.00307291666667,38.890736966809136L48.110703125,39.069190836636515L48.218333333333334,39.23297170054216L48.756484375,39.613999686646245L48.86411458333333,39.89901442423927L48.971744791666666,40.12636269462387L49.294635416666665,40.43149284843971L49.402265625,40.67070780589802L49.50989583333334,40.87032413022492L49.617526041666665,41.04612725796366L49.83278645833333,41.26351825215656L50.693828125,41.83954568670136L50.80145833333333,42.24063280651536L51.12434895833333,42.64738195819398L51.23197916666667,42.946695044235824L51.339609375,43.18149697557873L51.55486979166667,43.43265324647696L51.770130208333335,43.69341955844844L51.985390625,43.95974933240385L52.093020833333334,44.17440566649181L52.30828125,44.41276786042337L52.52354166666667,44.66514650620868L52.631171875,44.87118008541773L52.846432291666666,45.10386447046824L53.38458333333333,45.5152556730884L53.49221354166667,45.816296162470834L53.59984375,46.05107670859375L53.70747395833333,46.24605177344409L54.35325520833334,46.686628410974315L54.568515624999996,47.05844063669989L54.78377604166667,47.38879615407517L54.891406249999996,47.640571533191185L55.214296875,47.95202137343962L55.321927083333335,48.192255285012L55.644817708333335,48.49619506371652L55.860078125,48.784845809326406L55.967708333333334,49.01110317221432L56.290598958333334,49.305774748789176L56.505859375,49.588279392103495L57.044010416666666,50.02118115695128L57.151640625,50.333457967073585L57.25927083333334,50.573310289043704L57.366901041666665,50.769658402805646L57.90505208333333,51.14893515256353L58.012682291666664,51.4286498338817L58.22794270833333,51.7006318610413L58.55083333333333,52.01969529488701L58.65846354166666,52.262993897541485L58.76609375,52.46078858755676L58.87372395833333,52.63123141467163L59.088984375,52.836885092593754L59.30424479166667,53.06347622251761L59.51950520833333,53.30244076515984L59.62713541666667,53.49725240081005L59.734765625,53.665527278340576L60.165286458333334,53.97156214042906L60.380546875,54.25743668843947L60.59580729166667,54.53102598952038L60.7034375,54.746144335419636L60.81106770833333,54.92613059289298L60.918697916666666,55.084988081993906L61.026328125,55.23112329614694L61.13395833333333,55.3695801314068L61.241588541666665,55.50338042401386L61.88736979166667,55.887049948909564L62.21026041666667,56.268318394266785L62.317890625,56.547342009510515L63.071302083333336,57.06530211523132L63.17893229166667,57.42597161251279L63.609453125,57.84148790424848L63.717083333333335,58.14046604351672L63.82471354166666,58.36947177598758L63.93234375,58.556444549063144L64.03997395833333,58.71815703396956L64.14760416666667,58.86466833204999L64.255234375,59.002009402717995L64.36286458333333,59.13380782440653L64.47049479166667,59.262231141390515L64.578125,59.3885843816273L64.79338541666667,59.562859784088886L64.901015625,59.71658923383894L65.11627604166667,59.90702027846181L65.546796875,60.21712098629557L65.65442708333333,60.4520260204054L65.97731770833333,60.73924628973068L66.08494791666668,60.96024750643012L66.192578125,61.1414722776296L66.30020833333333,61.29878166621222L66.62309895833334,61.53863879897371L66.94598958333333,61.8276194529226L67.05361979166666,62.04927177507623L67.37651041666666,62.32679837835199L67.484140625,62.541402715796416L67.91466145833334,62.86207768371952L68.02229166666666,63.10235497311503L68.34518229166667,63.38985918634584L68.45281250000001,63.61005396722824L68.56044270833334,63.78981807477715L68.66807291666666,63.94528326579397L68.77570312499999,64.08611959157466L68.88333333333333,64.21813808568169L68.99096354166667,64.3448253682525L69.09859375,64.46826440858469L69.31385416666666,64.63705513537504L69.42148437499999,64.78563020325049L69.52911458333334,64.92203086185263L69.63674479166667,65.0510818609663L70.067265625,65.31692274256956L70.17489583333334,65.52342180864657L70.28252604166667,65.69427077148346L70.39015625,65.84368915984426L70.49778645833332,65.98020418959496L70.713046875,66.15571516192537L70.92830729166667,66.35444814549834L71.14356770833332,66.56694328290392L71.25119791666667,66.74100727018019L71.57408854166667,66.98487629349809L71.68171875,67.17759355940889L71.78934895833333,67.3395702555585L72.004609375,67.52932740885862L72.21986979166667,67.73558628492862L72.650390625,68.04363311861938L72.75802083333333,68.27442493707927L73.08091145833333,68.55054810769951L73.18854166666667,68.76201917679664L73.296171875,68.93465847244792L73.40380208333333,69.08395819149973L73.51143229166667,69.21920915066734L73.6190625,69.34599034137251L73.72669270833333,69.46764465707574L73.941953125,69.63168691146197L74.04958333333333,69.77557182638537L74.15721354166668,69.9073263264916L74.26484375,70.03175306239059L74.48010416666666,70.19704013939698L74.80299479166668,70.43184834272265L75.233515625,70.75299602652946L75.55640625,71.0804473238013L75.66403645833333,71.32175647229882L75.77166666666666,71.51133981899977L76.09455729166666,71.75923132185079L76.30981770833333,71.9971883231934L76.41744791666667,72.18451280501701L76.52507812500001,72.34141726259718L76.63270833333334,72.4800246917069L76.74033854166666,72.60761789259473L76.84796874999999,72.72856204401747L76.95559895833333,72.8454717518367L77.27848958333334,73.0484086536255L77.38611979166666,73.21435196153641L77.49374999999999,73.35805860058855L77.60138020833334,73.48838272579347L77.92427083333334,73.69863905243776L78.67768229166666,74.13151322816434L79.00057291666667,74.52208871055419L79.108203125,74.79996696631376L79.32346354166667,75.05364731760977L79.43109375,75.24927145850953L79.53872395833334,75.4100213606395L79.64635416666667,75.54980620697563L79.753984375,75.67697150730346L79.96924479166667,75.83974243634891L80.076875,75.9805823500988L80.18450520833333,76.10822314213935L80.399765625,76.27096426874134L80.50739583333333,76.41162425089719L80.83028645833333,76.62483658775992L81.045546875,76.83844349365617L81.26080729166667,77.05212959223698L81.3684375,77.223041460109L81.47606770833333,77.36825277841623L82.12184895833333,77.7105319973024L82.22947916666668,77.95828463988656L82.337109375,78.14928532554997L82.76763020833334,78.43289501764949L83.09052083333333,78.72941041741912L83.30578125,78.99135615281747L83.628671875,79.27429249894115L84.05919270833334,79.61120451223746L84.48971354166667,79.97988523507254L84.59734375000001,80.24263251824658L84.70497395833334,80.44177922509203L84.92023437499999,80.6441513882702L85.13549479166667,80.84831027929734L85.243125,81.01211489237201L85.35075520833334,81.15166642614315L85.56601562499999,81.31782684483991L85.78127604166667,81.49979954714894L85.88890625,81.65006287597807L85.99653645833334,81.7812645695797L86.10416666666666,81.90099327090529L86.31942708333334,82.05472882582632L86.42705729166667,82.18786530913246L86.5346875,82.30860183693764L86.74994791666666,82.46264049445271L87.07283854166667,82.67717746318188L87.28809895833332,82.88712276967846L87.61098958333334,83.1346455551335L87.71861979166667,83.3235997361232L87.93388020833333,83.51774973212416L88.149140625,83.71486416978875L88.36440104166667,83.9136087265009L88.57966145833333,84.11318731008335L88.68729166666667,84.27304186690864L89.01018229166667,84.48906525558641L89.22544270833333,84.6985655004963L89.33307291666667,84.86415248588827L89.76359375,85.12269191951219L89.97885416666666,85.35718863265116L90.19411458333333,85.57711566894093L90.51700520833333,85.82763856768909L90.62463541666666,86.01740251031698L90.732265625,86.17067506813318L90.83989583333334,86.30201678392277L90.94752604166668,86.4201594819644L91.05515625,86.5303512596102L91.48567708333334,86.75332634869285L91.7009375,86.9653230958565L91.80856770833333,87.13157522499864L91.91619791666666,87.27034007079584L92.02382812500001,87.39258103683898L92.13145833333334,87.5048671624977L92.45434895833333,87.68886091333144L92.56197916666667,87.83805466530627L92.66960937500001,87.96633690821872L93.42302083333334,88.31366888693617L93.74591145833334,88.6374072527586L94.2840625,89.02317101656587L94.39169270833334,89.2928280911298L94.49932291666667,89.49278514100817L94.82221354166666,89.72703622091039L95.03747395833334,89.94359738166067L95.14510416666667,90.11148981919844L95.252734375,90.25014501166916L95.575625,90.44688125015841L96.11377604166667,90.75346831716028L96.32903645833333,91.01259831256824L96.43666666666667,91.20560892001089L96.544296875,91.3589163849272L96.65192708333333,91.48837045458063L96.8671875,91.6408695429689L97.190078125,91.84435913861552L97.29770833333333,92.00371092126225L97.51296875,92.17373901073408L97.94348958333333,92.42418477886481L98.05111979166666,92.6114716912025L98.26638020833333,92.79778371088985L98.58927083333333,93.02022415176005L98.80453125,93.22728618274114L99.01979166666668,93.42499062740791L99.127421875,93.58029514123395L99.23505208333333,93.71012368541597L99.4503125,93.86121345306418L99.66557291666666,94.02492941441128L99.773203125,94.15963827558551L99.88083333333333,94.27690686551645L99.98846354166666,94.38367978295433L100.09609375000001,94.48412378714927L100.31135416666666,94.61704716510445L100.418984375,94.73307791358351L100.52661458333333,94.83894157462986L101.06476562499999,95.08318617649083L101.17239583333333,95.26577558690632L101.28002604166667,95.4113448740998L101.49528645833334,95.57060969488575L101.60291666666666,95.70208069627536L101.71054687499999,95.81684389628003L101.81817708333334,95.92154640431424L102.57158854166667,96.23437074408066L102.89447916666666,96.52871683911559L103.002109375,96.74080897277241L103.21736979166667,96.93893867699693L103.75552083333334,97.23442863207094L103.86315104166667,97.44694600098947L103.97078125,97.60964830846757L104.293671875,97.81265179146033L104.40130208333333,97.96951522700212L104.72419270833333,98.16862826708291L104.83182291666667,98.32303139788905L105.04708333333333,98.48544485925436L105.15471354166667,98.61772921219746L105.36997395833333,98.76668009766608L105.47760416666667,98.8907901251336L105.585234375,98.9999663787496L105.69286458333333,99.10014860761137L105.80049479166667,99.19490516256971L106.44627604166668,99.45896269113331L106.55390625,99.65181935629055L106.76916666666666,99.83628312218173L106.98442708333334,100.01558736022105L107.1996875,100.1916675918646L107.30731770833333,100.33151731064007L107.63020833333334,100.51784282279064L107.73783854166666,100.6637136708819L108.16835937500001,100.88722549616534L108.27598958333334,101.05525283409696L108.38361979166666,101.18995571917421L108.49125,101.30463467348791L108.81414062500001,101.47482690809174L109.13703124999999,101.67804577384196L109.67518229166666,101.96786327657878L109.78281249999999,102.17523963661165L109.99807291666667,102.36654264017146L110.105703125,102.51471577145675L110.21333333333334,102.63698172032646L110.42859375,102.77697090060401L110.53622395833334,102.89423420032394L110.64385416666667,102.99783271265845L110.751484375,103.09319859211836L111.18200520833334,103.28294586543356L111.28963541666667,103.42985020483502L111.50489583333332,103.58401248075546L111.61252604166667,103.70947579387116L111.72015625,103.81768821955694L111.93541666666667,103.94839227205598L112.043046875,104.05965686282666L112.3659375,104.22476429010123L112.58119791666667,104.38924523215806L113.11934895833333,104.65094272196579L113.22697916666667,104.84047477347328L113.54986979166667,105.05155012015605L113.87276041666667,105.27528361109357L114.19565104166666,105.50634415573356L114.41091145833333,105.70937965351726L114.73380208333333,105.9275780151092L114.84143229166666,106.09056270113905L115.271953125,106.31632359854667L115.37958333333333,106.48369726011529L116.45588541666666,106.90169919537132L116.67114583333333,107.21566389529879L116.77877604166667,107.43558172141398L116.88640625000001,107.59904216419092L116.99403645833334,107.728598917914L117.20929687499999,107.8692084198053L117.42455729166667,108.01633253439398L117.63981770833334,108.16725063109376L117.96270833333334,108.3515519895443L118.17796875,108.5244883434448L118.28559895833334,108.65938403662383L118.60848958333334,108.83355429283085L118.71611979166667,108.96907779258272L118.93138020833332,109.11234680733651L119.146640625,109.26014834558408L119.25427083333334,109.37970657000209L119.36190104166667,109.48229179776767L119.57716145833332,109.60545574350391L119.68479166666667,109.710118877604L120.00768229166667,109.86504000512623L120.438203125,110.08042830541947L120.54583333333333,110.24019873193532L120.76109375,110.39705485546071L120.97635416666667,110.55204761168446L121.406875,110.76646832659495L121.51450520833333,110.9254061239043L121.62213541666667,111.0510271622983L121.729765625,111.15663113698844L121.83739583333333,111.25019561440537L121.94502604166667,111.33650938510372L122.05265625,111.41844572341626L122.26791666666666,111.52781815173437L122.6984375,111.71353200704183L122.91369791666666,111.88484009321228L123.021328125,112.01752319352744L123.34421875,112.18666349873095L123.77473958333334,112.40713523902089L124.09763020833333,112.62837254997645L124.31289062500001,112.82028123883339L124.42052083333334,112.96496909075735L124.52815104166666,113.08129743216689L124.95867187500001,113.26888462379034L125.17393229166666,113.44016885667713L125.28156249999999,113.57226371748551L125.38919270833333,113.68082019738834L125.49682291666667,113.77522664039324L125.71208333333334,113.89033234056227L125.81971354166666,113.98858729066288L126.14260416666667,114.13495054989659L126.68075520833334,114.36791815548898L126.896015625,114.5655731214966L127.00364583333332,114.71306053919905L127.21890625,114.85926759304095L127.32653645833334,114.97580748907619L127.75705729166667,115.16073525155224L127.97231770833334,115.32903289668542L128.07994791666667,115.45864484110145L128.18757812500002,115.56501610603631L128.40283854166665,115.68597053789614L128.61809895833335,115.81556908718856L128.72572916666667,115.92180402536458L128.83335937500001,116.0139915378199L129.04861979166665,116.12612062072094L129.15625,116.22176809633972L129.37151041666667,116.33581560840331L129.47914062499999,116.43253536715181L129.58677083333333,116.51883146555666L129.69440104166665,116.59884861009684L129.80203125,116.67507137396356L129.90966145833335,116.74899275176776L130.4478125,116.93389030403229L130.66307291666666,117.10086666992603L130.87833333333333,117.25698679197112L130.98596354166668,117.3785877546168L131.09359375,117.47945021326821L131.63174479166668,117.67909672611741L132.062265625,117.90972692136737L132.27752604166668,118.10337313494446L132.38515625,118.24715664946852L133.0309375,118.49847031214127L133.1385677083333,118.67667649112119L133.2461979166667,118.81099342222696L133.353828125,118.91895204694977L133.46145833333335,119.01107093018439L133.89197916666666,119.17546276505576L134.10723958333332,119.32850844714514L134.21486979166664,119.44750175979816L134.86065104166667,119.68137775835147L134.96828125,119.84869595727372L135.291171875,120.02991613004733L135.50643229166667,120.19241061436612L135.61406250000002,120.31675135879702L135.72169270833334,120.41817510163676L135.936953125,120.53259366672768L136.25984375,120.68140560242456L136.36747395833333,120.79736576476944L136.47510416666665,120.8935878547485L136.69036458333335,121.00454107160101L136.79799479166667,121.09768697200553L136.90562500000001,121.18012372488282L137.01325520833333,121.25611023158531L137.12088541666668,121.32820183292449L137.228515625,121.39793173338724L137.55140624999999,121.5190504480844L137.65903645833333,121.61809983662438L137.874296875,121.73021376691264L137.98192708333335,121.82378826252818L138.08955729166667,121.90621433968168L138.41244791666668,122.03436783007176L138.520078125,122.13744452415243L138.62770833333332,122.22545038278899L139.05822916666668,122.38265694362026L139.165859375,122.5030214354074L139.27348958333334,122.60125592810964L139.811640625,122.78992000187769L140.02690104166666,122.95483944531978L140.24216145833336,123.10541758132496L140.34979166666668,123.22154393745474L140.457421875,123.31697221730458L140.7803125,123.45134929126088L140.88794270833333,123.55763572326154L140.99557291666665,123.64704301243037L141.103203125,123.72630030893788L141.2108333333333,123.79944285219017L141.3184635416667,123.8688940365271L141.42609375,123.93610564785638L141.53372395833335,124.00195100841881L141.748984375,124.09242299000695L142.071875,124.22298002322678L142.28713541666664,124.3520449360023L142.394765625,124.45481321894982L142.71765625,124.59232715279177L142.82528645833332,124.70007256983409L143.040546875,124.8151264126471L143.14817708333334,124.9093260034892L143.25580729166666,124.99099053618644L143.3634375,125.06511152703467L143.47106770833332,125.13468163511497L143.68632812500002,125.22655120621924L143.79395833333334,125.30670294156654L143.90158854166668,125.37979921780119L144.22447916666667,125.49853764684751L144.54736979166665,125.64445430352839L144.87026041666667,125.8064708327376L144.97789062500001,125.92845866497099L145.19315104166668,126.05113742214385L145.30078125,126.14945281957256L145.40841145833332,126.23312769419252L145.51604166666667,126.30799574816504L145.62367187499999,126.37755720278689L145.73130208333333,126.44390994013986L145.9465625,126.53289029221719L146.48471354166668,126.70880190439613L146.69997395833332,126.86320023320171L146.91523437499998,127.00460056413445L147.13049479166668,127.13811206849455L147.238125,127.24251973821941L147.88390625,127.45050980067784L147.99153645833331,127.59944930722239L148.206796875,127.73703867909764L148.31442708333336,127.8436725011018L148.42205729166668,127.93171048622115L148.852578125,128.08054122603406L149.06783854166665,128.21770972786726L149.2830989583333,128.34779536045622L149.498359375,128.4735412436497L149.60598958333335,128.57280339029063L149.71361979166667,128.65615278803782L150.03651041666666,128.77741046628938L150.144140625,128.8738716565465L150.25177083333332,128.95543019634854L150.46703125,129.05166820272726L150.57466145833334,129.1330275620118L150.89755208333332,129.25256905566226L151.00518229166667,129.34782498085343L151.32807291666666,129.4754410825899L151.435703125,129.5754562461762L151.54333333333332,129.6588883399102L151.75859375000002,129.75573056782088L152.18911458333332,129.90714076714593L152.29674479166667,130.02125908567635L152.404375,130.1129820194639L152.61963541666665,130.21445439488477L152.727265625,130.29852449261617L153.26541666666668,130.4645825654823L153.48067708333332,130.6103139185245L153.80356770833333,130.76674107094615L153.91119791666665,130.883549962471L154.23408854166667,131.02236930930917L154.34171875,131.12853024172367L154.87986979166666,131.30625607456315L155.09513020833333,131.45835563795097L155.20276041666668,131.57231589807864L155.310390625,131.6633723199842L155.41802083333334,131.74066618269052L155.52565104166666,131.80968000291506L155.63328125,131.87370554138454L155.74091145833333,131.93471785453497L156.06380208333331,132.03899242433928L156.17143229166666,132.1240708805304L156.2790625,132.19760916159143L156.38669270833336,132.26420533200456L156.601953125,132.3490464183113L156.81721354166666,132.44474892769782L156.92484375,132.52454010308003L157.247734375,132.63939777857192L157.3553645833333,132.7305987778572L157.67825520833335,132.85205702180272L158.00114583333334,132.9914850554542L158.43166666666664,133.1635942371692L158.96981770833332,133.37696830677027L159.07744791666667,133.52695279156885L159.185078125,133.63888326921992L159.61559895833332,133.79360264163077L159.93848958333334,133.95189351399756L160.476640625,134.15556316076228L160.79953125,134.34274479944614L161.12242187500001,134.51985132688745L161.33768229166668,134.6692160760033L161.4453125,134.78035383205122L161.76820312499999,134.91147841990795L162.19872395833335,135.07579891595722L162.62924479166668,135.25972185945102L163.05976562499998,135.45509342463666L163.16739583333333,135.5935224235516L163.705546875,135.7823152807133L163.92080729166668,135.93774653524815L164.0284375,136.05205604973332L164.24369791666666,136.16268251315492L164.351328125,136.25005063487035L164.56658854166668,136.34439747712278L165.32,136.54713653607925L166.288671875,136.85528616458433L166.39630208333332,137.06080132186565L166.6115625,137.22530941057792L166.71919270833334,137.34458562727428L167.04208333333332,137.4777484114954L167.14971354166667,137.5781409218255L167.36497395833334,137.67930984021288L167.79549479166667,137.82165294600165L168.01075520833334,137.94776490134578L168.44127604166667,138.10462369006424L168.54890625,138.21899072790075L168.65653645833333,138.3078424589421L168.76416666666665,138.38136700033658L168.871796875,138.44567722237318L169.30231770833333,138.56485853660826L169.40994791666668,138.6564682931079L169.62520833333332,138.7515843169117L169.73283854166667,138.82870088244323L170.163359375,138.9549740696689L170.70151041666668,139.13032678843481L170.809140625,139.25540306454963L171.23966145833333,139.4097183511569L171.56255208333334,139.5615683546462L171.88544270833333,139.7117748874405L171.99307291666668,139.82156314000858L172.20833333333331,139.9267062392307L172.31596354166666,140.00940016424988L172.63885416666668,140.11773493299683L172.85411458333334,140.22178987508892L173.71515625,140.43972569301752L174.038046875,140.62850563098507L174.14567708333334,140.7610778152616L174.3609375,140.87917555211013L174.57619791666664,140.98851884891903L174.683828125,141.07333902065147L175.6525,141.29637562422965L175.76013020833332,141.44923622571832L176.19065104166668,141.61693384036963L176.40591145833332,141.75543837866513L176.51354166666667,141.8574582033882L176.621171875,141.9375691943981L176.72880208333333,142.0045168796103L177.05169270833335,142.10122748122637L177.26695312500001,142.1968607253692L177.37458333333333,142.27302048113114L177.48221354166668,142.3374758875986L177.58984375,142.39489292961576L177.69747395833332,142.448068947393L177.80510416666667,142.49868234505652L177.91273437499999,142.54774241577823L178.12799479166665,142.61451075644536L178.235625,142.67321202695615L178.34325520833335,142.72705504980334L178.45088541666667,142.7779673691788L178.558515625,142.8271032609015L178.66614583333333,142.87515529046271L178.77377604166668,142.92254124785353L178.88140625,142.9695095563723L179.09666666666666,143.03471449433525L179.850078125,143.2028833756969L180.17296875,143.3588367341037L180.28059895833331,143.4707249150023L180.495859375,143.57444063993364L180.60348958333336,143.65493672543013L181.03401041666666,143.7761299259657L181.141640625,143.8670292210645L181.24927083333333,143.93973416733147L181.6797916666667,144.05585206040183L181.787421875,144.14360488969152L181.89505208333335,144.214320675143L182.00268229166667,144.274798479418L182.1103125,144.32911774011356L182.32557291666666,144.39772493747515L182.433203125,144.45687006800955L182.86372395833334,144.56412059536825L182.97135416666669,144.64637069883696L183.078984375,144.71360479309806L183.29424479166667,144.78966154800148L183.61713541666666,144.8887496362157L184.04765625000002,145.01924346469505L184.15528645833334,145.11525724244217L184.26291666666668,145.19056948557255L184.47817708333332,145.27111301840202L184.6934375,145.35473230555667L184.80106770833333,145.42252457857137L185.55447916666668,145.58609920958185L185.87736979166667,145.73667170598313L186.09263020833333,145.86188749108734L186.73841145833333,146.0412478295382L187.06130208333332,146.20076396213963L187.16893229166666,146.31374210846374L187.49182291666668,146.43323874195835L187.92234375,146.57366060584536L188.13760416666668,146.69218057415733L188.245234375,146.7804023478241L188.568125,146.88457026082145L188.67575520833336,146.96411778180521L188.78338541666668,147.02887731270724L188.99864583333334,147.10174892859945L189.21390625,147.17942477599158L189.7520572916667,147.3106395821519L189.96731770833335,147.42310302617136L190.07494791666667,147.50742530310842L190.182578125,147.57484712492243L190.39783854166666,147.64891099004188L190.61309895833332,147.7268981869985L190.72072916666664,147.7904413118046L190.828359375,147.84530336379498L190.93598958333334,147.89494101722235L191.25888020833332,147.97479147208497L191.474140625,148.05600529699933L191.58177083333334,148.12136173563596L191.68940104166666,148.17718798763244L191.79703125,148.22728149811937L191.90466145833332,148.27391960882701L192.22755208333334,148.3515584606492L192.765703125,148.48059715318314L193.30385416666667,148.6400965078307L193.41148437500001,148.75216543424176L193.51911458333333,148.83576147418546L193.94963541666667,148.9511881632412L194.05726562499999,149.0367234624483L194.16489583333333,149.10431042356885L194.91830729166668,149.25829656448124L195.0259375,149.3668336183771L195.24119791666666,149.46420157548704L195.34882812499998,149.53872383052507L195.56408854166668,149.61559400581956L195.994609375,149.7258530758861L196.20986979166668,149.82398753519615L196.42513020833331,149.91478983529862L196.640390625,150.00113319642665L196.74802083333336,150.0688482593486L197.17854166666666,150.17296718682783L197.6090625,150.29869548598242L197.7166927083333,150.38991097133942L197.8243229166667,150.4604030135443L197.931953125,150.5184474856806L198.14721354166667,150.58472764866465L198.25484375,150.6402011046921L198.79299479166664,150.7517947773083L198.900625,150.8343696873105L199.11588541666669,150.91510928294855L199.33114583333332,150.99469029721448L199.43877604166667,151.0579855899274L199.54640625,151.1114959455312L199.65403645833334,151.1591207093441L199.869296875,151.21868877995672L200.08455729166667,151.2853665672436L200.515078125,151.38707607654152L200.73033854166667,151.47886879947484L200.94559895833333,151.56465405783575L201.26848958333335,151.66208330435714L201.37611979166667,151.7358332077503L201.806640625,151.84110740180103L202.12953124999999,151.94989353065117L202.34479166666665,152.04550909442608L202.452421875,152.11803011965742L202.56005208333335,152.17667979223725L202.66768229166667,152.22699314904875L202.99057291666668,152.30246742181828L203.098203125,152.36281927133808L203.20583333333332,152.41408416273072L203.31346354166666,152.45988337506975L203.42109374999998,152.50238855045114L203.52872395833333,152.54290379948065L203.85161458333334,152.6121672298882L203.95924479166666,152.66868228987596L204.066875,152.7175348234345L204.28213541666668,152.7766917008213L204.389765625,152.82708768693914L204.49739583333331,152.87221363411828L204.60502604166666,152.9141640537569L204.82028645833336,152.9690423703222L205.035546875,153.03162340833418L205.3584375,153.11354900855028L205.57369791666665,153.1922222496313L205.681328125,153.2541648784896L205.7889583333333,153.30605451048882L205.8965885416667,153.3518999655434L206.54236979166666,153.4673892045898L206.65,153.5512998946314L206.972890625,153.64541559808532L207.08052083333334,153.71644815006204L207.18815104166669,153.773616181627L207.29578125,153.8224531221157L207.83393229166666,153.92423558219366L208.69497395833332,154.10058009199008L208.80260416666667,154.22073723697935L208.910234375,154.30716845890694L209.233125,154.40195697180172L209.44838541666667,154.4873846625069L209.77127604166668,154.5813752460969L209.87890625,154.6519872442852L209.98653645833332,154.70855971240326L210.09416666666667,154.75669608364993L210.30942708333333,154.81392204926954L210.41705729166665,154.86241113183326L210.73994791666667,154.93388519123152L211.27809895833332,155.0471443963396L211.38572916666666,155.12913638639284L211.60098958333333,155.2063651272178L211.70861979166668,155.26669945151727L211.92388020833334,155.33085594387026L212.67729166666666,155.4667914815168L212.784921875,155.56222159422458L212.89255208333336,155.63333607313993L213.21544270833334,155.7174974706896L213.32307291666666,155.78179895449694L213.64596354166665,155.86172063298682L213.75359375,155.92342764469333L213.8612239583333,155.97419347750056L213.9688541666667,156.018382224139L214.18411458333335,156.07231682954267L214.29174479166667,156.11836857790323L214.50700520833334,156.1733444606686L214.722265625,156.23362418341185L214.93752604166664,156.29703669482498L215.04515625,156.34868740963853L215.368046875,156.4204131894484L215.58330729166667,156.49054253845463L215.6909375,156.54614908284873L215.79856770833334,156.5930284402982L216.22908854166667,156.67509511507595L216.44434895833334,156.75123093979533L216.87486979166667,156.85055440303373L217.09013020833333,156.93689575487883L217.305390625,157.01539832457112L217.41302083333335,157.07583074010932L217.84354166666668,157.16528989603137L218.16643229166667,157.25873631717522L218.27406249999999,157.32803601295058L218.48932291666665,157.39604463080252L218.596953125,157.45004675881128L218.81221354166667,157.50880368837602L218.91984375,157.5572176669248L219.02747395833333,157.59941349603483L219.242734375,157.6509898663228L219.35036458333332,157.69504711933672L219.45799479166666,157.73458052315706L220.10377604166666,157.8366427995442L220.21140625,157.91089594162824L220.31903645833333,157.96845009895307L220.42666666666668,158.0159736119413L220.534296875,158.05746748484643L220.8571875,158.12122995629892L221.07244791666668,158.18533781062803L221.39533854166666,158.2624897405852L221.825859375,158.36019805375085L222.25638020833335,158.47005113835888L222.36401041666667,158.54874019157594L222.471640625,158.60871957247727L222.57927083333334,158.65746077115998L223.00979166666664,158.73760498542984L223.117421875,158.79838656603187L223.22505208333334,158.8475393129521L223.33268229166669,158.88970238083402L223.4403125,158.92766151316L223.65557291666667,158.97572243926146L223.87083333333334,159.02979830235572L223.97846354166666,159.07484546835917L224.30135416666667,159.1396111915153L224.40898437500002,159.19102613428336L224.62424479166668,159.24695235724957L224.83950520833332,159.30553920906212L225.054765625,159.36567629890996L225.16239583333333,159.41423303662899L225.59291666666667,159.4931536050389L226.0234375,159.59010904012123L226.23869791666667,159.67301520195403L226.34632812499999,159.73510846922377L226.77684895833335,159.82164792475845L226.992109375,159.89814582477908L227.09973958333333,159.95631423524557L227.20736979166668,160.00347482384666L227.53026041666666,160.0684789070398L227.85315104166668,160.14408893100634L228.06841145833334,160.2138041024638L228.71419270833331,160.32841059302436L228.82182291666666,160.4092652274652L228.929453125,160.46985749475314L229.14471354166668,160.53033806792936L229.25234375,160.57867213801518L229.575234375,160.64374448841647L229.898125,160.71876077637324L230.0057552083333,160.77573862630774L230.32864583333335,160.84576542290736L230.43627604166667,160.89970681479934L230.54390625,160.94398458503753L230.65153645833334,160.9824540541504L230.97442708333332,161.04117888633763L231.1896875,161.10012036895617L231.512578125,161.1709641084226L231.62020833333332,161.22527412843866L231.83546875,161.2814373087217L232.158359375,161.35041825621553L232.58888020833334,161.43870008049694L232.69651041666668,161.50336491798333L232.804140625,161.55384943525974L232.91177083333332,161.59581450692903L233.01940104166667,161.63265778310102L233.23466145833333,161.67805958004993L233.34229166666665,161.7169322562945L233.449921875,161.75187733198348L233.55755208333335,161.78445459385796L234.20333333333332,161.87343943082342L234.41859374999999,161.9498909664932L234.52622395833333,162.00727644976675L234.63385416666665,162.05321104812145L234.741484375,162.09226498739184L234.84911458333335,162.12718040307865L234.95674479166667,162.15960257648234L235.064375,162.1905164256869L235.27963541666668,162.23195656648346L235.49489583333332,162.27967084435514L235.60252604166666,162.3197081902274L235.71015624999998,162.355129248767L235.92541666666668,162.39914655082808L236.033046875,162.43692407333384L236.14067708333334,162.47094759997347L236.3559375,162.5140431071343L236.78645833333331,162.58513940549275" style="fill: none;" fill="none"></path></g></g></g></g><g opacity="0.2"><g><g><g><path stroke="rgb(255, 112, 67)" stroke-width="2px" d="M21.633671875,0.17619782437880405L21.9565625,0.7091851967076439L22.064192708333334,0.886517552038036L22.709973958333336,1.9470906257629395L22.817604166666666,2.1232751260201113L23.14049479166667,2.6508833343784057L23.248124999999998,2.8264151327311993L23.571015625,3.352087742338589L23.67864583333333,3.526989345749215L23.786276041666667,3.7017108934621126L24.001536458333334,4.050703849643469L24.109166666666667,4.224975258111966L24.432057291666666,4.7467766702175265L24.5396875,4.920384123300521L25.185468750000002,5.958720318352191L25.508359375,6.475750254467142L25.615989583333334,6.647770966713622L25.723619791666664,6.8196341302245855L25.83125,6.991339745000011L25.938880208333334,7.16288781103988L26.692291666666666,8.35931290872395L26.799921875,8.529600584879525L26.907552083333336,8.69973071229954L27.1228125,9.03952957441409L27.230442708333335,9.209187055627515L27.445703124999998,9.548051878809929L27.76859375,10.055167498067021L28.091484375,10.560876432185367L28.199114583333333,10.729138481741153L28.306744791666667,10.897254236042507L28.414375,11.065201188127197L28.62963541666667,11.4006449530522L28.737265625,11.568130512411406L28.844895833333332,11.735469776516162L28.952526041666665,11.90265149188538L29.16778645833333,12.23655352989833L29.275416666666665,12.403273852542043L29.921197916666667,13.400366039325803L30.136458333333334,13.731510974466808L30.244088541666667,13.89685837241511L30.459348958333333,14.227080522105105L30.566979166666666,14.391966527327902L30.782239583333336,14.721288398529097L31.21276041666667,15.378109076991677L31.320390624999998,15.541937254990138L31.858541666666667,16.35881619527936L32.2890625,17.009616261348143L32.39669270833333,17.171936472877867L32.71958333333333,17.658019335940494L33.04247395833334,18.142763034751027L33.150104166666665,18.30403667253752L33.36536458333334,18.62615631582836L33.903515625000004,19.428867123400167L34.11877604166666,19.748916126166776L34.65692708333333,20.546461585909142L35.08744791666667,21.18186688981951L35.195078125,21.34034966429074L35.41033854166667,21.656876327469952L35.625598958333335,21.972829063112542L35.73322916666667,22.130580361311637L35.840859375,22.288196617737427L36.27138020833333,22.917187437415123L36.37901041666667,23.074072217568755L37.024791666666665,24.012364965553097L37.132421875,24.16824818588794L37.34768229166667,24.479575740794353L37.4553125,24.6350200753659L37.778203125,25.100509067997336L38.53161458333334,26.18165350519122L38.746874999999996,26.489278664812446L38.854505208333336,26.642877428481974L39.069765625,26.949647323538862L39.28502604166666,27.255854544540256L39.500286458333335,27.561499091486134L39.93080729166667,28.171100163211428L40.0384375,28.323157199968904L40.146067708333334,28.47506794147195L40.46895833333333,28.92995615489781L40.576588541666666,29.08130422234536L40.68421875,29.232517248019583L40.79184895833333,29.38359523192048L41.007109375,29.685323567440108L41.11473958333334,29.835973919058837L41.43763020833334,30.28711472327511L41.545260416666665,30.43721365431945L41.652890625,30.587177543590464L41.975781250000004,31.0362364538014L42.08341145833333,31.185648922498025L42.19104166666666,31.334926349421345L42.298671875000004,31.484068734571338L42.6215625,31.930651878938086L43.05208333333333,32.5241942331195L43.15971354166667,32.67223377712072L43.37497395833333,32.96790773980321L43.48260416666667,33.115542158484466L43.590234375,33.26304153539242L43.697864583333335,33.41040587052704L43.913125,33.70471816199521L44.12838541666667,33.99850153985124L44.34364583333333,34.29173349713286L44.55890625,34.58442528732122L44.774166666666666,34.876588163897395L44.881796875,35.022467039525516L45.097057291666665,35.31380841198067L45.2046875,35.45928216228884L45.31231770833333,35.60463212430478L45.41994791666667,35.74983579106629L45.527578125,35.894904416054494L45.74283854166667,36.18464779419203L45.85046875,36.329322547341384L46.28098958333334,36.9066823956867L46.926770833333336,37.76874406263234L47.14203125,38.05504387555023L47.249661458333335,38.197996846089765L47.35729166666666,38.34081477485597L47.572552083333335,38.62605676054955L47.68018229166666,38.768480817476906L47.895442708333334,39.05293505949278L48.00307291666667,39.19497649806241L48.110703125,39.336871641377606L48.218333333333334,39.4786429964006L48.756484375,40.185541665802404L48.86411458333333,40.3265365306288L48.971744791666666,40.46738510020079L49.294635416666665,40.88918807916344L49.402265625,41.02953024208546L49.50989583333334,41.169748616715275L49.617526041666665,41.309831949571766L49.83278645833333,41.58960474344592L50.693828125,42.70358683851859L50.80145833333333,42.842263486236334L51.12434895833333,43.257505685711905L51.23197916666667,43.3956646732986L51.339609375,43.53369987259309L51.55486979166667,43.80938765282433L51.770130208333335,44.08456902640562L51.985390625,44.35924399333696L52.093020833333334,44.49639016762376L52.30828125,44.77031115132073L52.52354166666667,45.043714474886656L52.631171875,45.18023045423131L52.846432291666666,45.452891048043966L53.38458333333333,46.13234247701863L53.49221354166667,46.267856896544494L53.59984375,46.403247527778156L53.70747395833333,46.5385143707196L54.35325520833334,47.34749336726964L54.568515624999996,47.61615897528827L54.78377604166667,47.88432943013808L54.891406249999996,48.01823460186522L55.214296875,48.41919613381228L55.321927083333335,48.55260615237057L55.644817708333335,48.95210473177334L55.860078125,49.21782192774117L55.967708333333334,49.35048921654622L56.290598958333334,49.74778211365143L56.505859375,50.01203635707499L57.044010416666666,50.67053380422295L57.151640625,50.80187318225703L57.25927083333334,50.9330887719989L57.366901041666665,51.06418057344854L57.90505208333333,51.71785027720034L58.012682291666664,51.848221855858974L58.22794270833333,52.1086049017807L58.55083333333333,52.4982904456556L58.65846354166666,52.62794180152318L58.76609375,52.75748062257966L58.87372395833333,52.88689565534393L59.088984375,53.14536560947696L59.30424479166667,53.403362917403385L59.51950520833333,53.66088757912318L59.62713541666667,53.789469854285336L59.734765625,53.91793959463636L60.165286458333334,54.430614433561765L60.380546875,54.686248510455094L60.59580729166667,54.94140994114181L60.7034375,55.06882185426852L60.81106770833333,55.19610997910301L60.918697916666666,55.323274315645314L61.026328125,55.450326117376484L61.13395833333333,55.57726538429658L61.241588541666665,55.70408086292446L61.88736979166667,56.46255423625311L62.21026041666667,56.840221062302604L62.317890625,56.96587743237615L63.071302083333336,57.84224227381251L63.17893229166667,57.96697585843505L63.609453125,58.46476234185199L63.717083333333335,58.58893325241903L63.82471354166666,58.71298037469388L63.93234375,58.8369037086765L64.03997395833333,58.96072576132914L64.14760416666667,59.08443527917068L64.255234375,59.20802100872002L64.36286458333333,59.33150545693935L64.47049479166667,59.45486611686648L64.578125,59.57811424198251L64.79338541666667,59.82427288778128L64.901015625,59.94718340846401L65.11627604166667,60.19266684539616L65.546796875,60.68227204804621L65.65442708333333,60.80438357157013L65.97731770833333,61.170076693718634L66.08494791666668,61.29174933147928L66.192578125,61.41330943442881L66.30020833333333,61.53474574908614L66.62309895833334,61.898424498115986L66.94598958333333,62.261090433845915L67.05361979166666,62.38175025830667L67.37651041666666,62.74308828326563L67.484140625,62.863309221963085L67.91466145833334,63.34309013560416L68.02229166666666,63.46277090720833L68.34518229166667,63.82111550619205L68.45281250000001,63.940346138551845L68.56044270833334,64.05946423610052L68.66807291666666,64.17848105231921L68.77570312499999,64.2973740802457L68.88333333333333,64.4161658268422L68.99096354166667,64.5348562921087L69.09859375,64.653422969083L69.31385416666666,64.8902412255605L69.42148437499999,65.00849280506372L69.52911458333334,65.12663184975584L69.63674479166667,65.24465835963687L70.067265625,65.71568406497438L70.17489583333334,65.83317040776213L70.28252604166667,65.95054421573877L70.39015625,66.06781674238543L70.49778645833332,66.18497673422098L70.713046875,66.41898162042101L70.92830729166667,66.65254762085776L71.14356770833332,66.88568598901232L71.25119791666667,67.00210325109462L71.57408854166667,67.35067982847492L71.68171875,67.46666945827505L71.78934895833333,67.58253529978296L72.004609375,67.81396313880882L72.21986979166667,68.04497459903361L72.650390625,68.50570336915554L72.75802083333333,68.6206126647691L73.08091145833333,68.96473286362986L73.18854166666667,69.07922578044236L73.296171875,69.19361741592488L73.40380208333333,69.30790777007739L73.51143229166667,69.42208558941881L73.6190625,69.53616212743025L73.72669270833333,69.65012613063058L73.941953125,69.87775029304127L74.04958333333333,69.99139919877054L74.15721354166668,70.1049580766509L74.26484375,70.21839316623907L74.48010416666666,70.44497075490654L74.80299479166668,70.78406064771116L75.233515625,71.2347175522397L75.55640625,71.57162426970899L75.66403645833333,71.68372019504508L75.77166666666666,71.79571483905117L76.09455729166666,72.1310685761273L76.30981770833333,72.35412382520735L76.41744791666667,72.46549952775241L76.52507812500001,72.57677394896746L76.63270833333334,72.68793583537142L76.74033854166666,72.7990076939265L76.84796874999999,72.90997827115159L76.95559895833333,73.02083631356558L77.27848958333334,73.35281400630872L77.38611979166666,73.46326692340276L77.49374999999999,73.5736185591668L77.60138020833334,73.68386891360085L77.92427083333334,74.01402354240417L78.67768229166666,74.78082449175417L79.00057291666667,75.10795193413894L79.108203125,75.21678434995313L79.32346354166667,75.4341678445538L79.43109375,75.54270766985913L79.53872395833334,75.6511462138345L79.64635416666667,75.75948347647986L79.753984375,75.86771945779522L79.96924479166667,76.08389882991712L80.076875,76.19184222072364L80.18450520833333,76.29968433020015L80.399765625,76.51507595864436L80.50739583333333,76.62261422413091L80.83028645833333,76.94465509305398L81.045546875,77.15885385250051L81.26080729166667,77.3726587401082L81.3684375,77.47940926191707L81.47606770833333,77.58606975587706L82.12184895833333,78.22395082563163L82.22947916666668,78.32991360376279L82.337109375,78.43578635404508L82.76763020833334,78.85830955579877L83.09052083333333,79.1741835170736L83.30578125,79.38427475591502L83.628671875,79.69869701812665L84.05919270833334,80.11657253218193L84.48971354166667,80.53290631932516L84.59734375000001,80.63675344300766L84.70497395833334,80.74049928536017L84.92023437499999,80.94770963303745L85.13549479166667,81.1545486158381L85.243125,81.25782181198399L85.35075520833334,81.36099372679988L85.56601562499999,81.56706747288506L85.78127604166667,81.77275860061248L85.88890625,81.87545786922176L85.99653645833334,81.97806710998218L86.10416666666666,82.0805863228937L86.31942708333334,82.2853321582079L86.42705729166667,82.38757003409167L86.5346875,82.48970662864546L86.74994791666666,82.69369848072529L87.07283854166667,82.99898291627566L87.28809895833332,83.20204072942336L87.61098958333334,83.5059297333161L87.71861979166667,83.60703100760777L87.93388020833333,83.80897472612558L88.149140625,84.01053582628568L88.36440104166667,84.21172556156914L88.57966145833333,84.41255518545707L88.68729166666667,84.5128237021466L89.01018229166667,84.81310033860306L89.22544270833333,85.01281586786111L89.33307291666667,85.11253296397626L89.76359375,85.51050106994806L89.97885416666666,85.7089337023596L90.19411458333333,85.90700622337559L90.51700520833333,86.20342291581134L90.62463541666666,86.30204842425883L90.732265625,86.40058390485744L90.83989583333334,86.49902935760717L90.94752604166668,86.59737352902691L91.05515625,86.69563892607887L91.48567708333334,87.08778898231685L91.7009375,87.283318216602L91.80856770833333,87.38095341871181L91.91619791666666,87.47848733949164L92.02382812500001,87.57594248590368L92.13145833333334,87.67329635098577L92.45434895833333,87.964851539582L92.56197916666667,88.06184529326856L92.66960937500001,88.15876027258734L93.42302083333334,88.83466685501236L93.74591145833334,89.12301480149227L94.2840625,89.60181666227679L94.39169270833334,89.69731370297572L94.49932291666667,89.79272071582577L94.82221354166666,90.07841284076373L95.03747395833334,90.26843912278613L95.14510416666667,90.36332847550511L95.252734375,90.45812780037522L95.575625,90.74198560789226L96.11377604166667,91.21334891766308L96.32903645833333,91.40129330568016L96.43666666666667,91.49512483117479L96.544296875,91.58887758230169L96.65192708333333,91.68255155906081L96.8671875,91.8696181755513L97.190078125,92.1495935320854L97.29770833333333,92.24273859523237L97.51296875,92.42878114494185L97.94348958333333,92.79985343106091L98.05111979166666,92.89240205970901L98.26638020833333,93.07725174042086L98.58927083333333,93.35388481306533L98.80453125,93.5378792292128L99.01979166666668,93.72154729440808L99.127421875,93.81325191197294L99.23505208333333,93.90486650168896L99.4503125,94.08784810453653L99.66557291666666,94.27050335643192L99.773203125,94.36170156734686L99.88083333333333,94.4528097504129L99.98846354166666,94.54383915911119L100.09609375000001,94.6347897934417L100.31135416666666,94.81643223203717L100.418984375,94.90712403630218L100.52661458333333,94.99773706619936L101.06476562499999,95.44955307928223L101.17239583333333,95.5396597025295L101.28002604166667,95.62969880489011L101.49528645833334,95.80950692606467L101.60291666666666,95.89928719835977L101.71054687499999,95.98898869628708L101.81817708333334,96.07860016636549L102.57158854166667,96.70360725373028L102.89447916666666,96.97023598166804L103.002109375,97.05894717325768L103.21736979166667,97.23613323333362L103.75552083333334,97.677663564682L103.86315104166667,97.76572205436726L103.97078125,97.85370176968476L104.293671875,98.11715701594949L104.40130208333333,98.20481038031477L104.72419270833333,98.46729782720406L104.83182291666667,98.55463609409827L105.04708333333333,98.72906505130231L105.15471354166667,98.81615574161212L105.36997395833333,98.99010642586897L105.47760416666667,99.07695516633491L105.585234375,99.16373075917362L105.69286458333333,99.25042195090404L105.80049479166667,99.33703999500722L106.44627604166668,99.85504898397873L106.55390625,99.94110435402641L106.76916666666666,100.11297877101848L106.98442708333334,100.28454371728003L107.1996875,100.45578793932992L107.30731770833333,100.54129188880324L107.63020833333334,100.79733109101653L107.73783854166666,100.88251994301876L108.16835937500001,101.2224932340905L108.27598958333334,101.30729384099445L108.38361979166666,101.39201004679003L108.49125,101.47665310495842L108.81414062500001,101.73011525999755L109.13703124999999,101.98287407246728L109.67518229166666,102.40258953068405L109.78281249999999,102.48630417666087L109.99807291666667,102.65349714551121L110.105703125,102.73697546838471L110.21333333333334,102.82038064363101L110.42859375,102.98695467102031L110.53622395833334,103.07012914990385L110.64385416666667,103.15323048116018L110.751484375,103.2362474113082L111.18200520833334,103.5675667754064L111.28963541666667,103.65020671393722L111.50489583333332,103.81525589463611L111.61252604166667,103.89767076354472L111.72015625,103.9800068580856L111.93541666666667,104.14444835080455L112.043046875,104.22655374898265L112.3659375,104.47242543101311L112.58119791666667,104.63596664524327L113.11934895833333,105.04348895667742L113.22697916666667,105.12477285073449L113.54986979166667,105.3681631401802L113.87276041666667,105.61088384749988L114.19565104166666,105.85293497269352L114.41091145833333,106.01393290019283L114.73380208333333,106.25487555749714L114.84143229166666,106.33503973018378L115.271953125,106.65496494465816L115.37958333333333,106.7347577524682L116.45588541666666,107.52870209825537L116.67114583333333,107.68661094519L116.77877604166667,107.76545846058677L116.88640625000001,107.84423282835633L116.99403645833334,107.92293404849866L117.20929687499999,108.08012267264226L117.42455729166667,108.237018706277L117.63981770833334,108.39362777614345L117.96270833333334,108.6280040272201L118.17796875,108.78389287429552L118.28559895833334,108.8617275763924L118.60848958333334,109.0948096771414L118.71611979166667,109.17236304221052L118.93138020833332,109.32725032946715L119.146640625,109.48185065295547L119.25427083333334,109.55904390662907L119.36190104166667,109.63616963941602L119.57716145833332,109.7902016621083L119.68479166666667,109.86711357875417L120.00768229166667,110.09742169640958L120.438203125,110.40351075585932L120.54583333333333,110.47985437170911L120.76109375,110.63233904074878L120.97635416666667,110.78453674602011L121.406875,111.08809939896065L121.51450520833333,111.16381281986833L121.62213541666667,111.23945871988933L121.729765625,111.31503709902366L121.83739583333333,111.39054233053078L121.94502604166667,111.46598004115123L122.05265625,111.54135023088504L122.26791666666666,111.69187679421155L122.6984375,111.99210279000302L122.91369791666666,112.14180222246796L123.021328125,112.21654784400016L123.34421875,112.44037395653625L123.77473958333334,112.73784284945577L124.09763020833333,112.9602285164098L124.31289062500001,113.10814427211879L124.42052083333334,113.18200086864333L124.52815104166666,113.25578994428118L124.95867187500001,113.55026541122545L125.17393229166666,113.69709520600735L125.28156249999999,113.77040600869805L125.38919270833333,113.84365491724263L125.49682291666667,113.91683630490053L125.71208333333334,114.06299089081585L125.81971354166666,114.1359697158138L126.14260416666667,114.35449543874711L126.68075520833334,114.71736956387758L126.896015625,114.86205557050805L127.00364583333332,114.93429166575274L127.21890625,115.07857817380379L127.32653645833334,115.15061733312905L127.75705729166667,115.43812689526628L127.97231770833334,115.58147936438522L128.07994791666667,115.65306275772552L128.18757812500002,115.7245730034386L128.40283854166665,115.86740218568592L128.61809895833335,116.00996691112715L128.72572916666667,116.08115643262862L128.83335937500001,116.15227280650288L129.04861979166665,116.29431424507248L129.15625,116.36523930976787L129.37151041666667,116.50688687649867L129.47914062499999,116.57761500527461L129.58677083333333,116.64827561316392L129.69440104166665,116.71887432690708L129.80203125,116.78940551976362L129.90966145833335,116.85987481847405L130.4478125,117.21123663242906L130.66307291666666,117.35133121876667L130.87833333333333,117.49116697503875L130.98596354166668,117.56098919858533L131.09359375,117.6307439012453L131.63174479166668,117.97856649539123L132.062265625,118.25567221424232L132.27752604166668,118.39384245531012L132.38515625,118.4628319212546L133.0309375,118.87544080615044L133.1385677083333,118.94398575959104L133.2461979166667,119.01246881888558L133.353828125,119.080889984034L133.46145833333335,119.14924925503631L133.89197916666666,119.42205051736285L134.10723958333332,119.55807697027922L134.21486979166664,119.62599172877768L134.86065104166667,120.0321917561814L134.96828125,120.09967325565715L135.291171875,120.30174638920775L135.50643229166667,120.43615234084426L135.61406250000002,120.50326247544336L135.72169270833334,120.57031071589637L135.936953125,120.70422151436408L136.25984375,120.90462350596985L136.36747395833333,120.97130600828677L136.47510416666665,121.03792098971705L136.69036458333335,121.17097089687984L136.79799479166667,121.23740582261235L136.90562500000001,121.30377885419874L137.01325520833333,121.37008999163906L137.12088541666668,121.43633923493326L137.228515625,121.50252658408135L137.55140624999999,121.70072852013011L137.65903645833333,121.76667391943434L137.874296875,121.89838466234505L137.98192708333335,121.96415000595152L138.08955729166667,122.02985345541188L138.41244791666668,122.22659806565693L138.520078125,122.29205956527342L138.62770833333332,122.35745917074381L139.05822916666668,122.61846678486715L139.165859375,122.68356817308813L139.27348958333334,122.748607667163L139.811640625,123.07291611252974L140.02690104166666,123.20221861048292L140.24216145833336,123.33128478533278L140.34979166666668,123.39573347164938L140.457421875,123.46011463707934L140.7803125,123.65291490219533L140.88794270833333,123.71706537126254L140.99557291666665,123.78115394618362L141.103203125,123.84518625369917L141.2108333333333,123.9091566670686L141.3184635416667,123.97307081303249L141.42609375,124.03692306485027L141.53372395833335,124.10071904926251L141.748984375,124.22813096238922L142.071875,124.41881557305653L142.28713541666664,124.54564230516552L142.394765625,124.60896564337115L142.71765625,124.7985980535547L142.82528645833332,124.86169069539754L143.040546875,124.98770717686664L143.14817708333334,125.0506253897523L143.25580729166666,125.11348733523238L143.3634375,125.17629301330696L143.47106770833332,125.23903679723541L143.68632812500002,125.36435556287567L143.79395833333334,125.42693054458746L143.90158854166668,125.48944363215315L144.22447916666667,125.67664529041699L144.54736979166665,125.86332928854972L144.87026041666667,126.0494956265514L144.97789062500001,126.11144041332105L145.19315104166668,126.23515555790314L145.30078125,126.29692591571559L145.40841145833332,126.35864000612247L145.51604166666667,126.42029782912383L145.62367187499999,126.48189938471961L145.73130208333333,126.54343904616933L145.9465625,126.66636082033315L146.48471354166668,126.97266932266454L146.69997395833332,127.09479772641014L146.91523437499998,127.21670106053352L147.13049479166668,127.33837932503472L147.238125,127.3991312428067L147.88390625,127.76249489436547L147.99153645833331,127.82285856703918L148.206796875,127.94342273691049L148.31442708333336,128.0036232341081L148.42205729166668,128.06376746390015L148.852578125,128.30378733575344L149.06783854166665,128.42346248061705L149.2830989583333,128.54292380933958L149.498359375,128.66216006843993L149.60598958333335,128.72169661025205L149.71361979166667,128.78117688465863L150.03651041666666,128.95929698366672L150.144140625,129.0185634419322L150.25177083333332,129.07776800605157L150.46703125,129.19602521229535L150.57466145833334,129.25506660093865L150.89755208333332,129.43188129613796L151.00518229166667,129.49070886864016L151.32807291666666,129.66686523519456L151.435703125,129.72547899155566L151.54333333333332,129.78403648051122L151.75859375000002,129.9009939096868L152.18911458333332,130.13425606613356L152.29674479166667,130.19243656347194L152.404375,130.25056642014533L152.61963541666665,130.366662958016L152.727265625,130.42462963921326L153.26541666666668,130.71366967478147L153.48067708333332,130.82891094808778L153.80356770833333,131.00138179957867L153.91119791666665,131.05876329975823L154.23408854166667,131.23059832956642L154.34171875,131.28777164034545L154.87986979166666,131.57284482382238L155.09513020833333,131.68650498303273L155.20276041666668,131.74325628827015L155.310390625,131.79995695284256L155.41802083333334,131.85660697675L155.52565104166666,131.91320073325187L155.63328125,131.96974384908876L155.74091145833333,132.02623632426062L156.06380208333331,132.19540427904576L156.17143229166666,132.2516885648171L156.2790625,132.3079165831829L156.38669270833336,132.36409958762428L156.601953125,132.47630804777145L156.81721354166666,132.58830269177756L156.92484375,132.6442268661534L157.247734375,132.8116842918098L157.3553645833333,132.8674002767851L157.67825520833335,133.03424438772103L158.00114583333334,133.20062710593143L158.43166666666664,133.4217580097417L158.96981770833332,133.69702941117188L159.07744791666667,133.7519295187667L159.185078125,133.80677898569652L159.61559895833332,134.02568170024702L159.93848958333334,134.18932982254773L160.476640625,134.46106763090938L160.79953125,134.6235172574719L161.12242187500001,134.7855111180494L161.33768229166668,134.89326319967708L161.4453125,134.94706046612313L161.76820312499999,135.108165301693L162.19872395833335,135.3222796600312L162.62924479166668,135.53560627469173L163.05976562499998,135.7481507724151L163.16739583333333,135.80116592192402L163.705546875,136.06550456645587L163.92080729166668,136.17089341705045L164.0284375,136.22352032146105L164.24369791666666,136.32862220828733L164.351328125,136.38110281744352L164.56658854166668,136.48591774050146L165.32,136.8512451245139L166.288671875,137.31751060734192L166.39630208333332,137.36907405778766L166.6115625,137.47207154364636L166.71919270833334,137.52349995231876L167.04208333333332,137.67749258782715L167.14971354166667,137.72872968732068L167.36497395833334,137.8310632177939L167.79549479166667,138.03516760468483L168.01075520833334,138.136932834362L168.44127604166667,138.33991187314192L168.54890625,138.39054128465554L168.65653645833333,138.44112005550414L168.76416666666665,138.49165381242832L168.871796875,138.54214255542806L169.30231770833333,138.74363050796092L169.40994791666668,138.79388292785734L169.62520833333332,138.8942583526174L169.73283854166667,138.94437573074052L170.163359375,139.14438385050744L170.70151041666668,139.39335586658368L170.809140625,139.44301747872183L171.23966145833333,139.64119128106782L171.56255208333334,139.78934335988015L171.88544270833333,139.93708468663195L171.99307291666668,139.98624551886073L172.20833333333331,140.08442088806382L172.31596354166666,140.1334410517787L172.63885416666668,140.28023708611727L172.85411458333334,140.37787228822708L173.71515625,140.7666294199104L174.038046875,140.9116755379364L174.14567708333334,140.95993609167635L174.3609375,141.05632215738297L174.57619791666664,141.15253379413238L174.683828125,141.20056927825013L175.6525,141.6309305295969L175.76013020833332,141.67852712795138L176.19065104166668,141.86848026234657L176.40591145833332,141.96319518610835L176.51354166666667,142.01048794047287L176.621171875,142.05773568091294L176.72880208333333,142.10493840742856L177.05169270833335,142.24629338365048L177.26695312500001,142.34031059158346L177.37458333333333,142.3872601147741L177.48221354166668,142.43415899729976L177.58984375,142.48101849264154L177.69747395833332,142.5278329740589L177.80510416666667,142.57460244155178L177.91273437499999,142.6213325218608L178.12799479166665,142.71466326744607L178.235625,142.7612639327223L178.34325520833335,142.8078195840741L178.45088541666667,142.85433584824204L178.558515625,142.90080709848553L178.66614583333333,142.94723333480457L178.77377604166668,142.99362018393973L178.88140625,143.03996201915047L179.09666666666666,143.1325219012797L179.850078125,143.45513669773936L180.17296875,143.59276677171388L180.28059895833331,143.63855718635023L180.495859375,143.73001422733068L180.60348958333336,143.7756808536748L181.03401041666666,143.95791972676912L181.141640625,144.0033781637127L181.24927083333333,144.04879158673188L181.6797916666667,144.2300289000074L181.787421875,144.27523413362601L181.89505208333335,144.3203943533202L182.00268229166667,144.3655151858305L182.1103125,144.4105966311569L182.32557291666666,144.5006357335175L182.433203125,144.54558776381114L182.86372395833334,144.72499638640633L182.97135416666669,144.76974585404L183.078984375,144.81445593448976L183.29424479166667,144.90374668035656L183.61713541666666,145.03738176853707L184.04765625000002,145.2149842074141L184.15528645833334,145.2592779090628L184.26291666666668,145.30353785026819L184.47817708333332,145.39192831764618L184.6934375,145.48016123628864L184.80106770833333,145.5242129880935L185.55447916666668,145.83146115609756L185.87736979166667,145.96253045058498L186.09263020833333,146.04971116874367L186.73841145833333,146.31028833721453L187.06130208333332,146.44003816104183L187.16893229166666,146.48320932794982L187.49182291666668,146.61248369220024L187.92234375,146.7842934016759L188.13760416666668,146.8699605266253L188.245234375,146.91273500832418L188.568125,147.04082213031748L188.67575520833336,147.08343906328082L188.78338541666668,147.12601660906026L188.99864583333334,147.2110563524378L189.21390625,147.29593854707977L189.7520572916667,147.50746179139242L189.96731770833335,147.59179819220057L190.07494791666667,147.63390871851394L190.182578125,147.67597985764345L190.39783854166666,147.76000678772107L190.61309895833332,147.84387898243344L190.72072916666664,147.88575599901378L190.828359375,147.92759644178054L190.93598958333334,147.9693974973634L191.25888020833332,148.09456715437895L191.474140625,148.1778260343708L191.58177083333334,148.21939639359093L191.68940104166666,148.26092736562714L191.79703125,148.30242176384976L191.90466145833332,148.34387677488849L192.22755208333334,148.4680167383825L192.765703125,148.67415519198403L193.30385416666667,148.87934553980207L193.41148437500001,148.92026882385835L193.51911458333333,148.96115553410104L193.94963541666667,149.12432819682485L194.05726562499999,149.16502641125894L194.16489583333333,149.2056908652497L194.91830729166668,149.48927577584982L195.0259375,149.5296391992209L195.24119791666666,149.6102535111519L195.34882812499998,149.65050721308216L195.56408854166668,149.73089926876128L195.994609375,149.89124168098593L196.20986979166668,149.9711892241612L196.42513020833331,150.05099328545234L196.640390625,150.13064823811874L196.74802083333336,150.17042085373154L197.17854166666666,150.32914557804665L197.6090625,150.48728793471432L197.7166927083333,150.5267341993749L197.8243229166667,150.56614107685164L197.931953125,150.60551419388503L198.14721354166667,150.6841478931407L198.25484375,150.72341128873327L198.79299479166664,150.9191852862326L198.900625,150.95823205231378L199.11588541666669,151.03621867640564L199.33114583333332,151.11406181861335L199.43877604166667,151.1529285289968L199.54640625,151.1917614789369L199.65403645833334,151.23055785506344L199.869296875,151.3080408858756L200.08455729166667,151.38538324817395L200.515078125,151.5396403404884L200.73033854166667,151.61655788387483L200.94559895833333,151.69333194537708L201.26848958333335,151.80822717413926L201.37611979166667,151.84645806284001L201.806640625,151.99901869287714L202.12953124999999,152.11307272392636L202.34479166666665,152.18893244008845L202.452421875,152.2268116575045L202.56005208333335,152.26465430110693L202.66768229166667,152.30246318426603L202.99057291666668,152.41567883097255L203.098203125,152.4533470456178L203.20583333333332,152.4909814998197L203.31346354166666,152.52858219357827L203.42109374999998,152.56614631352326L203.52872395833333,152.6036766730249L203.85161458333334,152.71606237549955L203.95924479166666,152.7534548798576L204.066875,152.79081362377232L204.28213541666668,152.86542701690146L204.389765625,152.9026816661159L204.49739583333331,152.93990255488703L204.60502604166666,152.9770896832148L204.82028645833336,153.05135984517014L205.035546875,153.12549496535212L205.3584375,153.23643740887442L205.57369791666665,153.31023211125284L205.681328125,153.34707882177705L205.7889583333333,153.38388895848766L205.8965885416667,153.4206681481252L206.54236979166666,153.6406230631595L206.65,153.67716592969373L206.972890625,153.7865891532662L207.08052083333334,153.82299697802713L207.18815104166669,153.85936822897443L207.29578125,153.89570853284872L207.83393229166666,154.07690927231064L208.69497395833332,154.36509685668474L208.80260416666667,154.4009729544632L208.910234375,154.43681529179835L209.233125,154.54413974114382L209.44838541666667,154.6155261985647L209.77127604166668,154.7223611214819L209.87890625,154.75790524156764L209.98653645833332,154.79341841458032L210.09416666666667,154.82890064051995L210.30942708333333,154.89976099769896L210.41705729166665,154.93514475567886L210.73994791666667,155.04109628032893L211.27809895833332,155.2170332040017L211.38572916666666,155.25212437147275L211.60098958333333,155.32220823845515L211.70861979166668,155.3572009379665L211.92388020833334,155.42709068239978L212.67729166666666,155.67069478798658L212.784921875,155.7053667632863L212.89255208333336,155.74000779151297L213.21544270833334,155.84373956701407L213.32307291666666,155.87825118020797L213.64596354166665,155.98160315072164L213.75359375,156.01598816225305L213.8612239583333,156.05034222671142L213.9688541666667,156.08466534409672L214.18411458333335,156.1532187376482L214.29174479166667,156.18744620044404L214.50700520833334,156.25580828481665L214.722265625,156.32404376752675L214.93752604166664,156.39215546194464L215.04515625,156.42616348185888L215.368046875,156.52800185916325L215.58330729166667,156.59573656196395L215.6909375,156.62955889943987L215.79856770833334,156.66334747647247L216.22908854166667,156.79819512724256L216.44434895833334,156.86543467687443L216.87486979166667,156.99953959789127L217.09013020833333,157.0664077826465L217.305390625,157.13315217910954L217.41302083333335,157.16647936341664L217.84354166666668,157.29947862991443L218.16643229166667,157.39890594889098L218.27406249999999,157.43198555661365L218.48932291666665,157.49805755758038L218.596953125,157.53104995082444L218.81221354166667,157.5969390827231L218.91984375,157.629838634748L219.02747395833333,157.66270723969987L219.242734375,157.7283544217547L219.35036458333332,157.76113299885765L219.45799479166666,157.79388062888756L220.10377604166666,157.98973621412492L220.21140625,158.02227565475428L220.31903645833333,158.05478133494034L220.42666666666668,158.08725888142362L220.534296875,158.11970829420412L220.8571875,158.2168736634776L221.07244791666668,158.2814995921217L221.39533854166666,158.37821763552105L221.825859375,158.5067605234993L222.25638020833335,158.63483076527095L222.36401041666667,158.6667737714015L222.471640625,158.69868864382929L222.57927083333334,158.730572569184L223.00979166666664,158.8578213068346L223.117421875,158.88955893693492L223.22505208333334,158.92126843333244L223.33268229166669,158.95294698265693L223.4403125,158.98460021164888L223.65557291666667,159.0478138284137L223.87083333333334,159.1109120969971L223.97846354166666,159.14241621736437L224.30135416666667,159.23675977624953L224.40898437500002,159.26814854843542L224.62424479166668,159.33084169169888L224.83950520833332,159.39341948678097L225.054765625,159.45588193368167L225.16239583333333,159.48706814320758L225.59291666666667,159.61153445765376L226.0234375,159.7355421927447L226.23869791666667,159.79737444470325L226.34632812499999,159.82824837012836L226.77684895833335,159.9514571080605L226.992109375,160.01289267480993L227.09973958333333,160.04356685094535L227.20736979166668,160.07421570674828L227.53026041666666,160.16598503182954L227.85315104166668,160.25750396695608L228.06841145833334,160.31837685965002L228.71419270833331,160.5003203288652L228.82182291666666,160.5305471791265L228.929453125,160.56074589568502L229.14471354166668,160.62105892769372L229.25234375,160.65117324314392L229.575234375,160.7413530140184L229.898125,160.83128520830846L230.0057552083333,160.8612054012095L230.32864583333335,160.95080561780682L230.43627604166667,160.9806189026373L230.54390625,161.01040124039477L230.65153645833334,161.0401582578197L230.97442708333332,161.12926613461846L231.1896875,161.18853259288394L231.512578125,161.2772297176222L231.62020833333332,161.30673915846273L231.83546875,161.3656820791463L232.158359375,161.45388967745626L232.58888020833334,161.57112281691903L232.69651041666668,161.60036217421293L232.804140625,161.62957621117434L232.91177083333332,161.65876211443296L233.01940104166667,161.68792269735908L233.23466145833333,161.74616227547327L233.34229166666665,161.77524127066135L233.449921875,161.80429494551694L233.55755208333335,161.83332048666975L234.20333333333332,162.00691668627164L234.41859374999999,162.06456826999784L234.52622395833333,162.09335467467704L234.63385416666665,162.1221129456535L234.741484375,162.15084589629745L234.84911458333335,162.17955352660888L234.95674479166667,162.20823583658785L235.064375,162.23688719949374L235.27963541666668,162.29411677767834L235.49489583333332,162.35124226116264L235.60252604166666,162.37976420903578L235.71015624999998,162.40826083657643L235.92541666666668,162.46517250391966L236.033046875,162.49359035709253L236.14067708333334,162.5219828899329L236.3559375,162.57868636787558L236.78645833333331,162.69178385303044" style="fill: none;" fill="none"></path></g></g></g></g></g></g><g transform="translate(71, 174)" clip-path="url(#clip_1)"><clipPath id="clip_1"><rect width="258" height="26"></rect></clipPath><g><g><line x1="0" y1="0" x2="0" y2="5" style="visibility: inherit;" fill="rgb(0, 0, 0)" stroke="rgb(204, 204, 204)" stroke-width="1px"></line><line x1="21.526041666666664" y1="0" x2="21.526041666666664" y2="5" style="visibility: inherit;" fill="rgb(0, 0, 0)" stroke="rgb(204, 204, 204)" stroke-width="1px"></line><line x1="43.05208333333333" y1="0" x2="43.05208333333333" y2="5" style="visibility: inherit;" fill="rgb(0, 0, 0)" stroke="rgb(204, 204, 204)" stroke-width="1px"></line><line x1="64.578125" y1="0" x2="64.578125" y2="5" style="visibility: inherit;" fill="rgb(0, 0, 0)" stroke="rgb(204, 204, 204)" stroke-width="1px"></line><line x1="86.10416666666666" y1="0" x2="86.10416666666666" y2="5" style="visibility: inherit;" fill="rgb(0, 0, 0)" stroke="rgb(204, 204, 204)" stroke-width="1px"></line><line x1="107.63020833333334" y1="0" x2="107.63020833333334" y2="5" style="visibility: inherit;" fill="rgb(0, 0, 0)" stroke="rgb(204, 204, 204)" stroke-width="1px"></line><line x1="129.15625" y1="0" x2="129.15625" y2="5" style="visibility: inherit;" fill="rgb(0, 0, 0)" stroke="rgb(204, 204, 204)" stroke-width="1px"></line><line x1="150.68229166666669" y1="0" x2="150.68229166666669" y2="5" style="visibility: inherit;" fill="rgb(0, 0, 0)" stroke="rgb(204, 204, 204)" stroke-width="1px"></line><line x1="172.20833333333331" y1="0" x2="172.20833333333331" y2="5" style="visibility: inherit;" fill="rgb(0, 0, 0)" stroke="rgb(204, 204, 204)" stroke-width="1px"></line><line x1="193.734375" y1="0" x2="193.734375" y2="5" style="visibility: inherit;" fill="rgb(0, 0, 0)" stroke="rgb(204, 204, 204)" stroke-width="1px"></line><line x1="215.26041666666669" y1="0" x2="215.26041666666669" y2="5" style="visibility: inherit;" fill="rgb(0, 0, 0)" stroke="rgb(204, 204, 204)" stroke-width="1px"></line><line x1="236.78645833333331" y1="0" x2="236.78645833333331" y2="5" style="visibility: inherit;" fill="rgb(0, 0, 0)" stroke="rgb(204, 204, 204)" stroke-width="1px"></line><line x1="258.3125" y1="0" x2="258.3125" y2="5" style="visibility: inherit;" fill="rgb(0, 0, 0)" stroke="rgb(204, 204, 204)" stroke-width="1px"></line></g><g transform="translate(0, 8)"><text x="0" y="0" dx="0em" dy="0.95em" style="text-anchor: middle; visibility: hidden; font-family: Roboto, sans-serif; font-size: 12px; font-weight: 200;" fill="rgb(33, 33, 33)" stroke="none" stroke-width="1px">-20k</text><text x="21.526041666666664" y="0" dx="0em" dy="0.95em" style="text-anchor: middle; visibility: inherit; font-family: Roboto, sans-serif; font-size: 12px; font-weight: 200;" fill="rgb(33, 33, 33)" stroke="none" stroke-width="1px">0</text><text x="43.05208333333333" y="0" dx="0em" dy="0.95em" style="text-anchor: middle; visibility: hidden; font-family: Roboto, sans-serif; font-size: 12px; font-weight: 200;" fill="rgb(33, 33, 33)" stroke="none" stroke-width="1px">20k</text><text x="64.578125" y="0" dx="0em" dy="0.95em" style="text-anchor: middle; visibility: inherit; font-family: Roboto, sans-serif; font-size: 12px; font-weight: 200;" fill="rgb(33, 33, 33)" stroke="none" stroke-width="1px">40k</text><text x="86.10416666666666" y="0" dx="0em" dy="0.95em" style="text-anchor: middle; visibility: hidden; font-family: Roboto, sans-serif; font-size: 12px; font-weight: 200;" fill="rgb(33, 33, 33)" stroke="none" stroke-width="1px">60k</text><text x="107.63020833333334" y="0" dx="0em" dy="0.95em" style="text-anchor: middle; visibility: inherit; font-family: Roboto, sans-serif; font-size: 12px; font-weight: 200;" fill="rgb(33, 33, 33)" stroke="none" stroke-width="1px">80k</text><text x="129.15625" y="0" dx="0em" dy="0.95em" style="text-anchor: middle; visibility: hidden; font-family: Roboto, sans-serif; font-size: 12px; font-weight: 200;" fill="rgb(33, 33, 33)" stroke="none" stroke-width="1px">100k</text><text x="150.68229166666669" y="0" dx="0em" dy="0.95em" style="text-anchor: middle; visibility: inherit; font-family: Roboto, sans-serif; font-size: 12px; font-weight: 200;" fill="rgb(33, 33, 33)" stroke="none" stroke-width="1px">120k</text><text x="172.20833333333331" y="0" dx="0em" dy="0.95em" style="text-anchor: middle; visibility: hidden; font-family: Roboto, sans-serif; font-size: 12px; font-weight: 200;" fill="rgb(33, 33, 33)" stroke="none" stroke-width="1px">140k</text><text x="193.734375" y="0" dx="0em" dy="0.95em" style="text-anchor: middle; visibility: inherit; font-family: Roboto, sans-serif; font-size: 12px; font-weight: 200;" fill="rgb(33, 33, 33)" stroke="none" stroke-width="1px">160k</text><text x="215.26041666666669" y="0" dx="0em" dy="0.95em" style="text-anchor: middle; visibility: hidden; font-family: Roboto, sans-serif; font-size: 12px; font-weight: 200;" fill="rgb(33, 33, 33)" stroke="none" stroke-width="1px">180k</text><text x="236.78645833333331" y="0" dx="0em" dy="0.95em" style="text-anchor: middle; visibility: inherit; font-family: Roboto, sans-serif; font-size: 12px; font-weight: 200;" fill="rgb(33, 33, 33)" stroke="none" stroke-width="1px">200k</text><text x="258.3125" y="0" dx="0em" dy="0.95em" style="text-anchor: middle; visibility: hidden; font-family: Roboto, sans-serif; font-size: 12px; font-weight: 200;" fill="rgb(33, 33, 33)" stroke="none" stroke-width="1px">220k</text></g><line x1="0" y1="0" x2="258.3125" y2="0" fill="rgb(0, 0, 0)" stroke="rgb(204, 204, 204)" stroke-width="1px"></line></g></g></g></g></svg>