<svg viewBox="0 0 330 200" xmlns="http://www.w3.org/2000/svg"><g><g><g><g><g><line x1="71.6875" y1="174" x2="66.6875" y2="174" style="visibility: inherit;" fill="rgb(0, 0, 0)" stroke="rgb(204, 204, 204)" stroke-width="1px"></line><line x1="71.6875" y1="159.5" x2="66.6875" y2="159.5" style="visibility: inherit;" fill="rgb(0, 0, 0)" stroke="rgb(204, 204, 204)" stroke-width="1px"></line><line x1="71.6875" y1="145" x2="66.6875" y2="145" style="visibility: inherit;" fill="rgb(0, 0, 0)" stroke="rgb(204, 204, 204)" stroke-width="1px"></line><line x1="71.6875" y1="130.5" x2="66.6875" y2="130.5" style="visibility: inherit;" fill="rgb(0, 0, 0)" stroke="rgb(204, 204, 204)" stroke-width="1px"></line><line x1="71.6875" y1="116.00000000000001" x2="66.6875" y2="116.00000000000001" style="visibility: inherit;" fill="rgb(0, 0, 0)" stroke="rgb(204, 204, 204)" stroke-width="1px"></line><line x1="71.6875" y1="101.49999999999999" x2="66.6875" y2="101.49999999999999" style="visibility: inherit;" fill="rgb(0, 0, 0)" stroke="rgb(204, 204, 204)" stroke-width="1px"></line><line x1="71.6875" y1="87" x2="66.6875" y2="87" style="visibility: inherit;" fill="rgb(0, 0, 0)" stroke="rgb(204, 204, 204)" stroke-width="1px"></line><line x1="71.6875" y1="72.50000000000001" x2="66.6875" y2="72.50000000000001" style="visibility: inherit;" fill="rgb(0, 0, 0)" stroke="rgb(204, 204, 204)" stroke-width="1px"></line><line x1="71.6875" y1="58.00000000000001" x2="66.6875" y2="58.00000000000001" style="visibility: inherit;" fill="rgb(0, 0, 0)" stroke="rgb(204, 204, 204)" stroke-width="1px"></line><line x1="71.6875" y1="43.50000000000002" x2="66.6875" y2="43.50000000000002" style="visibility: inherit;" fill="rgb(0, 0, 0)" stroke="rgb(204, 204, 204)" stroke-width="1px"></line><line x1="71.6875" y1="28.999999999999993" x2="66.6875" y2="28.999999999999993" style="visibility: inherit;" fill="rgb(0, 0, 0)" stroke="rgb(204, 204, 204)" stroke-width="1px"></line><line x1="71.6875" y1="14.500000000000007" x2="66.6875" y2="14.500000000000007" style="visibility: inherit;" fill="rgb(0, 0, 0)" stroke="rgb(204, 204, 204)" stroke-width="1px"></line><line x1="71.6875" y1="0" x2="66.6875" y2="0" style="visibility: inherit;" fill="rgb(0, 0, 0)" stroke="rgb(204, 204, 204)" stroke-width="1px"></line></g><g transform="translate(61.6875, 0)"><text x="0" y="174" dx="0em" dy="0.3em" style="text-anchor: end; visibility: hidden; font-family: Roboto, sans-serif; font-size: 12px; font-weight: 200;" fill="rgb(33, 33, 33)" stroke="none" stroke-width="1px">1e-3</text><text x="0" y="159.5" dx="0em" dy="0.3em" style="text-anchor: end; visibility: inherit; font-family: Roboto, sans-serif; font-size: 12px; font-weight: 200;" fill="rgb(33, 33, 33)" stroke="none" stroke-width="1px">1.5e-3</text><text x="0" y="145" dx="0em" dy="0.3em" style="text-anchor: end; visibility: hidden; font-family: Roboto, sans-serif; font-size: 12px; font-weight: 200;" fill="rgb(33, 33, 33)" stroke="none" stroke-width="1px">2e-3</text><text x="0" y="130.5" dx="0em" dy="0.3em" style="text-anchor: end; visibility: inherit; font-family: Roboto, sans-serif; font-size: 12px; font-weight: 200;" fill="rgb(33, 33, 33)" stroke="none" stroke-width="1px">2.5e-3</text><text x="0" y="116.00000000000001" dx="0em" dy="0.3em" style="text-anchor: end; visibility: hidden; font-family: Roboto, sans-serif; font-size: 12px; font-weight: 200;" fill="rgb(33, 33, 33)" stroke="none" stroke-width="1px">3e-3</text><text x="0" y="101.49999999999999" dx="0em" dy="0.3em" style="text-anchor: end; visibility: inherit; font-family: Roboto, sans-serif; font-size: 12px; font-weight: 200;" fill="rgb(33, 33, 33)" stroke="none" stroke-width="1px">3.5e-3</text><text x="0" y="87" dx="0em" dy="0.3em" style="text-anchor: end; visibility: hidden; font-family: Roboto, sans-serif; font-size: 12px; font-weight: 200;" fill="rgb(33, 33, 33)" stroke="none" stroke-width="1px">4e-3</text><text x="0" y="72.50000000000001" dx="0em" dy="0.3em" style="text-anchor: end; visibility: inherit; font-family: Roboto, sans-serif; font-size: 12px; font-weight: 200;" fill="rgb(33, 33, 33)" stroke="none" stroke-width="1px">4.5e-3</text><text x="0" y="58.00000000000001" dx="0em" dy="0.3em" style="text-anchor: end; visibility: hidden; font-family: Roboto, sans-serif; font-size: 12px; font-weight: 200;" fill="rgb(33, 33, 33)" stroke="none" stroke-width="1px">5e-3</text><text x="0" y="43.50000000000002" dx="0em" dy="0.3em" style="text-anchor: end; visibility: inherit; font-family: Roboto, sans-serif; font-size: 12px; font-weight: 200;" fill="rgb(33, 33, 33)" stroke="none" stroke-width="1px">5.5e-3</text><text x="0" y="28.999999999999993" dx="0em" dy="0.3em" style="text-anchor: end; visibility: hidden; font-family: Roboto, sans-serif; font-size: 12px; font-weight: 200;" fill="rgb(33, 33, 33)" stroke="none" stroke-width="1px">6e-3</text><text x="0" y="14.500000000000007" dx="0em" dy="0.3em" style="text-anchor: end; visibility: inherit; font-family: Roboto, sans-serif; font-size: 12px; font-weight: 200;" fill="rgb(33, 33, 33)" stroke="none" stroke-width="1px">6.5e-3</text><text x="0" y="0" dx="0em" dy="0.3em" style="text-anchor: end; visibility: hidden; font-family: Roboto, sans-serif; font-size: 12px; font-weight: 200;" fill="rgb(33, 33, 33)" stroke="none" stroke-width="1px">7e-3</text></g><line x1="71.6875" y1="0" x2="71.6875" y2="174" fill="rgb(0, 0, 0)" stroke="rgb(204, 204, 204)" stroke-width="1px"></line></g></g><g transform="translate(71, 0)" clip-path="url(#clip_0)"><clipPath id="clip_0"><rect width="258" height="174"></rect></clipPath><g><g><g><line x1="0" y1="0" x2="0" y2="174" fill="rgb(0, 0, 0)" stroke="rgb(66, 66, 66)" stroke-width="1px" opacity="0.25"></line><line x1="21.526041666666664" y1="0" x2="21.526041666666664" y2="174" fill="rgb(0, 0, 0)" stroke="rgb(66, 66, 66)" stroke-width="1px" opacity="0.25"></line><line x1="43.05208333333333" y1="0" x2="43.05208333333333" y2="174" fill="rgb(0, 0, 0)" stroke="rgb(66, 66, 66)" stroke-width="1px" opacity="0.25"></line><line x1="64.578125" y1="0" x2="64.578125" y2="174" fill="rgb(0, 0, 0)" stroke="rgb(66, 66, 66)" stroke-width="1px" opacity="0.25"></line><line x1="86.10416666666666" y1="0" x2="86.10416666666666" y2="174" fill="rgb(0, 0, 0)" stroke="rgb(66, 66, 66)" stroke-width="1px" opacity="0.25"></line><line x1="107.63020833333334" y1="0" x2="107.63020833333334" y2="174" fill="rgb(0, 0, 0)" stroke="rgb(66, 66, 66)" stroke-width="1px" opacity="0.25"></line><line x1="129.15625" y1="0" x2="129.15625" y2="174" fill="rgb(0, 0, 0)" stroke="rgb(66, 66, 66)" stroke-width="1px" opacity="0.25"></line><line x1="150.68229166666669" y1="0" x2="150.68229166666669" y2="174" fill="rgb(0, 0, 0)" stroke="rgb(66, 66, 66)" stroke-width="1px" opacity="0.25"></line><line x1="172.20833333333331" y1="0" x2="172.20833333333331" y2="174" fill="rgb(0, 0, 0)" stroke="rgb(66, 66, 66)" stroke-width="1px" opacity="0.25"></line><line x1="193.734375" y1="0" x2="193.734375" y2="174" fill="rgb(0, 0, 0)" stroke="rgb(66, 66, 66)" stroke-width="1px" opacity="0.25"></line><line x1="215.26041666666669" y1="0" x2="215.26041666666669" y2="174" fill="rgb(0, 0, 0)" stroke="rgb(66, 66, 66)" stroke-width="1px" opacity="0.25"></line><line x1="236.78645833333331" y1="0" x2="236.78645833333331" y2="174" fill="rgb(0, 0, 0)" stroke="rgb(66, 66, 66)" stroke-width="1px" opacity="0.25"></line><line x1="258.3125" y1="0" x2="258.3125" y2="174" fill="rgb(0, 0, 0)" stroke="rgb(66, 66, 66)" stroke-width="1px" opacity="0.25"></line></g><g><line x1="0" y1="174" x2="258.3125" y2="174" fill="rgb(0, 0, 0)" stroke="rgb(66, 66, 66)" stroke-width="1px" opacity="0.25"></line><line x1="0" y1="159.5" x2="258.3125" y2="159.5" fill="rgb(0, 0, 0)" stroke="rgb(66, 66, 66)" stroke-width="1px" opacity="0.25"></line><line x1="0" y1="145" x2="258.3125" y2="145" fill="rgb(0, 0, 0)" stroke="rgb(66, 66, 66)" stroke-width="1px" opacity="0.25"></line><line x1="0" y1="130.5" x2="258.3125" y2="130.5" fill="rgb(0, 0, 0)" stroke="rgb(66, 66, 66)" stroke-width="1px" opacity="0.25"></line><line x1="0" y1="116.00000000000001" x2="258.3125" y2="116.00000000000001" fill="rgb(0, 0, 0)" stroke="rgb(66, 66, 66)" stroke-width="1px" opacity="0.25"></line><line x1="0" y1="101.49999999999999" x2="258.3125" y2="101.49999999999999" fill="rgb(0, 0, 0)" stroke="rgb(66, 66, 66)" stroke-width="1px" opacity="0.25"></line><line x1="0" y1="87" x2="258.3125" y2="87" fill="rgb(0, 0, 0)" stroke="rgb(66, 66, 66)" stroke-width="1px" opacity="0.25"></line><line x1="0" y1="72.50000000000001" x2="258.3125" y2="72.50000000000001" fill="rgb(0, 0, 0)" stroke="rgb(66, 66, 66)" stroke-width="1px" opacity="0.25"></line><line x1="0" y1="58.00000000000001" x2="258.3125" y2="58.00000000000001" fill="rgb(0, 0, 0)" stroke="rgb(66, 66, 66)" stroke-width="1px" opacity="0.25"></line><line x1="0" y1="43.50000000000002" x2="258.3125" y2="43.50000000000002" fill="rgb(0, 0, 0)" stroke="rgb(66, 66, 66)" stroke-width="1px" opacity="0.25"></line><line x1="0" y1="28.999999999999993" x2="258.3125" y2="28.999999999999993" fill="rgb(0, 0, 0)" stroke="rgb(66, 66, 66)" stroke-width="1px" opacity="0.25"></line><line x1="0" y1="14.500000000000007" x2="258.3125" y2="14.500000000000007" fill="rgb(0, 0, 0)" stroke="rgb(66, 66, 66)" stroke-width="1px" opacity="0.25"></line><line x1="0" y1="0" x2="258.3125" y2="0" fill="rgb(0, 0, 0)" stroke="rgb(66, 66, 66)" stroke-width="1px" opacity="0.25"></line></g></g></g><g><g><line x1="0" y1="203" x2="258.3125" y2="203" fill="rgb(0, 0, 0)" stroke="rgb(153, 153, 153)" stroke-width="1.5px"></line></g></g><g><g><line x1="21.526041666666664" y1="0" x2="21.526041666666664" y2="174" fill="rgb(0, 0, 0)" stroke="rgb(153, 153, 153)" stroke-width="1.5px"></line></g></g><g><g><g><g><g><path stroke="rgb(255, 112, 67)" stroke-width="2px" d="M31.320390624999998,-8.726050752145413L31.858541666666667,2.617607935335993L32.2890625,11.090380680321864L32.39669270833333,13.770840929067234L32.71958333333333,19.81244126632967L33.04247395833334,18.598384785196266L33.150104166666665,7.220805129378157L33.36536458333334,9.714959367204493L33.903515625000004,19.763577192496182L34.11877604166666,22.966906952546L34.65692708333333,26.35035388779015L35.08744791666667,27.227602840134068L35.195078125,22.92765646318608L35.41033854166667,23.530126280427147L35.625598958333335,25.62717584481266L35.73322916666667,35.6405742747218L35.840859375,44.42757856742351L36.27138020833333,46.558709495638716L36.37901041666667,45.78794548563652L37.024791666666665,59.46356670053308L37.132421875,51.936054277369394L37.34768229166667,35.08893651840026L37.4553125,45.45501892314519L37.778203125,36.88488795039751L38.53161458333334,45.192451428936124L38.746874999999996,36.914029201308594L38.854505208333336,42.579522297048385L39.069765625,55.90517173574199L39.28502604166666,63.718887000476286L39.500286458333335,66.62285782348809L39.93080729166667,55.533160489509676L40.0384375,64.60207750154146L40.146067708333334,66.39341602774029L40.46895833333333,58.57805189223031L40.576588541666666,60.15645701426829L40.68421875,56.785015423527746L40.79184895833333,62.93801155950508L41.007109375,47.50506906518868L41.11473958333334,60.37842874711472L41.43763020833334,65.38672208479473L41.545260416666665,70.66031885410207L41.652890625,51.42917623677766L41.975781250000004,41.4248893115456L42.08341145833333,55.045858429583L42.19104166666666,50.88874787939314L42.298671875000004,56.37767043919996L42.6215625,67.17658091611645L43.05208333333333,72.78544793145048L43.15971354166667,70.5814185387861L43.37497395833333,60.092181673465454L43.48260416666667,65.16343109656472L43.590234375,61.369026570612775L43.697864583333335,66.93666877692615L43.913125,73.62994701025292L44.12838541666667,70.8983626878703L44.34364583333333,74.2951792398956L44.55890625,71.82007587670483L44.774166666666666,69.69313870352029L44.881796875,69.65843702841713L45.097057291666665,61.68527067446062L45.2046875,76.57243333529443L45.31231770833333,69.66814720196136L45.41994791666667,60.261603984609884L45.527578125,61.41198618017173L45.74283854166667,70.58894815178238L45.85046875,77.42705314833833L46.28098958333334,85.37372627618261L46.926770833333336,87.24653446383684L47.14203125,82.56661551122313L47.249661458333335,78.27103856309918L47.35729166666666,73.12470091196695L47.572552083333335,75.90846601016999L47.68018229166666,77.73930594258118L47.895442708333334,77.11954918165571L48.00307291666667,78.68207129782179L48.110703125,72.66266994145954L48.218333333333334,79.74439837466146L48.756484375,75.7484167512087L48.86411458333333,74.70630147432254L48.971744791666666,73.53448584154229L49.294635416666665,63.3885572491585L49.402265625,72.9437421613037L49.50989583333334,72.6819814773261L49.617526041666665,75.8530349720633L49.83278645833333,69.94367333585716L50.693828125,78.38948223715839L50.80145833333333,75.84609155789502L51.12434895833333,81.8600929569333L51.23197916666667,84.56236889905509L51.339609375,89.77149999035463L51.55486979166667,80.12962433930079L51.770130208333335,70.77357853344583L51.985390625,75.12831342602672L52.093020833333334,77.56888967385831L52.30828125,80.82524515617456L52.52354166666667,86.16284337299207L52.631171875,89.03925751466836L52.846432291666666,81.83253293078711L53.38458333333333,84.85687189901812L53.49221354166667,77.20216247799958L53.59984375,88.81130848296264L53.70747395833333,85.79440557043421L54.35325520833334,91.9486657013337L54.568515624999996,84.0031056883836L54.78377604166667,75.39829841154241L54.891406249999996,79.43487557260646L55.214296875,76.10632723264966L55.321927083333335,82.16469928737327L55.644817708333335,87.55940325329212L55.860078125,84.04152255814975L55.967708333333334,81.49322098381344L56.290598958333334,83.51322426877633L56.505859375,84.86594516922364L57.044010416666666,92.99898088508446L57.151640625,91.62241418679714L57.25927083333334,97.81387130332088L57.366901041666665,87.85760259277879L57.90505208333333,93.3262846292392L58.012682291666664,98.13681222476575L58.22794270833333,90.54094326184996L58.55083333333333,93.92435890398507L58.65846354166666,105.35881461329512L58.76609375,100.37224895806463L58.87372395833333,107.27200872630686L59.088984375,105.6518684114862L59.30424479166667,105.56861296956828L59.51950520833333,99.64110696414168L59.62713541666667,104.1537949545625L59.734765625,103.26793805828353L60.165286458333334,102.39542453703676L60.380546875,104.5057279577398L60.59580729166667,107.09084140348695L60.7034375,94.75218517534888L60.81106770833333,93.94408053876731L60.918697916666666,92.12752221507891L61.026328125,99.02668553878704L61.13395833333333,102.80151672834063L61.241588541666665,103.87009117557946L61.88736979166667,102.71052401843275L62.21026041666667,99.71595681358936L62.317890625,95.9452568733666L63.071302083333336,95.59418305793248L63.17893229166667,92.92422011219766L63.609453125,97.66581884308638L63.717083333333335,94.04928310682764L63.82471354166666,93.55737183448905L63.93234375,97.34371682454486L64.03997395833333,104.65395938947402L64.14760416666667,107.38709369209171L64.255234375,114.18485159222342L64.36286458333333,112.71002143796716L64.47049479166667,100.94090766266844L64.578125,102.55981385219613L64.79338541666667,102.41444852729748L64.901015625,105.55355555209584L65.11627604166667,104.45016312386433L65.546796875,96.38970206550263L65.65442708333333,104.2021563418001L65.97731770833333,106.32020529164613L66.08494791666668,106.65784469204392L66.192578125,109.017601824297L66.30020833333333,106.91292517572253L66.62309895833334,105.24060770982271L66.94598958333333,105.78266769417384L67.05361979166666,103.92512357171333L67.37651041666666,106.34222035742376L67.484140625,100.58038616708859L67.91466145833334,84.07948733289209L68.02229166666666,86.54743485402565L68.34518229166667,96.76476870329081L68.45281250000001,97.90517022520841L68.56044270833334,102.45733972898446L68.66807291666666,101.3900108770211L68.77570312499999,91.46510813150881L68.88333333333333,101.67754043945122L68.99096354166667,100.09032259469299L69.09859375,107.08631299188774L69.31385416666666,111.81092125476026L69.42148437499999,111.82134694189206L69.52911458333334,110.2553487991117L69.63674479166667,105.65278502552644L70.067265625,106.31982234417758L70.17489583333334,107.4004257018826L70.28252604166667,109.81068583550821L70.39015625,104.37578835620145L70.49778645833332,101.47381250878371L70.713046875,106.40541643616675L70.92830729166667,106.06457904483152L71.14356770833332,107.64731666821405L71.25119791666667,103.81961073504785L71.57408854166667,105.35828157083333L71.68171875,109.73784585038507L71.78934895833333,115.04946403944304L72.004609375,111.84459182392841L72.21986979166667,109.12345547837785L72.650390625,109.76701079376201L72.75802083333333,112.64524808119336L73.08091145833333,105.65057154053805L73.18854166666667,105.5201110843084L73.296171875,106.64195645172964L73.40380208333333,102.78990027498944L73.51143229166667,102.68790136540972L73.6190625,106.51907857292917L73.72669270833333,103.83468674441592L73.941953125,109.05044839945684L74.04958333333333,107.88214153821617L74.15721354166668,110.200337663444L74.26484375,114.78396696010357L74.48010416666666,117.61011093726235L74.80299479166668,124.99845356864023L75.233515625,118.721871383472L75.55640625,118.83916980176193L75.66403645833333,127.93542228280916L75.77166666666666,117.16609244653233L76.09455729166666,123.59818042953997L76.30981770833333,118.4369587593686L76.41744791666667,117.4651620771534L76.52507812500001,123.89624560243169L76.63270833333334,129.11956575954724L76.74033854166666,126.05285285082321L76.84796874999999,117.70695540408411L76.95559895833333,115.48851570546697L77.27848958333334,109.73096081203263L77.38611979166666,110.7816969191196L77.49374999999999,112.53267740667835L77.60138020833334,113.92502941912996L77.92427083333334,97.84098662571064L78.67768229166666,99.83422725803227L79.00057291666667,86.70095118973593L79.108203125,94.14624980893099L79.32346354166667,105.4802140261612L79.43109375,108.1876006456245L79.53872395833334,107.00536761400278L79.64635416666667,106.0551861939858L79.753984375,107.12450067508402L79.96924479166667,95.20012825613131L80.076875,92.08728347352094L80.18450520833333,102.1006922640261L80.399765625,107.59325608121497L80.50739583333333,117.12982554887022L80.83028645833333,119.9836582193034L81.045546875,120.60420180182201L81.26080729166667,122.92469458994594L81.3684375,127.6991897998293L81.47606770833333,120.98752921092745L82.12184895833333,120.8019473464384L82.22947916666668,120.07871855116453L82.337109375,118.48545845339636L82.76763020833334,119.03034045839274L83.09052083333333,119.0059557872651L83.30578125,126.1981560188614L83.628671875,123.40427222314972L84.05919270833334,127.82785176911052L84.48971354166667,126.22012434409916L84.59734375000001,117.5299451984874L84.70497395833334,114.28904919701287L84.92023437499999,116.27246895582957L85.13549479166667,119.05934926808766L85.243125,113.92438897604282L85.35075520833334,120.48170607456288L85.56601562499999,128.38391802486015L85.78127604166667,127.54364190266271L85.88890625,128.22818684065783L85.99653645833334,127.10193045875099L86.10416666666666,124.01606989616553L86.31942708333334,124.80561143362165L86.42705729166667,120.01781177567626L86.5346875,113.36903989864699L86.74994791666666,122.81343258949109L87.07283854166667,128.78637805674663L87.28809895833332,122.97150529679176L87.61098958333334,129.79748821560452L87.71861979166667,128.50760934608525L87.93388020833333,122.8190041362187L88.149140625,121.25801455476527L88.36440104166667,121.79940439983393L88.57966145833333,128.4192618860256L88.68729166666667,128.84140890589066L89.01018229166667,128.33813098445955L89.22544270833333,130.96521219238892L89.33307291666667,123.11014616936596L89.76359375,128.54177406922076L89.97885416666666,127.17853829112703L90.19411458333333,125.54066639004382L90.51700520833333,120.03265561376948L90.62463541666666,123.019321128517L90.732265625,123.26604552777984L90.83989583333334,121.41082188688144L90.94752604166668,128.52831093268054L91.05515625,127.10459243384871L91.48567708333334,112.94076839463638L91.7009375,116.68700324819521L91.80856770833333,120.48468881443762L91.91619791666666,124.14108815399183L92.02382812500001,128.53679467503653L92.13145833333334,127.78852146872535L92.45434895833333,128.02858928745184L92.56197916666667,121.0392751732778L92.66960937500001,119.52323016609618L93.42302083333334,107.51350970021409L93.74591145833334,116.13156992466165L94.2840625,122.31198645917124L94.39169270833334,125.75615138880939L94.49932291666667,127.82268815828877L94.82221354166666,122.16660753618788L95.03747395833334,124.5634342669315L95.14510416666667,120.74246348523297L95.252734375,125.84065244992495L95.575625,133.55406683474732L96.11377604166667,134.84681593650552L96.32903645833333,138.4958275327025L96.43666666666667,131.1817750256621L96.544296875,129.6225875092365L96.65192708333333,129.7017680807601L96.8671875,130.22623316369598L97.190078125,135.20062313107934L97.29770833333333,132.72452700959613L97.51296875,136.10369520382267L97.94348958333333,136.93677864370454L98.05111979166666,134.12257395027703L98.26638020833333,131.850622058443L98.58927083333333,133.21250748219L98.80453125,133.33498115364853L99.01979166666668,133.12628476783124L99.127421875,129.88714408704334L99.23505208333333,128.89061040478168L99.4503125,116.64797866372595L99.66557291666666,125.55006131025152L99.773203125,119.1639132886648L99.88083333333333,124.99090905723092L99.98846354166666,126.34304558254551L100.09609375000001,132.84009391154214L100.31135416666666,137.60254974565126L100.418984375,124.67517401964199L100.52661458333333,131.8196629774018L101.06476562499999,124.87565048733018L101.17239583333333,129.18926677226224L101.28002604166667,126.94886128973481L101.49528645833334,128.34691669268318L101.60291666666666,128.37027047707386L101.71054687499999,133.73182893773168L101.81817708333334,135.3507768987432L102.57158854166667,135.1488811420688L102.89447916666666,128.06131942032508L103.002109375,131.70281939928967L103.21736979166667,133.098999807091L103.75552083333334,132.53729716321914L103.86315104166667,129.95042561668805L103.97078125,124.65977112533838L104.293671875,129.06871133048648L104.40130208333333,129.37478192522713L104.72419270833333,130.5660114653384L104.83182291666667,131.56129577264045L105.04708333333333,136.98723607066185L105.15471354166667,132.21890706824013L105.36997395833333,135.20378700871316L105.47760416666667,128.41742870720654L105.585234375,129.7443218425657L105.69286458333333,132.35229699139273L105.80049479166667,126.00666450157448L106.44627604166668,134.6516962401997L106.55390625,131.4233184458572L106.76916666666666,135.99818973551743L106.98442708333334,134.12830028048486L107.1996875,131.37425713679988L107.30731770833333,125.37906877661823L107.63020833333334,120.62302996271895L107.73783854166666,127.4236915949228L108.16835937500001,137.22175995741742L108.27598958333334,141.59069080492532L108.38361979166666,140.13737446868822L108.49125,129.59749023648743L108.81414062500001,134.44838527609494L109.13703124999999,136.8276517586087L109.67518229166666,134.677571554254L109.78281249999999,139.35116260157258L109.99807291666667,140.75574699211853L110.105703125,134.66893976282321L110.21333333333334,136.0046152202859L110.42859375,138.14254783115237L110.53622395833334,137.88697093439964L110.64385416666667,131.5897561749093L110.751484375,133.40989732907843L111.18200520833334,134.19075934911746L111.28963541666667,135.8364167933165L111.50489583333332,137.73140000995986L111.61252604166667,142.11904258472916L111.72015625,138.46919044371364L111.93541666666667,133.27102919826459L112.043046875,141.51303073896202L112.3659375,138.5155107416703L112.58119791666667,138.56552075821125L113.11934895833333,131.47706436948752L113.22697916666667,133.3702493970798L113.54986979166667,135.3714108669881L113.87276041666667,139.19980999255918L114.19565104166666,139.89393602862802L114.41091145833333,137.1858259025505L114.73380208333333,135.3031704833085L114.84143229166666,132.24955876305546L115.271953125,134.49449192589432L115.37958333333333,134.6225026584024L116.45588541666666,134.52451642819372L116.67114583333333,129.7713269425519L116.77877604166667,128.26880466688203L116.88640625000001,136.35422408579902L116.99403645833334,134.9632453888602L117.20929687499999,138.91572968557162L117.42455729166667,134.88491409805226L117.63981770833334,135.5142959626723L117.96270833333334,139.29930720834187L118.17796875,133.16248620962054L118.28559895833334,140.625391162425L118.60848958333334,136.68875416114312L118.71611979166667,133.95609309595457L118.93138020833332,137.26850799364823L119.146640625,142.14255856286275L119.25427083333334,135.0860433358597L119.36190104166667,133.3451457785754L119.57716145833332,139.51613901993267L119.68479166666667,139.62183656359096L120.00768229166667,138.20051670634376L120.438203125,136.55070824586528L120.54583333333333,143.8438493600528L120.76109375,143.6101114550853L120.97635416666667,137.4157920665815L121.406875,141.4377152368292L121.51450520833333,140.76971552639395L121.62213541666667,140.91452497687453L121.729765625,137.55757804481098L121.83739583333333,139.33196632351226L121.94502604166667,142.3770301098272L122.05265625,141.35263162879016L122.26791666666666,139.2771808581225L122.6984375,139.2598776505394L122.91369791666666,148.15066077923794L123.021328125,148.08826721081746L123.34421875,142.3271341226674L123.77473958333334,145.27888052849033L124.09763020833333,144.35340613983905L124.31289062500001,144.85693543620607L124.42052083333334,141.52814704309523L124.52815104166666,145.31226620155942L124.95867187500001,137.86448348807318L125.17393229166666,141.07321685923353L125.28156249999999,141.60264350621827L125.38919270833333,142.99719551741438L125.49682291666667,144.1925760673842L125.71208333333334,142.48511855407725L125.81971354166666,133.9421474023412L126.14260416666667,126.3939718773216L126.68075520833334,138.17684203618765L126.896015625,141.77805804675222L127.00364583333332,146.8425557939136L127.21890625,142.8576696926608L127.32653645833334,139.79706857885446L127.75705729166667,143.71836246198728L127.97231770833334,144.64766616014433L128.07994791666667,140.7832109824585L128.18757812500002,137.78006244276568L128.40283854166665,137.83143259927397L128.61809895833335,141.1603475129292L128.72572916666667,139.25072729383027L128.83335937500001,142.5068456767894L129.04861979166665,144.33585559436062L129.15625,149.76000536372294L129.37151041666667,151.3009501636924L129.47914062499999,148.26577895303976L129.58677083333333,151.57220020582025L129.69440104166665,146.90927931928485L129.80203125,142.46796577432065L129.90966145833335,147.9070560709137L130.4478125,142.47091934981933L130.66307291666666,138.75521607192155L130.87833333333333,136.8710283986735L130.98596354166668,139.7486177460556L131.09359375,143.99148844264178L131.63174479166668,141.38186962653535L132.062265625,144.69528319574496L132.27752604166668,148.51940655193988L132.38515625,142.64476886306562L133.0309375,143.19486365714286L133.1385677083333,146.5835842892445L133.2461979166667,146.80199702895683L133.353828125,136.6449371379137L133.46145833333335,138.5635344632876L133.89197916666666,140.40660099079682L134.10723958333332,141.791148221585L134.21486979166664,142.38384922956993L134.86065104166667,145.5362808394615L134.96828125,149.44170284722352L135.291171875,148.21277974816624L135.50643229166667,150.8372719296662L135.61406250000002,144.02306964822697L135.72169270833334,142.96810776935868L135.936953125,144.98415058L136.25984375,147.85762730586893L136.36747395833333,148.27533138005953L136.47510416666665,143.94233084371103L136.69036458333335,140.99484116897233L136.79799479166667,146.90878066943733L136.90562500000001,142.34574817062406L137.01325520833333,142.0723708126902L137.12088541666668,138.81420786925906L137.228515625,143.46749555467818L137.55140624999999,141.9391307288364L137.65903645833333,145.85725281783672L137.874296875,151.14153318046766L137.98192708333335,147.22131446042204L138.08955729166667,142.68738892026866L138.41244791666668,146.63304933666066L138.520078125,143.6531910867028L138.62770833333332,145.90810002881483L139.05822916666668,148.19599900915142L139.165859375,146.05016287430476L139.27348958333334,145.15701288067908L139.811640625,145.2832570066071L140.02690104166666,145.1219457516084L140.24216145833336,147.77724011713326L140.34979166666668,147.63843712232446L140.457421875,143.36894272802434L140.7803125,143.63706805803275L140.88794270833333,138.59410041867432L140.99557291666665,143.19983023806654L141.103203125,148.92109079154875L141.2108333333333,148.64435089188842L141.3184635416667,146.48573992882984L141.42609375,147.16206845594834L141.53372395833335,141.62236116202706L141.748984375,147.63990560991783L142.071875,137.1313746419443L142.28713541666664,140.24965466018878L142.394765625,140.14068340409614L142.71765625,144.6975806893338L142.82528645833332,144.96069768392616L143.040546875,149.12464555583045L143.14817708333334,148.76998403322187L143.25580729166666,150.1144591403841L143.3634375,146.788048938384L143.47106770833332,149.46913831299267L143.68632812500002,149.97361477570666L143.79395833333334,147.39974478025397L143.90158854166668,146.29616402023532L144.22447916666667,148.79955948179065L144.54736979166665,145.4819639714664L144.87026041666667,142.797732186592L144.97789062500001,135.33379394696732L145.19315104166668,134.6605030500089L145.30078125,134.31070186961858L145.40841145833332,136.48014107134443L145.51604166666667,136.97233179307878L145.62367187499999,145.65153916833938L145.73130208333333,146.67451065947498L145.9465625,146.57082336459985L146.48471354166668,144.68438163736124L146.69997395833332,146.77729524203335L146.91523437499998,153.0883227361184L147.13049479166668,144.90151036667476L147.238125,142.0643695012489L147.88390625,141.74735699687952L147.99153645833331,143.97187465634676L148.206796875,143.421758606772L148.31442708333336,143.48240533977173L148.42205729166668,144.99199919557228L148.852578125,151.35790628175826L149.06783854166665,149.6982102556878L149.2830989583333,148.48652296372373L149.498359375,146.42331275408338L149.60598958333335,149.46944914424344L149.71361979166667,148.60966464751317L150.03651041666666,152.24508609472724L150.144140625,149.58731957882054L150.25177083333332,148.02569628870134L150.46703125,152.74148451903847L150.57466145833334,155.80027999502056L150.89755208333332,148.98090828372023L151.00518229166667,152.521581603068L151.32807291666666,137.1668914767968L151.435703125,144.49932254555029L151.54333333333332,145.68594158896627L151.75859375000002,147.03984083657755L152.18911458333332,151.49368713528094L152.29674479166667,152.72172179843588L152.404375,153.13074624702693L152.61963541666665,149.60681011924365L152.727265625,150.01929338737855L153.26541666666668,149.47526705355662L153.48067708333332,150.84351072291267L153.80356770833333,148.5407219399794L153.91119791666665,152.1060177472105L154.23408854166667,141.65080512981834L154.34171875,141.24068359983696L154.87986979166666,143.2577055391832L155.09513020833333,147.61315098723256L155.20276041666668,145.91135149938157L155.310390625,146.45452008540803L155.41802083333334,149.07186676424965L155.52565104166666,150.76407029732897L155.63328125,150.79989122192464L155.74091145833333,151.55112116092684L156.06380208333331,156.10170440519894L156.17143229166666,152.77674207401301L156.2790625,154.49377943612353L156.38669270833336,153.2936964890344L156.601953125,147.31886747693912L156.81721354166666,148.33857854211865L156.92484375,150.50196223410688L157.247734375,150.41175221623615L157.3553645833333,149.32048107890267L157.67825520833335,152.49760568824698L158.00114583333334,150.79948453344278L158.43166666666664,148.66358140252453L158.96981770833332,149.21550978283537L159.07744791666667,150.25029927006634L159.185078125,153.4089562908487L159.61559895833332,156.7638251336322L159.93848958333334,148.02162799101507L160.476640625,149.1012841994997L160.79953125,150.76778984914338L161.12242187500001,152.92007356196711L161.33768229166668,154.9178716134135L161.4453125,151.14294842875623L161.76820312499999,150.692958652208L162.19872395833335,151.42300988650604L162.62924479166668,147.77929634550978L163.05976562499998,151.1902634364353L163.16739583333333,157.516755022823L163.705546875,155.98658217867862L163.92080729166668,153.50069615024717L164.0284375,153.1517610797488L164.24369791666666,152.25598810533901L164.351328125,152.21060303849114L164.56658854166668,154.48872142658908L165.32,153.46948264912533L166.288671875,154.12984382883172L166.39630208333332,150.18314141422783L166.6115625,151.5519608058946L166.71919270833334,148.20287619223694L167.04208333333332,151.52642626466155L167.14971354166667,149.84043706373453L167.36497395833334,144.20407873565603L167.79549479166667,141.8012139636257L168.01075520833334,146.14779333102575L168.44127604166667,147.40234689758938L168.54890625,151.56433419382108L168.65653645833333,151.6261967356982L168.76416666666665,149.6689430794705L168.871796875,150.66525775173838L169.30231770833333,154.84537394891402L169.40994791666668,150.3121130782379L169.62520833333332,153.25504824365754L169.73283854166667,154.93647440505373L170.163359375,157.3154841902545L170.70151041666668,152.3681364688391L170.809140625,151.82517261404482L171.23966145833333,154.08006014472954L171.56255208333334,153.74693265361617L171.88544270833333,149.06928972335476L171.99307291666668,149.67629666325044L172.20833333333331,145.71257809368723L172.31596354166666,150.39801345023784L172.63885416666668,150.73238977382047L172.85411458333334,155.43003490918554L173.71515625,153.61748456159935L174.038046875,157.6275719811005L174.14567708333334,153.1042313201417L174.3609375,146.40554121572907L174.57619791666664,152.63827995398125L174.683828125,155.77607442327428L175.6525,157.03242330894224L175.76013020833332,150.24451286283346L176.19065104166668,157.1978706691397L176.40591145833332,156.35214223295347L176.51354166666667,155.65349547314582L176.621171875,156.46982080637179L176.72880208333333,156.88263679384448L177.05169270833335,153.85770514586125L177.26695312500001,146.92672908740374L177.37458333333333,150.86641494147258L177.48221354166668,152.15662545017767L177.58984375,152.1326805330209L177.69747395833332,151.43017176549984L177.80510416666667,148.60478789813132L177.91273437499999,154.16223664444274L178.12799479166665,155.9997124678587L178.235625,154.82261045279773L178.34325520833335,156.56677945071561L178.45088541666667,149.47236992039743L178.558515625,146.9296635858325L178.66614583333333,154.4001365041499L178.77377604166668,160.7828847377458L178.88140625,160.8787042690193L179.09666666666666,159.51516626174003L179.850078125,156.75190850657077L180.17296875,149.67747423983724L180.28059895833331,151.1470468994207L180.495859375,150.32462408467987L180.60348958333336,150.67921247601424L181.03401041666666,154.57151082766006L181.141640625,154.68440609380275L181.24927083333333,155.43966928022903L181.6797916666667,155.37082321731927L181.787421875,153.13577007450868L181.89505208333335,154.64796694598024L182.00268229166667,157.84598786633566L182.1103125,159.7992185153148L182.32557291666666,155.99929557763525L182.433203125,155.5529997819542L182.86372395833334,159.7597436863261L182.97135416666669,157.35301381099686L183.078984375,155.19279534517804L183.29424479166667,158.88766776412177L183.61713541666666,160.9668540083733L184.04765625000002,158.0527915290515L184.15528645833334,156.86038044059396L184.26291666666668,156.57360499107313L184.47817708333332,157.1561490994154L184.6934375,154.79791650631776L184.80106770833333,155.71145498318225L185.55447916666668,158.27316839583366L185.87736979166667,156.15409437842757L186.09263020833333,156.4738944476252L186.73841145833333,156.02296889605554L187.06130208333332,157.01033443567118L187.16893229166666,158.39495066468095L187.49182291666668,157.98734547779964L187.92234375,157.5452743192673L188.13760416666668,150.46588856251003L188.245234375,149.40488914934375L188.568125,151.78861219681846L188.67575520833336,156.2926047503802L188.78338541666668,153.82098277120906L188.99864583333334,153.12671430868875L189.21390625,154.2924728000192L189.7520572916667,156.78663441264797L189.96731770833335,153.62261831446986L190.07494791666667,153.07009843809607L190.182578125,154.57101154780804L190.39783854166666,150.5509464395429L190.61309895833332,148.1373327875069L190.72072916666664,154.7184810551364L190.828359375,156.71382587551227L190.93598958333334,154.3564199970612L191.25888020833332,157.10017735236582L191.474140625,157.5401184590828L191.58177083333334,159.9536888741506L191.68940104166666,163.36019746694285L191.79703125,158.97778332894038L191.90466145833332,156.08204597333068L192.22755208333334,149.42056727691886L192.765703125,156.23112584410248L193.30385416666667,160.31506939460718L193.41148437500001,162.51734488147426L193.51911458333333,162.32109046876687L193.94963541666667,160.89571212507937L194.05726562499999,164.12284789176377L194.16489583333333,163.78306508252973L194.91830729166668,162.80207590574L195.0259375,160.71812433117015L195.24119791666666,159.27985086136093L195.34882812499998,159.09398353006262L195.56408854166668,160.87714242432008L195.994609375,158.14033440943652L196.20986979166668,155.60348171634135L196.42513020833331,153.31365356791113L196.640390625,154.69480601555463L196.74802083333336,157.1257411162189L197.17854166666666,154.9278422509212L197.6090625,153.73324278270178L197.7166927083333,156.96463055700048L197.8243229166667,157.47160314531615L197.931953125,160.91055864698583L198.14721354166667,159.26924860503908L198.25484375,157.97963953704618L198.79299479166664,156.44440054485787L198.900625,160.5836964269852L199.11588541666669,156.65097071091088L199.33114583333332,158.38902934668812L199.43877604166667,158.50153609382124L199.54640625,161.30244903462835L199.65403645833334,165.42949323921027L199.869296875,162.1074608501412L200.08455729166667,161.44489713678465L200.515078125,163.37017734077398L200.73033854166667,162.6654664351155L200.94559895833333,160.55947517781613L201.26848958333335,161.07055214377735L201.37611979166667,158.73778930839893L201.806640625,160.51209402888713L202.12953124999999,164.34148431642174L202.34479166666665,162.19199708296847L202.452421875,163.6242121275901L202.56005208333335,160.0320578991109L202.66768229166667,156.95594791978502L202.99057291666668,155.9441446261698L203.098203125,157.424283153018L203.20583333333332,159.05110688839892L203.31346354166666,156.29150544343614L203.42109374999998,155.4119120232059L203.52872395833333,155.34464436683317L203.85161458333334,150.55668361805834L203.95924479166666,152.3241356097785L204.066875,154.7957568747179L204.28213541666668,155.66446782021978L204.389765625,149.19472492706333L204.49739583333331,152.43435302136277L204.60502604166666,155.64523899075647L204.82028645833336,160.66008004854476L205.035546875,163.30699710732912L205.3584375,161.1723413936717L205.57369791666665,159.94856530300814L205.681328125,162.83224836139104L205.7889583333333,156.5586673335625L205.8965885416667,158.4293257670935L206.54236979166666,161.5604172398797L206.65,157.68937828467202L206.972890625,155.43010435782915L207.08052083333334,156.6213022576752L207.18815104166669,157.46192854535477L207.29578125,153.70511517758308L207.83393229166666,156.9593905435362L208.69497395833332,161.341014259017L208.80260416666667,163.71954946843178L208.910234375,161.9529853213721L209.233125,163.13483750031253L209.44838541666667,161.15731028292097L209.77127604166668,157.75479626401375L209.87890625,159.70956419591076L209.98653645833332,155.28470982869842L210.09416666666667,156.56304820558654L210.30942708333333,158.39789405424133L210.41705729166665,158.4160717358216L210.73994791666667,154.07323292337503L211.27809895833332,155.53091363798168L211.38572916666666,156.56663905607513L211.60098958333333,160.65963368618102L211.70861979166668,159.28887057045765L211.92388020833334,162.57415792563359L212.67729166666666,158.8504837160933L212.784921875,158.7154441382365L212.89255208333336,153.98433255066732L213.21544270833334,155.8194384156034L213.32307291666666,155.62671937068495L213.64596354166665,158.0054715470683L213.75359375,155.67929078019927L213.8612239583333,157.64326364138586L213.9688541666667,156.83562851042367L214.18411458333335,159.02753351608405L214.29174479166667,163.93803949567373L214.50700520833334,166.53942073643324L214.722265625,165.04962206116386L214.93752604166664,162.86515403006118L215.04515625,163.10435709670867L215.368046875,162.13281335646323L215.58330729166667,163.054259219181L215.6909375,162.5692834442326L215.79856770833334,159.32536382961086L216.22908854166667,159.72362083338388L216.44434895833334,162.22492446239406L216.87486979166667,157.7422892517484L217.09013020833333,159.0312926458798L217.305390625,158.72629024274542L217.41302083333335,158.62536854110593L217.84354166666668,159.53340263925455L218.16643229166667,159.23395948678234L218.27406249999999,159.78465217170105L218.48932291666665,155.79744738603824L218.596953125,159.01764427060004L218.81221354166667,158.26113741209576L218.91984375,160.37773994794767L219.02747395833333,162.13061355168392L219.242734375,162.1427051178501L219.35036458333332,160.48005779620328L219.45799479166666,158.2355598388542L220.10377604166666,159.57239092757874L220.21140625,160.1860549911593L220.31903645833333,162.58264028294292L220.42666666666668,160.20387070783022L220.534296875,164.57516766731766L220.8571875,164.93909939986364L221.07244791666668,161.51683486245213L221.39533854166666,162.8510530404278L221.825859375,160.40696631927958L222.25638020833335,158.1745830062608L222.36401041666667,163.0734860611606L222.471640625,162.22446321547915L222.57927083333334,159.65150317833357L223.00979166666664,161.84418042658587L223.117421875,160.89773849194538L223.22505208333334,158.4760806358325L223.33268229166669,162.11585960180864L223.4403125,161.71058861697497L223.65557291666667,161.32549037022758L223.87083333333334,156.63225420889776L223.97846354166666,160.70961841167522L224.30135416666667,160.19900021461555L224.40898437500002,160.72249880512302L224.62424479166668,162.75351906540837L224.83950520833332,160.16268247088996L225.054765625,155.2910468043906L225.16239583333333,160.01790772822633L225.59291666666667,155.81986981338045L226.0234375,159.80314910050203L226.23869791666667,160.99090593538264L226.34632812499999,159.52224917773356L226.77684895833335,161.57094034292666L226.992109375,160.70906964347284L227.09973958333333,158.48370255175544L227.20736979166668,156.86929153289384L227.53026041666666,158.97035239345425L227.85315104166668,161.00897536922452L228.06841145833334,157.70184876843666L228.71419270833331,161.137579712715L228.82182291666666,161.7225458027847L228.929453125,162.91553792182668L229.14471354166668,163.13101422644593L229.25234375,161.89001493033433L229.575234375,162.11710708216825L229.898125,164.74316535965204L230.0057552083333,167.01499873556554L230.32864583333335,165.95341426824248L230.43627604166667,166.8806308415217L230.54390625,165.77355403343932L230.65153645833334,157.4363100119835L230.97442708333332,158.72084956100022L231.1896875,162.1555504551854L231.512578125,162.88953560337876L231.62020833333332,157.09330192801627L231.83546875,157.10901002308592L232.158359375,155.77769964208224L232.58888020833334,156.7616903410555L232.69651041666668,155.40828942402905L232.804140625,156.6782581147981L232.91177083333332,158.76495456173612L233.01940104166667,163.0000965183949L233.23466145833333,166.2736698775575L233.34229166666665,164.65546624297414L233.449921875,162.02506432494232L233.55755208333335,167.35842925960992L234.20333333333332,162.27692436966404L234.41859374999999,163.79146512437228L234.52622395833333,165.83993269108748L234.63385416666665,162.81305290820015L234.741484375,162.35749251134283L234.84911458333335,160.29639900505296L234.95674479166667,164.39174173194024L235.064375,158.7587837869993L235.27963541666668,157.221961912219L235.49489583333332,159.64389201504247L235.60252604166666,161.50078176559364L235.71015624999998,162.53774869539652L235.92541666666668,162.8883584967155L236.033046875,164.61795783152573L236.14067708333334,165.33191696918243L236.3559375,165.14924598293743L236.78645833333331,164.83546428118493" style="fill: none;" fill="none"></path></g></g></g></g><g opacity="0.2"><g><g><g><path stroke="rgb(255, 112, 67)" stroke-width="2px" d="M30.566979166666666,-4.407310605049121L30.782239583333336,1.719399608671678L31.21276041666667,-14.761490028351545L31.320390624999998,-5.299153484404075L31.858541666666667,19.633095964789398L32.2890625,23.799539797008052L32.39669270833333,17.79153130203487L32.71958333333333,28.874841772019863L33.04247395833334,16.777300063520684L33.150104166666665,-9.845564354211104L33.36536458333334,13.456190723925836L33.903515625000004,34.83650393038988L34.11877604166666,27.771901592612274L34.65692708333333,31.42552429065109L35.08744791666667,28.543476268649115L35.195078125,16.477736897766597L35.41033854166667,24.433831006288536L35.625598958333335,28.772750191390514L35.73322916666667,50.66067191958428L35.840859375,57.608085006475456L36.27138020833333,49.75540588796139L36.37901041666667,44.631799470633275L37.024791666666665,79.9769985228777L37.132421875,40.6447856426239L37.34768229166667,9.818259879946721L37.4553125,61.00414253026246L37.778203125,24.02969149127604L38.53161458333334,57.653796646744006L38.746874999999996,24.49639585986735L38.854505208333336,51.077761940658085L39.069765625,75.89364589378238L39.28502604166666,75.43945989757776L39.500286458333335,70.97881405800581L39.93080729166667,38.89861448854208L40.0384375,78.20545301958919L40.146067708333334,69.08042381703854L40.46895833333333,46.85500568896533L40.576588541666666,62.52406469732523L40.68421875,51.72785303741694L40.79184895833333,72.16750576347113L41.007109375,24.355655323714032L41.11473958333334,79.6884682700038L41.43763020833334,72.89916209131479L41.545260416666665,78.57071400806308L41.652890625,22.58246231079103L41.975781250000004,26.41845892369748L42.08341145833333,75.47731210663915L42.19104166666666,44.653082054108395L42.298671875000004,64.61105427891016L42.6215625,83.37494663149118L43.05208333333333,81.19874845445156L43.15971354166667,67.27537444978952L43.37497395833333,44.35832637548447L43.48260416666667,72.77030523121357L43.590234375,55.67741978168488L43.697864583333335,75.28813208639622L43.913125,83.66986436024308L44.12838541666667,66.80098620429635L44.34364583333333,79.39040406793356L44.55890625,68.10742083191872L44.774166666666666,66.50273294374347L44.881796875,69.60638451576233L45.097057291666665,49.725521143525846L45.2046875,98.90317732654512L45.31231770833333,59.311718001961715L45.41994791666667,46.151789158582694L45.527578125,63.137559473514564L45.74283854166667,84.35439110919833L45.85046875,87.68421064317226L46.28098958333334,97.29373596794903L46.926770833333336,90.05574674531817L47.14203125,75.54673708230257L47.249661458333335,71.82767314091325L47.35729166666666,65.40519443526864L47.572552083333335,80.08411365747452L47.68018229166666,80.48556584119797L47.895442708333334,76.18991404026747L48.00307291666667,81.02585447207093L48.110703125,63.633567906916134L48.218333333333334,90.36699102446437L48.756484375,69.75444431602955L48.86411458333333,73.14312855899334L48.971744791666666,71.7767623923719L49.294635416666665,48.16966436058283L49.402265625,87.27651952952148L49.50989583333334,72.28934045135975L49.617526041666665,80.60961521416903L49.83278645833333,61.07963088154793L50.693828125,91.05819558911026L50.80145833333333,72.03100553900003L51.12434895833333,90.88109505549073L51.23197916666667,88.61578281223775L51.339609375,97.58519662730397L51.55486979166667,65.66681086272001L51.770130208333335,56.73950982466339L51.985390625,81.66041576489806L52.093020833333334,81.22975404560566L52.30828125,85.70977837964892L52.52354166666667,94.16924069821836L52.631171875,93.35387872718275L52.846432291666666,71.02244605496526L53.38458333333333,89.39338035136463L53.49221354166667,65.72009834647179L53.59984375,106.22502749040723L53.70747395833333,81.26905120164156L54.35325520833334,101.18005589768292L54.568515624999996,72.08476566895843L54.78377604166667,62.49108749628067L54.891406249999996,85.48974131420255L55.214296875,71.11350472271442L55.321927083333335,91.25225736945869L55.644817708333335,95.65145920217037L55.860078125,78.76470151543617L55.967708333333334,77.67076862230897L56.290598958333334,86.54322919622064L56.505859375,86.8950265198946L57.044010416666666,105.19853445887567L57.151640625,89.55756413936615L57.25927083333334,107.1010569781065L57.366901041666665,72.92319952696562L57.90505208333333,101.5293076839298L58.012682291666664,105.3526036180556L58.22794270833333,79.14713981747627L58.55083333333333,98.99948236718774L58.65846354166666,122.51049817726016L58.76609375,92.89240047521889L58.87372395833333,117.62164837867022L59.088984375,103.22165793925524L59.30424479166667,105.44372980669141L59.51950520833333,90.74984795600176L59.62713541666667,110.92282694019377L59.734765625,101.93915271386504L60.165286458333334,101.08665425516666L60.380546875,107.67118308879435L60.59580729166667,110.96851157210769L60.7034375,76.2442008331418L60.81106770833333,92.73192358389497L60.918697916666666,89.40268472954631L61.026328125,109.37543052434921L61.13395833333333,108.46376351267101L61.241588541666665,105.47295284643769L61.88736979166667,100.97117328271271L62.21026041666667,95.2241060063243L62.317890625,90.28920696303248L63.071302083333336,95.06757233478129L63.17893229166667,88.91927569359541L63.609453125,104.77821693941952L63.717083333333335,88.6244795024395L63.82471354166666,92.81950492598118L63.93234375,103.02323430962862L64.03997395833333,115.61932323686779L64.14760416666667,111.48679514601827L64.255234375,124.38148844242096L64.36286458333333,110.4977762065828L64.47049479166667,83.28723699972034L64.578125,104.98817313648762L64.79338541666667,102.19640053994954L64.901015625,110.26221608929337L65.11627604166667,102.79507448151708L65.546796875,84.29901047796011L65.65442708333333,115.92083775624633L65.97731770833333,109.49727871641518L66.08494791666668,107.16430379264058L66.192578125,112.55723752267659L66.30020833333333,103.75591020286083L66.62309895833334,102.73213151097299L66.94598958333333,106.59575767070055L67.05361979166666,101.13880738802254L67.37651041666666,109.9678655359894L67.484140625,91.93763488158584L67.91466145833334,59.32813908159732L68.02229166666666,90.24935613572598L68.34518229166667,112.0907694771886L68.45281250000001,99.61577250808477L68.56044270833334,109.28559398464859L68.66807291666666,99.78901759907605L68.77570312499999,76.57775401324034L68.88333333333333,116.99618890136482L68.99096354166667,97.70949582755566L69.09859375,117.58029858767988L69.31385416666666,118.89783364906907L69.42148437499999,111.83698547258973L69.52911458333334,107.90635158494116L69.63674479166667,98.74893936514856L70.067265625,107.3203783221543L70.17489583333334,109.02133073844016L70.28252604166667,113.42607603594661L70.39015625,96.22344213724136L70.49778645833332,97.12084873765707L70.713046875,113.8028223272413L70.92830729166667,105.55332295782866L71.14356770833332,110.02142310328782L71.25119791666667,98.07805183529855L71.57408854166667,107.66628782451153L71.68171875,116.3071922697127L71.78934895833333,123.01689132303L72.004609375,107.03728350065649L72.21986979166667,105.04175096005203L72.650390625,110.73234376683833L72.75802083333333,116.96260401234032L73.08091145833333,95.15855672955514L73.18854166666667,105.32442039996386L73.296171875,108.32472450286151L73.40380208333333,97.01181600987911L73.51143229166667,102.53490300104022L73.6190625,112.26584438420834L73.72669270833333,99.80809900164606L73.941953125,116.87409088201821L74.04958333333333,106.12968124635518L74.15721354166668,113.6776318512857L74.26484375,121.65941090509295L74.48010416666666,121.84932690300049L74.80299479166668,136.08096751570702L75.233515625,109.30699810571969L75.55640625,119.01511742919683L75.66403645833333,141.57980100438L75.77166666666666,101.0120976921171L76.09455729166666,133.24631240405142L76.30981770833333,110.69512625411153L76.41744791666667,116.00746705383062L76.52507812500001,133.54287089034915L76.63270833333334,136.95454599522054L76.74033854166666,121.45278348773718L76.84796874999999,105.18810923397541L76.95559895833333,112.16085615754129L77.27848958333334,101.09462847188115L77.38611979166666,112.35780107975006L77.49374999999999,115.15914813801648L77.60138020833334,116.01355743780734L77.92427083333334,73.71492243558168L78.67768229166666,102.82408820651472L79.00057291666667,67.00103708729148L79.108203125,105.3141977377236L79.32346354166667,122.48116035200657L79.43109375,112.24868057481945L79.53872395833334,105.23201806657018L79.64635416666667,104.62991406396031L79.753984375,108.72847239673139L79.96924479166667,77.31356962770224L80.076875,87.41801629960537L80.18450520833333,117.12080544978382L80.399765625,115.83210180699827L80.50739583333333,131.4346797503531L80.83028645833333,124.26440722495317L81.045546875,121.53501717559993L81.26080729166667,126.40543377213179L81.3684375,134.8609326146543L81.47606770833333,110.92003832757474L82.12184895833333,120.5235745497048L82.22947916666668,118.99387535825372L82.337109375,116.0955683067441L82.76763020833334,119.84766346588732L83.09052083333333,118.9693787805736L83.30578125,136.98645636625588L83.628671875,119.21344652958214L84.05919270833334,134.4632210880518L84.48971354166667,123.80853320658208L84.59734375000001,104.49467648006976L84.70497395833334,109.42770519480109L84.92023437499999,119.24759859405458L85.13549479166667,123.23966973647475L85.243125,106.22194853797555L85.35075520833334,130.31768172234297L85.56601562499999,140.23723595030606L85.78127604166667,126.28322771936654L85.88890625,129.2550042476505L85.99653645833334,125.41254588589074L86.10416666666666,119.38727905228735L86.31942708333334,125.98992373980582L86.42705729166667,112.83611228875816L86.5346875,103.39588208310306L86.74994791666666,136.98002162575722L87.07283854166667,137.74579625763L87.28809895833332,114.24919615685941L87.61098958333334,140.03646259382367L87.71861979166667,126.57279104180633L87.93388020833333,114.28609632141888L88.149140625,118.91653018258512L88.36440104166667,122.61148916743697L88.57966145833333,138.34904811531305L88.68729166666667,129.47462943568826L89.01018229166667,127.58321410231291L89.22544270833333,134.90583400428295L89.33307291666667,111.32754713483155L89.76359375,136.6892159190029L89.97885416666666,125.13368462398648L90.19411458333333,123.08385853841901L90.51700520833333,111.770639449358L90.62463541666666,127.49931940063834L90.732265625,123.63613212667407L90.83989583333334,118.62798642553389L90.94752604166668,139.20454450137913L91.05515625,124.96901468560101L91.48567708333334,91.69503233581781L91.7009375,122.30635552853346L91.80856770833333,126.18121716380118L91.91619791666666,129.62568716332316L92.02382812500001,135.13035445660353L92.13145833333334,126.66611165925859L92.45434895833333,128.38869101554155L92.56197916666667,110.5553040020168L92.66960937500001,117.24916265532374L93.42302083333334,89.49892900139093L93.74591145833334,129.058660261333L94.2840625,131.58261126093566L94.39169270833334,130.92239878326654L94.49932291666667,130.92249331250787L94.82221354166666,113.68248660303654L95.03747395833334,128.15867436304688L95.14510416666667,115.01100731268525L95.252734375,133.48793589696288L95.575625,145.12418841198087L96.11377604166667,136.7859395891428L96.32903645833333,143.96934492699802L96.43666666666667,120.21069626510145L96.544296875,127.28380623459815L96.65192708333333,129.8205389380455L96.8671875,131.01293078809977L97.190078125,142.6622080821544L97.29770833333333,129.01038282737136L97.51296875,141.1724474951625L97.94348958333333,138.18640380352736L98.05111979166666,129.90126691013575L98.26638020833333,128.44269422069192L98.58927083333333,135.2553356178105L98.80453125,133.51869166083634L99.01979166666668,132.81324018910527L99.127421875,125.02843306586146L99.23505208333333,127.39580988138914L99.4503125,98.28403105214238L99.66557291666666,138.9031852800399L99.773203125,109.58469125628471L99.88083333333333,133.73140271008015L99.98846354166666,128.37125037051737L100.09609375000001,142.58566640503705L100.31135416666666,144.74623349681497L100.418984375,105.28411043062806L100.52661458333333,142.53639641404152L101.06476562499999,114.45963175222278L101.17239583333333,135.6596911996603L101.28002604166667,123.58825306594372L101.49528645833334,130.4439997971058L101.60291666666666,128.40530115365982L101.71054687499999,141.77416662871838L101.81817708333334,137.7791988402605L102.57158854166667,134.8460375070572L102.89447916666666,117.42997683770956L103.002109375,137.16506936773658L103.21736979166667,135.19327041879296L103.75552083333334,131.6947431974113L103.86315104166667,126.07011829689145L103.97078125,116.72378938831389L104.293671875,135.68212163820863L104.40130208333333,129.8338878173381L104.72419270833333,132.3528557755053L104.83182291666667,133.05422223359346L105.04708333333333,145.126146517694L105.15471354166667,125.0664135646075L105.36997395833333,139.68110691942275L105.47760416666667,118.23789125494659L105.585234375,131.73466154560447L105.69286458333333,136.26425971463323L105.80049479166667,116.48821576684713L106.44627604166668,147.61924384813756L106.55390625,126.5807517543435L106.76916666666666,142.8604966700077L106.98442708333334,131.32346609793603L107.1996875,127.24319242127238L107.30731770833333,116.38628623634577L107.63020833333334,113.48897174187005L107.73783854166666,137.62468404322863L108.16835937500001,151.9188625011593L108.27598958333334,148.14408707618713L108.38361979166666,137.95739996433258L108.49125,113.78766388818622L108.81414062500001,141.7247278355062L109.13703124999999,140.39655148237944L109.67518229166666,131.4524512477219L109.78281249999999,146.36154917255044L109.99807291666667,142.86262357793748L110.105703125,125.53872891888022L110.21333333333334,138.00812840647995L110.42859375,141.34944674745202L110.53622395833334,137.5036055892706L110.64385416666667,122.14393403567375L110.751484375,136.14010906033218L111.18200520833334,135.36205237917602L111.28963541666667,138.304902959615L111.50489583333332,140.57387483492494L111.61252604166667,148.70050644688308L111.72015625,132.99441223219037L111.93541666666667,125.473787330091L112.043046875,153.87603305000812L112.3659375,134.01923074573278L112.58119791666667,138.64053578302264L113.11934895833333,120.84437978640199L113.22697916666667,136.21002693846822L113.54986979166667,138.37315307185054L113.87276041666667,144.94240868091583L114.19565104166666,140.93512508273125L114.41091145833333,133.12366071343422L114.73380208333333,132.47918735444546L114.84143229166666,127.66914118267594L115.271953125,137.86189167015254L115.37958333333333,134.81451875716448L116.45588541666666,134.37753708288074L116.67114583333333,122.64154271408916L116.77877604166667,126.0150212533772L116.88640625000001,148.4823532141745L116.99403645833334,132.87677734345198L117.20929687499999,144.84445613063872L117.42455729166667,128.83869071677327L117.63981770833334,136.4583687596023L117.96270833333334,144.97682407684624L118.17796875,123.95725471153857L118.28559895833334,151.81974859163165L118.60848958333334,130.78379865922034L118.71611979166667,129.8571014981717L118.93138020833332,142.23713034018874L119.146640625,149.4536344166845L119.25427083333334,124.50127049535513L119.36190104166667,130.7337994426489L119.57716145833332,148.77262888196856L119.68479166666667,139.7803828790784L120.00768229166667,136.06853692047298L120.438203125,134.07599555514753L120.54583333333333,154.7835610313341L120.76109375,143.25950459763408L120.97635416666667,128.1243129838258L121.406875,147.47059999220073L121.51450520833333,139.76771596074104L121.62213541666667,141.1317391525954L121.729765625,132.52215764671564L121.83739583333333,141.99354874156415L121.94502604166667,146.9446257892996L122.05265625,139.81603390723467L122.26791666666666,136.16400470212102L122.6984375,139.23392283916473L122.91369791666666,161.48683547228575L123.021328125,147.99467685818672L123.34421875,133.68543449044228L123.77473958333334,149.7065001372248L124.09763020833333,142.96519455686212L124.31289062500001,145.61222938075662L124.42052083333334,136.53496445342898L124.52815104166666,150.98844493925571L124.95867187500001,126.6928094178438L125.17393229166666,145.88631691597402L125.28156249999999,142.39678347669542L125.38919270833333,145.08902353420854L125.49682291666667,145.985646892339L125.71208333333334,139.92393228411674L125.81971354166666,121.1276906747371L126.14260416666667,115.07170858979225L126.68075520833334,155.85114727448672L126.896015625,147.17988206259906L127.00364583333332,154.43930241465569L127.21890625,136.88034054078162L127.32653645833334,135.20616690814495L127.75705729166667,149.60030328668654L127.97231770833334,146.04162170737982L128.07994791666667,134.98652821592987L128.18757812500002,133.2753396332264L128.40283854166665,137.90848783403635L128.61809895833335,146.15371988341212L128.72572916666667,136.38629696518183L128.83335937500001,147.39102325122803L129.04861979166665,147.07937047071755L129.15625,157.89623001776636L129.37151041666667,153.61236736364663L129.47914062499999,143.71302213706076L129.58677083333333,156.53183208499104L129.69440104166665,139.9148979894817L129.80203125,135.80599545687437L129.90966145833335,156.06569151580334L130.4478125,134.31671426817775L130.66307291666666,133.18166115507483L130.87833333333333,134.04474688880146L130.98596354166668,144.0650017671287L131.09359375,150.35579448752105L131.63174479166668,137.4674414023757L132.062265625,149.66540354955941L132.27752604166668,154.25559158623219L132.38515625,133.83281232975423L133.0309375,144.02000584825873L133.1385677083333,151.66666523739696L133.2461979166667,147.1296161385253L133.353828125,121.40934730134904L133.46145833333335,141.44143045134842L133.89197916666666,143.17120078206062L134.10723958333332,143.86796906776726L134.21486979166664,143.27290074154735L134.86065104166667,150.26492825429887L134.96828125,155.29983585886657L135.291171875,146.3693950995803L135.50643229166667,154.7740102019161L135.61406250000002,133.80176622606814L135.72169270833334,141.38566495105624L135.936953125,148.00821479596198L136.25984375,152.16784239467233L136.36747395833333,148.9018874913454L136.47510416666665,137.44283003918827L136.69036458333335,136.57360665686429L136.79799479166667,155.77968992013484L136.90562500000001,135.50119942240417L137.01325520833333,141.66230477578938L137.12088541666668,133.9269634541124L137.228515625,150.44742708280683L137.55140624999999,139.64658349007368L137.65903645833333,151.73443595133722L137.874296875,159.0679537244141L137.98192708333335,141.34098638035357L138.08955729166667,135.88650061003864L138.41244791666668,152.55153996124864L138.520078125,139.183403711766L138.62770833333332,149.29046344198287L139.05822916666668,151.62784747965634L139.165859375,142.83140867203474L139.27348958333334,143.81728789024055L139.811640625,145.47262319549918L140.02690104166666,144.87997886911035L140.24216145833336,151.76018166542053L140.34979166666668,147.43023263011128L140.457421875,136.96470113657415L140.7803125,144.0392560530454L140.88794270833333,131.0296489596367L140.99557291666665,150.10842496715486L141.103203125,157.50298162177205L141.2108333333333,148.22924104239792L141.3184635416667,143.24782348424196L141.42609375,148.17656124662608L141.53372395833335,133.31280022114515L141.748984375,156.66622228175402L142.071875,121.36857818998396L142.28713541666664,144.92707468755543L142.394765625,139.97722651995718L142.71765625,151.53292661719024L142.82528645833332,145.35537317581475L143.040546875,155.37056736368686L143.14817708333334,148.237991749309L143.25580729166666,152.1311718011275L143.3634375,141.79843363538384L143.47106770833332,153.49077237490565L143.68632812500002,150.73032946977764L143.79395833333334,143.53893978707492L143.90158854166668,144.6407928802073L144.22447916666667,152.55465267412364L144.54736979166665,140.50557070598006L144.87026041666667,138.77138450928032L144.97789062500001,124.13788658753037L145.19315104166668,133.65056670457125L145.30078125,133.78600009903312L145.40841145833332,139.7342998739332L145.51604166666667,137.71061787568033L145.62367187499999,158.67035023123026L145.73130208333333,148.20896789617836L145.9465625,146.41529242228717L146.48471354166668,141.8547190465033L146.69997395833332,149.91666564904153L146.91523437499998,162.554863977246L147.13049479166668,132.6212918125093L147.238125,137.8086582031101L147.88390625,141.27183824032545L147.99153645833331,147.30865114554763L148.206796875,142.5965845324099L148.31442708333336,143.57337543927133L148.42205729166668,147.25638997927308L148.852578125,160.90676691103727L149.06783854166665,147.20866621658206L149.2830989583333,146.6689920257777L149.498359375,143.32849743962288L149.60598958333335,154.03865372948349L149.71361979166667,147.31998790241778L150.03651041666666,157.69821826554835L150.144140625,145.6006698049605L150.25177083333332,145.68326135352254L150.46703125,159.81516686454415L150.57466145833334,160.38847320899367L150.89755208333332,138.7518507167697L151.00518229166667,157.83259158208966L151.32807291666666,114.13485628739L151.435703125,155.49796914868057L151.54333333333332,147.46587015409023L151.75859375000002,149.07068970799446L152.18911458333332,158.174456583336L152.29674479166667,154.56377379316837L152.404375,153.74428291991353L152.61963541666665,144.32090592756867L152.727265625,150.63801828958094L153.26541666666668,148.65922755282372L153.48067708333332,152.8958762269467L153.80356770833333,145.08653876557946L153.91119791666665,157.45396145805717L154.23408854166667,125.9679862037301L154.34171875,140.62550130486488L154.87986979166666,146.2832384482026L155.09513020833333,154.14631915930659L155.20276041666668,143.35865226760507L155.310390625,147.26927296444774L155.41802083333334,152.99788678251207L155.52565104166666,153.30237559694797L155.63328125,150.8536226088181L155.74091145833333,152.6779660694301L156.06380208333331,162.9275792716071L156.17143229166666,147.78929857723415L156.2790625,157.0693354792893L156.38669270833336,151.49357206840068L156.601953125,138.35662395879626L156.81721354166666,149.86814513988793L156.92484375,153.74703777208924L157.247734375,150.27643718943L157.3553645833333,147.6835743729025L157.67825520833335,157.2632926022634L158.00114583333334,148.2523028012365L158.43166666666664,145.4597267061472L158.96981770833332,150.04340235330164L159.07744791666667,151.80248350091279L159.185078125,158.1469418220222L159.61559895833332,161.79612839780748L159.93848958333334,134.90833227708936L160.476640625,150.72076851222664L160.79953125,153.26754832360893L161.12242187500001,156.1484991312027L161.33768229166668,157.9145686905831L161.4453125,145.48056365177035L161.76820312499999,150.01797398738563L162.19872395833335,152.51808673795313L162.62924479166668,142.31372603401542L163.05976562499998,156.30671407282352L163.16739583333333,167.00649240240455L163.705546875,153.69132291246206L163.92080729166668,149.77186710759997L164.0284375,152.6283584740013L164.24369791666666,150.91232864372432L164.351328125,152.1425254382193L164.56658854166668,157.90589900873601L165.32,151.9406244829297L166.288671875,155.1203855983913L166.39630208333332,144.26308779232204L166.6115625,153.6051898933947L166.71919270833334,143.17924927175045L167.04208333333332,156.51175137329847L167.14971354166667,147.311453262344L167.36497395833334,135.74954124353826L167.79549479166667,138.19691680558026L168.01075520833334,152.66766238212585L168.44127604166667,149.28417724743485L168.54890625,157.80731513816863L168.65653645833333,151.71899054851383L168.76416666666665,146.733062595129L168.871796875,152.15972976014018L169.30231770833333,161.11554824467748L169.40994791666668,143.5122217722237L169.62520833333332,157.66945099178702L169.73283854166667,157.458613647148L170.163359375,160.88399886805564L170.70151041666668,144.947114886716L170.809140625,151.0107268318534L171.23966145833333,157.46239144075662L171.56255208333334,153.24724141694605L171.88544270833333,142.05282532796264L171.99307291666668,150.58680707309395L172.20833333333331,139.76700023934245L172.31596354166666,157.42616648506373L172.63885416666668,151.23395425919443L172.85411458333334,162.47650261223316L173.71515625,150.89865904022008L174.038046875,163.64270311035216L174.14567708333334,146.31922032870352L174.3609375,136.35750605911016L174.57619791666664,161.98738806135952L174.683828125,160.48276612721384L175.6525,158.9169466374442L175.76013020833332,140.06264719367027L176.19065104166668,167.62790737859905L176.40591145833332,155.08354957867414L176.51354166666667,154.60552533343434L176.621171875,157.69430880621076L176.72880208333333,157.5018607750535L177.05169270833335,149.32030767388642L177.26695312500001,136.53026499971747L177.37458333333333,156.7759437225759L177.48221354166668,154.09194121323526L177.58984375,152.09676315728575L177.69747395833332,150.37640861421824L177.80510416666667,144.36671209707856L177.91273437499999,162.49840976390988L178.12799479166665,158.75592620298266L178.235625,153.05695743020624L178.34325520833335,159.18303294759244L178.45088541666667,138.83075562492013L178.558515625,143.1156040839851L178.66614583333333,165.605845881626L178.77377604166668,170.35700708813965L178.88140625,161.02243356592953L179.09666666666666,157.46985925082117L179.850078125,152.60702187381685L180.17296875,139.06582283973694L180.28059895833331,153.35140588879585L180.495859375,149.09098986256868L180.60348958333336,151.21109506301582L181.03401041666666,160.40995835512877L181.141640625,154.85374899301678L181.24927083333333,156.57256405986845L181.6797916666667,155.2675541229546L181.787421875,149.7831903602928L181.89505208333335,156.9162622531876L182.00268229166667,162.6430192468688L182.1103125,162.72906448878348L182.32557291666666,150.29941117111593L182.433203125,154.88355608843267L182.86372395833334,166.06985954288393L182.97135416666669,153.742918998003L183.078984375,151.9524676464498L183.29424479166667,164.42997639253736L183.61713541666666,164.0856333747506L184.04765625000002,153.68169781006873L184.15528645833334,155.0717638079077L184.26291666666668,156.1434418167919L184.47817708333332,158.02996526192874L184.6934375,151.26056761667132L184.80106770833333,157.081762698479L185.55447916666668,162.1157385148108L185.87736979166667,152.9754833523184L186.09263020833333,156.9535945514217L186.73841145833333,155.34658056870103L187.06130208333332,158.4913827450946L187.16893229166666,160.47187500819564L187.49182291666668,157.37593769747764L187.92234375,156.88216758146882L188.13760416666668,139.84680992737412L188.245234375,147.8133900295943L188.568125,155.36419676803052L188.67575520833336,163.0485935807228L188.78338541666668,150.11354980245233L188.99864583333334,152.08531161490828L189.21390625,156.0411105370149L189.7520572916667,160.52787683159113L189.96731770833335,148.8765941672027L190.07494791666667,152.24131862353534L190.182578125,156.82238121237606L190.39783854166666,144.52084877714515L190.61309895833332,144.5169123094529L190.72072916666664,164.59020345658064L190.828359375,159.70684310607612L190.93598958333334,150.8203111793846L191.25888020833332,161.2158133853227L191.474140625,158.20003011915833L191.58177083333334,163.57404449675232L191.68940104166666,168.4699603561312L191.79703125,152.40416212193668L191.90466145833332,151.73843993991613L192.22755208333334,139.42834923230112L192.765703125,166.44696369487792L193.30385416666667,166.4409847203642L193.41148437500001,165.82075811177492L193.51911458333333,162.02670884970576L193.94963541666667,158.75764460954815L194.05726562499999,168.96355154179037L194.16489583333333,163.2733908686787L194.91830729166668,161.33059214055538L195.0259375,157.5921969693154L195.24119791666666,157.1224406566471L195.34882812499998,158.81518253311515L195.56408854166668,163.5518807657063L195.994609375,154.0351223871112L196.20986979166668,151.79820267669857L196.42513020833331,149.8789113452658L196.640390625,156.76653468701988L196.74802083333336,160.7721437672153L197.17854166666666,151.63099395297468L197.6090625,151.94134358037263L197.7166927083333,161.81171221844852L197.8243229166667,158.23206202778965L197.931953125,166.06899189949036L198.14721354166667,156.80728354211897L198.25484375,156.0452259350568L198.79299479166664,154.14154205657542L198.900625,166.7926402501762L199.11588541666669,150.7518821367994L199.33114583333332,160.99611730035394L199.43877604166667,158.67029621452093L199.54640625,165.503818445839L199.65403645833334,171.6200595460832L199.869296875,157.12441226653755L200.08455729166667,160.4510515667498L200.515078125,166.25809764675796L200.73033854166667,161.60840007662773L200.94559895833333,157.40048829186708L201.26848958333335,161.8371675927192L201.37611979166667,155.2386450553313L201.806640625,163.17355110961944L202.12953124999999,170.08556974772364L202.34479166666665,158.96776623278856L202.452421875,165.77253469452262L202.56005208333335,154.643826556392L202.66768229166667,152.3417829507962L202.99057291666668,154.42643968574703L203.098203125,159.6444909432903L203.20583333333332,161.49134249147028L203.31346354166666,152.15210327599198L203.42109374999998,154.09252189286053L203.52872395833333,155.2437428822741L203.85161458333334,143.37474249489605L203.95924479166666,154.97531359735876L204.066875,158.50318877212703L204.28213541666668,156.96753423847258L204.389765625,139.49011058732867L204.49739583333331,157.29379516281188L204.60502604166666,160.46156794484705L204.82028645833336,168.1823416352272L205.035546875,167.27737269550562L205.3584375,157.97035782318562L205.57369791666665,158.11290116701275L205.681328125,167.15777294896543L205.7889583333333,147.1482957918197L205.8965885416667,161.23531341739L206.54236979166666,166.25705444905907L206.65,151.8828198518604L206.972890625,152.04119346756488L207.08052083333334,158.4080991074443L207.18815104166669,158.7228679768741L207.29578125,148.06989512592554L207.83393229166666,161.84080359246582L208.69497395833332,167.91344983223826L208.80260416666667,167.2873522825539L208.910234375,159.30313910078257L209.233125,164.9076157687232L209.44838541666667,158.1910194568336L209.77127604166668,152.65102523565292L209.87890625,162.64171609375626L209.98653645833332,148.64742827787995L210.09416666666667,158.48055577091873L210.30942708333333,161.15016282722354L210.41705729166665,158.44333825819194L210.73994791666667,147.55897470470518L211.27809895833332,157.71743470989168L211.38572916666666,158.12022718321532L211.60098958333333,166.79912563133985L211.70861979166668,157.23272589687258L211.92388020833334,167.5020889583975L212.67729166666666,153.26497240178287L212.784921875,158.51288477145135L212.89255208333336,146.88766516931355L213.21544270833334,158.5720972130075L213.32307291666666,155.3376408033073L213.64596354166665,161.57359981164336L213.75359375,152.1900196298957L213.8612239583333,160.58922293316573L213.9688541666667,155.6241758139804L214.18411458333335,162.31539102457464L214.29174479166667,171.3037984650582L214.50700520833334,170.4414925975725L214.722265625,162.81492404825985L214.93752604166664,159.58845198340714L215.04515625,163.4631616966799L215.368046875,160.67549774609506L215.58330729166667,164.43642801325768L215.6909375,161.84181978181005L215.79856770833334,154.45948440767825L216.22908854166667,160.32100633904338L216.44434895833334,165.9768799059093L216.87486979166667,151.01833643577993L217.09013020833333,160.96479773707688L217.305390625,158.26878663804382L217.41302083333335,158.47398598864675L217.84354166666668,160.89545378647745L218.16643229166667,158.78479475807399L218.27406249999999,160.61069119907916L218.48932291666665,149.81664020754397L218.596953125,163.84793959744275L218.81221354166667,157.12637712433934L218.91984375,163.55264375172555L219.02747395833333,164.75992395728827L219.242734375,162.16084246709943L219.35036458333332,157.98608681373298L219.45799479166666,154.86881290283054L220.10377604166666,161.5776375606656L220.21140625,161.1065510865301L220.31903645833333,166.17751822061837L220.42666666666668,156.6357163451612L220.534296875,171.1321131065488L220.8571875,165.48499699868262L221.07244791666668,156.38343805633485L221.39533854166666,164.8523803073913L221.825859375,156.74083623755723L222.25638020833335,154.82600803673267L222.36401041666667,170.42184064351022L222.471640625,160.950928946957L222.57927083333334,155.79206312261522L223.00979166666664,165.13319629896432L223.117421875,159.47807558998466L223.22505208333334,154.84359385166317L223.33268229166669,167.57552805077285L223.4403125,161.1026821397245L223.65557291666667,160.7478430001065L223.87083333333334,149.59239996690303L223.97846354166666,166.8256647158414L224.30135416666667,159.43307291902602L224.40898437500002,161.50774669088423L224.62424479166668,165.80004945583642L224.83950520833332,156.27642757911235L225.054765625,147.98359330464154L225.16239583333333,167.10819911397994L225.59291666666667,149.52281294111162L226.0234375,165.77806803118438L226.23869791666667,162.7725411877036L226.34632812499999,157.31926404125988L226.77684895833335,164.64397709071636L226.992109375,159.4162635942921L227.09973958333333,155.14565191417933L227.20736979166668,154.44767500460148L227.53026041666666,162.12194368429482L227.85315104166668,164.0669098328799L228.06841145833334,152.74115886725485L228.71419270833331,166.2911761291325L228.82182291666666,162.59999493788928L228.929453125,164.70502610038966L229.14471354166668,163.45422868337482L229.25234375,160.0285159861669L229.575234375,162.45774530991912L229.898125,168.6822527758777L230.0057552083333,170.4227487994358L230.32864583333335,164.36103756725788L230.43627604166667,168.27145570144057L230.54390625,164.11293882131577L230.65153645833334,144.93044397979975L230.97442708333332,160.6476588845253L231.1896875,167.30760179646313L231.512578125,163.99051332566887L231.62020833333332,148.39895141497254L231.83546875,157.13257216569036L232.158359375,153.78073407057673L232.58888020833334,158.2376763895154L232.69651041666668,153.3781880484894L232.804140625,158.58321115095168L232.91177083333332,161.89499923214316L233.01940104166667,169.3528094533831L233.23466145833333,171.18402991630137L233.34229166666665,162.22816079109907L233.449921875,158.07946144789457L233.55755208333335,175.35847666161135L234.20333333333332,154.65466703474522L234.41859374999999,166.06327625643462L234.52622395833333,168.91263404116035L234.63385416666665,158.27273323386908L234.741484375,161.67415191605687L234.84911458333335,157.20475874561816L234.95674479166667,170.5347558222711L235.064375,150.3093468695879L235.27963541666668,154.91672910004854L235.49489583333332,163.27678716927767L235.60252604166666,164.28611639142036L235.71015624999998,164.09319909010082L235.92541666666668,163.414273198694L236.033046875,167.21235683374107L236.14067708333334,166.40285567566752L236.3559375,164.8752395035699L236.78645833333331,164.36479172855616" style="fill: none;" fill="none"></path></g></g></g></g></g></g><g transform="translate(71, 174)" clip-path="url(#clip_1)"><clipPath id="clip_1"><rect width="258" height="26"></rect></clipPath><g><g><line x1="0" y1="0" x2="0" y2="5" style="visibility: inherit;" fill="rgb(0, 0, 0)" stroke="rgb(204, 204, 204)" stroke-width="1px"></line><line x1="21.526041666666664" y1="0" x2="21.526041666666664" y2="5" style="visibility: inherit;" fill="rgb(0, 0, 0)" stroke="rgb(204, 204, 204)" stroke-width="1px"></line><line x1="43.05208333333333" y1="0" x2="43.05208333333333" y2="5" style="visibility: inherit;" fill="rgb(0, 0, 0)" stroke="rgb(204, 204, 204)" stroke-width="1px"></line><line x1="64.578125" y1="0" x2="64.578125" y2="5" style="visibility: inherit;" fill="rgb(0, 0, 0)" stroke="rgb(204, 204, 204)" stroke-width="1px"></line><line x1="86.10416666666666" y1="0" x2="86.10416666666666" y2="5" style="visibility: inherit;" fill="rgb(0, 0, 0)" stroke="rgb(204, 204, 204)" stroke-width="1px"></line><line x1="107.63020833333334" y1="0" x2="107.63020833333334" y2="5" style="visibility: inherit;" fill="rgb(0, 0, 0)" stroke="rgb(204, 204, 204)" stroke-width="1px"></line><line x1="129.15625" y1="0" x2="129.15625" y2="5" style="visibility: inherit;" fill="rgb(0, 0, 0)" stroke="rgb(204, 204, 204)" stroke-width="1px"></line><line x1="150.68229166666669" y1="0" x2="150.68229166666669" y2="5" style="visibility: inherit;" fill="rgb(0, 0, 0)" stroke="rgb(204, 204, 204)" stroke-width="1px"></line><line x1="172.20833333333331" y1="0" x2="172.20833333333331" y2="5" style="visibility: inherit;" fill="rgb(0, 0, 0)" stroke="rgb(204, 204, 204)" stroke-width="1px"></line><line x1="193.734375" y1="0" x2="193.734375" y2="5" style="visibility: inherit;" fill="rgb(0, 0, 0)" stroke="rgb(204, 204, 204)" stroke-width="1px"></line><line x1="215.26041666666669" y1="0" x2="215.26041666666669" y2="5" style="visibility: inherit;" fill="rgb(0, 0, 0)" stroke="rgb(204, 204, 204)" stroke-width="1px"></line><line x1="236.78645833333331" y1="0" x2="236.78645833333331" y2="5" style="visibility: inherit;" fill="rgb(0, 0, 0)" stroke="rgb(204, 204, 204)" stroke-width="1px"></line><line x1="258.3125" y1="0" x2="258.3125" y2="5" style="visibility: inherit;" fill="rgb(0, 0, 0)" stroke="rgb(204, 204, 204)" stroke-width="1px"></line></g><g transform="translate(0, 8)"><text x="0" y="0" dx="0em" dy="0.95em" style="text-anchor: middle; visibility: hidden; font-family: Roboto, sans-serif; font-size: 12px; font-weight: 200;" fill="rgb(33, 33, 33)" stroke="none" stroke-width="1px">-20k</text><text x="21.526041666666664" y="0" dx="0em" dy="0.95em" style="text-anchor: middle; visibility: inherit; font-family: Roboto, sans-serif; font-size: 12px; font-weight: 200;" fill="rgb(33, 33, 33)" stroke="none" stroke-width="1px">0</text><text x="43.05208333333333" y="0" dx="0em" dy="0.95em" style="text-anchor: middle; visibility: hidden; font-family: Roboto, sans-serif; font-size: 12px; font-weight: 200;" fill="rgb(33, 33, 33)" stroke="none" stroke-width="1px">20k</text><text x="64.578125" y="0" dx="0em" dy="0.95em" style="text-anchor: middle; visibility: inherit; font-family: Roboto, sans-serif; font-size: 12px; font-weight: 200;" fill="rgb(33, 33, 33)" stroke="none" stroke-width="1px">40k</text><text x="86.10416666666666" y="0" dx="0em" dy="0.95em" style="text-anchor: middle; visibility: hidden; font-family: Roboto, sans-serif; font-size: 12px; font-weight: 200;" fill="rgb(33, 33, 33)" stroke="none" stroke-width="1px">60k</text><text x="107.63020833333334" y="0" dx="0em" dy="0.95em" style="text-anchor: middle; visibility: inherit; font-family: Roboto, sans-serif; font-size: 12px; font-weight: 200;" fill="rgb(33, 33, 33)" stroke="none" stroke-width="1px">80k</text><text x="129.15625" y="0" dx="0em" dy="0.95em" style="text-anchor: middle; visibility: hidden; font-family: Roboto, sans-serif; font-size: 12px; font-weight: 200;" fill="rgb(33, 33, 33)" stroke="none" stroke-width="1px">100k</text><text x="150.68229166666669" y="0" dx="0em" dy="0.95em" style="text-anchor: middle; visibility: inherit; font-family: Roboto, sans-serif; font-size: 12px; font-weight: 200;" fill="rgb(33, 33, 33)" stroke="none" stroke-width="1px">120k</text><text x="172.20833333333331" y="0" dx="0em" dy="0.95em" style="text-anchor: middle; visibility: hidden; font-family: Roboto, sans-serif; font-size: 12px; font-weight: 200;" fill="rgb(33, 33, 33)" stroke="none" stroke-width="1px">140k</text><text x="193.734375" y="0" dx="0em" dy="0.95em" style="text-anchor: middle; visibility: inherit; font-family: Roboto, sans-serif; font-size: 12px; font-weight: 200;" fill="rgb(33, 33, 33)" stroke="none" stroke-width="1px">160k</text><text x="215.26041666666669" y="0" dx="0em" dy="0.95em" style="text-anchor: middle; visibility: hidden; font-family: Roboto, sans-serif; font-size: 12px; font-weight: 200;" fill="rgb(33, 33, 33)" stroke="none" stroke-width="1px">180k</text><text x="236.78645833333331" y="0" dx="0em" dy="0.95em" style="text-anchor: middle; visibility: inherit; font-family: Roboto, sans-serif; font-size: 12px; font-weight: 200;" fill="rgb(33, 33, 33)" stroke="none" stroke-width="1px">200k</text><text x="258.3125" y="0" dx="0em" dy="0.95em" style="text-anchor: middle; visibility: hidden; font-family: Roboto, sans-serif; font-size: 12px; font-weight: 200;" fill="rgb(33, 33, 33)" stroke="none" stroke-width="1px">220k</text></g><line x1="0" y1="0" x2="258.3125" y2="0" fill="rgb(0, 0, 0)" stroke="rgb(204, 204, 204)" stroke-width="1px"></line></g></g></g></g></svg>