<svg viewBox="0 0 330 200" xmlns="http://www.w3.org/2000/svg"><g><g><g><g><g><line x1="71.6875" y1="168.5625" x2="66.6875" y2="168.5625" style="visibility: inherit;" fill="rgb(0, 0, 0)" stroke="rgb(204, 204, 204)" stroke-width="1px"></line><line x1="71.6875" y1="141.375" x2="66.6875" y2="141.375" style="visibility: inherit;" fill="rgb(0, 0, 0)" stroke="rgb(204, 204, 204)" stroke-width="1px"></line><line x1="71.6875" y1="114.1875" x2="66.6875" y2="114.1875" style="visibility: inherit;" fill="rgb(0, 0, 0)" stroke="rgb(204, 204, 204)" stroke-width="1px"></line><line x1="71.6875" y1="86.99999999999999" x2="66.6875" y2="86.99999999999999" style="visibility: inherit;" fill="rgb(0, 0, 0)" stroke="rgb(204, 204, 204)" stroke-width="1px"></line><line x1="71.6875" y1="59.8125" x2="66.6875" y2="59.8125" style="visibility: inherit;" fill="rgb(0, 0, 0)" stroke="rgb(204, 204, 204)" stroke-width="1px"></line><line x1="71.6875" y1="32.625" x2="66.6875" y2="32.625" style="visibility: inherit;" fill="rgb(0, 0, 0)" stroke="rgb(204, 204, 204)" stroke-width="1px"></line><line x1="71.6875" y1="5.4375" x2="66.6875" y2="5.4375" style="visibility: inherit;" fill="rgb(0, 0, 0)" stroke="rgb(204, 204, 204)" stroke-width="1px"></line></g><g transform="translate(61.6875, 0)"><text x="0" y="168.5625" dx="0em" dy="0.3em" style="text-anchor: end; visibility: hidden; font-family: Roboto, sans-serif; font-size: 12px; font-weight: 200;" fill="rgb(33, 33, 33)" stroke="none" stroke-width="1px">5e-4</text><text x="0" y="141.375" dx="0em" dy="0.3em" style="text-anchor: end; visibility: inherit; font-family: Roboto, sans-serif; font-size: 12px; font-weight: 200;" fill="rgb(33, 33, 33)" stroke="none" stroke-width="1px">1e-3</text><text x="0" y="114.1875" dx="0em" dy="0.3em" style="text-anchor: end; visibility: inherit; font-family: Roboto, sans-serif; font-size: 12px; font-weight: 200;" fill="rgb(33, 33, 33)" stroke="none" stroke-width="1px">1.5e-3</text><text x="0" y="86.99999999999999" dx="0em" dy="0.3em" style="text-anchor: end; visibility: inherit; font-family: Roboto, sans-serif; font-size: 12px; font-weight: 200;" fill="rgb(33, 33, 33)" stroke="none" stroke-width="1px">2e-3</text><text x="0" y="59.8125" dx="0em" dy="0.3em" style="text-anchor: end; visibility: inherit; font-family: Roboto, sans-serif; font-size: 12px; font-weight: 200;" fill="rgb(33, 33, 33)" stroke="none" stroke-width="1px">2.5e-3</text><text x="0" y="32.625" dx="0em" dy="0.3em" style="text-anchor: end; visibility: inherit; font-family: Roboto, sans-serif; font-size: 12px; font-weight: 200;" fill="rgb(33, 33, 33)" stroke="none" stroke-width="1px">3e-3</text><text x="0" y="5.4375" dx="0em" dy="0.3em" style="text-anchor: end; visibility: hidden; font-family: Roboto, sans-serif; font-size: 12px; font-weight: 200;" fill="rgb(33, 33, 33)" stroke="none" stroke-width="1px">3.5e-3</text></g><line x1="71.6875" y1="0" x2="71.6875" y2="174" fill="rgb(0, 0, 0)" stroke="rgb(204, 204, 204)" stroke-width="1px"></line></g></g><g transform="translate(71, 0)" clip-path="url(#clip_0)"><clipPath id="clip_0"><rect width="258" height="174"></rect></clipPath><g><g><g><line x1="0" y1="0" x2="0" y2="174" fill="rgb(0, 0, 0)" stroke="rgb(66, 66, 66)" stroke-width="1px" opacity="0.25"></line><line x1="21.526041666666664" y1="0" x2="21.526041666666664" y2="174" fill="rgb(0, 0, 0)" stroke="rgb(66, 66, 66)" stroke-width="1px" opacity="0.25"></line><line x1="43.05208333333333" y1="0" x2="43.05208333333333" y2="174" fill="rgb(0, 0, 0)" stroke="rgb(66, 66, 66)" stroke-width="1px" opacity="0.25"></line><line x1="64.578125" y1="0" x2="64.578125" y2="174" fill="rgb(0, 0, 0)" stroke="rgb(66, 66, 66)" stroke-width="1px" opacity="0.25"></line><line x1="86.10416666666666" y1="0" x2="86.10416666666666" y2="174" fill="rgb(0, 0, 0)" stroke="rgb(66, 66, 66)" stroke-width="1px" opacity="0.25"></line><line x1="107.63020833333334" y1="0" x2="107.63020833333334" y2="174" fill="rgb(0, 0, 0)" stroke="rgb(66, 66, 66)" stroke-width="1px" opacity="0.25"></line><line x1="129.15625" y1="0" x2="129.15625" y2="174" fill="rgb(0, 0, 0)" stroke="rgb(66, 66, 66)" stroke-width="1px" opacity="0.25"></line><line x1="150.68229166666669" y1="0" x2="150.68229166666669" y2="174" fill="rgb(0, 0, 0)" stroke="rgb(66, 66, 66)" stroke-width="1px" opacity="0.25"></line><line x1="172.20833333333331" y1="0" x2="172.20833333333331" y2="174" fill="rgb(0, 0, 0)" stroke="rgb(66, 66, 66)" stroke-width="1px" opacity="0.25"></line><line x1="193.734375" y1="0" x2="193.734375" y2="174" fill="rgb(0, 0, 0)" stroke="rgb(66, 66, 66)" stroke-width="1px" opacity="0.25"></line><line x1="215.26041666666669" y1="0" x2="215.26041666666669" y2="174" fill="rgb(0, 0, 0)" stroke="rgb(66, 66, 66)" stroke-width="1px" opacity="0.25"></line><line x1="236.78645833333331" y1="0" x2="236.78645833333331" y2="174" fill="rgb(0, 0, 0)" stroke="rgb(66, 66, 66)" stroke-width="1px" opacity="0.25"></line><line x1="258.3125" y1="0" x2="258.3125" y2="174" fill="rgb(0, 0, 0)" stroke="rgb(66, 66, 66)" stroke-width="1px" opacity="0.25"></line></g><g><line x1="0" y1="168.5625" x2="258.3125" y2="168.5625" fill="rgb(0, 0, 0)" stroke="rgb(66, 66, 66)" stroke-width="1px" opacity="0.25"></line><line x1="0" y1="141.375" x2="258.3125" y2="141.375" fill="rgb(0, 0, 0)" stroke="rgb(66, 66, 66)" stroke-width="1px" opacity="0.25"></line><line x1="0" y1="114.1875" x2="258.3125" y2="114.1875" fill="rgb(0, 0, 0)" stroke="rgb(66, 66, 66)" stroke-width="1px" opacity="0.25"></line><line x1="0" y1="86.99999999999999" x2="258.3125" y2="86.99999999999999" fill="rgb(0, 0, 0)" stroke="rgb(66, 66, 66)" stroke-width="1px" opacity="0.25"></line><line x1="0" y1="59.8125" x2="258.3125" y2="59.8125" fill="rgb(0, 0, 0)" stroke="rgb(66, 66, 66)" stroke-width="1px" opacity="0.25"></line><line x1="0" y1="32.625" x2="258.3125" y2="32.625" fill="rgb(0, 0, 0)" stroke="rgb(66, 66, 66)" stroke-width="1px" opacity="0.25"></line><line x1="0" y1="5.4375" x2="258.3125" y2="5.4375" fill="rgb(0, 0, 0)" stroke="rgb(66, 66, 66)" stroke-width="1px" opacity="0.25"></line></g></g></g><g><g><line x1="0" y1="195.75" x2="258.3125" y2="195.75" fill="rgb(0, 0, 0)" stroke="rgb(153, 153, 153)" stroke-width="1.5px"></line></g></g><g><g><line x1="21.526041666666664" y1="0" x2="21.526041666666664" y2="174" fill="rgb(0, 0, 0)" stroke="rgb(153, 153, 153)" stroke-width="1.5px"></line></g></g><g><g><g><g><g><path stroke="rgb(255, 112, 67)" stroke-width="2px" d="M31.858541666666667,-2.009544509538369L32.2890625,7.639527672286261L32.39669270833333,9.017242335841688L32.71958333333333,14.130730027478178L33.04247395833334,15.907637607035223L33.150104166666665,1.6948655815342377L33.36536458333334,1.9310353377569305L33.903515625000004,12.989071884829265L34.11877604166666,14.657867641013222L34.65692708333333,15.430320185877186L35.08744791666667,13.755054123673562L35.195078125,11.32400021802874L35.41033854166667,17.65584168829999L35.625598958333335,17.164213666124493L35.73322916666667,28.553537230784787L35.840859375,38.00728950454029L36.27138020833333,40.31701084127718L36.37901041666667,36.03556579869651L37.024791666666665,52.92708595184495L37.132421875,47.69882046809723L37.34768229166667,27.013022372906903L37.4553125,36.03786360971883L37.778203125,26.10622117055358L38.53161458333334,39.581269483687905L38.746874999999996,26.155764483092664L38.854505208333336,34.45570487781818L39.069765625,49.259947995495516L39.28502604166666,57.107226495348925L39.500286458333335,61.415086703950806L39.93080729166667,47.897382954015384L40.0384375,55.96978026155624L40.146067708333334,55.61299459063779L40.46895833333333,47.735684045229206L40.576588541666666,52.07798242863945L40.68421875,44.650088553410356L40.79184895833333,50.51823433885372L41.007109375,29.15426864731698L41.11473958333334,44.55290321591656L41.43763020833334,51.69334742923476L41.545260416666665,55.62174174804177L41.652890625,42.055565649512786L41.975781250000004,36.365009663734334L42.08341145833333,49.556757873268296L42.19104166666666,47.286779012923766L42.298671875000004,54.9993304682458L42.6215625,63.73072512787935L43.05208333333333,66.59859130893935L43.15971354166667,64.04391210659838L43.37497395833333,47.54684884805305L43.48260416666667,52.75333877069546L43.590234375,50.31746501144196L43.697864583333335,59.66094701128557L43.913125,66.13239402275445L44.12838541666667,60.28728163734771L44.34364583333333,68.73670309434871L44.55890625,65.3892191177825L44.774166666666666,64.03011929940251L44.881796875,61.55139208695555L45.097057291666665,57.77700050940002L45.2046875,70.95438558983362L45.31231770833333,61.27178940141235L45.41994791666667,54.39862073740906L45.527578125,54.863118272183364L45.74283854166667,59.96876344274834L45.85046875,64.85571582748058L46.28098958333334,74.12076068330072L46.926770833333336,73.8158568577961L47.14203125,72.12664343069095L47.249661458333335,67.56826882479773L47.35729166666666,63.11919428098609L47.572552083333335,64.9692567272166L47.68018229166666,65.48858096592454L47.895442708333334,67.08409867315935L48.00307291666667,72.50561179977696L48.110703125,68.01161709025227L48.218333333333334,76.00757129658594L48.756484375,72.08142838374127L48.86411458333333,70.6415790624639L48.971744791666666,60.20452271063079L49.294635416666665,52.85881667976945L49.402265625,66.22570436301675L49.50989583333334,62.82217396959497L49.617526041666665,64.71988427793138L49.83278645833333,57.03727123364153L50.693828125,67.63452792953308L50.80145833333333,67.91019366342712L51.12434895833333,74.30384291486526L51.23197916666667,79.0480499734824L51.339609375,81.76538987225116L51.55486979166667,74.78865318568539L51.770130208333335,68.13066813709284L51.985390625,70.02508260283287L52.093020833333334,75.34500975956195L52.30828125,77.76768877573116L52.52354166666667,84.6031024733472L52.631171875,84.2370641731419L52.846432291666666,79.56992478985772L53.38458333333333,77.96827531591317L53.49221354166667,69.72527954290216L53.59984375,81.08646492043826L53.70747395833333,78.02561315841044L54.35325520833334,82.071967384832L54.568515624999996,77.99987839035207L54.78377604166667,65.2154213967555L54.891406249999996,75.57922998283853L55.214296875,68.1843118268746L55.321927083333335,74.26334065730111L55.644817708333335,81.7871438748411L55.860078125,77.20648897397648L55.967708333333334,77.28101939105618L56.290598958333334,74.15654354460463L56.505859375,74.69911421925899L57.044010416666666,80.53953138737278L57.151640625,77.19565468913851L57.25927083333334,84.80407167149131L57.366901041666665,74.88214426320447L57.90505208333333,83.47041932299972L58.012682291666664,88.85868620877486L58.22794270833333,81.88194642218961L58.55083333333333,84.01797432137586L58.65846354166666,97.99658320115094L58.76609375,94.48528877878834L58.87372395833333,100.01407361277542L59.088984375,98.32646935497509L59.30424479166667,98.47271460533574L59.51950520833333,89.92189100099614L59.62713541666667,93.2410652523518L59.734765625,91.20583681357832L60.165286458333334,91.22678359690566L60.380546875,94.99790182280991L60.59580729166667,100.11731395203444L60.7034375,87.64911356596544L60.81106770833333,85.58292618261811L60.918697916666666,84.18965100007972L61.026328125,89.48166465293562L61.13395833333333,95.11993350866217L61.241588541666665,98.38412473845275L61.88736979166667,92.7994237735736L62.21026041666667,98.2271624714802L62.317890625,91.49286838088456L63.071302083333336,89.27223640137329L63.17893229166667,83.87738710679285L63.609453125,91.32694918088718L63.717083333333335,90.34382622037516L63.82471354166666,84.97024785820655L63.93234375,90.0417203519509L64.03997395833333,95.99762707695457L64.14760416666667,96.62426168221849L64.255234375,105.51911639211806L64.36286458333333,103.7131355681873L64.47049479166667,99.16408989471087L64.578125,99.81993270875708L64.79338541666667,99.12633777377647L64.901015625,102.94631801619465L65.11627604166667,97.8005116632448L65.546796875,92.35960675920867L65.65442708333333,97.946459562083L65.97731770833333,97.97860216318625L66.08494791666668,98.37081317696905L66.192578125,99.8067615873657L66.30020833333333,95.70428957562957L66.62309895833334,91.27974884243348L66.94598958333333,93.79782653786415L67.05361979166666,95.5496113110344L67.37651041666666,98.2487978093891L67.484140625,92.84130975240505L67.91466145833334,75.04828559221498L68.02229166666666,76.51234502449137L68.34518229166667,88.26748399275245L68.45281250000001,86.8185668965441L68.56044270833334,94.31548494159871L68.66807291666666,97.96671622319337L68.77570312499999,79.82995783488194L68.88333333333333,90.58815285375486L68.99096354166667,89.0758753227898L69.09859375,100.75168858193172L69.31385416666666,104.64370996051096L69.42148437499999,103.3082012690842L69.52911458333334,101.425484909532L69.63674479166667,97.56116803088896L70.067265625,101.93684590238547L70.17489583333334,104.1169211493531L70.28252604166667,105.23102521077018L70.39015625,98.8621164834326L70.49778645833332,95.72747892062445L70.713046875,97.06159621182988L70.92830729166667,100.52823682972696L71.14356770833332,101.67002185637412L71.25119791666667,97.26268026065993L71.57408854166667,99.89877747285729L71.68171875,102.09819874041297L71.78934895833333,107.16485558523544L72.004609375,102.09603599814919L72.21986979166667,100.02713869902624L72.650390625,101.0187092892975L72.75802083333333,100.68825172744656L73.08091145833333,96.89486471663209L73.18854166666667,95.60768011532896L73.296171875,99.52919182410939L73.40380208333333,94.76657901097002L73.51143229166667,97.76124406846934L73.6190625,98.9563003371027L73.72669270833333,96.89073843425277L73.941953125,103.75862993370824L74.04958333333333,99.8060983541948L74.15721354166668,102.22004881952323L74.26484375,107.27235317626626L74.48010416666666,108.42924119113367L74.80299479166668,116.67154995594385L75.233515625,111.39543095776938L75.55640625,113.20495675533712L75.66403645833333,121.1644613899664L75.77166666666666,112.44576133117457L76.09455729166666,117.88307602320093L76.30981770833333,113.34395895589091L76.41744791666667,107.40990853533863L76.52507812500001,115.15575369288642L76.63270833333334,120.72374349485781L76.74033854166666,118.35236911393336L76.84796874999999,111.5325181456L76.95559895833333,107.48482699327336L77.27848958333334,102.2666105018454L77.38611979166666,105.80478019516863L77.49374999999999,106.04132990027558L77.60138020833334,109.01649352033118L77.92427083333334,95.60223160391931L78.67768229166666,92.21132429662875L79.00057291666667,72.80721412546058L79.108203125,84.36125154277157L79.32346354166667,94.53659583402332L79.43109375,90.46210202066695L79.53872395833334,87.58102499426063L79.64635416666667,91.60529251957888L79.753984375,92.58764134348903L79.96924479166667,78.05856875545291L80.076875,79.69579921642845L80.18450520833333,90.22708814234602L80.399765625,95.43295692364018L80.50739583333333,105.12403058711598L80.83028645833333,110.35498035233935L81.045546875,109.19313227995579L81.26080729166667,112.96857658446004L81.3684375,119.80589256164532L81.47606770833333,111.30043023825013L82.12184895833333,110.79236021479784L82.22947916666668,112.55691605930332L82.337109375,109.09017692315275L82.76763020833334,110.03494087412882L83.09052083333333,113.62817400596249L83.30578125,118.5538139037517L83.628671875,115.75088833840803L84.05919270833334,119.09460624788099L84.48971354166667,118.00480852964978L84.59734375000001,109.59490692945026L84.70497395833334,107.99164750936711L84.92023437499999,109.18051484113904L85.13549479166667,109.09423939620166L85.243125,103.96631463896682L85.35075520833334,110.16531670647794L85.56601562499999,117.33359537238327L85.78127604166667,121.24456361860267L85.88890625,119.30501236641172L85.99653645833334,118.05560773805911L86.10416666666666,116.00179565917257L86.31942708333334,120.76008132585618L86.42705729166667,113.4441815377007L86.5346875,106.087392411974L86.74994791666666,114.64857646688077L87.07283854166667,120.41553782804985L87.28809895833332,114.48787220703319L87.61098958333334,120.32574413518908L87.71861979166667,119.26558385796392L87.93388020833333,115.828937379825L88.149140625,116.72224754883634L88.36440104166667,115.15663339279614L88.57966145833333,120.82771500118835L88.68729166666667,122.43608418039688L89.01018229166667,122.30613550517347L89.22544270833333,127.30641724977613L89.33307291666667,117.02424124163372L89.76359375,123.47771641449506L89.97885416666666,120.18622622075752L90.19411458333333,115.59664822544129L90.51700520833333,111.35355440669042L90.62463541666666,115.27863318539578L90.732265625,113.22196193554278L90.83989583333334,115.34099408846068L90.94752604166668,120.67146017813141L91.05515625,119.95330221070546L91.48567708333334,106.05310970035164L91.7009375,108.67537644413915L91.80856770833333,112.8228116202261L91.91619791666666,117.55023578712341L92.02382812500001,120.66934369096306L92.13145833333334,118.64341170207648L92.45434895833333,120.01508661535783L92.56197916666667,109.80122955528589L92.66960937500001,109.44067690338122L93.42302083333334,97.29703304313004L93.74591145833334,106.0802083759673L94.2840625,112.7929699347324L94.39169270833334,117.62893290837113L94.49932291666667,120.74065932414943L94.82221354166666,115.77312721256621L95.03747395833334,117.00547069939125L95.14510416666667,113.49214970622748L95.252734375,119.12337750694476L95.575625,127.70640215618394L96.11377604166667,127.12188073251869L96.32903645833333,130.82034227859884L96.43666666666667,123.83469847721626L96.544296875,123.25485756588144L96.65192708333333,120.14356282724982L96.8671875,120.5490883271153L97.190078125,126.29345095677891L97.29770833333333,124.4474835022835L97.51296875,126.84315333698977L97.94348958333333,127.01456393327811L98.05111979166666,123.6620812449321L98.26638020833333,120.25985970934084L98.58927083333333,124.07614010402472L98.80453125,123.17990660742393L99.01979166666668,122.35319568280411L99.127421875,120.65310122865235L99.23505208333333,117.45844324809114L99.4503125,107.78909944011228L99.66557291666666,119.07627164692255L99.773203125,112.11581411740897L99.88083333333333,118.32581338845472L99.98846354166666,118.90736694736574L100.09609375000001,124.7603367437246L100.31135416666666,130.64296769866408L100.418984375,114.72101614523864L100.52661458333333,121.34142788276374L101.06476562499999,114.9209773681703L101.17239583333333,118.46433307607393L101.28002604166667,117.60465391779158L101.49528645833334,118.91024934882016L101.60291666666666,119.34006386884317L101.71054687499999,125.06086495782705L101.81817708333334,126.0753931195484L102.57158854166667,127.0618336727103L102.89447916666666,118.25148374616386L103.002109375,123.07943756174055L103.21736979166667,123.0373927996144L103.75552083333334,124.21765431237172L103.86315104166667,121.15531493124597L103.97078125,115.80628502917688L104.293671875,121.09992595499881L104.40130208333333,122.02331748363676L104.72419270833333,119.37975648715786L104.83182291666667,119.65861176766272L105.04708333333333,128.23800784836598L105.15471354166667,124.59131924890772L105.36997395833333,128.74956384197165L105.47760416666667,122.25028538892963L105.585234375,124.55599245849803L105.69286458333333,126.23587474921788L105.80049479166667,120.07194401340227L106.44627604166668,128.13683474660468L106.55390625,130.54703276524648L106.76916666666666,132.81432540778638L106.98442708333334,129.30876609563052L107.1996875,123.85216265844834L107.30731770833333,115.05148604534212L107.63020833333334,108.83122984770847L107.73783854166666,118.08510239688218L108.16835937500001,129.44564433778916L108.27598958333334,133.32163576294462L108.38361979166666,132.90083036931296L108.49125,124.57040145650171L108.81414062500001,128.27377515145562L109.13703124999999,129.08217533323347L109.67518229166666,126.33031984056936L109.78281249999999,131.76306583962383L109.99807291666667,132.0482073789294L110.105703125,124.55663046323613L110.21333333333334,126.73717222188922L110.42859375,129.23531489333146L110.53622395833334,130.4565351979975L110.64385416666667,127.23966012399723L110.751484375,127.70565891262004L111.18200520833334,128.72761235411753L111.28963541666667,129.83022138212345L111.50489583333332,130.28610973805098L111.61252604166667,135.4987989868032L111.72015625,131.57374029493857L111.93541666666667,126.57599412470478L112.043046875,134.78771347701016L112.3659375,132.5410264657406L112.58119791666667,131.88591528590203L113.11934895833333,122.39664826201867L113.22697916666667,124.59861592087691L113.54986979166667,127.9586428615774L113.87276041666667,133.47710161479452L114.19565104166666,130.0480309575905L114.41091145833333,129.79755383567607L114.73380208333333,127.80470443466139L114.84143229166666,126.17207726461116L115.271953125,129.82080960383968L115.37958333333333,129.85673956690366L116.45588541666666,129.16191697349404L116.67114583333333,120.24458773683163L116.77877604166667,120.6340690288266L116.88640625000001,128.82875139688375L116.99403645833334,130.37073776877438L117.20929687499999,133.9060887275652L117.42455729166667,127.93106221801136L117.63981770833334,130.02048981099855L117.96270833333334,133.89336005334837L118.17796875,127.33246111315917L118.28559895833334,133.49447933361546L118.60848958333334,129.45235212972753L118.71611979166667,124.90043880517442L118.93138020833332,130.89418111051526L119.146640625,136.66540254271086L119.25427083333334,127.73097651106563L119.36190104166667,125.17031162453411L119.57716145833332,130.96863571351898L119.68479166666667,131.9745882278264L120.00768229166667,131.1647939686078L120.438203125,131.77711087415207L120.54583333333333,137.20170823887676L120.76109375,137.51056497720668L120.97635416666667,127.09199722990193L121.406875,132.35295844223603L121.51450520833333,133.6742035287317L121.62213541666667,133.47326679193654L121.729765625,130.75479812309848L121.83739583333333,135.00454138663457L121.94502604166667,136.9894198298092L122.05265625,135.00500502228425L122.26791666666666,133.48633629433252L122.6984375,131.0079432057705L122.91369791666666,140.89598316997422L123.021328125,140.5737380412136L123.34421875,136.9837873649993L123.77473958333334,139.3418445055685L124.09763020833333,137.88639628240847L124.31289062500001,138.72235107341413L124.42052083333334,133.4920969797593L124.52815104166666,139.26641164482942L124.95867187500001,131.32840015908926L125.17393229166666,135.28937706918774L125.28156249999999,136.3724841577523L125.38919270833333,134.85915897667746L125.49682291666667,137.63721178386749L125.71208333333334,135.36447572321677L125.81971354166666,126.5387320692281L126.14260416666667,119.51804197756216L126.68075520833334,129.57470000480552L126.896015625,134.6718539128989L127.00364583333332,139.77941698402964L127.21890625,133.5875502349838L127.32653645833334,130.1934464250243L127.75705729166667,132.7158137879345L127.97231770833334,134.86950185744155L128.07994791666667,130.28157894735077L128.18757812500002,123.3392900698511L128.40283854166665,127.42583082847317L128.61809895833335,132.7782500118838L128.72572916666667,130.96847702504402L128.83335937500001,136.07028088113174L129.04861979166665,135.83599155116752L129.15625,139.64547717792405L129.37151041666667,143.18643543168412L129.47914062499999,140.79285278514476L129.58677083333333,145.6603924069655L129.69440104166665,139.91131535802643L129.80203125,138.71700935034073L129.90966145833335,142.7432785071395L130.4478125,137.39982160599675L130.66307291666666,131.91883712801945L130.87833333333333,130.70409814629622L130.98596354166668,134.40099061040905L131.09359375,136.69349190542147L131.63174479166668,135.0729694037455L132.062265625,138.42055403206433L132.27752604166668,141.77376132259386L132.38515625,133.75641467018755L133.0309375,136.83205715147827L133.1385677083333,141.3855243637928L133.2461979166667,140.028283637711L133.353828125,132.93104304936446L133.46145833333335,134.81461630177523L133.89197916666666,134.7982758540073L134.10723958333332,133.48216018334233L134.21486979166664,134.27765753677423L134.86065104166667,138.6593360277265L134.96828125,142.09792783746866L135.291171875,140.70780988819374L135.50643229166667,143.40074496198133L135.61406250000002,141.59974489059482L135.72169270833334,138.26283989079033L135.936953125,139.26780287912516L136.25984375,141.39673456439525L136.36747395833333,138.90588497881828L136.47510416666665,133.21076751462584L136.69036458333335,130.16064689076185L136.79799479166667,137.45764664782112L136.90562500000001,137.83210310836077L137.01325520833333,136.99371548494923L137.12088541666668,131.88840103941772L137.228515625,137.30730853588759L137.55140624999999,135.1306472671803L137.65903645833333,138.5035377773947L137.874296875,141.61960008957575L137.98192708333335,138.87958232457655L138.08955729166667,135.86357678904142L138.41244791666668,139.4300244440582L138.520078125,136.36836245246843L138.62770833333332,137.70618806412813L139.05822916666668,140.73923757931996L139.165859375,138.88265882318188L139.27348958333334,140.65379127931203L139.811640625,139.1558052712663L140.02690104166666,135.47067312523254L140.24216145833336,137.36553895538393L140.34979166666668,138.80436290597376L140.457421875,135.49222303805027L140.7803125,135.14801094151525L140.88794270833333,127.79854192509197L140.99557291666665,133.20996929045137L141.103203125,138.6801256132293L141.2108333333333,139.80393705312048L141.3184635416667,137.34396175106917L141.42609375,137.7607144685812L141.53372395833335,132.44969438912582L141.748984375,138.20616934080468L142.071875,131.0973167958009L142.28713541666664,133.16583580234783L142.394765625,135.85176589110725L142.71765625,139.31273748818606L142.82528645833332,140.88575980185888L143.040546875,142.86035379789703L143.14817708333334,141.3399124578513L143.25580729166666,142.19661470325303L143.3634375,140.58643486425996L143.47106770833332,142.37010240991097L143.68632812500002,142.07513189037402L143.79395833333334,139.792829764361L143.90158854166668,138.9358358012362L144.22447916666667,141.02037275897834L144.54736979166665,137.63990357251018L144.87026041666667,135.5498151290032L144.97789062500001,127.7789288262252L145.19315104166668,125.79715433128396L145.30078125,124.96037648442146L145.40841145833332,127.54935013471696L145.51604166666667,130.63681730991172L145.62367187499999,137.04659031973185L145.73130208333333,139.24262177262807L145.9465625,139.6730794944896L146.48471354166668,138.7776382414309L146.69997395833332,139.76867077863747L146.91523437499998,145.8852851417808L147.13049479166668,144.1583641496836L147.238125,138.4955740551115L147.88390625,135.4331336045335L147.99153645833331,135.1021202403498L148.206796875,136.17188110559647L148.31442708333336,138.15864227754116L148.42205729166668,138.47087819522278L148.852578125,142.89479245895726L149.06783854166665,141.1328952246712L149.2830989583333,140.50467572050505L149.498359375,138.74002268295564L149.60598958333335,143.56477599499178L149.71361979166667,139.9697596336327L150.03651041666666,143.85294931651092L150.144140625,141.04230263627508L150.25177083333332,141.72119576414153L150.46703125,147.1319660721349L150.57466145833334,149.4677964248463L150.89755208333332,141.44463263725405L151.00518229166667,144.97898725090647L151.32807291666666,134.55538570105716L151.435703125,139.31361087977976L151.54333333333332,139.9233579220237L151.75859375000002,138.17651052022273L152.18911458333332,142.13734621476706L152.29674479166667,143.81807654488188L152.404375,144.73273962553017L152.61963541666665,142.6517196321118L152.727265625,144.00104717925396L153.26541666666668,141.36220432389277L153.48067708333332,146.24101967288962L153.80356770833333,144.26135757799543L153.91119791666665,148.9540606856419L154.23408854166667,139.29679054476756L154.34171875,136.4969958198078L154.87986979166666,138.70135167515696L155.09513020833333,142.5650681812028L155.20276041666668,139.48895316826315L155.310390625,140.52667247210152L155.41802083333334,142.1397443085042L155.52565104166666,144.08260884797122L155.63328125,144.89161092937877L155.74091145833333,145.27182645296278L156.06380208333331,148.65432734116857L156.17143229166666,146.0676805885319L156.2790625,147.6889353548156L156.38669270833336,146.7774503514624L156.601953125,138.21246334274227L156.81721354166666,139.79752091127588L156.92484375,141.79880486388774L157.247734375,142.3418758007861L157.3553645833333,141.17075625136542L157.67825520833335,143.5188174428235L158.00114583333334,141.89088539996015L158.43166666666664,138.94118865434726L158.96981770833332,140.63578458839856L159.07744791666667,138.70922314223915L159.185078125,144.33046063792196L159.61559895833332,147.59408263040103L159.93848958333334,138.43073528614278L160.476640625,140.32108596082074L160.79953125,141.67540475001042L161.12242187500001,144.45645564261702L161.33768229166668,146.74158056976012L161.4453125,143.0891825836341L161.76820312499999,142.55700290474314L162.19872395833335,143.28364891449203L162.62924479166668,139.96761521216797L163.05976562499998,142.8676347837374L163.16739583333333,149.82183094744443L163.705546875,149.11336714040226L163.92080729166668,146.13303179747453L164.0284375,146.55141401176544L164.24369791666666,144.79731101767467L164.351328125,144.5474113421729L164.56658854166668,147.26108846684338L165.32,145.6251519301145L166.288671875,146.4468661080403L166.39630208333332,142.40717022871465L166.6115625,144.03305756236438L166.71919270833334,141.23367654176994L167.04208333333332,144.14485715824333L167.14971354166667,143.07575718396063L167.36497395833334,135.7889911276588L167.79549479166667,133.29290733250724L168.01075520833334,141.03740883197784L168.44127604166667,141.5073866884587L168.54890625,146.07479283490997L168.65653645833333,145.18468191366367L168.76416666666665,142.55216495283153L168.871796875,143.10036029658403L169.30231770833333,148.5609720783744L169.40994791666668,143.98793225990428L169.62520833333332,146.1104066132734L169.73283854166667,146.0339832747967L170.163359375,147.9222988305189L170.70151041666668,142.3838704993321L170.809140625,144.390510544255L171.23966145833333,146.1279610604958L171.56255208333334,147.0427713178551L171.88544270833333,142.16099053873606L171.99307291666668,143.1695945893419L172.20833333333331,138.2595113135132L172.31596354166666,144.15318568604735L172.63885416666668,145.68155883945832L172.85411458333334,148.7742778779389L173.71515625,145.7378704065593L174.038046875,150.78198350097867L174.14567708333334,145.61444740496322L174.3609375,138.4265075168706L174.57619791666664,146.08528287789653L174.683828125,149.05587022583575L175.6525,146.8755602143637L175.76013020833332,141.34184242534045L176.19065104166668,148.27281549298985L176.40591145833332,146.46639868936967L176.51354166666667,146.9921735382043L176.621171875,149.0862259572666L176.72880208333333,149.48174837956108L177.05169270833335,144.98850715702156L177.26695312500001,136.98692729183512L177.37458333333333,141.5023994825494L177.48221354166668,142.96289792439114L177.58984375,143.477770765379L177.69747395833332,143.8885682957416L177.80510416666667,143.4041906086224L177.91273437499999,148.0304573291983L178.12799479166665,151.8743062132965L178.235625,150.64851398348782L178.34325520833335,152.26910318058154L178.45088541666667,150.4995166266822L178.558515625,146.24146391568823L178.66614583333333,150.45711702062445L178.77377604166668,155.47585458476473L178.88140625,154.31508112985867L179.09666666666666,152.67472190402862L179.850078125,149.80558865447964L180.17296875,144.288324999905L180.28059895833331,145.3333906289951L180.495859375,144.39621835779306L180.60348958333336,145.9231665263599L181.03401041666666,148.85048892523315L181.141640625,149.00666773512305L181.24927083333333,148.72117518954335L181.6797916666667,149.82970093234096L181.787421875,146.99435383922398L181.89505208333335,150.28518966305336L182.00268229166667,151.89077264684784L182.1103125,153.62842326896026L182.32557291666666,149.6396559482761L182.433203125,148.5057997759019L182.86372395833334,152.69533169551138L182.97135416666669,150.94875551463483L183.078984375,149.86127210691424L183.29424479166667,152.16790602041692L183.61713541666666,154.07608814814483L184.04765625000002,149.96909077266164L184.15528645833334,151.02690375513916L184.26291666666668,148.98305738309338L184.47817708333332,149.96535480846336L184.6934375,146.88220513938737L184.80106770833333,148.2107424938863L185.55447916666668,149.8261788063849L185.87736979166667,146.77579476536317L186.09263020833333,149.06653074577582L186.73841145833333,147.26916391299372L187.06130208333332,147.44630314087095L187.16893229166666,149.07726189307536L187.49182291666668,150.85963236554326L187.92234375,151.55844347429343L188.13760416666668,146.55145121963062L188.245234375,142.76728074848458L188.568125,143.71656765089256L188.67575520833336,148.09060330716267L188.78338541666668,142.90276527318727L188.99864583333334,143.23559759431106L189.21390625,145.8677365068927L189.7520572916667,150.03287400293388L189.96731770833335,145.72617395950803L190.07494791666667,147.23001020568802L190.182578125,148.10967684215998L190.39783854166666,142.58643262594086L190.61309895833332,141.05455641770595L190.72072916666664,147.68536261371347L190.828359375,149.44568898728588L190.93598958333334,143.95003482092827L191.25888020833332,148.23091655624305L191.474140625,150.6905542415104L191.58177083333334,153.63321081312392L191.68940104166666,155.83125957693076L191.79703125,152.01189832837383L191.90466145833332,147.1175286408387L192.22755208333334,141.92570583784195L192.765703125,149.00106482334633L193.30385416666667,153.43906922628383L193.41148437500001,155.50277254489285L193.51911458333333,154.89146705073884L193.94963541666667,153.89150706160137L194.05726562499999,156.7090809121352L194.16489583333333,156.44507279598693L194.91830729166668,156.66374844598164L195.0259375,154.15006786430186L195.24119791666666,155.40417106096032L195.34882812499998,154.14593144915733L195.56408854166668,155.45672548658985L195.994609375,151.9614425305491L196.20986979166668,151.24631727342847L196.42513020833331,150.81433534498538L196.640390625,150.00831056307385L196.74802083333336,151.08360146690814L197.17854166666666,148.0289892809607L197.6090625,146.8249524116508L197.7166927083333,151.92922494809093L197.8243229166667,150.5068865958617L197.931953125,153.20284981350508L198.14721354166667,152.07855730284993L198.25484375,149.4177093234522L198.79299479166664,148.42905689596125L198.900625,153.3776443220829L199.11588541666669,151.3994962576124L199.33114583333332,152.19988131108502L199.43877604166667,152.04657483578544L199.54640625,153.859135720392L199.65403645833334,157.66683557134715L199.869296875,154.3121034320088L200.08455729166667,153.94639988599073L200.515078125,156.13591874371306L200.73033854166667,156.45027831322435L200.94559895833333,154.46550812282086L201.26848958333335,154.05220936525677L201.37611979166667,151.3205764202852L201.806640625,152.37621682207012L202.12953124999999,156.90064745494112L202.34479166666665,155.62300976328984L202.452421875,158.5416635474775L202.56005208333335,153.66728061535645L202.66768229166667,151.13543504598232L202.99057291666668,149.2844186578495L203.098203125,150.72144952765703L203.20583333333332,152.00606690032893L203.31346354166666,148.44468921774546L203.42109374999998,147.14452741897207L203.52872395833333,147.7444213772463L203.85161458333334,146.04319912982865L203.95924479166666,147.95280811756334L204.066875,146.65421950784017L204.28213541666668,147.20614862529266L204.389765625,142.38957108958817L204.49739583333331,142.53297001695003L204.60502604166666,147.0828143464237L204.82028645833336,152.18095949495157L205.035546875,156.24211523149407L205.3584375,153.4388215678228L205.57369791666665,151.7803135197952L205.681328125,154.73388669157592L205.7889583333333,147.64548154915053L205.8965885416667,150.3662543272981L206.54236979166666,153.05455560306046L206.65,148.157105377916L206.972890625,147.14272730930358L207.08052083333334,147.5248610244419L207.18815104166669,150.8077290421244L207.29578125,147.6377743083919L207.83393229166666,150.6285480659137L208.69497395833332,154.15375326388468L208.80260416666667,156.1931723865501L208.910234375,153.19640678517374L209.233125,154.05362359446477L209.44838541666667,152.7670754155638L209.77127604166668,151.9137163189117L209.87890625,152.65790712296226L209.98653645833332,147.83322972202603L210.09416666666667,149.88756585579696L210.30942708333333,151.76085297330667L210.41705729166665,151.67589837262636L210.73994791666667,147.01543504207163L211.27809895833332,149.38769776712778L211.38572916666666,148.70936778956735L211.60098958333333,153.70213453676936L211.70861979166668,152.81906906708375L211.92388020833334,155.3572033207803L212.67729166666666,151.7514049490598L212.784921875,150.25025771552666L212.89255208333336,143.54669355416092L213.21544270833334,146.38189359340655L213.32307291666666,148.26568842177275L213.64596354166665,149.81391918521L213.75359375,148.0957726007184L213.8612239583333,150.05350426348463L213.9688541666667,148.5582192786778L214.18411458333335,149.6013314408834L214.29174479166667,155.44467353618015L214.50700520833334,159.0359209587272L214.722265625,158.27257072284922L214.93752604166664,156.58673714599354L215.04515625,153.05705397202038L215.368046875,151.68309973167734L215.58330729166667,153.84516925233797L215.6909375,153.1301838849033L215.79856770833334,151.74459430074214L216.22908854166667,153.0698403679266L216.44434895833334,155.31968542079235L216.87486979166667,147.21171903917255L217.09013020833333,150.46586837701315L217.305390625,149.60374222321138L217.41302083333335,151.0999343070538L217.84354166666668,151.1271415901665L218.16643229166667,150.65742065546476L218.27406249999999,151.786290163468L218.48932291666665,148.98133692430727L218.596953125,151.57912294016083L218.81221354166667,151.1617236386315L218.91984375,153.6307080241962L219.02747395833333,154.68539408220641L219.242734375,155.65124151831705L219.35036458333332,155.88794053033493L219.45799479166666,152.50338074179572L220.10377604166666,153.57636438358327L220.21140625,152.62927807784678L220.31903645833333,155.21471042143295L220.42666666666668,151.6370440304044L220.534296875,156.01573568953185L220.8571875,157.64146063780683L221.07244791666668,153.12907308669085L221.39533854166666,155.0784902760709L221.825859375,152.06414174895434L222.25638020833335,150.99970226884824L222.36401041666667,156.56435925852605L222.471640625,155.873406077162L222.57927083333334,152.04525835051274L223.00979166666664,153.64222159916392L223.117421875,154.04258502733808L223.22505208333334,152.1133671240019L223.33268229166669,155.78452507057642L223.4403125,155.71214491906824L223.65557291666667,153.96230112813564L223.87083333333334,148.27713831308014L223.97846354166666,153.33132028900758L224.30135416666667,153.90067639133736L224.40898437500002,152.23609554212166L224.62424479166668,154.17539307993985L224.83950520833332,152.66002345366212L225.054765625,149.09352013744487L225.16239583333333,152.1896843998241L225.59291666666667,148.65739693592386L226.0234375,152.3232190906466L226.23869791666667,153.97162800684154L226.34632812499999,151.7213558650243L226.77684895833335,154.412237887465L226.992109375,152.0148262495875L227.09973958333333,153.2824366298179L227.20736979166668,150.16617763090323L227.53026041666666,151.74845583639893L227.85315104166668,153.84030907840938L228.06841145833334,150.3126191076078L228.71419270833331,152.93969978759253L228.82182291666666,153.62601446929875L228.929453125,156.2562745944775L229.14471354166668,156.06707652533566L229.25234375,152.6676596426376L229.575234375,153.20786527474237L229.898125,156.08213100554318L230.0057552083333,158.6261804732674L230.32864583333335,157.4183788569752L230.43627604166667,158.5608002153057L230.54390625,156.8742911245666L230.65153645833334,149.33276566553815L230.97442708333332,152.09129593966782L231.1896875,155.35433750880847L231.512578125,155.94471257344054L231.62020833333332,152.69260569918626L231.83546875,152.44787628022416L232.158359375,150.25268196657538L232.58888020833334,149.5511608981616L232.69651041666668,147.92174423547993L232.804140625,150.17027933895534L232.91177083333332,150.78271672117958L233.01940104166667,155.40884765179342L233.23466145833333,158.79248511765607L233.34229166666665,156.89226454655633L233.449921875,156.18542259570765L233.55755208333335,160.87437750203588L234.20333333333332,154.86683405078048L234.41859374999999,156.31273948044907L234.52622395833333,157.47464173166503L234.63385416666665,154.25233234159901L234.741484375,154.22377253303642L234.84911458333335,152.82993725358523L234.95674479166667,157.5001475434118L235.064375,152.69433291460786L235.27963541666668,149.04974406083727L235.49489583333332,151.21242884380737L235.60252604166666,153.38854890585128L235.71015624999998,155.22325384214443L235.92541666666668,155.51787488517118L236.033046875,156.79683778654737L236.14067708333334,157.9879715479824L236.3559375,158.56150234532024L236.78645833333331,158.14183046190686" style="fill: none;" fill="none"></path></g></g></g></g><g opacity="0.2"><g><g><g><path stroke="rgb(255, 112, 67)" stroke-width="2px" d="M30.566979166666666,-11.029710715636611L30.782239583333336,9.516688312171027L31.21276041666667,-18.824929559603333L31.320390624999998,-18.455328666139394L31.858541666666667,17.238528832560405L32.2890625,22.113135944120586L32.39669270833333,11.083814331097528L32.71958333333333,21.800961564760655L33.04247395833334,18.57299897633493L33.150104166666665,-19.624292456544936L33.36536458333334,2.285289972089231L33.903515625000004,29.57612670538947L34.11877604166666,17.161061275284737L34.65692708333333,16.58899900317192L35.08744791666667,11.242155030369759L35.195078125,7.6774193595629185L35.41033854166667,27.153603893704712L35.625598958333335,16.426771632861346L35.73322916666667,45.63752257777378L35.840859375,52.187917915172875L36.27138020833333,43.78159284638241L36.37901041666667,29.61339823482558L37.024791666666665,78.2643661815673L37.132421875,39.856422242475674L37.34768229166667,-4.0156747698783875L37.4553125,49.57512546493672L37.778203125,11.208757511805743L38.53161458333334,59.79384195338935L38.746874999999996,6.017506982199848L38.854505208333336,46.90561546990648L39.069765625,71.46631267201154L39.28502604166666,68.87814424512906L39.500286458333335,67.87687701685353L39.93080729166667,27.620827329112217L40.0384375,68.0783762228675L40.146067708333334,55.07781608426012L40.46895833333333,35.91971822711639L40.576588541666666,58.591430003754795L40.68421875,33.50824774056673L40.79184895833333,59.320453017018735L41.007109375,-2.891679889988154L41.11473958333334,67.65085506881587L41.43763020833334,62.40401374921203L41.545260416666665,61.51433322625235L41.652890625,21.70630150171928L41.975781250000004,27.82917568506673L42.08341145833333,69.34438018756917L42.19104166666666,43.881810722406954L42.298671875000004,66.56815765122883L42.6215625,76.82781711732967L43.05208333333333,70.90039058052933L43.15971354166667,60.21189330308698L43.37497395833333,22.801253960235044L43.48260416666667,60.56307365465909L43.590234375,46.66365437256172L43.697864583333335,73.67617001105098L43.913125,75.83956453995778L44.12838541666667,51.5196130592376L44.34364583333333,81.41083527985028L44.55890625,60.367993152933195L44.774166666666666,61.99146957183257L44.881796875,57.83330126828514L45.097057291666665,52.11541314306669L45.2046875,90.72046321048401L45.31231770833333,46.747895118780434L45.41994791666667,44.0888677414041L45.527578125,55.55986457434483L45.74283854166667,67.62723119859584L45.85046875,72.18614440457894L46.28098958333334,88.01832796703093L46.926770833333336,73.35850111953913L47.14203125,69.59282329003325L47.249661458333335,60.73070691595785L47.35729166666666,56.44558246526867L47.572552083333335,67.74435039656237L47.68018229166666,66.26756732398644L47.895442708333334,69.47737523401155L48.00307291666667,80.63788148970342L48.110703125,61.27062502596527L48.218333333333334,88.00150260608643L48.756484375,66.1922140144743L48.86411458333333,68.48180508054791L48.971744791666666,44.5489381828811L49.294635416666665,41.84025763347745L49.402265625,86.2760358878877L49.50989583333334,57.71687837946229L49.617526041666665,67.56644974043593L49.83278645833333,45.513351667206734L50.693828125,83.53041297337039L50.80145833333333,68.32369226426816L51.12434895833333,83.89431679202242L51.23197916666667,86.1643605614081L51.339609375,85.8413997204043L51.55486979166667,64.32354815583676L51.770130208333335,58.14369056420401L51.985390625,72.86670430144294L52.093020833333334,83.32490049465558L52.30828125,81.40170729998498L52.52354166666667,94.85622301977128L52.631171875,83.68800672283395L52.846432291666666,72.56921571493147L53.38458333333333,75.56580110499634L53.49221354166667,57.36078588338569L53.59984375,98.1282429867424L53.70747395833333,73.43433551536872L54.35325520833334,88.14149872446433L54.568515624999996,71.89174489863215L54.78377604166667,46.03873590636067L54.891406249999996,91.12494286196306L55.214296875,57.09193459292874L55.321927083333335,83.38188390294088L55.644817708333335,93.07284870115109L55.860078125,70.33550662267952L55.967708333333334,77.39281501667573L56.290598958333334,69.46982977492733L56.505859375,75.5129702312406L57.044010416666666,89.30015713954344L57.151640625,72.1798396417871L57.25927083333334,96.21669714502059L57.366901041666665,59.999253150774166L57.90505208333333,96.35283191269264L58.012682291666664,96.94108653743751L58.22794270833333,71.4168367423117L58.55083333333333,87.22201617015526L58.65846354166666,118.96449652081355L58.76609375,89.21834714524448L58.87372395833333,108.30725086375605L59.088984375,95.79506296827458L59.30424479166667,98.6920824808767L59.51950520833333,77.09565559448673L59.62713541666667,98.21982662938535L59.734765625,88.15299415541813L60.165286458333334,91.25820377189666L60.380546875,100.65457916166633L60.59580729166667,107.79643214587122L60.7034375,68.9468129868619L60.81106770833333,82.4836451075971L60.918697916666666,82.09973822627215L61.026328125,97.41968513221946L61.13395833333333,103.57733679225203L61.241588541666665,103.28041158313863L61.88736979166667,84.42237232625483L62.21026041666667,106.36877051834017L62.317890625,81.39142724499105L63.071302083333336,85.94128843210638L63.17893229166667,75.78511316492221L63.609453125,102.50129229202867L63.717083333333335,88.86914177960716L63.82471354166666,76.90988031495361L63.93234375,97.64892909256741L64.03997395833333,104.93148716446012L64.14760416666667,97.56421359011438L64.255234375,118.86139845696744L64.36286458333333,101.00416433229111L64.47049479166667,92.34052138449624L64.578125,100.8036969298264L64.79338541666667,98.08594537130557L64.901015625,108.67628837982193L65.11627604166667,90.08180213382002L65.546796875,84.19824940315446L65.65442708333333,106.32673876639456L65.97731770833333,98.02681606484111L66.08494791666668,98.95912969764322L66.192578125,101.96068420296069L66.30020833333333,89.55058155802544L66.62309895833334,84.64293774263932L66.94598958333333,97.57494308101013L67.05361979166666,98.17728847078979L67.37651041666666,102.29757755692117L67.484140625,84.73007766692898L67.91466145833334,48.35874935192987L68.02229166666666,78.70843417290597L68.34518229166667,105.90019244514406L68.45281250000001,84.64519125223158L68.56044270833334,105.56086200918071L68.66807291666666,103.44356314558536L68.77570312499999,52.62482025241479L68.88333333333333,106.72544538206421L68.99096354166667,86.80745902634226L69.09859375,118.26540847064462L69.31385416666666,110.48174202837981L69.42148437499999,101.3049382319441L69.52911458333334,98.60141037020367L69.63674479166667,91.76469271292444L70.067265625,108.50036270963028L70.17489583333334,107.38703401980456L70.28252604166667,106.90218130289577L70.39015625,89.3087533924263L70.49778645833332,91.02552257641219L70.713046875,99.06277214863803L70.92830729166667,105.72819775657263L71.14356770833332,103.38269939634483L71.25119791666667,90.65166786708869L71.57408854166667,103.85292329115327L71.68171875,105.39733064174652L71.78934895833333,114.7648408524692L72.004609375,94.49280661751982L72.21986979166667,96.92379275034182L72.650390625,102.50606517470442L72.75802083333333,100.19256538467016L73.08091145833333,91.20478420041036L73.18854166666667,93.67690321337432L73.296171875,105.41145938728005L73.40380208333333,87.62265979126096L73.51143229166667,102.2532416547183L73.6190625,100.74888474005274L73.72669270833333,93.79239557997789L73.941953125,114.06046718289144L74.04958333333333,93.87730098492466L74.15721354166668,105.84097451751586L74.26484375,114.85080971138086L74.48010416666666,110.16457321343478L74.80299479166668,129.03501310315914L75.233515625,103.48125246050768L75.55640625,115.91924545168877L75.66403645833333,133.10371834191028L75.77166666666666,99.36771124298684L76.09455729166666,126.03904806124046L76.30981770833333,106.53528335492592L76.41744791666667,98.5088329045102L76.52507812500001,126.77452142920811L76.63270833333334,129.0757281978149L76.74033854166666,114.79530754254665L76.84796874999999,101.30274169309996L76.95559895833333,101.41329026478343L77.27848958333334,94.43928576470353L77.38611979166666,111.11203473515343L77.49374999999999,106.39615445793606L77.60138020833334,113.47923895041458L77.92427083333334,75.48083872930145L78.67768229166666,87.12496333569288L79.00057291666667,43.70104886870831L79.108203125,101.69230766873807L79.32346354166667,109.79961227090098L79.43109375,84.35036130063234L79.53872395833334,83.25940945465116L79.64635416666667,97.6416938075563L79.753984375,94.06116457935423L79.96924479166667,56.264959873398766L80.076875,82.15164490789174L80.18450520833333,106.02402153122239L80.399765625,103.24176009558141L80.50739583333333,119.66064108232968L80.83028645833333,118.20140500017442L81.045546875,107.45036017138045L81.26080729166667,118.6317430412164L81.3684375,130.06186652742326L81.47606770833333,98.54223675315734L82.12184895833333,110.03025517961942L82.22947916666668,115.20374982606154L82.337109375,103.8900682189269L82.76763020833334,111.45208680059295L83.09052083333333,119.01802370371297L83.30578125,125.94227375043556L83.628671875,111.54649999039248L84.05919270833334,124.11018311209045L84.48971354166667,116.37011195230298L84.59734375000001,96.98005452915095L84.70497395833334,105.58675837924238L84.92023437499999,110.96381583879702L85.13549479166667,108.96482622879557L85.243125,96.27442750311457L85.35075520833334,119.46381980774458L85.56601562499999,128.08601337124128L85.78127604166667,127.11101598793175L85.88890625,116.39568548812531L85.99653645833334,116.18150079553016L86.10416666666666,112.92107754084282L86.31942708333334,127.89750982588157L86.42705729166667,102.47033185546752L86.5346875,95.05220872338396L86.74994791666666,127.49035254924092L87.07283854166667,129.0659798698034L87.28809895833332,105.59637377550825L87.61098958333334,129.08255202742293L87.71861979166667,117.67534344212618L87.93388020833333,110.67396766261663L88.149140625,118.06221280235332L88.36440104166667,112.80821215873584L88.57966145833333,129.33433741377667L88.68729166666667,124.84863794920966L89.01018229166667,122.11121249233838L89.22544270833333,134.8068398666801L89.33307291666667,101.6009772294201L89.76359375,133.15792917378712L89.97885416666666,115.2489909301512L90.19411458333333,108.71228123246692L90.51700520833333,104.98891367856413L90.62463541666666,121.16625135345384L90.732265625,110.13695506076328L90.83989583333334,118.51954231783748L90.94752604166668,128.66715931263752L91.05515625,118.87606525956653L91.48567708333334,85.2028209348209L91.7009375,112.6087765598204L91.80856770833333,119.04396438435651L91.91619791666666,124.64137203746941L92.02382812500001,125.34800554672256L92.13145833333334,115.6045137187466L92.45434895833333,122.07259898527991L92.56197916666667,94.48044396517798L92.66960937500001,108.89984792552423L93.42302083333334,79.08156725275329L93.74591145833334,119.25497137522325L94.2840625,122.86211227288004L94.39169270833334,124.88287736882921L94.49932291666667,125.4082489478169L94.82221354166666,108.32182904519141L95.03747395833334,118.85398592962883L95.14510416666667,108.2221682164818L95.252734375,127.57021920802072L95.575625,140.58093913004268L96.11377604166667,126.24509859702084L96.32903645833333,136.3680345977191L96.43666666666667,113.35623277514242L96.544296875,122.38509619887918L96.65192708333333,115.47662071930245L96.8671875,121.15737657691352L97.190078125,134.90999490127433L97.29770833333333,121.6785323205404L97.51296875,130.43665808904916L97.94348958333333,127.27167982771061L98.05111979166666,118.6333572124131L98.26638020833333,115.15652740595397L98.58927083333333,129.80056069605052L98.80453125,121.83555636252277L99.01979166666668,121.11312929587439L99.127421875,118.10295954742469L99.23505208333333,112.66645627724938L99.4503125,93.28508372814395L99.66557291666666,136.007029957138L99.773203125,101.67512782313861L99.88083333333333,127.64081229502335L99.98846354166666,119.77969728573225L100.09609375000001,133.5397914382629L100.31135416666666,139.46691413107328L100.418984375,90.83808881510049L100.52661458333333,131.27204548905138L101.06476562499999,105.29030159628019L101.17239583333333,123.77936663792934L101.28002604166667,116.31513518036809L101.49528645833334,120.86864249536302L101.60291666666666,119.98478564887773L101.71054687499999,133.64206659130286L101.81817708333334,127.5971853621304L102.57158854166667,128.54149450245313L102.89447916666666,105.03595885634422L103.002109375,130.32136828510556L103.21736979166667,122.97432565642521L103.75552083333334,125.98804658150766L103.86315104166667,116.56180585955735L103.97078125,107.78274017607328L104.293671875,129.0403873437317L104.40130208333333,123.40840477659367L104.72419270833333,115.41441499243956L104.83182291666667,120.07689468842L105.04708333333333,141.1071019694209L105.15471354166667,119.12128634972032L105.36997395833333,134.98693073156755L105.47760416666667,112.5013677093666L105.585234375,128.0145530628506L105.69286458333333,128.75569818529766L105.80049479166667,110.82604790967889L106.44627604166668,140.23417084640823L106.55390625,134.1623297932092L106.76916666666666,136.21526437159628L106.98442708333334,124.05042712739669L107.1996875,115.66725750267506L107.30731770833333,101.85047112568282L107.63020833333334,99.50084555125795L107.73783854166666,131.96591122064274L108.16835937500001,146.48645724914968L108.27598958333334,139.13562290067784L108.38361979166666,132.26962227886543L108.49125,112.07475808728486L108.81414062500001,133.8288356938865L109.13703124999999,130.2947756059002L109.67518229166666,122.20253660157323L109.78281249999999,139.91218483820558L109.99807291666667,132.47591968788765L110.105703125,113.31926508969627L110.21333333333334,130.00798485986888L110.42859375,132.9825289004948L110.53622395833334,132.2883656549966L110.64385416666667,122.41434751299676L110.751484375,128.40465709555428L111.18200520833334,130.26054251636378L111.28963541666667,131.48413492413238L111.50489583333332,130.96994227194227L111.61252604166667,143.3178328599315L111.72015625,125.68615225714166L111.93541666666667,119.07937486935407L112.043046875,147.10529250546824L112.3659375,129.1709959488362L112.58119791666667,130.90324851614423L113.11934895833333,108.16274772619363L113.22697916666667,127.90156740916427L113.54986979166667,132.9986832726281L113.87276041666667,141.7547897446202L114.19565104166666,124.90442497178447L114.41091145833333,129.4218381528044L114.73380208333333,124.81543033313937L114.84143229166666,123.72313650953583L115.271953125,135.2939081126824L115.37958333333333,129.91063451149967L116.45588541666666,128.11968308337964L116.67114583333333,106.86859388183802L116.77877604166667,121.21829096681904L116.88640625000001,141.12077494896948L116.99403645833334,132.68371732661035L117.20929687499999,139.20911516575143L117.42455729166667,118.96852245368063L117.63981770833334,133.15463120047934L117.96270833333334,139.70266541687306L118.17796875,117.4911127028754L118.28559895833334,142.73750666429987L118.60848958333334,123.38916132389568L118.71611979166667,118.07256881834473L118.93138020833332,139.88479456852656L119.146640625,145.32223469100427L119.25427083333334,114.32933746359777L119.36190104166667,121.32931429473683L119.57716145833332,139.66612184699625L119.68479166666667,133.48351699928753L120.00768229166667,129.95010257977992L120.438203125,132.6955862324685L120.54583333333333,145.3386042859638L120.76109375,137.97385008470155L120.97635416666667,111.46414560894482L121.406875,140.24440026073717L121.51450520833333,135.65607115847524L121.62213541666667,133.1718616867438L121.729765625,126.6770951198414L121.83739583333333,141.37915628193878L121.94502604166667,139.96673749457113L122.05265625,132.02838281099685L122.26791666666666,131.2083332024049L122.6984375,127.29035357292742L122.91369791666666,155.72804311627988L123.021328125,140.0903703480726L123.34421875,131.5988613506779L123.77473958333334,142.8789302164223L124.09763020833333,135.70322394766845L124.31289062500001,139.97628325992264L124.42052083333334,125.64671583927702L124.52815104166666,147.9278836424346L124.95867187500001,119.42138293047901L125.17393229166666,141.2308424343355L125.28156249999999,137.99714479059912L125.38919270833333,132.5891712050652L125.49682291666667,141.80429099465255L125.71208333333334,131.9553716322407L125.81971354166666,113.30011658824515L126.14260416666667,108.98700684006326L126.68075520833334,144.65968704567058L126.896015625,142.317584775039L127.00364583333332,147.44076159072574L127.21890625,124.29975011141505L127.32653645833334,125.10229071008507L127.75705729166667,136.49936483229976L127.97231770833334,138.10003396170214L128.07994791666667,123.39969458221458L128.18757812500002,112.92585675360169L128.40283854166665,133.55564196640626L128.61809895833335,140.80687878699973L128.72572916666667,128.2538175447844L128.83335937500001,143.7229866652633L129.04861979166665,135.48455755622126L129.15625,145.3597056180588L129.37151041666667,148.4978728123242L129.47914062499999,137.20247881533578L129.58677083333333,152.96170183969662L129.69440104166665,131.28769978461787L129.80203125,136.92555033881217L129.90966145833335,148.78268224233761L130.4478125,129.38463625428267L130.66307291666666,123.69736041105352L130.87833333333333,128.88198967371136L130.98596354166668,139.94632930657826L131.09359375,140.13224384794012L131.63174479166668,132.64218565123156L132.062265625,143.44193097454263L132.27752604166668,146.80357225838816L132.38515625,121.73039469157811L133.0309375,141.44552087341435L133.1385677083333,148.21572518226458L133.2461979166667,137.99242254858837L133.353828125,122.2851821668446L133.46145833333335,137.6399761803914L133.89197916666666,134.77376518235542L134.10723958333332,131.5079866773449L134.21486979166664,135.47090356692206L134.86065104166667,145.23185376415495L134.96828125,147.2558155520819L135.291171875,138.62263296428137L135.50643229166667,147.44014757266268L135.61406250000002,138.8982447835151L135.72169270833334,133.2574823910836L135.936953125,140.7752473616274L136.25984375,144.59013209230034L136.36747395833333,135.16961060045287L136.47510416666665,124.66809131833725L136.69036458333335,125.58546595496591L136.79799479166667,148.40314628341002L136.90562500000001,138.39378779917024L137.01325520833333,135.7361340498319L137.12088541666668,124.23042937112041L137.228515625,145.43566978059243L137.55140624999999,131.86565536411945L137.65903645833333,143.56287354271626L137.874296875,146.2936935578473L137.98192708333335,134.76955567707773L138.08955729166667,131.3395684857387L138.41244791666668,144.77969592658337L138.520078125,131.77586946508382L138.62770833333332,139.71292648161761L139.05822916666668,145.28881185210776L139.165859375,136.09779068897478L139.27348958333334,143.31048996350728L139.811640625,136.90882625919767L140.02690104166666,129.94297490618192L140.24216145833336,140.20783770061098L140.34979166666668,140.9625988318585L140.457421875,130.52401323616505L140.7803125,134.63169279671274L140.88794270833333,116.77433840045705L140.99557291666665,141.32711033849046L141.103203125,146.8853600973962L141.2108333333333,141.48965421295725L141.3184635416667,133.65399879799224L141.42609375,138.3858435448492L141.53372395833335,124.48316426994279L141.748984375,146.84088176832302L142.071875,120.43403797829524L142.28713541666664,136.2686143121682L142.394765625,139.88066102424636L142.71765625,144.5041948838043L142.82528645833332,143.24529327236814L143.040546875,145.8222447919543L143.14817708333334,139.0592504477827L143.25580729166666,143.48166807135567L143.3634375,138.17116510577034L143.47106770833332,145.0456037283875L143.68632812500002,141.63267611106858L143.79395833333334,136.36937657534145L143.90158854166668,137.65034485654905L144.22447916666667,144.14717819559155L144.54736979166665,132.56919979280792L144.87026041666667,132.4146824637428L144.97789062500001,116.12259937205818L145.19315104166668,122.82449258887209L145.30078125,123.7052097141277L145.40841145833332,131.43281061016023L145.51604166666667,135.26801807270385L145.62367187499999,146.66124983446207L145.73130208333333,142.5366689519724L145.9465625,140.3187660772819L146.48471354166668,137.43447636184283L146.69997395833332,141.25521958444733L146.91523437499998,155.0602066864958L147.13049479166668,141.56798266153783L147.238125,130.00138891325332L147.88390625,130.8394729286665L147.99153645833331,134.6056001940742L148.206796875,137.77652240346652L148.31442708333336,141.13878403545823L148.42205729166668,138.9392320717452L148.852578125,149.53066385455895L149.06783854166665,138.49004937324207L149.2830989583333,139.56234646425582L149.498359375,136.09304312663153L149.60598958333335,150.801905963046L149.71361979166667,134.57723509159405L150.03651041666666,149.6777338408283L150.144140625,136.82633261592127L150.25177083333332,142.73953545594122L150.46703125,155.24812153412495L150.57466145833334,152.9715419539134L150.89755208333332,129.40988695586566L151.00518229166667,150.2805191713851L151.32807291666666,118.9199833762832L151.435703125,146.4509486478637L151.54333333333332,140.8379784853896L151.75859375000002,135.55623941752128L152.18911458333332,148.07859975658357L152.29674479166667,146.3391720400541L152.404375,146.10473424650263L152.61963541666665,139.53018964198418L152.727265625,146.0250384999672L153.26541666666668,137.403940040851L153.48067708333332,153.5592426963849L153.80356770833333,141.29186443565413L153.91119791666665,155.9931153471116L154.23408854166667,124.8108853334561L154.34171875,132.29730373236816L154.87986979166666,142.00788545818068L155.09513020833333,148.36064294027165L155.20276041666668,134.87478064885363L155.310390625,142.08325142785907L155.41802083333334,144.55935206310824L155.52565104166666,146.99690565717174L155.63328125,146.1051140514901L155.74091145833333,145.84214973833878L156.06380208333331,153.72807867347728L156.17143229166666,142.18771045957692L156.2790625,150.12081750424113L156.38669270833336,145.4102228464326L156.601953125,125.36498282966204L156.81721354166666,142.17510726407636L156.92484375,144.80073079280555L157.247734375,143.15648220613366L157.3553645833333,139.41407692723442L157.67825520833335,147.04090923001058L158.00114583333334,139.44898733566515L158.43166666666664,134.51664353592787L158.96981770833332,143.1776784894755L159.07744791666667,135.81938097300008L159.185078125,152.76231688144617L159.61559895833332,152.48951561911963L159.93848958333334,124.68571426975541L160.476640625,143.1566119728377L160.79953125,143.706882933795L161.12242187500001,148.62803198152687L161.33768229166668,150.16926796047483L161.4453125,137.61058560444508L161.76820312499999,141.75873338640667L162.19872395833335,144.37361792911543L162.62924479166668,134.99356465868186L163.05976562499998,147.21766414109152L163.16739583333333,160.25312519300496L163.705546875,148.05067142983899L163.92080729166668,141.66252878308296L164.0284375,147.1789873332018L164.24369791666666,142.16615652653854L164.351328125,144.17256182892015L164.56658854166668,151.33160415384918L165.32,143.17124712502118L166.288671875,147.67943737492897L166.39630208333332,136.34762640972622L166.6115625,146.471888562839L166.71919270833334,137.0346050108783L167.04208333333332,148.5116280829534L167.14971354166667,141.47210722253658L167.36497395833334,124.8588420432061L167.79549479166667,129.54878163977992L168.01075520833334,152.6541610811837L168.44127604166667,142.21235347317997L168.54890625,152.9259020545869L168.65653645833333,143.84951553179417L168.76416666666665,138.60338951158337L168.871796875,143.9226533122128L169.30231770833333,156.75188975105993L169.40994791666668,137.12837253219914L169.62520833333332,149.29411814332707L169.73283854166667,145.91934826708166L170.163359375,150.75477216410218L170.70151041666668,134.07622800255194L170.809140625,147.40047061163932L171.23966145833333,148.73413683485705L171.56255208333334,148.4149867038941L171.88544270833333,134.83831937005743L171.99307291666668,144.6825006652507L172.20833333333331,130.89438639977016L172.31596354166666,152.9936972448486L172.63885416666668,147.97411856957478L172.85411458333334,153.4133564356598L173.71515625,141.18325919948984L174.038046875,158.34815314260777L174.14567708333334,137.86314326093998L174.3609375,127.6445976847317L174.57619791666664,157.57344591943547L174.683828125,153.51175124774454L175.6525,143.6050951971556L175.76013020833332,133.04126574180555L176.19065104166668,158.66927509446396L176.40591145833332,143.75677348393947L176.51354166666667,147.7808358114562L176.621171875,152.2273045858601L176.72880208333333,150.07503201300278L177.05169270833335,138.24864532321226L177.26695312500001,124.98455749405548L177.37458333333333,148.27560776862083L177.48221354166668,145.15364558715373L177.58984375,144.25008002686081L177.69747395833332,144.5047645912855L177.80510416666667,142.67762407794362L177.91273437499999,154.9698574100621L178.12799479166665,157.64007953944383L178.235625,148.80982563877478L178.34325520833335,154.69998697622214L178.45088541666667,147.84513679583324L178.558515625,139.85438484919723L178.66614583333333,156.78059667802881L178.77377604166668,163.00396093097515L178.88140625,152.57392094749957L179.09666666666666,150.21418306528358L179.850078125,145.50188878015615L180.17296875,136.01242951804306L180.28059895833331,146.90098907263018L180.495859375,142.99045995099004L180.60348958333336,148.2135887792101L181.03401041666666,153.24147252354305L181.141640625,149.24093594995793L181.24927083333333,148.2929363711737L181.6797916666667,151.4924895465374L181.787421875,142.74133319954854L181.89505208333335,155.22144339879742L182.00268229166667,154.29914712253958L182.1103125,156.23489920212887L182.32557291666666,143.65650496724993L182.433203125,146.8050155173405L182.86372395833334,158.97962957492564L182.97135416666669,148.32889124331996L183.078984375,148.2300469953334L183.29424479166667,155.62785689067096L183.61713541666666,156.93836133973673L184.04765625000002,143.80859470943687L184.15528645833334,152.61362322885543L184.26291666666668,145.9172878250247L184.47817708333332,151.4388009465183L184.6934375,142.2574806357734L184.80106770833333,150.2035485256347L185.55447916666668,152.2493332751328L185.87736979166667,142.20021870383061L186.09263020833333,152.50263471639482L186.73841145833333,144.57311366382055L187.06130208333332,147.71201198268682L187.16893229166666,151.52370002138196L187.49182291666668,153.53318807424512L187.92234375,152.60666013741866L188.13760416666668,139.04096283763647L188.245234375,137.09102504176553L188.568125,145.14049800450448L188.67575520833336,154.6516567915678L188.78338541666668,135.1210082222242L188.99864583333334,143.73484607599676L189.21390625,149.81594487576513L189.7520572916667,156.28058024699567L189.96731770833335,139.26612389436923L190.07494791666667,149.485764574958L190.182578125,149.42917679686798L190.39783854166666,134.30156630161218L190.61309895833332,138.75674210535362L190.72072916666664,157.63157190772472L190.828359375,152.08617854764452L190.93598958333334,135.70655357139185L191.25888020833332,154.65223915921524L191.474140625,154.38001076941146L191.58177083333334,158.04719567054417L191.68940104166666,159.12833272264106L191.79703125,146.28285645553842L191.90466145833332,139.77597410953604L192.22755208333334,134.13797163334675L192.765703125,159.61410330160288L193.30385416666667,160.0960758306901L193.41148437500001,158.59832752280636L193.51911458333333,153.97450880950782L193.94963541666667,152.39156707789516L194.05726562499999,160.93544168793596L194.16489583333333,156.0490606217645L194.91830729166668,156.99176192097366L195.0259375,150.37954699178226L195.24119791666666,157.28532585594803L195.34882812499998,152.2585720314528L195.56408854166668,157.42291654273868L195.994609375,146.71851809648797L196.20986979166668,150.1736293877475L196.42513020833331,150.16636245232075L196.640390625,148.7992733902065L196.74802083333336,152.6965378226596L197.17854166666666,143.4470710020396L197.6090625,145.01889710768592L197.7166927083333,159.58563375275116L197.8243229166667,148.37337906751782L197.931953125,157.24679463997018L198.14721354166667,150.3921185368672L198.25484375,145.42643735435558L198.79299479166664,146.94607825472485L198.900625,160.80052546126535L199.11588541666669,148.43227416090667L199.33114583333332,153.40045889129397L199.43877604166667,151.81661512283608L199.54640625,156.57797704730183L199.65403645833334,163.37838534777984L199.869296875,149.28000522300135L200.08455729166667,153.3978445669636L200.515078125,159.42019703029655L200.73033854166667,156.92181766749127L200.94559895833333,151.48835283721564L201.26848958333335,153.43226122891065L201.37611979166667,147.22312700282782L201.806640625,153.9596774247475L202.12953124999999,163.6872934042476L202.34479166666665,153.70655322581297L202.452421875,162.91964422375895L202.56005208333335,146.35570621717488L202.66768229166667,147.33766669192119L202.99057291666668,146.50789407565026L203.098203125,152.87699583236827L203.20583333333332,153.93299295933684L203.31346354166666,143.10262269387022L203.42109374999998,145.194284720812L203.52872395833333,148.64426231465768L203.85161458333334,143.49136575870216L203.95924479166666,150.81722159916535L204.066875,144.7063365932554L204.28213541666668,148.03404230147135L204.389765625,135.1647047860315L204.49739583333331,142.74806840799283L204.60502604166666,153.90758084063418L204.82028645833336,159.82817721774336L205.035546875,162.33384883630788L205.3584375,149.23388107231585L205.57369791666665,149.2925514477538L205.681328125,159.164246449247L205.7889583333333,137.01287383551244L205.8965885416667,154.44741349451942L206.54236979166666,157.08700751670403L206.65,140.8109300401993L206.972890625,145.62116020638496L207.08052083333334,148.09806159714935L207.18815104166669,155.7320310686482L207.29578125,142.88284220779315L207.83393229166666,155.11470870219637L208.69497395833332,159.4415610608412L208.80260416666667,159.25230107054813L208.910234375,148.70125838310923L209.233125,155.33944880840136L209.44838541666667,150.83725314721232L209.77127604166668,150.63367767393356L209.87890625,153.7741933290381L209.98653645833332,140.5962136206217L210.09416666666667,152.96907005645335L210.30942708333333,154.57078364957124L210.41705729166665,151.54846647160593L210.73994791666667,140.02474004623946L211.27809895833332,152.946091854712L211.38572916666666,147.69187282322673L211.60098958333333,161.1912846575724L211.70861979166668,151.49447086255532L211.92388020833334,159.1644047013251L212.67729166666666,146.34270739147905L212.784921875,147.99853686522692L212.89255208333336,133.49134731211234L213.21544270833334,150.63469365227502L213.32307291666666,151.09138066432206L213.64596354166665,152.13626533036586L213.75359375,145.51855272398097L213.8612239583333,152.99010175763397L213.9688541666667,146.31529180146754L214.18411458333335,151.16599968419177L214.29174479166667,164.2096866791253L214.50700520833334,164.42279209254775L214.722265625,157.1275453690323L214.93752604166664,154.05798678071005L215.04515625,147.7625292110606L215.368046875,149.62216837116284L215.58330729166667,157.0882735333289L215.6909375,152.05770583375124L215.79856770833334,149.66620992450044L216.22908854166667,155.05770946870325L216.44434895833334,158.69445300009102L216.87486979166667,135.04976946674287L217.09013020833333,155.347092383774L217.305390625,148.31055299250875L217.41302083333335,153.34422243281733L217.84354166666668,151.16795251483563L218.16643229166667,149.9528392534121L218.27406249999999,153.4795944254729L218.48932291666665,144.77390706556616L218.596953125,155.4758019639412L218.81221354166667,150.53562468633754L218.91984375,157.33418460254325L219.02747395833333,156.26742316922173L219.242734375,157.100012672483L219.35036458333332,156.24298904836178L219.45799479166666,147.4265410589869L220.10377604166666,155.18583984626457L220.21140625,151.208648619242L220.31903645833333,159.09285893681226L220.42666666666668,146.27054444386158L220.534296875,162.58377317822305L220.8571875,160.08004806021927L221.07244791666668,146.36049176001688L221.39533854166666,158.002616060141L221.825859375,147.5426189582795L222.25638020833335,149.40304304868914L222.36401041666667,164.91134474304272L222.471640625,154.83697630511597L222.57927083333334,146.30303676053882L223.00979166666664,156.0376664721407L223.117421875,154.64313016959932L223.22505208333334,149.21954026899766L223.33268229166669,161.29126199043822L223.4403125,155.603574691806L223.65557291666667,151.3375354417367L223.87083333333334,139.74939409049693L223.97846354166666,160.91259325289866L224.30135416666667,154.75471054483205L224.40898437500002,149.73922426829813L224.62424479166668,157.08433938666712L224.83950520833332,150.38696901424555L225.054765625,143.74376516311895L225.16239583333333,156.83393079339294L225.59291666666667,143.35896574007347L226.0234375,157.8219523227308L226.23869791666667,156.4442413811339L226.34632812499999,148.3459476522985L226.77684895833335,158.44856092112605L226.992109375,148.4187087927712L227.09973958333333,155.18385220016353L227.20736979166668,145.49178913253127L227.53026041666666,154.12187314464245L227.85315104166668,156.97808894142509L228.06841145833334,145.02108415140538L228.71419270833331,156.88032080756966L228.82182291666666,154.65548649185803L228.929453125,160.20166478224564L229.14471354166668,155.78327942162286L229.25234375,147.56853431859054L229.575234375,154.01817372289952L229.898125,160.39352960174438L230.0057552083333,162.44225467485376L230.32864583333335,155.60667643253691L230.43627604166667,160.2744322528015L230.54390625,154.34452748845797L230.65153645833334,138.02047747699544L230.97442708333332,156.2290913508623L231.1896875,160.24889986251947L231.512578125,156.83027517038863L231.62020833333332,147.81444538780488L231.83546875,152.08078215178102L232.158359375,146.95989049610216L232.58888020833334,148.49887929554097L232.69651041666668,145.47761924145743L232.804140625,153.54308199416846L232.91177083333332,151.70137279451592L233.01940104166667,162.3480440477142L233.23466145833333,163.86794131645001L233.34229166666665,154.04193368990673L233.449921875,155.12515966943465L233.55755208333335,167.90780986152822L234.20333333333332,145.85551887389738L234.41859374999999,158.48159762495197L234.52622395833333,159.21749510848895L234.63385416666665,149.4188682565L234.741484375,154.18093282019254L234.84911458333335,150.7391843344085L234.95674479166667,164.50546297815163L235.064375,145.4856109714019L235.27963541666668,143.58286078018136L235.49489583333332,154.45645601826254L235.60252604166666,156.65272899891715L235.71015624999998,157.97531124658417L235.92541666666668,155.95980644971132L236.033046875,158.71528213861166L236.14067708333334,159.77467219013488L236.3559375,159.421798541327L236.78645833333331,157.51232263678685" style="fill: none;" fill="none"></path></g></g></g></g></g></g><g transform="translate(71, 174)" clip-path="url(#clip_1)"><clipPath id="clip_1"><rect width="258" height="26"></rect></clipPath><g><g><line x1="0" y1="0" x2="0" y2="5" style="visibility: inherit;" fill="rgb(0, 0, 0)" stroke="rgb(204, 204, 204)" stroke-width="1px"></line><line x1="21.526041666666664" y1="0" x2="21.526041666666664" y2="5" style="visibility: inherit;" fill="rgb(0, 0, 0)" stroke="rgb(204, 204, 204)" stroke-width="1px"></line><line x1="43.05208333333333" y1="0" x2="43.05208333333333" y2="5" style="visibility: inherit;" fill="rgb(0, 0, 0)" stroke="rgb(204, 204, 204)" stroke-width="1px"></line><line x1="64.578125" y1="0" x2="64.578125" y2="5" style="visibility: inherit;" fill="rgb(0, 0, 0)" stroke="rgb(204, 204, 204)" stroke-width="1px"></line><line x1="86.10416666666666" y1="0" x2="86.10416666666666" y2="5" style="visibility: inherit;" fill="rgb(0, 0, 0)" stroke="rgb(204, 204, 204)" stroke-width="1px"></line><line x1="107.63020833333334" y1="0" x2="107.63020833333334" y2="5" style="visibility: inherit;" fill="rgb(0, 0, 0)" stroke="rgb(204, 204, 204)" stroke-width="1px"></line><line x1="129.15625" y1="0" x2="129.15625" y2="5" style="visibility: inherit;" fill="rgb(0, 0, 0)" stroke="rgb(204, 204, 204)" stroke-width="1px"></line><line x1="150.68229166666669" y1="0" x2="150.68229166666669" y2="5" style="visibility: inherit;" fill="rgb(0, 0, 0)" stroke="rgb(204, 204, 204)" stroke-width="1px"></line><line x1="172.20833333333331" y1="0" x2="172.20833333333331" y2="5" style="visibility: inherit;" fill="rgb(0, 0, 0)" stroke="rgb(204, 204, 204)" stroke-width="1px"></line><line x1="193.734375" y1="0" x2="193.734375" y2="5" style="visibility: inherit;" fill="rgb(0, 0, 0)" stroke="rgb(204, 204, 204)" stroke-width="1px"></line><line x1="215.26041666666669" y1="0" x2="215.26041666666669" y2="5" style="visibility: inherit;" fill="rgb(0, 0, 0)" stroke="rgb(204, 204, 204)" stroke-width="1px"></line><line x1="236.78645833333331" y1="0" x2="236.78645833333331" y2="5" style="visibility: inherit;" fill="rgb(0, 0, 0)" stroke="rgb(204, 204, 204)" stroke-width="1px"></line><line x1="258.3125" y1="0" x2="258.3125" y2="5" style="visibility: inherit;" fill="rgb(0, 0, 0)" stroke="rgb(204, 204, 204)" stroke-width="1px"></line></g><g transform="translate(0, 8)"><text x="0" y="0" dx="0em" dy="0.95em" style="text-anchor: middle; visibility: hidden; font-family: Roboto, sans-serif; font-size: 12px; font-weight: 200;" fill="rgb(33, 33, 33)" stroke="none" stroke-width="1px">-20k</text><text x="21.526041666666664" y="0" dx="0em" dy="0.95em" style="text-anchor: middle; visibility: inherit; font-family: Roboto, sans-serif; font-size: 12px; font-weight: 200;" fill="rgb(33, 33, 33)" stroke="none" stroke-width="1px">0</text><text x="43.05208333333333" y="0" dx="0em" dy="0.95em" style="text-anchor: middle; visibility: hidden; font-family: Roboto, sans-serif; font-size: 12px; font-weight: 200;" fill="rgb(33, 33, 33)" stroke="none" stroke-width="1px">20k</text><text x="64.578125" y="0" dx="0em" dy="0.95em" style="text-anchor: middle; visibility: inherit; font-family: Roboto, sans-serif; font-size: 12px; font-weight: 200;" fill="rgb(33, 33, 33)" stroke="none" stroke-width="1px">40k</text><text x="86.10416666666666" y="0" dx="0em" dy="0.95em" style="text-anchor: middle; visibility: hidden; font-family: Roboto, sans-serif; font-size: 12px; font-weight: 200;" fill="rgb(33, 33, 33)" stroke="none" stroke-width="1px">60k</text><text x="107.63020833333334" y="0" dx="0em" dy="0.95em" style="text-anchor: middle; visibility: inherit; font-family: Roboto, sans-serif; font-size: 12px; font-weight: 200;" fill="rgb(33, 33, 33)" stroke="none" stroke-width="1px">80k</text><text x="129.15625" y="0" dx="0em" dy="0.95em" style="text-anchor: middle; visibility: hidden; font-family: Roboto, sans-serif; font-size: 12px; font-weight: 200;" fill="rgb(33, 33, 33)" stroke="none" stroke-width="1px">100k</text><text x="150.68229166666669" y="0" dx="0em" dy="0.95em" style="text-anchor: middle; visibility: inherit; font-family: Roboto, sans-serif; font-size: 12px; font-weight: 200;" fill="rgb(33, 33, 33)" stroke="none" stroke-width="1px">120k</text><text x="172.20833333333331" y="0" dx="0em" dy="0.95em" style="text-anchor: middle; visibility: hidden; font-family: Roboto, sans-serif; font-size: 12px; font-weight: 200;" fill="rgb(33, 33, 33)" stroke="none" stroke-width="1px">140k</text><text x="193.734375" y="0" dx="0em" dy="0.95em" style="text-anchor: middle; visibility: inherit; font-family: Roboto, sans-serif; font-size: 12px; font-weight: 200;" fill="rgb(33, 33, 33)" stroke="none" stroke-width="1px">160k</text><text x="215.26041666666669" y="0" dx="0em" dy="0.95em" style="text-anchor: middle; visibility: hidden; font-family: Roboto, sans-serif; font-size: 12px; font-weight: 200;" fill="rgb(33, 33, 33)" stroke="none" stroke-width="1px">180k</text><text x="236.78645833333331" y="0" dx="0em" dy="0.95em" style="text-anchor: middle; visibility: inherit; font-family: Roboto, sans-serif; font-size: 12px; font-weight: 200;" fill="rgb(33, 33, 33)" stroke="none" stroke-width="1px">200k</text><text x="258.3125" y="0" dx="0em" dy="0.95em" style="text-anchor: middle; visibility: hidden; font-family: Roboto, sans-serif; font-size: 12px; font-weight: 200;" fill="rgb(33, 33, 33)" stroke="none" stroke-width="1px">220k</text></g><line x1="0" y1="0" x2="258.3125" y2="0" fill="rgb(0, 0, 0)" stroke="rgb(204, 204, 204)" stroke-width="1px"></line></g></g></g></g></svg>