<svg viewBox="0 0 330 200" xmlns="http://www.w3.org/2000/svg"><g><g><g><g><g><line x1="30.78125" y1="177" x2="25.78125" y2="177" style="visibility: inherit;" fill="rgb(0, 0, 0)" stroke="rgb(204, 204, 204)" stroke-width="1px"></line><line x1="30.78125" y1="154.875" x2="25.78125" y2="154.875" style="visibility: inherit;" fill="rgb(0, 0, 0)" stroke="rgb(204, 204, 204)" stroke-width="1px"></line><line x1="30.78125" y1="132.75" x2="25.78125" y2="132.75" style="visibility: inherit;" fill="rgb(0, 0, 0)" stroke="rgb(204, 204, 204)" stroke-width="1px"></line><line x1="30.78125" y1="110.625" x2="25.78125" y2="110.625" style="visibility: inherit;" fill="rgb(0, 0, 0)" stroke="rgb(204, 204, 204)" stroke-width="1px"></line><line x1="30.78125" y1="88.5" x2="25.78125" y2="88.5" style="visibility: inherit;" fill="rgb(0, 0, 0)" stroke="rgb(204, 204, 204)" stroke-width="1px"></line><line x1="30.78125" y1="66.375" x2="25.78125" y2="66.375" style="visibility: inherit;" fill="rgb(0, 0, 0)" stroke="rgb(204, 204, 204)" stroke-width="1px"></line><line x1="30.78125" y1="44.25" x2="25.78125" y2="44.25" style="visibility: inherit;" fill="rgb(0, 0, 0)" stroke="rgb(204, 204, 204)" stroke-width="1px"></line><line x1="30.78125" y1="22.125" x2="25.78125" y2="22.125" style="visibility: inherit;" fill="rgb(0, 0, 0)" stroke="rgb(204, 204, 204)" stroke-width="1px"></line><line x1="30.78125" y1="0" x2="25.78125" y2="0" style="visibility: inherit;" fill="rgb(0, 0, 0)" stroke="rgb(204, 204, 204)" stroke-width="1px"></line></g><g transform="translate(20.78125, 0)"><text x="0" y="177" dx="0em" dy="0.3em" style="text-anchor: end; visibility: hidden; font-family: Roboto, sans-serif; font-size: 12px; font-weight: 200;" fill="rgb(33, 33, 33)" stroke="none" stroke-width="1px">24</text><text x="0" y="154.875" dx="0em" dy="0.3em" style="text-anchor: end; visibility: inherit; font-family: Roboto, sans-serif; font-size: 12px; font-weight: 200;" fill="rgb(33, 33, 33)" stroke="none" stroke-width="1px">25</text><text x="0" y="132.75" dx="0em" dy="0.3em" style="text-anchor: end; visibility: hidden; font-family: Roboto, sans-serif; font-size: 12px; font-weight: 200;" fill="rgb(33, 33, 33)" stroke="none" stroke-width="1px">26</text><text x="0" y="110.625" dx="0em" dy="0.3em" style="text-anchor: end; visibility: inherit; font-family: Roboto, sans-serif; font-size: 12px; font-weight: 200;" fill="rgb(33, 33, 33)" stroke="none" stroke-width="1px">27</text><text x="0" y="88.5" dx="0em" dy="0.3em" style="text-anchor: end; visibility: hidden; font-family: Roboto, sans-serif; font-size: 12px; font-weight: 200;" fill="rgb(33, 33, 33)" stroke="none" stroke-width="1px">28</text><text x="0" y="66.375" dx="0em" dy="0.3em" style="text-anchor: end; visibility: inherit; font-family: Roboto, sans-serif; font-size: 12px; font-weight: 200;" fill="rgb(33, 33, 33)" stroke="none" stroke-width="1px">29</text><text x="0" y="44.25" dx="0em" dy="0.3em" style="text-anchor: end; visibility: hidden; font-family: Roboto, sans-serif; font-size: 12px; font-weight: 200;" fill="rgb(33, 33, 33)" stroke="none" stroke-width="1px">30</text><text x="0" y="22.125" dx="0em" dy="0.3em" style="text-anchor: end; visibility: inherit; font-family: Roboto, sans-serif; font-size: 12px; font-weight: 200;" fill="rgb(33, 33, 33)" stroke="none" stroke-width="1px">31</text><text x="0" y="0" dx="0em" dy="0.3em" style="text-anchor: end; visibility: hidden; font-family: Roboto, sans-serif; font-size: 12px; font-weight: 200;" fill="rgb(33, 33, 33)" stroke="none" stroke-width="1px">32</text></g><line x1="30.78125" y1="0" x2="30.78125" y2="177" fill="rgb(0, 0, 0)" stroke="rgb(204, 204, 204)" stroke-width="1px"></line></g></g><g transform="translate(30, 0)" clip-path="url(#clip_0)"><clipPath id="clip_0"><rect width="299" height="177"></rect></clipPath><g><g><g><line x1="0" y1="0" x2="0" y2="177" fill="rgb(0, 0, 0)" stroke="rgb(66, 66, 66)" stroke-width="1px" opacity="0.25"></line><line x1="24.934895833333332" y1="0" x2="24.934895833333332" y2="177" fill="rgb(0, 0, 0)" stroke="rgb(66, 66, 66)" stroke-width="1px" opacity="0.25"></line><line x1="49.869791666666664" y1="0" x2="49.869791666666664" y2="177" fill="rgb(0, 0, 0)" stroke="rgb(66, 66, 66)" stroke-width="1px" opacity="0.25"></line><line x1="74.8046875" y1="0" x2="74.8046875" y2="177" fill="rgb(0, 0, 0)" stroke="rgb(66, 66, 66)" stroke-width="1px" opacity="0.25"></line><line x1="99.73958333333333" y1="0" x2="99.73958333333333" y2="177" fill="rgb(0, 0, 0)" stroke="rgb(66, 66, 66)" stroke-width="1px" opacity="0.25"></line><line x1="124.67447916666667" y1="0" x2="124.67447916666667" y2="177" fill="rgb(0, 0, 0)" stroke="rgb(66, 66, 66)" stroke-width="1px" opacity="0.25"></line><line x1="149.609375" y1="0" x2="149.609375" y2="177" fill="rgb(0, 0, 0)" stroke="rgb(66, 66, 66)" stroke-width="1px" opacity="0.25"></line><line x1="174.54427083333334" y1="0" x2="174.54427083333334" y2="177" fill="rgb(0, 0, 0)" stroke="rgb(66, 66, 66)" stroke-width="1px" opacity="0.25"></line><line x1="199.47916666666666" y1="0" x2="199.47916666666666" y2="177" fill="rgb(0, 0, 0)" stroke="rgb(66, 66, 66)" stroke-width="1px" opacity="0.25"></line><line x1="224.4140625" y1="0" x2="224.4140625" y2="177" fill="rgb(0, 0, 0)" stroke="rgb(66, 66, 66)" stroke-width="1px" opacity="0.25"></line><line x1="249.34895833333334" y1="0" x2="249.34895833333334" y2="177" fill="rgb(0, 0, 0)" stroke="rgb(66, 66, 66)" stroke-width="1px" opacity="0.25"></line><line x1="274.28385416666663" y1="0" x2="274.28385416666663" y2="177" fill="rgb(0, 0, 0)" stroke="rgb(66, 66, 66)" stroke-width="1px" opacity="0.25"></line><line x1="299.21875" y1="0" x2="299.21875" y2="177" fill="rgb(0, 0, 0)" stroke="rgb(66, 66, 66)" stroke-width="1px" opacity="0.25"></line></g><g><line x1="0" y1="177" x2="299.21875" y2="177" fill="rgb(0, 0, 0)" stroke="rgb(66, 66, 66)" stroke-width="1px" opacity="0.25"></line><line x1="0" y1="154.875" x2="299.21875" y2="154.875" fill="rgb(0, 0, 0)" stroke="rgb(66, 66, 66)" stroke-width="1px" opacity="0.25"></line><line x1="0" y1="132.75" x2="299.21875" y2="132.75" fill="rgb(0, 0, 0)" stroke="rgb(66, 66, 66)" stroke-width="1px" opacity="0.25"></line><line x1="0" y1="110.625" x2="299.21875" y2="110.625" fill="rgb(0, 0, 0)" stroke="rgb(66, 66, 66)" stroke-width="1px" opacity="0.25"></line><line x1="0" y1="88.5" x2="299.21875" y2="88.5" fill="rgb(0, 0, 0)" stroke="rgb(66, 66, 66)" stroke-width="1px" opacity="0.25"></line><line x1="0" y1="66.375" x2="299.21875" y2="66.375" fill="rgb(0, 0, 0)" stroke="rgb(66, 66, 66)" stroke-width="1px" opacity="0.25"></line><line x1="0" y1="44.25" x2="299.21875" y2="44.25" fill="rgb(0, 0, 0)" stroke="rgb(66, 66, 66)" stroke-width="1px" opacity="0.25"></line><line x1="0" y1="22.125" x2="299.21875" y2="22.125" fill="rgb(0, 0, 0)" stroke="rgb(66, 66, 66)" stroke-width="1px" opacity="0.25"></line><line x1="0" y1="0" x2="299.21875" y2="0" fill="rgb(0, 0, 0)" stroke="rgb(66, 66, 66)" stroke-width="1px" opacity="0.25"></line></g></g></g><g><g><line x1="0" y1="708" x2="299.21875" y2="708" fill="rgb(0, 0, 0)" stroke="rgb(153, 153, 153)" stroke-width="1.5px"></line></g></g><g><g><line x1="24.934895833333332" y1="0" x2="24.934895833333332" y2="177" fill="rgb(0, 0, 0)" stroke="rgb(153, 153, 153)" stroke-width="1.5px"></line></g></g><g><g><g><g><g><path stroke="rgb(255, 112, 67)" stroke-width="2px" d="M35.282877604166664,179.07174218164326L35.407552083333336,176.48266017590402L35.65690104166667,170.90685045650207L36.155598958333336,173.00602004523046L36.2802734375,174.19926765928136L36.903645833333336,167.9091744142989L37.40234375,163.07098415584454L37.52701822916667,162.53503920488998L37.90104166666667,159.91554237513262L38.27506510416667,159.05054383937917L38.39973958333333,166.0351424543267L38.64908854166667,166.1025140957957L39.2724609375,160.29847802381252L39.521809895833336,159.58537810838467L40.145182291666664,159.2804554569496L40.643880208333336,160.22773839639294L40.7685546875,161.5316050625248L41.017903645833336,158.11221417047943L41.267252604166664,158.43132996713143L41.391927083333336,151.7888495931326L41.51660156250001,146.0885016923723L42.015299479166664,144.85542225870947L42.139973958333336,147.54161410351674L42.888020833333336,135.83577464115655L43.0126953125,139.68394216353923L43.262044270833336,151.52363138470184L43.38671875,146.62258318110185L43.7607421875,152.6399864855045L44.633463541666664,144.50695408002343L44.8828125,152.4368702209938L45.00748697916667,147.86611898165623L45.2568359375,138.19248938215782L45.50618489583333,133.18049168379903L45.75553385416667,130.47541193838006L46.25423177083333,139.37183335229807L46.37890625,134.12961761239202L46.50358072916667,134.71136622478383L46.87760416666667,139.96781304389128L47.00227864583333,137.2420947248333L47.126953125,142.06182559100347L47.25162760416667,138.29364614348148L47.5009765625,150.47257907784302L47.62565104166667,140.91855587718683L47.99967447916667,136.729027832495L48.12434895833333,134.47090850171256L48.2490234375,143.09796143708712L48.623046875,146.89771071158702L48.747721354166664,138.2621360247305L48.872395833333336,140.13426592498845L48.9970703125,135.03907386392248L49.37109375,128.8013717170351L49.869791666666664,126.92824810956674L49.994466145833336,128.96153136619776L50.243815104166664,139.54976904707468L50.368489583333336,136.43475043962792L50.4931640625,138.32726948374744L50.617838541666664,131.77963023730655L50.86718750000001,127.16379292815047L51.116536458333336,131.49197406774238L51.365885416666664,125.16261875155854L51.61523437499999,127.85787741853763L51.864583333333336,129.01133804627636L51.98925781249999,130.88007105057466L52.238606770833336,133.5626466075482L52.36328125,123.14081166982069L52.487955729166664,130.3291816163028L52.612630208333336,135.32206388997815L52.7373046875,135.29491651468152L52.986653645833336,131.81904795415804L53.111328125,128.34099141745324L53.610026041666664,120.98415980332233L54.35807291666667,121.47364359851562L54.607421875,122.93205631825855L54.73209635416667,126.41643670233213L54.85677083333333,129.70791065115998L55.10611979166667,128.4317002023415L55.23079427083333,128.10684669763785L55.48014322916667,126.94713929147086L55.60481770833333,122.69467450887298L55.7294921875,126.12001105374297L55.85416666666667,119.65758087769868L56.4775390625,122.86474114975763L56.60221354166667,124.10372475577255L56.72688802083333,131.46999680872477L57.10091145833333,136.5722198717339L57.2255859375,126.53950768903154L57.35026041666667,129.42939938423189L57.47493489583333,128.31795123408526L57.724283854166664,133.75259057992872L58.7216796875,125.7997978706013L58.846354166666664,125.9124786483556L59.220377604166664,120.97088596983609L59.345052083333336,117.21790279009258L59.4697265625,115.07922599946447L59.719075520833336,120.66813553711769L59.968424479166664,125.78753808344L60.21777343750001,124.50980216982721L60.342447916666664,120.3244470520184L60.59179687500001,118.46517470856699L60.841145833333336,112.53827793228741L60.96582031249999,113.01719416873522L61.215169270833336,116.94052041588346L61.838541666666664,118.34798505913088L61.963216145833336,124.61348721391481L62.087890625,114.96013181809498L62.212565104166664,117.83542595746462L62.960611979166664,114.63684803511104L63.2099609375,118.12314437785984L63.459309895833336,127.50107130383988L63.583984375,119.35555849656791L63.9580078125,125.29264103284669L64.08268229166667,120.77467080897806L64.45670572916667,114.59740460483258L64.7060546875,118.57936084609048L64.83072916666667,118.74249680245407L65.20475260416667,121.33082503917508L65.4541015625,120.99904786850621L66.07747395833333,116.11894518915184L66.2021484375,118.92288784255608L66.32682291666667,112.29111015838397L66.45149739583333,120.23951032186753L67.07486979166666,113.02846857562787L67.19954427083333,108.47369296941243L67.44889322916666,114.57232708688423L67.82291666666666,113.0060056385746L67.94759114583333,98.76796896084245L68.072265625,102.80980414643352L68.19694010416666,97.6456244617371L68.4462890625,99.68722247062134L68.69563802083333,99.7817421852232L68.94498697916666,107.56031060806997L69.06966145833333,104.69217009897285L69.1943359375,106.74677579137831L69.69303385416667,106.85399532635901L69.9423828125,103.29668169212273L70.19173177083333,98.16159713859521L70.31640625,109.1411432540128L70.44108072916667,111.389773423416L70.56575520833333,112.86901219781794L70.6904296875,108.19141035137504L70.81510416666667,102.89929779087264L70.93977864583333,99.84765963384359L71.68782552083334,105.15014593976049L72.06184895833334,99.89254842506236L72.1865234375,106.20946217957966L73.05924479166667,108.43920307984254L73.18391927083334,113.17697371024067L73.6826171875,106.33674138175347L73.80729166666667,107.47685762278377L73.93196614583333,112.23750655670246L74.056640625,107.72280645858815L74.18131510416667,102.04927826220732L74.30598958333333,101.64303875145286L74.4306640625,92.00177421675302L74.55533854166667,94.24379304949153L74.68001302083333,98.95203068198983L74.8046875,98.49517365898025L75.05403645833334,99.30578740003905L75.17871093749999,95.38064279295921L75.42805989583333,100.46463826976967L75.92675781249999,105.59760992337915L76.05143229166666,100.17910533314738L76.42545572916667,100.33942397335642L76.55013020833334,100.06715774476211L76.6748046875,98.6930268284063L76.79947916666666,102.64477117516878L77.17350260416667,106.75218262468745L77.54752604166666,104.46057824012621L77.67220052083333,102.84907567332378L78.04622395833333,100.22387945550797L78.1708984375,105.269466089595L78.66959635416667,119.1885933920078L78.79427083333333,118.67843942906451L79.16829427083333,108.21048134008645L79.29296875,110.09081536197417L79.41764322916667,103.20282200374459L79.54231770833333,99.96189953922189L79.6669921875,114.87518421434727L79.79166666666667,105.57389554752926L79.91634114583333,107.7534823022724L80.041015625,95.96482512965447L80.29036458333333,92.57075270184671L80.4150390625,94.46300244431973L80.53971354166667,96.68308024466806L80.66438802083334,100.62901728666289L81.1630859375,96.25216136763365L81.28776041666667,94.11339131826085L81.41243489583334,93.04045452972602L81.537109375,99.34066637933462L81.66178385416666,102.49582705843578L81.9111328125,101.31982918946824L82.16048177083334,97.86882775049737L82.40983072916666,96.78682304037412L82.53450520833333,101.10048566229823L82.90852864583334,98.52967177610208L83.03320312500001,96.33576599824795L83.15787760416666,90.81252946894392L83.4072265625,96.08488763833655L83.65657552083334,98.31427954116232L84.1552734375,97.41716679620009L84.27994791666667,97.82087264470616L84.65397135416666,101.51810179956173L84.77864583333333,102.81666304354324L84.9033203125,98.90193458607466L85.02799479166667,103.46162335998218L85.15266927083334,100.60962162570003L85.27734374999999,99.51192547175788L85.40201822916666,101.56945739563409L85.6513671875,94.28556796536509L85.77604166666667,98.40162146464378L85.90071614583334,96.06972749457002L86.025390625,90.61205668106818L86.27473958333333,89.50177857193438L86.64876302083334,79.26199834891017L87.1474609375,85.58170691339876L87.521484375,83.80825190072478L87.64615885416666,73.4273615141227L87.77083333333333,83.75734864828074L88.14485677083333,77.5037152955359L88.39420572916667,83.23303428825295L88.51888020833333,89.98172902784684L88.6435546875,80.83070754839152L88.76822916666667,74.03589248557788L88.89290364583333,77.41812229096833L89.017578125,85.37231883966896L89.14225260416667,90.09980083444103L89.51627604166667,95.67755714022147L89.64095052083333,92.11322059013261L89.765625,92.05861095057614L89.89029947916667,88.85157138983422L90.26432291666667,101.52177562046063L91.13704427083333,105.21004251079574L91.51106770833334,120.34872095249185L91.6357421875,110.97180314339452L91.88509114583333,101.88119399235997L92.009765625,106.39509708694426L92.13444010416667,109.47800692922958L92.25911458333334,106.06992564801624L92.38378906250001,105.40280848863276L92.63313802083333,117.14954670740693L92.7578125,116.30732093139605L92.88248697916667,106.73482381036345L93.13183593750001,102.16504503923927L93.25651041666666,91.91336818717882L93.63053385416667,86.49249112715106L93.87988281249999,88.23004095619787L94.12923177083333,84.06860786000412L94.25390625,75.40592683148097L94.37858072916667,85.2722474860651L95.12662760416667,86.35817166134734L95.25130208333334,84.61706554868826L95.3759765625,88.62407319533239L95.87467447916667,87.72640781871928L96.24869791666666,83.57343853278434L96.498046875,77.44671013810319L96.8720703125,80.97691213403992L97.37076822916667,76.88449694701941L97.86946614583333,78.3722578644092L97.994140625,87.66480827089158L98.11881510416667,89.73617820594318L98.3681640625,88.61566017063623L98.61751302083333,88.83897026772593L98.7421875,94.21846108672196L98.86686197916667,87.24470618389351L99.1162109375,78.4506506146329L99.36555989583334,73.72410130627974L99.490234375,76.46361365394606L99.61490885416667,78.2109307198334L99.73958333333333,80.80281451634212L99.98893229166667,74.69243375832822L100.11360677083334,83.25877871736878L100.23828125,91.33969554081558L100.48763020833333,81.24451909527177L100.86165364583334,74.28981734552973L101.11100260416666,81.7070649220883L101.48502604166667,74.557790741583L101.60970052083334,76.33897904471176L101.85904947916666,80.70849854895837L102.1083984375,79.83850740879394L102.35774739583334,81.83170551949509L102.60709635416666,74.487119834982L102.73177083333333,72.59235401234787L103.10579427083334,72.9115326123342L103.35514322916666,65.82995579939515L103.47981770833333,78.29784892977142L103.97851562499999,70.08783230174106L104.22786458333333,74.83328924768279L104.47721354166667,80.68124290819827L104.85123697916666,85.8000328809968L104.97591145833333,81.32618424123237L105.1005859375,83.94266193405218L105.22526041666667,81.55207024392745L105.34993489583334,74.7035113953189L105.474609375,75.83073186770892L105.97330729166667,90.46957111296547L106.22265625,88.3026606556028L106.34733072916666,83.90617572762075L106.47200520833333,78.35600602327288L106.5966796875,74.64203531562386L106.72135416666667,77.39567717921199L107.09537760416667,75.81363063461457L107.22005208333333,87.0902409875803L107.3447265625,87.95251609828554L108.21744791666667,99.81405831543493L108.59147135416667,90.70715962152411L109.21484375,83.38645283163031L109.33951822916667,77.91338577139636L109.46419270833334,74.34356397550265L109.83821614583333,80.55944906569101L110.08756510416667,79.35531713304869L110.21223958333334,83.61028777204724L110.3369140625,76.5618553795979L110.7109375,64.19432319632567L111.33430989583333,65.65211170572874L111.58365885416667,60.47686196362277L111.70833333333334,69.95993099805895L111.83300781250001,71.18885170338865L111.95768229166666,75.38504154037427L112.20703125,75.08176392645234L112.58105468749999,67.06698829132671L112.70572916666666,69.82145909189198L112.955078125,66.63770758938207L113.45377604166666,66.54624674219741L113.57845052083333,71.05753796994004L113.82779947916667,75.45922018110349L114.20182291666666,70.39288974416017L114.451171875,71.73545251257275L114.70052083333334,72.91479855756198L114.8251953125,75.14209889161727L114.94986979166666,79.07948998682576L115.19921875,89.50075738473461L115.44856770833333,75.01902761962249L115.5732421875,83.78100923839942L115.69791666666666,76.6244682558997L115.82259114583333,76.52881103090186L115.947265625,68.79120314915029L116.19661458333333,60.30032794951819L116.3212890625,79.14035950469633L116.44596354166667,71.73426023940839L117.0693359375,80.30399389160036L117.19401041666667,76.65780069287041L117.31868489583333,78.2628430477108L117.56803385416667,76.95693850227157L117.69270833333333,76.62439656083563L117.8173828125,68.78530497446523L117.94205729166667,67.65169054922383L118.81477864583334,66.43520940933776L119.18880208333333,77.23249433990804L119.3134765625,71.15211896035964L119.56282552083334,71.59421327074708L120.18619791666667,70.23395620799275L120.31087239583334,74.2889750660432L120.43554687500001,80.76296557551454L120.8095703125,74.0156046245446L120.93424479166667,73.08238170706926L121.30826822916666,76.55095280506428L121.43294270833333,76.33406432448753L121.68229166666667,63.68934307085823L121.80696614583334,69.09941173545926L122.05631510416666,63.42892871470695L122.18098958333333,72.12788564068941L122.3056640625,69.4211210137777L122.43033854166667,67.37418359078008L122.55501302083334,75.26085201237824L123.30305989583334,63.654565521086596L123.427734375,60.680119912627525L123.67708333333333,57.59243197488975L123.92643229166667,62.88583027868385L124.17578125,70.31185705392906L124.30045572916666,80.88498362856721L124.67447916666667,88.17878356550699L124.79915364583333,76.74147500380616L125.2978515625,59.95055688491304L125.42252604166667,55.221524984066754L125.54720052083333,56.783684510245976L125.671875,68.33720585003795L126.0458984375,63.69726102528154L126.419921875,63.04660988436445L127.04329427083333,67.13636627546734L127.16796875,59.00213350505706L127.41731770833334,58.92691792041706L127.5419921875,69.04719908827933L127.66666666666667,66.42459659453861L127.916015625,63.07144048617266L128.04069010416666,61.482273547685054L128.16536458333334,66.08693016102072L128.2900390625,65.57454150039044L128.78873697916666,64.19306541155628L128.91341145833334,62.639266637986026L129.16276041666666,62.01327561618398L129.28743489583334,53.50955571700046L129.412109375,59.54912618380135L129.66145833333334,66.63631412733406L129.7861328125,53.40160230010039L130.16015625,57.5234848213749L130.40950520833334,58.98337332919577L131.03287760416666,71.41321802446448L131.15755208333334,69.05636329835174L131.53157552083334,64.64062568775134L131.90559895833334,56.21498692769594L132.27962239583334,61.59884212457406L132.52897135416666,62.29672793175733L132.90299479166666,65.29611298814989L133.02766927083334,67.68310173377738L133.5263671875,62.38446526542512L133.65104166666666,62.48380826005457L134.89778645833331,63.57496990018557L135.14713541666666,74.73188474925445L135.27180989583334,74.65850674600655L135.396484375,62.67438690359151L135.52115885416669,61.00385537442416L135.7705078125,55.8035729330591L136.01985677083334,64.4444837332852L136.26920572916669,61.77783878809733L136.64322916666666,55.93096995452949L136.892578125,65.25349860250898L137.01725260416669,55.87673695599999L137.39127604166666,62.20927352735978L137.51595052083334,68.73384086507312L137.76529947916666,59.97947325836274L138.0146484375,50.79113740045223L138.13932291666666,63.69187442254059L138.26399739583334,67.97715906972307L138.51334635416666,59.67562897607456L138.63802083333334,58.71404990914332L139.01204427083334,60.25851779796394L139.5107421875,59.54709237586091L139.63541666666666,50.51920076471944L139.884765625,50.34346358932485L140.13411458333334,64.75253916357416L140.6328125,57.3425050769714L140.75748697916666,55.94915462699342L140.88216145833334,56.67005754212618L141.0068359375,60.89795709073584L141.13151041666666,54.23583712828183L141.25618489583334,51.22425793797987L141.380859375,54.53108338827617L141.63020833333334,57.00667464920718L142.12890625,60.757127596073396L142.37825520833334,42.37483081408331L142.5029296875,44.02237621061791L142.876953125,50.46818513341415L143.37565104166669,46.902884499237885L143.74967447916666,49.655234537128166L143.9990234375,48.469330049516905L144.12369791666669,56.54659722862373L144.24837239583331,46.69226974617081L144.7470703125,58.75036150437976L144.99641927083331,53.052003516092256L145.12109375,51.84763248761558L145.24576822916666,54.56536364555393L145.37044270833334,50.134584188461524L145.61979166666669,53.921319150924866L145.74446614583331,66.05276936531081L146.11848958333334,75.29141160392771L146.74186197916666,60.47995817985541L146.9912109375,53.315845658340535L147.11588541666666,45.14335938093572L147.365234375,55.28252804158633L147.48990885416666,60.93185784744324L147.98860677083334,57.559617390198135L148.23795572916666,54.483634108282764L148.36263020833334,61.367841407047294L148.4873046875,70.69476652406853L148.73665364583334,65.28098602451801L148.98600260416666,57.26810829256721L149.11067708333334,60.36925215968338L149.2353515625,52.2249726977876L149.48470052083334,52.98818662923163L149.609375,46.56780440307607L149.85872395833334,40.2441353243408L149.9833984375,44.688150754083225L150.10807291666669,35.30231601626216L150.23274739583334,45.42211636680684L150.35742187499997,47.97629847990464L150.48209635416666,40.856878083151514L151.10546875,49.87310531211019L151.35481770833334,58.443054357004826L151.60416666666669,60.71482696463627L151.72884114583334,55.125729789316416L151.85351562499997,51.64400009511694L152.47688802083334,54.41092646240468L152.9755859375,48.857044673676924L153.22493489583334,42.971711526343604L153.349609375,55.33736937643849L154.09765625,50.85254112125494L154.22233072916666,43.04380311513584L154.34700520833334,45.84583505359075L154.4716796875,56.77270536641351L154.59635416666669,54.317015534758966L155.09505208333331,54.694092396569474L155.34440104166666,56.925602319045154L155.46907552083331,55.81727450025276L156.21712239583334,48.362638049913635L156.341796875,42.31827424382753L156.71582031250003,44.98885444650407L156.96516927083331,40.14762041478969L157.08984375,43.500579199252265L157.21451822916666,49.14831409517386L157.4638671875,47.610601101299935L157.837890625,43.92378310798455L157.96256510416669,48.20782201551707L158.08723958333334,56.92254448570799L158.33658854166666,61.652100280749714L158.46126302083331,49.37170269240619L158.5859375,49.37457047790105L158.71061197916666,51.11719672018176L158.83528645833334,58.904101563298035L158.9599609375,50.05933668184484L159.333984375,53.93018676023608L159.45865885416669,48.47965994585117L159.70800781249997,43.143582004955725L159.83268229166666,47.99266556421002L159.95735677083331,53.00538499068667L160.33138020833334,47.01796650237712L160.4560546875,52.15933012573044L160.58072916666666,50.152825782347506L161.07942708333334,44.92058712819149L161.20410156249997,48.212453023069685L161.32877604166669,45.234430012389204L161.9521484375,47.8746249301935L162.20149739583334,53.75903217933799L162.45084635416669,50.77170405949485L162.57552083333334,48.45344344476068L162.7001953125,53.765464733238275L163.07421875,54.452592343208394L163.19889322916666,64.71688469059305L163.32356770833331,56.5639752853336L163.4482421875,47.53159071853289L163.57291666666666,46.13781210095001L163.69759114583334,50.48599460309926L163.822265625,50.04847971550333L163.94694010416669,58.126801395128496L164.1962890625,48.5042618177595L164.5703125,59.32421799077167L164.81966145833331,56.744421789488605L164.9443359375,52.78867453899464L165.318359375,47.095108905830934L165.44303385416666,44.611760282158286L165.6923828125,41.18750161149467L165.81705729166669,44.01547976862406L165.94173177083331,42.59059107620134L166.06640625000003,45.45476854037406L166.19108072916666,42.286555410570855L166.4404296875,42.88937566348732L166.56510416666666,46.81835945647247L166.68977864583334,48.33753781438646L167.06380208333334,44.69128335071078L167.43782552083334,50.28372466893477L167.81184895833331,53.73305933673075L167.9365234375,64.6010409891539L168.18587239583334,67.74263257383902L168.310546875,69.1605675852275L168.43522135416666,65.65043896651119L168.55989583333334,61.18132563958079L168.6845703125,50.47787401991784L168.80924479166669,47.15669931124268L169.05859374999997,46.73348329753057L169.68196614583334,48.42916401797757L169.93131510416666,46.84206738814248L170.1806640625,34.661885063317634L170.43001302083334,38.36048715142444L170.55468749999997,48.01643496053238L171.302734375,53.31690405188097L171.42740885416666,54.19988020883854L171.6767578125,52.68287721053875L171.80143229166669,49.47634915576052L171.92610677083334,49.07008254567192L172.4248046875,40.89611570858608L172.67415364583331,44.22466903223784L172.92350260416666,45.49519990261903L173.1728515625,48.56029285416907L173.29752604166669,39.51829212561796L173.42220052083334,45.93853837046353L173.79622395833331,38.8946739065249L173.9208984375,44.124618579602256L174.04557291666666,43.19794037917615L174.294921875,32.297476404782316L174.41959635416666,27.859083148167226L174.79361979166666,42.05979336042745L174.91829427083334,36.061279039022565L175.29231770833331,52.623414647839745L175.41699218750003,45.50743768946069L175.54166666666666,45.382220925901784L175.791015625,48.836790670165094L176.28971354166666,41.945068996673065L176.41438802083334,39.18748064132052L176.5390625,37.71482688958353L176.78841145833334,41.611272423117825L176.91308593750003,39.2307647279796L177.53645833333334,43.94763699840891L177.78580729166666,34.3174921493017L178.15983072916669,38.34920405270356L178.28450520833334,28.67466487241799L178.65852864583331,45.125373397785495L178.783203125,50.70921480328923L179.40657552083334,47.67555777830534L179.65592447916669,41.02024622322708L179.78059895833334,46.652308676013874L179.90527343749997,45.18746550880054L180.02994791666669,42.49301052094805L180.15462239583331,39.00118503571336L180.279296875,37.60276256561747L180.40397135416666,36.9667759094266L180.77799479166666,29.974877652742144L180.90266927083334,35.10614393783669L181.02734375,32.02382582803409L181.15201822916669,33.95061704146772L181.4013671875,47.98953478710591L181.65071614583331,45.9239690373941L181.775390625,42.75324969712518L182.1494140625,42.071632893226344L182.27408854166666,44.3046584316145L182.64811197916669,40.05345154929468L183.02213541666669,43.0699318953055L183.52083333333331,48.107569832068556L184.14420572916666,45.26871222165933L184.26888020833334,48.600323974536124L184.3935546875,37.82831200328242L184.89225260416666,31.608227970402115L185.26627604166666,46.95325083863777L185.8896484375,44.59151541788603L186.26367187500003,42.770247957701784L186.6376953125,37.859611714837186L186.88704427083334,33.635090568636194L187.01171875,40.45387557683844L187.3857421875,41.70011789523637L187.88444010416666,40.539811604756515L188.38313802083334,46.288982387506074L188.8818359375,41.10431298978517L189.00651041666669,25.971600779100626L189.6298828125,28.248456149223056L189.87923177083334,34.44531478221569L190.00390625,34.028732810827215L190.25325520833334,37.553902265079174L190.3779296875,38.20217950144254L190.62727864583334,32.84779819845468L191.5,36.1175587713678L192.6220703125,34.63401420950653L192.74674479166666,41.87922053360794L192.99609375,39.04458134665399L193.12076822916666,44.0784761982817L193.49479166666666,38.73934693799368L193.61946614583334,40.8749064187166L193.86881510416669,52.41950619101266L194.36751302083331,56.715495657204094L194.61686197916666,42.7939856954089L195.11555989583334,42.77991848633714L195.240234375,34.18951624301688L195.36490885416669,36.423531351492514L195.48958333333334,41.46493881821974L195.61425781250003,40.73459998297892L196.11295572916666,29.365273997355743L196.23763020833334,38.20944845984531L196.48697916666666,34.575948788584206L196.61165364583334,35.09118551842036L197.11035156249997,31.47712036866939L197.73372395833334,41.42734821378585L197.8583984375,38.04229922139282L198.35709635416669,34.93618037130618L198.73111979166669,33.332529126561845L199.10514322916666,42.06270278630082L199.22981770833334,40.525582773312536L199.47916666666666,48.78986491133247L199.60384114583334,37.73459781032489L199.97786458333334,35.36788337720442L200.22721354166669,29.302317054826073L201.224609375,35.416700596665144L201.5986328125,24.56823019686632L201.72330729166669,34.84641068281706L201.97265625,47.26158223808988L202.22200520833331,32.46313611424681L202.3466796875,27.4700382695003L203.46875000000003,32.572460946166764L203.59342447916666,42.724187741711226L204.09212239583334,28.62129986884259L204.34147135416666,33.15125263096128L204.46614583333334,32.77305443502202L204.5908203125,28.807342716555237L204.71549479166669,28.283115976155095L205.08951822916666,36.818529291808765L205.3388671875,49.91748457185041L205.46354166666666,42.43432348389394L205.58821614583334,40.39230204474313L205.712890625,39.84742212802996L205.83756510416666,39.32995233840245L205.96223958333334,40.3660077685505L206.0869140625,30.861493470334434L206.33626302083334,22.555934072770683L206.46093749999997,25.582428432248804L206.58561197916666,22.244850240196467L206.71028645833331,26.177661372450398L206.8349609375,34.466713686720986L206.95963541666666,25.57625128026993L207.08430989583334,13.554475171543352L207.208984375,16.968860353933074L207.45833333333334,21.062727192584504L208.3310546875,27.303905713286234L208.705078125,37.69742244942558L208.82975260416666,36.19937035121664L209.0791015625,38.260436419714345L209.20377604166669,35.49026205782226L209.70247395833331,29.531462589765408L209.8271484375,29.41314663878968L209.95182291666666,30.117693414639824L210.45052083333334,27.85764369389493L210.5751953125,33.43647256506131L210.69986979166669,26.46589888937855L210.82454427083334,23.14840329770794L210.94921875,19.31975448778004L211.19856770833331,27.644361237589884L211.3232421875,30.24295362228409L211.82194010416666,20.809526159729128L211.94661458333334,24.926386186102384L212.0712890625,27.47651356972419L212.32063802083334,22.502560439808196L212.69466145833331,18.241821565093367L213.193359375,26.88521420828206L213.31803385416666,24.931973861883314L213.44270833333334,29.306387285727386L213.69205729166666,27.417448914252546L213.94140625,33.521569869639144L214.06608072916669,31.003333080841088L214.93880208333334,27.726047223230058L215.31282552083334,33.74783174122562L215.56217447916669,29.148309468777164L216.31022135416666,32.8592031953044L216.68424479166666,32.65292120917478L216.80891927083334,29.351654153727463L217.18294270833334,25.583618892230373L217.681640625,24.15722852527963L217.93098958333334,33.809756502985174L218.0556640625,40.90063089458888L218.4296875,39.482079472117114L218.55436197916669,30.629862478955033L218.67903645833334,40.26229258274047L218.92838541666669,40.152036213248984L219.177734375,35.30729629002222L219.80110677083334,26.57062826992401L220.05045572916669,35.10486322904426L220.17513020833334,32.554288996844335L220.2998046875,31.070955356114347L220.54915364583331,41.04295411119053L220.79850260416666,44.133320417458904L220.92317708333331,30.527622179064146L221.0478515625,27.58450610391676L221.17252604166666,38.06208061547509L221.54654947916666,29.77732300383707L221.7958984375,25.06020912899293L221.92057291666669,18.66237908228466L222.04524739583331,13.705412469054586L222.16992187500003,22.287439776507245L222.29459635416666,32.18644492211776L222.66861979166666,41.814439585106626L223.2919921875,27.083428174434367L223.91536458333331,17.728731125699408L224.0400390625,13.697487813298078L224.16471354166666,15.787213600912274L224.66341145833334,18.47051799132733L224.7880859375,11.645327495541029L224.91276041666669,12.598238424662327L225.78548177083334,12.246326325061005L225.91015625,18.089389442039728L226.15950520833334,15.248772882600546L226.2841796875,18.26515804718725L226.53352864583334,15.216526716892655L227.0322265625,22.854127532210804L227.28157552083334,24.6281033313077L227.53092447916666,25.6986162636161L227.7802734375,27.476697204916487L227.90494791666669,25.21291222477481L228.40364583333331,31.33443812313396L228.90234375,33.834613202707295L229.02701822916666,22.325798248467624L229.15169270833334,25.800076803694832L229.2763671875,19.913688660341947L229.52571614583334,22.679138660835342L229.650390625,28.331397915129074L230.27376302083331,30.544240036156285L230.3984375,19.038223194209657L230.64778645833334,23.779710630850744L230.89713541666666,22.36109439151087L231.02180989583334,22.9211462474859L231.146484375,18.848247154772075L231.27115885416669,9.075652089249994L231.52050781250003,17.107335070688684L231.76985677083331,18.360066020440524L232.2685546875,13.216487266988434L232.51790364583334,12.686568175775305L232.76725260416669,17.402547118081134L233.14127604166666,18.50593142331458L233.26595052083331,24.430144242172403L233.7646484375,22.24048028691114L234.138671875,10.742500795742906L234.38802083333334,14.25997782577335L234.51269531249997,6.863560586150108L234.63736979166666,18.125713008031617L234.76204427083331,24.111198602548463L235.13606770833334,28.35567980911207L235.2607421875,25.578861128722906L235.38541666666666,22.954220230242743L235.51009114583334,30.23152881554439L235.634765625,33.039751658986056L235.75944010416669,32.008046227783005L236.13346354166669,35.378973816686816L236.25813802083331,31.596401795657872L236.3828125,34.22785870129608L236.63216145833334,33.21561365064833L236.7568359375,41.78602626762893L236.88151041666666,41.788606899035656L237.00618489583334,32.70341278138921L237.25553385416669,21.38844209327196L237.5048828125,11.82036441215214L237.87890625,18.792294464399422L238.12825520833331,22.926939274007054L238.2529296875,16.226438585003535L238.37760416666666,30.401803531098494L238.50227864583334,25.372238753943567L239.25032552083331,19.816147684281393L239.375,29.986352562442647L239.7490234375,32.56674306364968L239.87369791666666,32.16735887987676L239.99837239583334,25.217154696364744L240.123046875,31.74943039106102L240.74641927083331,25.5547849970267L241.74381510416666,17.51069940550368L241.86848958333334,12.884073909659678L241.9931640625,19.868101320588302L242.36718750000003,18.212826467707L242.61653645833331,21.27958015033857L242.99055989583334,23.29346296447069L243.115234375,21.728656037196803L243.23990885416666,31.283786048618147L243.36458333333334,27.253097099141637L243.61393229166669,23.3680280936219L243.73860677083334,23.759196239260362L244.11263020833331,32.898301480738866L244.73600260416666,28.242416881637837L244.86067708333334,29.89898673481766L245.11002604166669,18.218908547085633L245.23470052083334,20.716634129716226L245.48404947916669,14.900086698075128L246.35677083333334,22.957706056320696L246.4814453125,26.482099963595868L246.60611979166669,38.79308793149616L246.98014322916669,33.80068987132449L247.10481770833331,30.414191255100597L247.47884114583331,27.47235689707278L247.603515625,31.13692222921663L247.72819010416666,27.146073167852276L247.85286458333334,30.326651182968476L248.10221354166669,28.26552262735314L248.22688802083334,13.726111595821063L248.47623697916669,4.741904750461403L248.7255859375,7.39763775765604L248.97493489583331,11.930415006278256L249.099609375,20.055254371046008L249.4736328125,23.41103920404847L249.72298177083334,18.638178831724737L249.84765625,20.475890068047324L249.97233072916669,23.626740305324276L250.47102864583331,20.73503513854733L250.72037760416666,15.401711772215329L251.21907552083334,31.17052249332184L251.46842447916669,24.986986996054142L251.71777343750003,27.44771711904969L251.84244791666666,24.612909751410314L252.34114583333334,24.835572884842723L252.71516927083334,26.002718452432717L252.83984375,23.62302389372524L253.08919270833334,29.392921773368947L253.21386718749997,23.797826866969352L253.46321614583331,24.88783212939787L253.587890625,19.27902143263744L253.71256510416666,16.96647530236199L253.9619140625,14.759759506215746L254.08658854166666,14.278702116388185L254.21126302083334,21.732382879482554L254.95930989583331,19.477222028867494L255.083984375,21.71906665771965L255.20865885416666,15.576645492373412L255.33333333333334,23.4197505705705L255.4580078125,12.75060217339705L255.83203125,9.146303801291616L256.0813802083333,19.491594689222172L256.4554036458333,15.366600833613823L256.9541015625,22.29267015593003L257.4527994791667,24.935641136984547L257.5774739583333,10.863486008179514L257.7021484375,13.285010836322567L257.8268229166667,22.01955100405187L258.3255208333333,18.83377831284981L258.4501953125,18.248849160103653L258.5748697916667,22.661218217986036L258.69954427083337,13.764872963414959L258.82421875,14.298819884768962L259.0735677083333,18.50065089768877L259.3229166666667,29.93260203305903L259.4475911458333,18.547796693468232L259.8216145833333,17.972806529417184L259.9462890625,22.063919494279965L260.19563802083337,17.83384005411191L260.44498697916663,21.43561830630137L260.6943359375,28.84943155354404L260.8190104166667,22.153250049985374L261.3177083333333,29.563358873985333L261.81640625,21.593195969380183L262.0657552083333,18.182449182580257L262.1904296875,23.336315250820128L262.6891276041667,17.21665941263804L262.9384765625,22.69779502502423L263.0631510416667,20.05832612008659L263.18782552083337,26.70897924596553L263.5618489583333,23.458274815645723L263.9358723958333,18.775919708112987L264.1852213541667,26.29783103019006L264.93326822916663,20.57642667979003L265.0579427083333,19.28289223605395L265.1826171875,12.934401803576918L265.4319661458333,13.628124507286516L265.556640625,21.228906316768104L265.9306640625,20.26589021874122L266.3046875,13.316204796985762L266.42936197916663,6.8521435324883315L266.8033854166667,10.148228220017902L266.9280598958333,7.374858028812515L267.052734375,11.651696853115162L267.1774088541667,26.991901977225528L267.5514322916667,21.631474747278904L267.80078125,14.292472323190356L268.1748046875,13.422686839348831L268.29947916666663,20.908974423555588L268.548828125,21.818077620594487L268.9228515625,26.62537711663765L269.4215494791667,28.277868710778428L269.54622395833337,31.65152490307228L269.6708984375,26.954544282968794L269.79557291666663,25.77792247355932L269.9202473958333,14.437712766057043L270.1695963541667,5.843627987698222L270.2942708333333,11.012812935349661L270.4189453125,13.102905942819888L270.5436197916667,-0.16484830747707502L271.29166666666663,14.295878803904852L271.541015625,11.758350513086242L271.6656901041667,9.469311131063414L271.7903645833333,17.22849305452312L271.9150390625,17.7154437064016L272.0397135416667,21.06499362938904L272.1643880208333,9.043649917562607L272.2890625,20.10489993436323L272.53841145833337,28.169768459458286L272.78776041666663,24.024594573294586L272.9124348958333,19.43690487630094L273.037109375,15.361605244201037L273.2864583333333,14.914312694860497L273.4111328125,11.887671860690745L273.5358072916667,8.95618710078951L273.78515625,7.572455031622387L274.28385416666663,8.711119999259045" style="fill: none;" fill="none"></path></g></g></g></g><g opacity="0.2"><g><g><g><path stroke="rgb(255, 112, 67)" stroke-width="2px" d="M32.5400390625,193.4639847278595L32.664713541666664,174.1612844467163L32.789388020833336,184.82858061790466L35.033528645833336,183.460706949234L35.282877604166664,171.96704864501953L35.407552083333336,172.59903717041016L35.65690104166667,162.54313588142395L36.155598958333336,176.15477442741394L36.2802734375,175.9891390800476L36.903645833333336,158.4740345478058L37.40234375,155.81369876861572L37.52701822916667,161.73112177848816L37.90104166666667,155.98629713058472L38.27506510416667,157.7530460357666L38.39973958333333,176.5120403766632L38.64908854166667,166.20357155799866L39.2724609375,151.59242391586304L39.521809895833336,158.51572823524475L40.145182291666664,158.82307147979736L40.643880208333336,161.64866280555725L40.7685546875,163.4874050617218L41.017903645833336,152.98312783241272L41.267252604166664,158.91000366210938L41.391927083333336,141.825129032135L41.51660156250001,137.5379798412323L42.015299479166664,143.00580310821533L42.139973958333336,151.57090187072754L42.888020833333336,118.27701544761658L43.0126953125,145.45619344711304L43.262044270833336,169.28316521644592L43.38671875,139.2710108757019L43.7607421875,161.66609144210815L44.633463541666664,132.30740547180176L44.8828125,164.33174443244934L45.00748697916667,141.00999212265015L45.2568359375,123.68204498291016L45.50618489583333,125.66249513626099L45.75553385416667,126.41779232025146L46.25423177083333,152.71646547317505L46.37890625,126.26629400253296L46.50358072916667,135.58398914337158L46.87760416666667,147.8524832725525L47.00227864583333,133.15351724624634L47.126953125,149.2914218902588L47.25162760416667,132.6413769721985L47.5009765625,168.74097847938538L47.62565104166667,126.58752107620239L47.99967447916667,130.44473576545715L48.12434895833333,131.08372950553894L48.2490234375,156.03854084014893L48.623046875,152.5973346233368L48.747721354166664,125.3087739944458L48.872395833333336,142.94246077537537L48.9970703125,127.39628577232361L49.37109375,119.4448184967041L49.869791666666664,124.11856269836426L49.994466145833336,132.0114562511444L50.243815104166664,155.4321255683899L50.368489583333336,131.76222252845764L50.4931640625,141.16604804992676L50.617838541666664,121.95817136764526L50.86718750000001,120.2400369644165L51.116536458333336,137.98424577713013L51.365885416666664,115.66858577728271L51.61523437499999,131.90076541900635L51.864583333333336,130.74152898788452L51.98925781249999,133.6831705570221L52.238606770833336,137.58650994300842L52.36328125,107.50805926322937L52.487955729166664,141.111736536026L52.612630208333336,142.81138730049133L52.7373046875,135.25419545173645L52.986653645833336,126.6052451133728L53.111328125,123.12390661239624L53.610026041666664,109.94891238212585L54.35807291666667,122.20786929130554L54.607421875,125.11967539787292L54.73209635416667,131.64300727844238L54.85677083333333,134.64512157440186L55.10611979166667,126.51738452911377L55.23079427083333,127.61956644058228L55.48014322916667,125.20757818222046L55.60481770833333,116.3159773349762L55.7294921875,131.25801587104797L55.85416666666667,109.9639356136322L56.4775390625,127.67548155784607L56.60221354166667,125.96220016479492L56.72688802083333,142.51940488815308L57.10091145833333,144.22555446624756L57.2255859375,111.49043941497803L57.35026041666667,133.76423692703247L57.47493489583333,126.65077900886536L57.724283854166664,141.90454959869385L58.7216796875,113.87060880661011L58.846354166666664,126.08149981498718L59.220377604166664,113.55849695205688L59.345052083333336,111.5884280204773L59.4697265625,111.87121081352234L59.719075520833336,129.0514998435974L59.968424479166664,133.46664190292358L60.21777343750001,122.59319829940796L60.342447916666664,114.04641437530518L60.59179687500001,115.67626619338989L60.841145833333336,103.64793276786804L60.96582031249999,113.73556852340698L61.215169270833336,122.82550978660583L61.838541666666664,120.45918202400208L61.963216145833336,134.0117404460907L62.087890625,100.48009872436523L62.212565104166664,122.14836716651917L62.960611979166664,109.83898115158081L63.2099609375,123.35258889198303L63.459309895833336,141.56796169281006L63.583984375,107.13728928565979L63.9580078125,134.19826483726501L64.08268229166667,113.99771547317505L64.45670572916667,105.3315052986145L64.7060546875,124.5522952079773L64.83072916666667,118.98720073699951L65.20475260416667,125.21331739425659L65.4541015625,120.50138211250305L66.07747395833333,108.79879117012024L66.2021484375,123.12880182266235L66.32682291666667,102.34344363212585L66.45149739583333,132.1621105670929L67.07486979166666,102.21190595626831L67.19954427083333,101.64152956008911L67.44889322916666,123.72027826309204L67.82291666666666,110.65652346611023L67.94759114583333,77.41091394424438L68.072265625,108.87255692481995L68.19694010416666,89.89935493469238L68.4462890625,102.74961948394775L68.69563802083333,99.92352175712585L68.94498697916666,119.22816324234009L69.06966145833333,100.38995933532715L69.1943359375,109.82868432998657L69.69303385416667,107.01482462882996L69.9423828125,97.96071124076843L70.19173177083333,90.45897030830383L70.31640625,125.61046242713928L70.44108072916667,114.76271867752075L70.56575520833333,115.08787035942078L70.6904296875,101.17500758171082L70.81510416666667,94.96112895011902L70.93977864583333,95.27020239830017L71.68782552083334,113.10387539863586L72.06184895833334,92.00615215301514L72.1865234375,115.68483281135559L73.05924479166667,111.78381443023682L73.18391927083334,120.28362965583801L73.6826171875,96.07639288902283L73.80729166666667,109.18703198432922L73.93196614583333,119.37847995758057L74.056640625,100.95075631141663L74.18131510416667,93.53898596763611L74.30598958333333,101.03367948532104L74.4306640625,77.53987741470337L74.55533854166667,97.60682129859924L74.68001302083333,106.0143871307373L74.8046875,97.80988812446594L75.05403645833334,100.5217080116272L75.17871093749999,89.49292588233948L75.42805989583333,108.09063148498535L75.92675781249999,113.29706740379333L76.05143229166666,92.05134844779968L76.42545572916667,100.57990193367004L76.55013020833334,99.65875840187073L76.6748046875,96.63183045387268L76.79947916666666,108.5723876953125L77.17350260416667,112.91329979896545L77.54752604166666,101.0231716632843L77.67220052083333,100.43182182312012L78.04622395833333,96.28608512878418L78.1708984375,112.83784604072571L78.66959635416667,140.06728434562683L78.79427083333333,117.91320848464966L79.16829427083333,92.50854420661926L79.29296875,112.91131639480591L79.41764322916667,92.87083196640015L79.54231770833333,95.10051584243774L79.6669921875,137.24511122703552L79.79166666666667,91.62196254730225L79.91634114583333,111.0228624343872L80.041015625,78.28183937072754L80.29036458333333,87.47964406013489L80.4150390625,97.30137705802917L80.53971354166667,100.01319694519043L80.66438802083334,106.54792284965515L81.1630859375,89.68687748908997L81.28776041666667,90.90523624420166L81.41243489583334,91.43104934692383L81.537109375,108.79098415374756L81.66178385416666,107.2285680770874L81.9111328125,99.55583238601685L82.16048177083334,92.69232559204102L82.40983072916666,95.16381597518921L82.53450520833333,107.57097959518433L82.90852864583334,94.67345094680786L83.03320312500001,93.04490733146667L83.15787760416666,82.5276746749878L83.4072265625,103.99342489242554L83.65657552083334,101.658367395401L84.1552734375,96.07149767875671L84.27994791666667,98.42643141746521L84.65397135416666,107.06394553184509L84.77864583333333,104.76450490951538L84.9033203125,93.02984189987183L85.02799479166667,110.3011565208435L85.15266927083334,96.33161902427673L85.27734374999999,97.86538124084473L85.40201822916666,104.65575528144836L85.6513671875,83.35973381996155L85.77604166666667,104.57570171356201L85.90071614583334,92.57188653945923L86.025390625,82.42555046081543L86.27473958333333,87.83636140823364L86.64876302083334,63.90232801437378L87.1474609375,95.06126976013184L87.521484375,81.14806938171387L87.64615885416666,57.85602593421936L87.77083333333333,99.25232934951782L88.14485677083333,68.12326526641846L88.39420572916667,91.82701277732849L88.51888020833333,100.10477113723755L88.6435546875,67.10417532920837L88.76822916666667,63.84366989135742L88.89290364583333,82.49146699905396L89.017578125,97.30361366271973L89.14225260416667,97.19102382659912L89.51627604166667,104.04419159889221L89.64095052083333,86.76671576499939L89.765625,91.97669649124146L89.89029947916667,84.04101204872131L90.26432291666667,120.52708196640015L91.13704427083333,110.74244284629822L91.51106770833334,143.056738615036L91.6357421875,96.90642642974854L91.88509114583333,88.2452802658081L92.009765625,113.1659517288208L92.13444010416667,114.10237169265747L92.25911458333334,100.95780372619629L92.38378906250001,104.4021327495575L92.63313802083333,134.76965403556824L92.7578125,115.04398226737976L92.88248697916667,92.3760781288147L93.13183593750001,95.3103768825531L93.25651041666666,76.53585290908813L93.63053385416667,78.36117553710938L93.87988281249999,90.83636569976807L94.12923177083333,77.8264582157135L94.25390625,62.41190528869629L94.37858072916667,100.07172846794128L95.12662760416667,87.98705792427063L95.25130208333334,82.0054063796997L95.3759765625,94.63458466529846L95.87467447916667,86.37990975379944L96.24869791666666,77.34398460388184L96.498046875,68.25661754608154L96.8720703125,86.27221512794495L97.37076822916667,70.74587416648865L97.86946614583333,80.60389924049377L97.994140625,101.60363388061523L98.11881510416667,92.84323310852051L98.3681640625,86.93488311767578L98.61751302083333,89.1739354133606L98.7421875,102.28769731521606L98.86686197916667,76.78407382965088L99.1162109375,65.25956726074219L99.36555989583334,66.63427734375L99.490234375,80.57288217544556L99.61490885416667,80.83190631866455L99.73958333333333,84.69064021110535L99.98893229166667,65.52686262130737L100.11360677083334,96.10829615592957L100.23828125,103.46107077598572L100.48763020833333,66.10175442695618L100.86165364583334,63.85776472091675L101.11100260416666,92.83293628692627L101.48502604166667,63.833879470825195L101.60970052083334,79.01076149940491L101.85904947916666,87.26277780532837L102.1083984375,78.53352069854736L102.35774739583334,84.82150268554688L102.60709635416666,63.47024130821228L102.73177083333333,69.7502052783966L103.10579427083334,73.39030051231384L103.35514322916666,55.20759057998657L103.47981770833333,96.9996886253357L103.97851562499999,57.772807359695435L104.22786458333333,81.95147466659546L104.47721354166667,89.45317339897156L104.85123697916666,93.4782178401947L104.97591145833333,74.6154112815857L105.1005859375,87.86737847328186L105.22526041666667,77.96618270874023L105.34993489583334,64.430673122406L105.474609375,77.52156257629395L105.97330729166667,112.42782998085022L106.22265625,85.05229496955872L106.34733072916666,77.31144833564758L106.47200520833333,70.0307514667511L106.5966796875,69.07107925415039L106.72135416666667,81.52613997459412L107.09537760416667,73.4405608177185L107.22005208333333,104.00515651702881L107.3447265625,89.24592876434326L108.21744791666667,117.60637164115906L108.59147135416667,77.04681158065796L109.21484375,72.40539264678955L109.33951822916667,69.70378518104553L109.46419270833334,68.98883128166199L109.83821614583333,89.88327670097351L110.08756510416667,77.54911923408508L110.21223958333334,89.99274373054504L110.3369140625,65.98920679092407L110.7109375,45.643024921417236L111.33430989583333,67.83879446983337L111.58365885416667,52.71398735046387L111.70833333333334,84.18453454971313L111.83300781250001,73.03223276138306L111.95768229166666,81.67932629585266L112.20703125,74.62684750556946L112.58105468749999,55.044824838638306L112.70572916666666,73.95316529273987L112.955078125,61.862080335617065L113.45377604166666,66.40905547142029L113.57845052083333,77.82447481155396L113.82779947916667,82.06174349784851L114.20182291666666,62.79339408874512L114.451171875,73.74929666519165L114.70052083333334,74.68381762504578L114.8251953125,78.4830493927002L114.94986979166666,84.98557662963867L115.19921875,105.1326584815979L115.44856770833333,53.296432971954346L115.5732421875,96.92398166656494L115.69791666666666,65.88965678215027L115.82259114583333,76.38532519340515L115.947265625,57.18479132652283L116.19661458333333,47.56401515007019L116.3212890625,107.40040683746338L116.44596354166667,60.62511134147644L117.0693359375,93.1585943698883L117.19401041666667,71.18851089477539L117.31868489583333,80.67040657997131L117.56803385416667,74.99808168411255L117.69270833333333,76.12558364868164L117.8173828125,57.02666759490967L117.94205729166667,65.9512689113617L118.81477864583334,64.61048769950867L119.18880208333333,93.42842173576355L119.3134765625,62.03155589103699L119.56282552083334,72.25735473632812L120.18619791666667,68.19357061386108L120.31087239583334,80.3715033531189L120.43554687500001,90.47395133972168L120.8095703125,63.8945631980896L120.93424479166667,71.68254733085632L121.30826822916666,81.75380945205688L121.43294270833333,76.00873160362244L121.68229166666667,44.72226119041443L121.80696614583334,77.21451473236084L122.05631510416666,54.92320418357849L122.18098958333333,85.17632102966309L122.3056640625,65.36097407341003L122.43033854166667,64.30377745628357L122.55501302083334,87.09085464477539L123.30305989583334,46.24513578414917L123.427734375,56.218451499938965L123.67708333333333,52.96090006828308L123.92643229166667,70.825927734375L124.17578125,81.45089721679688L124.30045572916666,96.74467349052429L124.67447916666667,99.11948347091675L124.79915364583333,59.58551216125488L125.2978515625,34.764179706573486L125.42252604166667,48.12797713279724L125.54720052083333,59.12692379951477L125.671875,85.66748785972595L126.0458984375,56.73734378814697L126.419921875,62.07063317298889L127.04329427083333,73.27100086212158L127.16796875,46.80078434944153L127.41731770833334,58.81409454345703L127.5419921875,84.22762084007263L127.66666666666667,62.49069285392761L127.916015625,58.04170632362366L128.04069010416666,59.09852313995361L128.16536458333334,72.99391508102417L128.2900390625,64.80595850944519L128.78873697916666,62.120851278305054L128.91341145833334,60.308568477630615L129.16276041666666,61.074289083480835L129.28743489583334,40.7539758682251L129.412109375,68.60848188400269L129.66145833333334,77.26709604263306L129.7861328125,33.54953455924988L130.16015625,63.70630860328674L130.40950520833334,61.173206090927124L131.03287760416666,90.05798506736755L131.15755208333334,65.52108120918274L131.53157552083334,58.017019271850586L131.90559895833334,43.576528787612915L132.27962239583334,69.67462491989136L132.52897135416666,63.34355664253235L132.90299479166666,69.79519057273865L133.02766927083334,71.26358485221863L133.5263671875,54.43651056289673L133.65104166666666,62.6328227519989L134.89778645833331,65.21171236038208L135.14713541666666,91.46725702285767L135.27180989583334,74.54843974113464L135.396484375,44.69820713996887L135.52115885416669,58.49805808067322L135.7705078125,48.00314927101135L136.01985677083334,77.40584993362427L136.26920572916669,57.77787137031555L136.64322916666666,47.160666704177856L136.892578125,79.23729157447815L137.01725260416669,41.81159448623657L137.39127604166666,71.70807838439941L137.51595052083334,78.52069187164307L137.76529947916666,46.84792184829712L138.0146484375,37.008633613586426L138.13932291666666,83.04297995567322L138.26399739583334,74.40508604049683L138.51334635416666,47.22333383560181L138.63802083333334,57.27168130874634L139.01204427083334,62.57521963119507L139.5107421875,58.4799542427063L139.63541666666666,36.9773633480072L139.884765625,50.07985782623291L140.13411458333334,86.36615252494812L140.6328125,46.22745394706726L140.75748697916666,53.85912895202637L140.88216145833334,57.75141191482544L141.0068359375,67.23980641365051L141.13151041666666,44.24265718460083L141.25618489583334,46.706889152526855L141.380859375,59.4913215637207L141.63020833333334,60.72006154060364L142.12890625,66.38280701637268L142.37825520833334,14.801385641098022L142.5029296875,46.49369430541992L142.876953125,60.13689851760864L143.37565104166669,41.55493354797363L143.74967447916666,53.78375959396362L143.9990234375,46.690473318099976L144.12369791666669,68.66249799728394L144.24837239583331,31.910778522491455L144.7470703125,76.83749914169312L144.99641927083331,44.50446653366089L145.12109375,50.04107594490051L145.24576822916666,58.64196038246155L145.37044270833334,43.488415002822876L145.61979166666669,59.60142159461975L145.74446614583331,84.24994468688965L146.11848958333334,89.14937496185303L146.74186197916666,38.26277804374695L146.9912109375,42.569676876068115L147.11588541666666,32.88462996482849L147.365234375,70.49128103256226L147.48990885416666,69.40585255622864L147.98860677083334,52.501256704330444L148.23795572916666,49.869659185409546L148.36263020833334,71.69415235519409L148.4873046875,84.68515419960022L148.73665364583334,57.16031527519226L148.98600260416666,45.24879169464111L149.11067708333334,65.02096796035767L149.2353515625,40.00855350494385L149.48470052083334,54.133007526397705L149.609375,36.93723106384277L149.85872395833334,30.758631706237793L149.9833984375,51.3541738986969L150.10807291666669,21.22356390953064L150.23274739583334,60.6018168926239L150.35742187499997,51.80757164955139L150.48209635416666,30.17774748802185L151.10546875,63.397446155548096L151.35481770833334,71.29797792434692L151.60416666666669,64.12248587608337L151.72884114583334,46.74208402633667L151.85351562499997,46.42140555381775L152.47688802083334,58.56131601333618L152.9755859375,40.52622199058533L153.22493489583334,34.14371180534363L153.349609375,73.88585615158081L154.09765625,44.125298738479614L154.22233072916666,31.33069610595703L154.34700520833334,50.04888296127319L154.4716796875,73.16301083564758L154.59635416666669,50.63348078727722L155.09505208333331,55.25970768928528L155.34440104166666,60.27286720275879L155.46907552083331,54.15478277206421L156.21712239583334,37.18068337440491L156.341796875,33.251728534698486L156.71582031250003,48.9947247505188L156.96516927083331,32.88576936721802L157.08984375,48.530017375946045L157.21451822916666,57.6199164390564L157.4638671875,45.30403161048889L157.837890625,38.393556118011475L157.96256510416669,54.633880376815796L158.08723958333334,69.99462819099426L158.33658854166666,68.74643397331238L158.46126302083331,30.951106309890747L158.5859375,49.37887215614319L158.71061197916666,53.731136083602905L158.83528645833334,70.58445882797241L158.9599609375,36.79218935966492L159.333984375,59.736461877822876L159.45865885416669,40.30386972427368L159.70800781249997,35.13946509361267L159.83268229166666,55.26629090309143L159.95735677083331,60.52446413040161L160.33138020833334,38.03683876991272L160.4560546875,59.8713755607605L160.58072916666666,47.14306926727295L161.07942708333334,37.0722291469574L161.20410156249997,53.15025186538696L161.32877604166669,40.76739549636841L161.9521484375,51.834917306900024L162.20149739583334,62.58564305305481L162.45084635416669,46.290711879730225L162.57552083333334,44.9760525226593L162.7001953125,61.73349666595459L163.07421875,55.48328375816345L163.19889322916666,80.11332321166992L163.32356770833331,44.33461117744446L163.4482421875,33.98301386833191L163.57291666666666,44.047144174575806L163.69759114583334,57.00826835632324L163.822265625,49.3922073841095L163.94694010416669,70.24428391456604L164.1962890625,34.07045245170593L164.5703125,75.55415225028992L164.81966145833331,52.87472748756409L164.9443359375,46.855053663253784L165.318359375,38.554760456085205L165.44303385416666,40.88673734664917L165.6923828125,36.05111360549927L165.81705729166669,48.25744700431824L165.94173177083331,40.45325803756714L166.06640625000003,49.7510347366333L166.19108072916666,37.53423571586609L166.4404296875,43.79360604286194L166.56510416666666,52.71183514595032L166.68977864583334,50.616305351257324L167.06380208333334,39.221901655197144L167.43782552083334,58.67238664627075L167.81184895833331,58.90706133842468L167.9365234375,80.9030134677887L168.18587239583334,72.4550199508667L168.310546875,71.28747010231018L168.43522135416666,60.38524603843689L168.55989583333334,54.47765564918518L168.6845703125,34.422696590423584L168.80924479166669,42.17493724822998L169.05859374999997,46.09865927696228L169.68196614583334,50.97268509864807L169.93131510416666,44.46142244338989L170.1806640625,16.391611576080322L170.43001302083334,43.908390283584595L170.55468749999997,62.500356674194336L171.302734375,61.26760768890381L171.42740885416666,55.5243444442749L171.6767578125,50.40737271308899L171.80143229166669,44.66655707359314L171.92610677083334,48.46068263053894L172.4248046875,28.635165452957153L172.67415364583331,49.217499017715454L172.92350260416666,47.40099620819092L173.1728515625,53.15793228149414L173.29752604166669,25.955291032791138L173.42220052083334,55.568907737731934L173.79622395833331,28.328877210617065L173.9208984375,51.96953558921814L174.04557291666666,41.80792307853699L174.294921875,15.946780443191528L174.41959635416666,21.20149326324463L174.79361979166666,63.36085867881775L174.91829427083334,27.063507556915283L175.29231770833331,77.46661806106567L175.41699218750003,34.83347225189209L175.54166666666666,45.194395780563354L175.791015625,54.01864528656006L176.28971354166666,31.607486486434937L176.41438802083334,35.051098108291626L176.5390625,35.50584626197815L176.78841145833334,47.45594072341919L176.91308593750003,35.66000318527222L177.53645833333334,51.022945404052734L177.78580729166666,19.87227487564087L178.15983072916669,44.3967719078064L178.28450520833334,14.162856101989746L178.65852864583331,69.80143618583679L178.783203125,59.0849769115448L179.40657552083334,43.12507224082947L179.65592447916669,31.03727889060974L179.78059895833334,55.10040235519409L179.90527343749997,42.99020075798035L180.02994791666669,38.45132803916931L180.15462239583331,33.76344680786133L180.279296875,35.50512886047363L180.40397135416666,36.01279592514038L180.77799479166666,19.487030267715454L180.90266927083334,42.803043365478516L181.02734375,27.400348663330078L181.15201822916669,36.84080386161804L181.4013671875,69.04791140556335L181.65071614583331,42.82562041282654L181.775390625,37.9971706867218L182.1494140625,41.04920768737793L182.27408854166666,47.65419673919678L182.64811197916669,33.67664122581482L183.02213541666669,47.5946524143219L183.52083333333331,55.664026737213135L184.14420572916666,41.01042580604553L184.26888020833334,53.59774160385132L184.3935546875,21.670294046401978L184.89225260416666,22.278101921081543L185.26627604166666,69.97078514099121L185.8896484375,41.04891228675842L186.26367187500003,40.03834676742554L186.6376953125,30.49365735054016L186.88704427083334,27.298308849334717L187.01171875,50.682053089141846L187.3857421875,43.56948137283325L187.88444010416666,38.799352169036865L188.38313802083334,54.91273856163025L188.8818359375,33.327308893203735L189.00651041666669,3.2725324630737305L189.6298828125,31.66373920440674L189.87923177083334,43.74060273170471L190.00390625,33.40385985374451L190.25325520833334,42.84165644645691L190.3779296875,39.17459535598755L190.62727864583334,24.81622624397278L191.5,41.022199630737305L192.6220703125,32.40869736671448L192.74674479166666,52.74703001976013L192.99609375,34.792622566223145L193.12076822916666,51.62931847572327L193.49479166666666,30.730653047561646L193.61946614583334,44.078245639801025L193.86881510416669,69.73640584945679L194.36751302083331,63.15947985649109L194.61686197916666,21.911720752716064L195.11555989583334,42.75881767272949L195.240234375,21.3039128780365L195.36490885416669,39.77455401420593L195.48958333333334,49.02705001831055L195.61425781250003,39.6390917301178L196.11295572916666,12.311285018920898L196.23763020833334,51.47571015357971L196.48697916666666,29.125699281692505L196.61165364583334,35.86404061317444L197.11035156249997,26.05602264404297L197.73372395833334,56.35268998146057L197.8583984375,32.964725732803345L198.35709635416669,30.277002096176147L198.73111979166669,30.92705225944519L199.10514322916666,55.157963275909424L199.22981770833334,38.219902753829956L199.47916666666666,61.18628811836243L199.60384114583334,21.151697158813477L199.97786458333334,31.817811727523804L200.22721354166669,20.203967571258545L201.224609375,44.58827590942383L201.5986328125,8.295524597167969L201.72330729166669,50.263681411743164L201.97265625,65.88433957099915L202.22200520833331,10.265466928482056L202.3466796875,19.98039150238037L203.46875000000003,40.22609496116638L203.59342447916666,57.951777935028076L204.09212239583334,7.466968059539795L204.34147135416666,39.946181774139404L204.46614583333334,32.20575714111328L204.5908203125,22.85877513885498L204.71549479166669,27.49677586555481L205.08951822916666,49.62164926528931L205.3388671875,69.56591749191284L205.46354166666666,31.20958185195923L205.58821614583334,37.329269886016846L205.712890625,39.030102252960205L205.83756510416666,38.55374765396118L205.96223958333334,41.92009091377258L206.0869140625,16.604722023010254L206.33626302083334,10.097594976425171L206.46093749999997,30.122169971466064L206.58561197916666,17.23848295211792L206.71028645833331,32.0768780708313L206.8349609375,46.90029215812683L206.95963541666666,12.240557670593262L207.08430989583334,-4.478188991546631L207.208984375,22.0904381275177L207.45833333333334,27.203527450561523L208.3310546875,36.66567349433899L208.705078125,53.287697553634644L208.82975260416666,33.9522922039032L209.0791015625,41.35203552246094L209.20377604166669,31.33500051498413L209.70247395833331,20.593263387680054L209.8271484375,29.23567271232605L209.95182291666666,31.174513578414917L210.45052083333334,24.46756911277771L210.5751953125,41.80471587181091L210.69986979166669,16.010038375854492L210.82454427083334,18.172159910202026L210.94921875,13.576781272888184L211.19856770833331,40.13127136230469L211.3232421875,34.14084219932556L211.82194010416666,6.6593849658966064L211.94661458333334,31.10167622566223L212.0712890625,31.30170464515686L212.32063802083334,15.041630744934082L212.69466145833331,11.85071325302124L213.193359375,39.850303173065186L213.31803385416666,22.002113342285156L213.44270833333334,35.86800742149353L213.69205729166666,24.584041357040405L213.94140625,42.677751302719116L214.06608072916669,27.225977897644043L214.93880208333334,22.810118436813354L215.31282552083334,42.780508518218994L215.56217447916669,22.24902606010437L216.31022135416666,38.425543785095215L216.68424479166666,32.34349822998047L216.80891927083334,24.39975357055664L217.18294270833334,19.93156599998474L217.681640625,22.017642974853516L217.93098958333334,48.28854846954346L218.0556640625,51.53694248199463L218.4296875,37.354252338409424L218.55436197916669,17.351536989212036L218.67903645833334,54.71093773841858L218.92838541666669,39.98665165901184L219.177734375,28.040186405181885L219.80110677083334,13.465626239776611L220.05045572916669,47.90621566772461L220.17513020833334,28.72842764854431L220.2998046875,28.84595489501953L220.54915364583331,56.00095224380493L220.79850260416666,48.76886987686157L220.92317708333331,10.119074821472168L221.0478515625,23.16983199119568L221.17252604166666,53.7784423828125L221.54654947916666,17.350186586380005L221.7958984375,17.984538316726685L221.92057291666669,9.06563401222229L222.04524739583331,6.269962549209595L222.16992187500003,35.16048073768616L222.29459635416666,47.03495264053345L222.66861979166666,56.256431579589844L223.2919921875,4.986911058425903L223.91536458333331,3.696685552597046L224.0400390625,7.650622844696045L224.16471354166666,18.921802282333374L224.66341145833334,22.495474576950073L224.7880859375,1.4075417518615723L224.91276041666669,14.027604818344116L225.78548177083334,11.71845817565918L225.91015625,26.853984117507935L226.15950520833334,10.987848043441772L226.2841796875,22.789735794067383L226.53352864583334,10.643579721450806L227.0322265625,34.31052875518799L227.28157552083334,27.289067029953003L227.53092447916666,27.304385662078857L227.7802734375,30.143818616867065L227.90494791666669,21.817234754562378L228.40364583333331,40.51672697067261L228.90234375,37.58487582206726L229.02701822916666,5.062575817108154L229.15169270833334,31.011494636535645L229.2763671875,11.0841064453125L229.52571614583334,26.827313661575317L229.650390625,36.809786796569824L230.27376302083331,33.863503217697144L230.3984375,1.7791979312896729L230.64778645833334,30.891941785812378L230.89713541666666,20.23317003250122L231.02180989583334,23.761224031448364L231.146484375,12.738898515701294L231.27115885416669,-5.583240509033203L231.52050781250003,29.15485954284668L231.76985677083331,20.23916244506836L232.2685546875,5.501119136810303L232.51790364583334,11.891689538955688L232.76725260416669,24.476515531539917L233.14127604166666,20.16100788116455L233.26595052083331,33.316463470458984L233.7646484375,18.955984354019165L234.138671875,-6.5044684410095215L234.38802083333334,19.536193370819092L234.51269531249997,-4.231065273284912L234.63736979166666,35.01894164085388L234.76204427083331,33.08942699432373L235.13606770833334,34.72240161895752L235.2607421875,21.413633108139038L235.38541666666666,19.017258882522583L235.51009114583334,41.147491693496704L235.634765625,37.25208592414856L235.75944010416669,30.460488080978394L236.13346354166669,40.435365200042725L236.25813802083331,25.92254376411438L236.3828125,38.17504405975342L236.63216145833334,31.697246074676514L236.7568359375,54.641645193099976L236.88151041666666,41.79247784614563L237.00618489583334,19.075621604919434L237.25553385416669,4.415986061096191L237.5048828125,-2.531752109527588L237.87890625,29.250189542770386L238.12825520833331,29.12890648841858L238.2529296875,6.175687551498413L238.37760416666666,51.66485095024109L238.50227864583334,17.82789158821106L239.25032552083331,11.482011079788208L239.375,45.24165987968445L239.7490234375,36.437328815460205L239.87369791666666,31.56828260421753L239.99837239583334,14.791848421096802L240.123046875,41.54784393310547L240.74641927083331,16.262816905975342L241.74381510416666,5.444571018218994L241.86848958333334,5.944135665893555L241.9931640625,30.3441424369812L242.36718750000003,15.72991418838501L242.61653645833331,25.87971067428589L242.99055989583334,26.314287185668945L243.115234375,19.38144564628601L243.23990885416666,45.61648106575012L243.36458333333334,21.207063674926758L243.61393229166669,17.540424585342407L243.73860677083334,24.345948457717896L244.11263020833331,46.60695934295654L244.73600260416666,21.25858998298645L244.86067708333334,32.3838415145874L245.11002604166669,0.6987912654876709L245.23470052083334,24.46322250366211L245.48404947916669,6.175265550613403L246.35677083333334,35.044135093688965L246.4814453125,31.768690824508667L246.60611979166669,57.25956988334656L246.98014322916669,26.312092781066895L247.10481770833331,25.33444333076477L247.47884114583331,23.059605360031128L247.603515625,36.63377022743225L247.72819010416666,21.159799575805664L247.85286458333334,35.0975182056427L248.10221354166669,25.173829793930054L248.22688802083334,-8.08300495147705L248.47623697916669,-8.734405517578125L248.7255859375,11.381237268447876L248.97493489583331,18.729580879211426L249.099609375,32.24251341819763L249.4736328125,28.444716453552246L249.72298177083334,11.478888273239136L249.84765625,23.232456922531128L249.97233072916669,28.353015661239624L250.47102864583331,16.397477388381958L250.72037760416666,7.401726722717285L251.21907552083334,54.82373857498169L251.46842447916669,15.711683750152588L251.71777343750003,31.13881230354309L251.84244791666666,20.360698699951172L252.34114583333334,25.169567584991455L252.71516927083334,27.75343680381775L252.83984375,20.053482055664062L253.08919270833334,38.04776859283447L253.21386718749997,15.405184507369995L253.46321614583331,26.52284002304077L253.587890625,10.865805387496948L253.71256510416666,13.497656106948853L253.9619140625,11.44968581199646L254.08658854166666,13.557116031646729L254.21126302083334,32.912904024124146L254.95930989583331,16.094480752944946L255.083984375,25.081833600997925L255.20865885416666,6.363013744354248L255.33333333333334,35.18440818786621L255.4580078125,-3.2531204223632812L255.83203125,3.739856243133545L256.0813802083333,35.009531021118164L256.4554036458333,9.179110050201416L256.9541015625,32.6817741394043L257.4527994791667,28.900097608566284L257.5774739583333,-10.244746685028076L257.7021484375,16.917298078536987L257.8268229166667,35.12136125564575L258.3255208333333,14.055119276046753L258.4501953125,17.371455430984497L258.5748697916667,29.27977180480957L258.69954427083337,0.42035508155822754L258.82421875,15.099740266799927L259.0735677083333,24.80339741706848L259.3229166666667,47.0805287361145L259.4475911458333,1.4705886840820312L259.8216145833333,17.110321283340454L259.9462890625,28.200588941574097L260.19563802083337,11.488720893859863L260.44498697916663,26.83828568458557L260.6943359375,39.97015142440796L260.8190104166667,12.108977794647217L261.3177083333333,40.67852210998535L261.81640625,9.637951612472534L262.0657552083333,13.066329002380371L262.1904296875,31.06711435317993L262.6891276041667,8.03717565536499L262.9384765625,30.919498443603516L263.0631510416667,16.099122762680054L263.18782552083337,36.684958934783936L263.5618489583333,18.582218170166016L263.9358723958333,11.752387046813965L264.1852213541667,37.580698013305664L264.93326822916663,11.994320154190063L265.0579427083333,17.34259057044983L265.1826171875,3.41166615486145L265.4319661458333,14.668708562850952L265.556640625,32.6300790309906L265.9306640625,18.82136607170105L266.3046875,2.891676664352417L266.42936197916663,-2.8439483642578125L266.8033854166667,15.092355251312256L266.9280598958333,3.2148027420043945L267.052734375,18.066955089569092L267.1774088541667,50.00220966339111L267.5514322916667,13.590833902359009L267.80078125,3.283968687057495L268.1748046875,12.118008613586426L268.29947916666663,32.13840579986572L268.548828125,23.181732416152954L268.9228515625,33.836326360702515L269.4215494791667,30.756606101989746L269.54622395833337,36.71200919151306L269.6708984375,19.90907335281372L269.79557291666663,24.01298975944519L269.9202473958333,-2.572601795196533L270.1695963541667,-7.047499179840088L270.2942708333333,18.766590356826782L270.4189453125,16.23804545402527L270.5436197916667,-20.066479682922363L271.29166666666663,35.98696947097778L271.541015625,7.9520580768585205L271.6656901041667,6.035752058029175L271.7903645833333,28.867265939712524L271.9150390625,18.44586968421936L272.0397135416667,26.08931851387024L272.1643880208333,-8.988365650177002L272.2890625,36.69677495956421L272.53841145833337,40.26707124710083L272.78776041666663,17.806833744049072L272.9124348958333,12.555370330810547L273.037109375,9.248655796051025L273.2864583333333,14.24337387084961L273.4111328125,7.347710609436035L273.5358072916667,4.5589599609375L273.78515625,5.496856927871704L274.28385416666663,10.419117450714111" style="fill: none;" fill="none"></path></g></g></g></g></g></g><g transform="translate(30, 177)" clip-path="url(#clip_1)"><clipPath id="clip_1"><rect width="299" height="23"></rect></clipPath><g><g><line x1="0" y1="0" x2="0" y2="5" style="visibility: inherit;" fill="rgb(0, 0, 0)" stroke="rgb(204, 204, 204)" stroke-width="1px"></line><line x1="24.934895833333332" y1="0" x2="24.934895833333332" y2="5" style="visibility: inherit;" fill="rgb(0, 0, 0)" stroke="rgb(204, 204, 204)" stroke-width="1px"></line><line x1="49.869791666666664" y1="0" x2="49.869791666666664" y2="5" style="visibility: inherit;" fill="rgb(0, 0, 0)" stroke="rgb(204, 204, 204)" stroke-width="1px"></line><line x1="74.8046875" y1="0" x2="74.8046875" y2="5" style="visibility: inherit;" fill="rgb(0, 0, 0)" stroke="rgb(204, 204, 204)" stroke-width="1px"></line><line x1="99.73958333333333" y1="0" x2="99.73958333333333" y2="5" style="visibility: inherit;" fill="rgb(0, 0, 0)" stroke="rgb(204, 204, 204)" stroke-width="1px"></line><line x1="124.67447916666667" y1="0" x2="124.67447916666667" y2="5" style="visibility: inherit;" fill="rgb(0, 0, 0)" stroke="rgb(204, 204, 204)" stroke-width="1px"></line><line x1="149.609375" y1="0" x2="149.609375" y2="5" style="visibility: inherit;" fill="rgb(0, 0, 0)" stroke="rgb(204, 204, 204)" stroke-width="1px"></line><line x1="174.54427083333334" y1="0" x2="174.54427083333334" y2="5" style="visibility: inherit;" fill="rgb(0, 0, 0)" stroke="rgb(204, 204, 204)" stroke-width="1px"></line><line x1="199.47916666666666" y1="0" x2="199.47916666666666" y2="5" style="visibility: inherit;" fill="rgb(0, 0, 0)" stroke="rgb(204, 204, 204)" stroke-width="1px"></line><line x1="224.4140625" y1="0" x2="224.4140625" y2="5" style="visibility: inherit;" fill="rgb(0, 0, 0)" stroke="rgb(204, 204, 204)" stroke-width="1px"></line><line x1="249.34895833333334" y1="0" x2="249.34895833333334" y2="5" style="visibility: inherit;" fill="rgb(0, 0, 0)" stroke="rgb(204, 204, 204)" stroke-width="1px"></line><line x1="274.28385416666663" y1="0" x2="274.28385416666663" y2="5" style="visibility: inherit;" fill="rgb(0, 0, 0)" stroke="rgb(204, 204, 204)" stroke-width="1px"></line><line x1="299.21875" y1="0" x2="299.21875" y2="5" style="visibility: inherit;" fill="rgb(0, 0, 0)" stroke="rgb(204, 204, 204)" stroke-width="1px"></line></g><g transform="translate(0, 8)"><text x="0" y="0" dx="0em" dy="0.95em" style="text-anchor: middle; visibility: hidden; font-family: Roboto, sans-serif; font-size: 12px; font-weight: 200;" fill="rgb(33, 33, 33)" stroke="none" stroke-width="1px">-20k</text><text x="24.934895833333332" y="0" dx="0em" dy="0.95em" style="text-anchor: middle; visibility: inherit; font-family: Roboto, sans-serif; font-size: 12px; font-weight: 200;" fill="rgb(33, 33, 33)" stroke="none" stroke-width="1px">0</text><text x="49.869791666666664" y="0" dx="0em" dy="0.95em" style="text-anchor: middle; visibility: hidden; font-family: Roboto, sans-serif; font-size: 12px; font-weight: 200;" fill="rgb(33, 33, 33)" stroke="none" stroke-width="1px">20k</text><text x="74.8046875" y="0" dx="0em" dy="0.95em" style="text-anchor: middle; visibility: inherit; font-family: Roboto, sans-serif; font-size: 12px; font-weight: 200;" fill="rgb(33, 33, 33)" stroke="none" stroke-width="1px">40k</text><text x="99.73958333333333" y="0" dx="0em" dy="0.95em" style="text-anchor: middle; visibility: hidden; font-family: Roboto, sans-serif; font-size: 12px; font-weight: 200;" fill="rgb(33, 33, 33)" stroke="none" stroke-width="1px">60k</text><text x="124.67447916666667" y="0" dx="0em" dy="0.95em" style="text-anchor: middle; visibility: inherit; font-family: Roboto, sans-serif; font-size: 12px; font-weight: 200;" fill="rgb(33, 33, 33)" stroke="none" stroke-width="1px">80k</text><text x="149.609375" y="0" dx="0em" dy="0.95em" style="text-anchor: middle; visibility: hidden; font-family: Roboto, sans-serif; font-size: 12px; font-weight: 200;" fill="rgb(33, 33, 33)" stroke="none" stroke-width="1px">100k</text><text x="174.54427083333334" y="0" dx="0em" dy="0.95em" style="text-anchor: middle; visibility: inherit; font-family: Roboto, sans-serif; font-size: 12px; font-weight: 200;" fill="rgb(33, 33, 33)" stroke="none" stroke-width="1px">120k</text><text x="199.47916666666666" y="0" dx="0em" dy="0.95em" style="text-anchor: middle; visibility: hidden; font-family: Roboto, sans-serif; font-size: 12px; font-weight: 200;" fill="rgb(33, 33, 33)" stroke="none" stroke-width="1px">140k</text><text x="224.4140625" y="0" dx="0em" dy="0.95em" style="text-anchor: middle; visibility: inherit; font-family: Roboto, sans-serif; font-size: 12px; font-weight: 200;" fill="rgb(33, 33, 33)" stroke="none" stroke-width="1px">160k</text><text x="249.34895833333334" y="0" dx="0em" dy="0.95em" style="text-anchor: middle; visibility: hidden; font-family: Roboto, sans-serif; font-size: 12px; font-weight: 200;" fill="rgb(33, 33, 33)" stroke="none" stroke-width="1px">180k</text><text x="274.28385416666663" y="0" dx="0em" dy="0.95em" style="text-anchor: middle; visibility: inherit; font-family: Roboto, sans-serif; font-size: 12px; font-weight: 200;" fill="rgb(33, 33, 33)" stroke="none" stroke-width="1px">200k</text><text x="299.21875" y="0" dx="0em" dy="0.95em" style="text-anchor: middle; visibility: hidden; font-family: Roboto, sans-serif; font-size: 12px; font-weight: 200;" fill="rgb(33, 33, 33)" stroke="none" stroke-width="1px">220k</text></g><line x1="0" y1="0" x2="299.21875" y2="0" fill="rgb(0, 0, 0)" stroke="rgb(204, 204, 204)" stroke-width="1px"></line></g></g></g></g></svg>