<svg viewBox="0 0 330 200" xmlns="http://www.w3.org/2000/svg"><g><g><g><g><g><line x1="30.78125" y1="177" x2="25.78125" y2="177" style="visibility: inherit;" fill="rgb(0, 0, 0)" stroke="rgb(204, 204, 204)" stroke-width="1px"></line><line x1="30.78125" y1="157.33333333333331" x2="25.78125" y2="157.33333333333331" style="visibility: inherit;" fill="rgb(0, 0, 0)" stroke="rgb(204, 204, 204)" stroke-width="1px"></line><line x1="30.78125" y1="137.66666666666666" x2="25.78125" y2="137.66666666666666" style="visibility: inherit;" fill="rgb(0, 0, 0)" stroke="rgb(204, 204, 204)" stroke-width="1px"></line><line x1="30.78125" y1="118.00000000000001" x2="25.78125" y2="118.00000000000001" style="visibility: inherit;" fill="rgb(0, 0, 0)" stroke="rgb(204, 204, 204)" stroke-width="1px"></line><line x1="30.78125" y1="98.33333333333334" x2="25.78125" y2="98.33333333333334" style="visibility: inherit;" fill="rgb(0, 0, 0)" stroke="rgb(204, 204, 204)" stroke-width="1px"></line><line x1="30.78125" y1="78.66666666666666" x2="25.78125" y2="78.66666666666666" style="visibility: inherit;" fill="rgb(0, 0, 0)" stroke="rgb(204, 204, 204)" stroke-width="1px"></line><line x1="30.78125" y1="59.00000000000001" x2="25.78125" y2="59.00000000000001" style="visibility: inherit;" fill="rgb(0, 0, 0)" stroke="rgb(204, 204, 204)" stroke-width="1px"></line><line x1="30.78125" y1="39.33333333333333" x2="25.78125" y2="39.33333333333333" style="visibility: inherit;" fill="rgb(0, 0, 0)" stroke="rgb(204, 204, 204)" stroke-width="1px"></line><line x1="30.78125" y1="19.666666666666675" x2="25.78125" y2="19.666666666666675" style="visibility: inherit;" fill="rgb(0, 0, 0)" stroke="rgb(204, 204, 204)" stroke-width="1px"></line><line x1="30.78125" y1="0" x2="25.78125" y2="0" style="visibility: inherit;" fill="rgb(0, 0, 0)" stroke="rgb(204, 204, 204)" stroke-width="1px"></line></g><g transform="translate(20.78125, 0)"><text x="0" y="177" dx="0em" dy="0.3em" style="text-anchor: end; visibility: hidden; font-family: Roboto, sans-serif; font-size: 12px; font-weight: 200;" fill="rgb(33, 33, 33)" stroke="none" stroke-width="1px">24</text><text x="0" y="157.33333333333331" dx="0em" dy="0.3em" style="text-anchor: end; visibility: inherit; font-family: Roboto, sans-serif; font-size: 12px; font-weight: 200;" fill="rgb(33, 33, 33)" stroke="none" stroke-width="1px">25</text><text x="0" y="137.66666666666666" dx="0em" dy="0.3em" style="text-anchor: end; visibility: hidden; font-family: Roboto, sans-serif; font-size: 12px; font-weight: 200;" fill="rgb(33, 33, 33)" stroke="none" stroke-width="1px">26</text><text x="0" y="118.00000000000001" dx="0em" dy="0.3em" style="text-anchor: end; visibility: inherit; font-family: Roboto, sans-serif; font-size: 12px; font-weight: 200;" fill="rgb(33, 33, 33)" stroke="none" stroke-width="1px">27</text><text x="0" y="98.33333333333334" dx="0em" dy="0.3em" style="text-anchor: end; visibility: hidden; font-family: Roboto, sans-serif; font-size: 12px; font-weight: 200;" fill="rgb(33, 33, 33)" stroke="none" stroke-width="1px">28</text><text x="0" y="78.66666666666666" dx="0em" dy="0.3em" style="text-anchor: end; visibility: inherit; font-family: Roboto, sans-serif; font-size: 12px; font-weight: 200;" fill="rgb(33, 33, 33)" stroke="none" stroke-width="1px">29</text><text x="0" y="59.00000000000001" dx="0em" dy="0.3em" style="text-anchor: end; visibility: hidden; font-family: Roboto, sans-serif; font-size: 12px; font-weight: 200;" fill="rgb(33, 33, 33)" stroke="none" stroke-width="1px">30</text><text x="0" y="39.33333333333333" dx="0em" dy="0.3em" style="text-anchor: end; visibility: inherit; font-family: Roboto, sans-serif; font-size: 12px; font-weight: 200;" fill="rgb(33, 33, 33)" stroke="none" stroke-width="1px">31</text><text x="0" y="19.666666666666675" dx="0em" dy="0.3em" style="text-anchor: end; visibility: hidden; font-family: Roboto, sans-serif; font-size: 12px; font-weight: 200;" fill="rgb(33, 33, 33)" stroke="none" stroke-width="1px">32</text><text x="0" y="0" dx="0em" dy="0.3em" style="text-anchor: end; visibility: hidden; font-family: Roboto, sans-serif; font-size: 12px; font-weight: 200;" fill="rgb(33, 33, 33)" stroke="none" stroke-width="1px">33</text></g><line x1="30.78125" y1="0" x2="30.78125" y2="177" fill="rgb(0, 0, 0)" stroke="rgb(204, 204, 204)" stroke-width="1px"></line></g></g><g transform="translate(30, 0)" clip-path="url(#clip_0)"><clipPath id="clip_0"><rect width="299" height="177"></rect></clipPath><g><g><g><line x1="0" y1="0" x2="0" y2="177" fill="rgb(0, 0, 0)" stroke="rgb(66, 66, 66)" stroke-width="1px" opacity="0.25"></line><line x1="24.934895833333332" y1="0" x2="24.934895833333332" y2="177" fill="rgb(0, 0, 0)" stroke="rgb(66, 66, 66)" stroke-width="1px" opacity="0.25"></line><line x1="49.869791666666664" y1="0" x2="49.869791666666664" y2="177" fill="rgb(0, 0, 0)" stroke="rgb(66, 66, 66)" stroke-width="1px" opacity="0.25"></line><line x1="74.8046875" y1="0" x2="74.8046875" y2="177" fill="rgb(0, 0, 0)" stroke="rgb(66, 66, 66)" stroke-width="1px" opacity="0.25"></line><line x1="99.73958333333333" y1="0" x2="99.73958333333333" y2="177" fill="rgb(0, 0, 0)" stroke="rgb(66, 66, 66)" stroke-width="1px" opacity="0.25"></line><line x1="124.67447916666667" y1="0" x2="124.67447916666667" y2="177" fill="rgb(0, 0, 0)" stroke="rgb(66, 66, 66)" stroke-width="1px" opacity="0.25"></line><line x1="149.609375" y1="0" x2="149.609375" y2="177" fill="rgb(0, 0, 0)" stroke="rgb(66, 66, 66)" stroke-width="1px" opacity="0.25"></line><line x1="174.54427083333334" y1="0" x2="174.54427083333334" y2="177" fill="rgb(0, 0, 0)" stroke="rgb(66, 66, 66)" stroke-width="1px" opacity="0.25"></line><line x1="199.47916666666666" y1="0" x2="199.47916666666666" y2="177" fill="rgb(0, 0, 0)" stroke="rgb(66, 66, 66)" stroke-width="1px" opacity="0.25"></line><line x1="224.4140625" y1="0" x2="224.4140625" y2="177" fill="rgb(0, 0, 0)" stroke="rgb(66, 66, 66)" stroke-width="1px" opacity="0.25"></line><line x1="249.34895833333334" y1="0" x2="249.34895833333334" y2="177" fill="rgb(0, 0, 0)" stroke="rgb(66, 66, 66)" stroke-width="1px" opacity="0.25"></line><line x1="274.28385416666663" y1="0" x2="274.28385416666663" y2="177" fill="rgb(0, 0, 0)" stroke="rgb(66, 66, 66)" stroke-width="1px" opacity="0.25"></line><line x1="299.21875" y1="0" x2="299.21875" y2="177" fill="rgb(0, 0, 0)" stroke="rgb(66, 66, 66)" stroke-width="1px" opacity="0.25"></line></g><g><line x1="0" y1="177" x2="299.21875" y2="177" fill="rgb(0, 0, 0)" stroke="rgb(66, 66, 66)" stroke-width="1px" opacity="0.25"></line><line x1="0" y1="157.33333333333331" x2="299.21875" y2="157.33333333333331" fill="rgb(0, 0, 0)" stroke="rgb(66, 66, 66)" stroke-width="1px" opacity="0.25"></line><line x1="0" y1="137.66666666666666" x2="299.21875" y2="137.66666666666666" fill="rgb(0, 0, 0)" stroke="rgb(66, 66, 66)" stroke-width="1px" opacity="0.25"></line><line x1="0" y1="118.00000000000001" x2="299.21875" y2="118.00000000000001" fill="rgb(0, 0, 0)" stroke="rgb(66, 66, 66)" stroke-width="1px" opacity="0.25"></line><line x1="0" y1="98.33333333333334" x2="299.21875" y2="98.33333333333334" fill="rgb(0, 0, 0)" stroke="rgb(66, 66, 66)" stroke-width="1px" opacity="0.25"></line><line x1="0" y1="78.66666666666666" x2="299.21875" y2="78.66666666666666" fill="rgb(0, 0, 0)" stroke="rgb(66, 66, 66)" stroke-width="1px" opacity="0.25"></line><line x1="0" y1="59.00000000000001" x2="299.21875" y2="59.00000000000001" fill="rgb(0, 0, 0)" stroke="rgb(66, 66, 66)" stroke-width="1px" opacity="0.25"></line><line x1="0" y1="39.33333333333333" x2="299.21875" y2="39.33333333333333" fill="rgb(0, 0, 0)" stroke="rgb(66, 66, 66)" stroke-width="1px" opacity="0.25"></line><line x1="0" y1="19.666666666666675" x2="299.21875" y2="19.666666666666675" fill="rgb(0, 0, 0)" stroke="rgb(66, 66, 66)" stroke-width="1px" opacity="0.25"></line><line x1="0" y1="0" x2="299.21875" y2="0" fill="rgb(0, 0, 0)" stroke="rgb(66, 66, 66)" stroke-width="1px" opacity="0.25"></line></g></g></g><g><g><line x1="0" y1="649" x2="299.21875" y2="649" fill="rgb(0, 0, 0)" stroke="rgb(153, 153, 153)" stroke-width="1.5px"></line></g></g><g><g><line x1="24.934895833333332" y1="0" x2="24.934895833333332" y2="177" fill="rgb(0, 0, 0)" stroke="rgb(153, 153, 153)" stroke-width="1.5px"></line></g></g><g><g><g><g><g><path stroke="rgb(255, 112, 67)" stroke-width="2px" d="M33.53743489583333,180.75288263273748L33.786783854166664,176.5991632627921L33.91145833333333,173.11681630567173L34.659505208333336,174.22192109650712L34.908854166666664,171.83353869994653L35.033528645833336,176.07050566174814L35.282877604166664,170.34876065767787L35.407552083333336,167.10391479962072L35.65690104166667,166.81555704008952L36.155598958333336,167.09702795986095L36.2802734375,164.05609300647606L36.903645833333336,160.02002232991975L37.40234375,156.98579218608697L37.52701822916667,155.21482888827254L37.90104166666667,151.9693547405533L38.27506510416667,154.1232286483859L38.39973958333333,157.66784486320245L38.64908854166667,155.48303342548343L39.2724609375,151.35948253086883L39.521809895833336,149.07520362781258L40.145182291666664,145.97034393775328L40.643880208333336,144.1210821967984L40.7685546875,147.29725360681675L41.017903645833336,150.15303986754103L41.267252604166664,147.7512940336429L41.391927083333336,143.45126368418303L41.51660156250001,139.19839645513858L42.015299479166664,138.27952320430063L42.139973958333336,136.55709990890847L42.888020833333336,130.58015126207678L43.0126953125,136.2776714457226L43.262044270833336,142.75849205810735L43.38671875,136.318458373699L43.7607421875,140.29220620911522L44.633463541666664,139.2380292104952L44.8828125,140.64335590723786L45.00748697916667,139.3088022914943L45.2568359375,132.48924967730542L45.50618489583333,127.8732767249216L45.75553385416667,127.27310009867368L46.25423177083333,132.16721648417172L46.37890625,125.80869857336437L46.50358072916667,123.28907427707524L46.87760416666667,128.11669077189296L47.00227864583333,129.24441301253356L47.126953125,128.58528789337626L47.25162760416667,124.47344421022822L47.5009765625,129.68378322128672L47.62565104166667,123.27185135367048L47.99967447916667,121.81828125287612L48.12434895833333,117.18675274830771L48.2490234375,131.67815246889026L48.623046875,140.14975570862904L48.747721354166664,132.5896161510075L48.872395833333336,136.67090302190334L48.9970703125,135.45942327269603L49.37109375,127.47955182128361L49.869791666666664,122.0874587233854L49.994466145833336,123.59513270473443L50.243815104166664,126.06018758385947L50.368489583333336,122.99361453395821L50.4931640625,126.41590545540103L50.617838541666664,125.74127122937666L50.86718750000001,121.14526042846258L51.116536458333336,120.71172723079178L51.365885416666664,122.33124801856944L51.61523437499999,123.33574527110254L51.864583333333336,125.25900255206588L51.98925781249999,123.50229865648367L52.238606770833336,130.9163373848082L52.36328125,119.42313515386671L52.487955729166664,122.41556856180246L52.612630208333336,129.94773489521947L52.7373046875,129.19209115278923L52.986653645833336,119.93911994639362L53.111328125,113.77176359381274L53.610026041666664,109.25576648962097L54.35807291666667,106.13256984860658L54.607421875,112.21515032794649L54.73209635416667,115.28783653465848L54.85677083333333,119.44068211488691L55.10611979166667,116.91048140231437L55.23079427083333,114.64075676741403L55.48014322916667,116.91752239947837L55.60481770833333,118.91900632909133L55.7294921875,123.8875205882263L55.85416666666667,119.90274118390909L56.4775390625,122.66478568121136L56.60221354166667,123.14764205895469L56.72688802083333,116.49475487241712L57.10091145833333,124.91679565212866L57.2255859375,121.8385394579276L57.35026041666667,119.84566721316803L57.47493489583333,116.76340110101278L57.724283854166664,119.50394062398661L58.7216796875,115.31263353943106L58.846354166666664,119.29822338334289L59.220377604166664,115.43176555262946L59.345052083333336,115.30369968191947L59.4697265625,109.13064662799931L59.719075520833336,117.80931855948185L59.968424479166664,125.76433640546448L60.21777343750001,121.41963725384181L60.342447916666664,122.30654996094772L60.59179687500001,119.65131177181603L60.841145833333336,117.2702238103227L60.96582031249999,112.49018629831929L61.215169270833336,119.3348161246947L61.838541666666664,113.473640529309L61.963216145833336,118.44550735632232L62.087890625,109.45720131524196L62.212565104166664,112.05770218766403L62.960611979166664,105.40888889072342L63.2099609375,114.34421639107472L63.459309895833336,117.42117649195282L63.583984375,119.85216700560457L63.9580078125,119.15433304027687L64.08268229166667,114.92316038121362L64.45670572916667,112.88794697946062L64.7060546875,114.62730706707089L64.83072916666667,118.44888179883631L65.20475260416667,112.66421204438966L65.4541015625,111.13470428962214L66.07747395833333,102.1346886422954L66.2021484375,101.76632521947559L66.32682291666667,97.96965052922768L66.45149739583333,105.87167246882244L67.07486979166666,104.66371596501745L67.19954427083333,101.37046087173506L67.44889322916666,107.83236487142969L67.82291666666666,104.14927701611954L67.94759114583333,96.67876502152072L68.072265625,102.39521016444242L68.19694010416666,94.93232288618168L68.4462890625,96.66762890016601L68.69563802083333,97.20742294149929L68.94498697916666,99.82212273055707L69.06966145833333,94.53214158877374L69.1943359375,94.30957832891526L69.69303385416667,96.08405454332897L69.9423828125,95.96473707780399L70.19173177083333,96.28278282895778L70.31640625,105.70843007335124L70.44108072916667,105.53915589353878L70.56575520833333,107.51413582941751L70.6904296875,100.08993062484777L70.81510416666667,98.95010629360984L70.93977864583333,100.33483377535202L71.68782552083334,96.98251240713836L72.06184895833334,106.68901509402258L72.1865234375,107.37894021486082L73.05924479166667,106.20296100188199L73.18391927083334,105.9999934081767L73.6826171875,104.76204489337604L73.80729166666667,109.76656022866888L73.93196614583333,105.80998343944742L74.056640625,104.05608232847959L74.18131510416667,96.10645416596796L74.30598958333333,91.51455533039135L74.4306640625,87.39175804971593L74.55533854166667,88.66517745963097L74.68001302083333,104.14147784418684L74.8046875,102.85192339881357L75.05403645833334,103.03274548012467L75.17871093749999,101.40224997972523L75.42805989583333,98.56653360193016L75.92675781249999,107.12447419761642L76.05143229166666,98.33358446160378L76.42545572916667,94.74876467028902L76.55013020833334,94.85790697518779L76.6748046875,91.85986849338093L76.79947916666666,91.85771135888663L77.17350260416667,90.55393854222007L77.54752604166666,92.20963210726566L77.67220052083333,97.41454955854886L78.04622395833333,95.65754931520745L78.1708984375,100.84728176604509L78.66959635416667,111.71543438758927L78.79427083333333,109.46331392641746L79.16829427083333,102.72705528089936L79.29296875,99.57869659830854L79.41764322916667,98.82061375162839L79.54231770833333,104.11993554223683L79.6669921875,104.74293097052437L79.79166666666667,96.14802781856135L79.91634114583333,97.92147329717518L80.041015625,96.66919460656025L80.29036458333333,91.39388787803122L80.4150390625,90.09319002662343L80.53971354166667,91.33604987005937L80.66438802083334,96.17657727921338L81.1630859375,99.32804745191933L81.28776041666667,99.58530223620693L81.41243489583334,96.15774160376844L81.537109375,99.91038313161326L81.66178385416666,102.17439175437481L81.9111328125,93.80529016330199L82.16048177083334,98.10528484627223L82.40983072916666,96.4849286694007L82.53450520833333,99.31996568552714L82.90852864583334,99.19189726816853L83.03320312500001,92.80025748118106L83.15787760416666,87.40989463153089L83.4072265625,88.66609643671477L83.65657552083334,92.0003773139332L84.1552734375,91.88836064535869L84.27994791666667,85.22933927336427L84.65397135416666,94.74302628333822L84.77864583333333,94.09084115045546L84.9033203125,96.18161548942695L85.02799479166667,98.7518375899615L85.15266927083334,101.86906570908756L85.27734374999999,95.76527385741875L85.40201822916666,98.84970132210096L85.6513671875,96.01451999166548L85.77604166666667,94.29737140865485L85.90071614583334,92.31645868300214L86.025390625,88.39850685246078L86.27473958333333,83.5533616696633L86.64876302083334,76.38066710759229L87.1474609375,84.04436528123831L87.521484375,86.19566925826123L87.64615885416666,74.12931714333565L87.77083333333333,87.08466019160036L88.14485677083333,79.82189571416274L88.39420572916667,86.29346244070466L88.51888020833333,81.92802194277571L88.6435546875,76.82811265500463L88.76822916666667,71.40394182192536L88.89290364583333,76.00897886268649L89.017578125,86.02012323883588L89.14225260416667,86.64534954754961L89.51627604166667,92.71237325188591L89.64095052083333,94.61713978161656L89.765625,91.51506841486841L89.89029947916667,92.05283123039892L90.26432291666667,106.4798913346749L91.13704427083333,100.33830813251066L91.51106770833334,105.61122538853957L91.6357421875,103.84025869096872L91.88509114583333,92.01372272963654L92.009765625,81.45739389575719L92.13444010416667,81.50408492754215L92.25911458333334,88.29797784251166L92.38378906250001,87.59753365374915L92.63313802083333,95.64205723041681L92.7578125,102.84942653795713L92.88248697916667,94.56677236767989L93.13183593750001,89.421372421259L93.25651041666666,79.51402798156406L93.63053385416667,79.97740279154264L93.87988281249999,77.3924236288644L94.12923177083333,76.91092516527434L94.25390625,74.26995445219198L94.37858072916667,79.34954998251308L95.12662760416667,79.30991131478451L95.25130208333334,83.056392803275L95.3759765625,82.58937182495L95.87467447916667,82.56145950040614L96.24869791666666,86.67925546098581L96.498046875,75.35066164451142L96.8720703125,78.82513443380971L97.37076822916667,72.42580728382096L97.86946614583333,75.24504735857381L97.994140625,84.38068701499776L98.11881510416667,89.60556929314576L98.3681640625,87.07363820674686L98.61751302083333,80.74680540126164L98.7421875,86.07638295389174L98.86686197916667,78.605091857296L99.1162109375,67.90834854089127L99.36555989583334,75.42498933897164L99.490234375,71.59617631212322L99.61490885416667,73.12942616487807L99.73958333333333,77.98038371609806L99.98893229166667,82.07000996395242L100.11360677083334,84.18115850522688L100.23828125,89.79495939553524L100.48763020833333,78.19372444713558L100.86165364583334,71.3188991071648L101.11100260416666,77.94463587136272L101.48502604166667,68.43729594745952L101.60970052083334,70.87891199230384L101.85904947916666,79.8539819203172L102.1083984375,84.69068530494103L102.35774739583334,81.94635800099849L102.60709635416666,73.03684505369156L102.73177083333333,74.53419860529435L103.10579427083334,75.8428781211031L103.35514322916666,76.10265909312085L103.47981770833333,81.47283813165377L103.97851562499999,76.82388257666477L104.22786458333333,76.05304638356397L104.47721354166667,74.15598173028489L104.85123697916666,81.4105565572953L104.97591145833333,79.56928874801658L105.1005859375,76.47678010712703L105.22526041666667,83.08824066152563L105.34993489583334,72.27593328851695L105.474609375,75.31792152503075L105.97330729166667,88.96791686562064L106.22265625,84.7000128146849L106.34733072916666,81.72060049276601L106.47200520833333,79.49326193750531L106.5966796875,72.81883644513665L106.72135416666667,72.31080921164576L107.09537760416667,73.71896385950696L107.22005208333333,77.4539287714333L107.3447265625,80.56941358813665L108.21744791666667,91.41418691020623L108.59147135416667,83.01171837374417L109.21484375,77.34594602261886L109.33951822916667,75.723927832891L109.46419270833334,75.02873485321767L109.83821614583333,81.82692642828802L110.08756510416667,77.95939590824233L110.21223958333334,82.46124774392003L110.3369140625,77.64562656586702L110.7109375,69.53597162230014L111.33430989583333,65.49171872574014L111.58365885416667,60.90653305632622L111.70833333333334,70.1304788751369L111.83300781250001,73.61918113408282L111.95768229166666,69.34513310061574L112.20703125,68.78771798292802L112.58105468749999,63.53900296179458L112.70572916666666,67.64151217950185L112.955078125,61.7356666867701L113.45377604166666,59.796753049578356L113.57845052083333,62.80901547313893L113.82779947916667,64.19081598147447L114.20182291666666,66.08255828395302L114.451171875,64.47633092984442L114.70052083333334,63.87454748979142L114.8251953125,69.83906438051227L114.94986979166666,68.1032641694858L115.19921875,83.11874891713745L115.44856770833333,77.08321681854423L115.5732421875,83.49923174721377L115.69791666666666,78.05565349941871L115.82259114583333,75.97936149052033L115.947265625,67.04302715228748L116.19661458333333,62.913844245474095L116.3212890625,73.80850348738869L116.44596354166667,64.25325369358883L117.0693359375,73.38991455746194L117.19401041666667,67.58204825229942L117.31868489583333,72.51534960771104L117.56803385416667,71.12722836000418L117.69270833333333,71.89765888489899L117.8173828125,65.66344960950386L117.94205729166667,62.84769490811764L118.81477864583334,65.00055826974037L119.18880208333333,71.09780480030452L119.3134765625,68.4705977056222L119.56282552083334,64.67415117504977L120.18619791666667,67.93805139432021L120.31087239583334,70.48966850342157L120.43554687500001,76.32978921037004L120.8095703125,72.48169844687638L120.93424479166667,73.10516871615643L121.30826822916666,66.02117109460272L121.43294270833333,63.89710181651098L121.68229166666667,61.61985110658952L121.80696614583334,68.95506140044465L122.05631510416666,67.15429752141914L122.18098958333333,75.18782794319007L122.3056640625,75.27355390295835L122.43033854166667,71.04860881272226L122.55501302083334,78.24153863968414L123.30305989583334,66.51370064963079L123.427734375,77.4176246357909L123.67708333333333,69.32144727903311L123.92643229166667,70.05652422069132L124.17578125,70.09597558791612L124.30045572916666,73.5477490286937L124.67447916666667,77.12277173166936L124.79915364583333,72.54346945583104L125.2978515625,61.79095517813724L125.42252604166667,55.13825159402433L125.54720052083333,59.16623673318868L125.671875,73.79437552379994L126.0458984375,66.98222350967386L126.419921875,62.21503448422227L127.04329427083333,64.63448104819938L127.16796875,59.759526722995155L127.41731770833334,56.235200337589376L127.5419921875,62.26752477408682L127.66666666666667,62.0383313825999L127.916015625,59.83648454733337L128.04069010416666,62.48952195398598L128.16536458333334,73.53824543964416L128.2900390625,69.93786298440826L128.78873697916666,69.6758797677771L128.91341145833334,67.03872005020078L129.16276041666666,62.4736694487402L129.28743489583334,57.79172450656509L129.412109375,62.31285920751977L129.66145833333334,68.97245241212576L129.7861328125,57.33060355787118L130.16015625,62.89798371675399L130.40950520833334,62.239283851878604L131.03287760416666,67.79743485377037L131.15755208333334,66.11787461872383L131.53157552083334,65.72449674389051L131.90559895833334,63.33979905951794L132.27962239583334,55.53561924283966L132.52897135416666,62.85579181344468L132.90299479166666,65.40447545427772L133.02766927083334,71.0887551171304L133.5263671875,70.55866739726397L133.65104166666666,70.42324924613833L134.89778645833331,69.80242239721096L135.14713541666666,69.84931639405575L135.27180989583334,74.04886214478307L135.396484375,63.476779241622424L135.52115885416669,69.53309335267201L135.7705078125,64.12147852950689L136.01985677083334,66.7052939882282L136.26920572916669,68.20024675629958L136.64322916666666,63.48105808795941L136.892578125,70.29203629117086L137.01725260416669,57.71730805806839L137.39127604166666,63.28458252771207L137.51595052083334,64.62819656862922L137.76529947916666,64.62022213022377L138.0146484375,59.48699762749952L138.13932291666666,65.78943673567944L138.26399739583334,67.04543684202619L138.51334635416666,57.80878676341883L138.63802083333334,59.4558462462837L139.01204427083334,62.46345932654628L139.5107421875,67.78951765321942L139.63541666666666,53.779610148409496L139.884765625,55.7811302451329L140.13411458333334,58.139367539169605L140.6328125,54.65603873639237L140.75748697916666,58.872287640028794L140.88216145833334,58.321107925407205L141.0068359375,63.66228704935242L141.13151041666666,65.16977823547084L141.25618489583334,59.36866763097974L141.380859375,59.45495530881246L141.63020833333334,63.07506236782323L142.12890625,59.32391467899475L142.37825520833334,46.78605234947044L142.5029296875,47.03574350074673L142.876953125,58.34425188658085L143.37565104166669,53.66623741124539L143.74967447916666,54.612888402150915L143.9990234375,54.72897419119294L144.12369791666669,56.52754641046775L144.24837239583331,54.44484154663866L144.7470703125,63.27097927897606L144.99641927083331,60.40859332503538L145.12109375,60.7767839043637L145.24576822916666,53.919816883959406L145.37044270833334,55.04859067155404L145.61979166666669,56.6906727541694L145.74446614583331,66.75784618790208L146.11848958333334,76.0262882181123L146.74186197916666,56.351415427612125L146.9912109375,55.37555211708156L147.11588541666666,48.601212973943625L147.365234375,51.57754983636811L147.48990885416666,55.835519413946514L147.98860677083334,47.35026286093298L148.23795572916666,48.556517478115765L148.36263020833334,53.23285432435319L148.4873046875,51.21488247579684L148.73665364583334,57.60784260193318L148.98600260416666,56.403960321902055L149.11067708333334,59.29472375783847L149.2353515625,57.80821598891529L149.48470052083334,51.50359668726196L149.609375,38.640086275703545L149.85872395833334,40.58313700101781L149.9833984375,46.826121977222016L150.10807291666669,44.725148843478415L150.23274739583334,50.08602517848288L150.35742187499997,60.86843792203112L150.48209635416666,50.50406395357671L151.10546875,58.61418891128989L151.35481770833334,61.474420532646356L151.60416666666669,65.20040905380007L151.72884114583334,62.923511067452644L151.85351562499997,53.407076000823196L152.47688802083334,58.87373397329665L152.9755859375,54.445524360214954L153.22493489583334,47.808436289712965L153.349609375,53.08850644545865L154.09765625,56.6313753516502L154.22233072916666,53.82407514995497L154.34700520833334,50.91430949020089L154.4716796875,67.13363920160754L154.59635416666669,65.67761470382585L155.09505208333331,60.9529062042942L155.34440104166666,54.92239781600097L155.46907552083331,54.83604138125102L156.21712239583334,52.49654009160871L156.341796875,45.40515265197042L156.71582031250003,47.325427254024014L156.96516927083331,43.26529215970604L157.08984375,59.57328255493819L157.21451822916666,58.4910851132038L157.4638671875,54.53005374736564L157.837890625,49.20148434599427L157.96256510416669,43.35291677133348L158.08723958333334,47.97920306572982L158.33658854166666,52.393778705892984L158.46126302083331,45.5495222792812L158.5859375,59.16864108159868L158.71061197916666,59.488105069288025L158.83528645833334,61.49328443846412L158.9599609375,56.3930117295661L159.333984375,57.76616058388225L159.45865885416669,50.976673787666606L159.70800781249997,37.037568807105146L159.83268229166666,45.98250400195512L159.95735677083331,55.355915263314984L160.33138020833334,49.284528212757884L160.4560546875,53.98218899389823L160.58072916666666,49.27120935174256L161.07942708333334,47.34531024646216L161.20410156249997,51.237636587330464L161.32877604166669,56.85716706592366L161.9521484375,54.17411418405286L162.20149739583334,48.2191512802071L162.45084635416669,42.493946517636L162.57552083333334,45.8222412219423L162.7001953125,53.64416565601697L163.07421875,52.53115830881207L163.19889322916666,56.10565940179114L163.32356770833331,50.60680994771535L163.4482421875,40.2922926031507L163.57291666666666,43.82304656205319L163.69759114583334,46.98659069357955L163.822265625,45.65135764490749L163.94694010416669,54.00869483596794L164.1962890625,43.73353619682811L164.5703125,62.054050195066274L164.81966145833331,57.55791331202673L164.9443359375,62.78217433812753L165.318359375,54.99696853313366L165.44303385416666,57.346394315681L165.6923828125,46.98254768966903L165.81705729166669,46.06619131318289L165.94173177083331,43.30902402252887L166.06640625000003,51.30036599229329L166.19108072916666,45.65961819563641L166.4404296875,43.67582233950101L166.56510416666666,48.3511545670307L166.68977864583334,50.6377241936689L167.06380208333334,45.949913314622606L167.43782552083334,50.93116675911868L167.81184895833331,55.82535222628824L167.9365234375,64.85440094148584L168.18587239583334,64.18607475882058L168.310546875,64.15801529800065L168.43522135416666,62.051416234464455L168.55989583333334,65.27876157539546L168.6845703125,46.7549904047099L168.80924479166669,48.4575510258663L169.05859374999997,50.2602204145107L169.68196614583334,54.964067581958375L169.93131510416666,50.14077015936387L170.1806640625,38.77416927945617L170.43001302083334,59.09386965035595L170.55468749999997,60.3570898159297L171.302734375,57.510826765534425L171.42740885416666,50.307229498448244L171.6767578125,54.35009646778638L171.80143229166669,57.708960010798805L171.92610677083334,53.75684802186015L172.4248046875,38.486187873988484L172.67415364583331,41.9646126063918L172.92350260416666,45.523351456657394L173.1728515625,49.537080128551686L173.29752604166669,48.2365709937977L173.42220052083334,44.70346933984957L173.79622395833331,38.95243515005231L173.9208984375,43.20571274815314L174.04557291666666,49.575793269822896L174.294921875,43.25495090696211L174.41959635416666,36.50902446873778L174.79361979166666,45.34809275131102L174.91829427083334,39.64620077407762L175.29231770833331,64.52439242082677L175.41699218750003,51.62589694745051L175.54166666666666,51.16875690829779L175.791015625,44.591857782674L176.28971354166666,36.6216078947021L176.41438802083334,36.26475805143711L176.5390625,37.10846369723593L176.78841145833334,45.50410053686365L176.91308593750003,46.96348530584214L177.53645833333334,44.18818207502552L177.78580729166666,48.42541585715727L178.15983072916669,52.500703412406395L178.28450520833334,49.11897775219644L178.65852864583331,63.36601759207311L178.783203125,61.0650451255564L179.40657552083334,59.1063541932538L179.65592447916669,51.99437866788912L179.78059895833334,52.575439609180734L179.90527343749997,52.840876355026666L180.02994791666669,46.937234807563485L180.15462239583331,44.86143730991241L180.279296875,46.34852895088885L180.40397135416666,44.52051746615507L180.77799479166666,33.36835601191958L180.90266927083334,40.72636511878917L181.02734375,37.96311933372468L181.15201822916669,40.83731882516974L181.4013671875,45.79326247023206L181.65071614583331,45.39664331384502L181.775390625,41.523972570745116L182.1494140625,42.99482202918212L182.27408854166666,44.69401032362903L182.64811197916669,37.30710062166771L183.02213541666669,40.529443173293636L183.52083333333331,42.68599527002432L184.14420572916666,44.028691074774976L184.26888020833334,35.98963514657398L184.3935546875,35.64109147205899L184.89225260416666,28.93967858522111L185.26627604166666,42.33854724309223L185.8896484375,42.862816659657405L186.26367187500003,39.84251350246764L186.6376953125,37.62950203865511L186.88704427083334,34.783452260790696L187.01171875,41.40524210232407L187.3857421875,42.24251558203247L187.88444010416666,41.146497864437634L188.38313802083334,47.432403520094866L188.8818359375,40.72051465234012L189.00651041666669,29.909722731833767L189.6298828125,34.89353922585158L189.87923177083334,38.609550608671746L190.00390625,40.95892316508915L190.25325520833334,41.00469985649166L190.3779296875,40.79869622615083L190.62727864583334,37.70332255339886L191.5,38.3284088355875L192.6220703125,37.53270636295734L192.74674479166666,43.74861653424574L192.99609375,42.09743753936253L193.12076822916666,48.27132237672627L193.49479166666666,42.01112080844135L193.61946614583334,46.03516573050751L193.86881510416669,51.73768853946011L194.36751302083331,55.221740880430644L194.61686197916666,54.72909173895171L195.11555989583334,51.58800842878771L195.240234375,45.658841942852085L195.36490885416669,43.95682555145342L195.48958333333334,45.964629286763966L195.61425781250003,43.553727980993926L196.11295572916666,38.84357864650647L196.23763020833334,45.97819537515973L196.48697916666666,39.426243956459786L196.61165364583334,32.746133082453326L197.11035156249997,27.17806620201112L197.73372395833334,35.05436220248921L197.8583984375,41.167408632121756L198.35709635416669,36.38719139509341L198.73111979166669,39.68175941713413L199.10514322916666,46.76803443039113L199.22981770833334,46.831420023469114L199.47916666666666,51.27607089632427L199.60384114583334,46.103607930861024L199.97786458333334,47.90465819723728L200.22721354166669,35.942392594937445L201.224609375,37.24469275911089L201.5986328125,32.228883526560296L201.72330729166669,38.95307159135941L201.97265625,48.49211145864054L202.22200520833331,41.09661193744016L202.3466796875,35.5468653761685L203.46875000000003,25.187060367465453L203.59342447916666,39.28782292091873L204.09212239583334,25.980462002062904L204.34147135416666,26.81149014272531L204.46614583333334,31.485477561383828L204.5908203125,33.198249376592685L204.71549479166669,32.71557692494647L205.08951822916666,35.32822921160849L205.3388671875,44.4751665410439L205.46354166666666,39.101798889063176L205.58821614583334,37.503768338971746L205.712890625,38.82534526241624L205.83756510416666,42.22233321539245L205.96223958333334,50.46315126183641L206.0869140625,38.98266243475476L206.33626302083334,40.408439267900434L206.46093749999997,42.64878848546357L206.58561197916666,39.6324122310894L206.71028645833331,57.16668692198698L206.8349609375,59.141752570672644L206.95963541666666,40.04647223739061L207.08430989583334,25.509125204413582L207.208984375,24.36934892229008L207.45833333333334,27.589497740418295L208.3310546875,33.10542110722298L208.705078125,46.90548950108507L208.82975260416666,44.69762694243167L209.0791015625,46.38505794646486L209.20377604166669,48.26864641135224L209.70247395833331,39.72797963554828L209.8271484375,40.02084056656658L209.95182291666666,36.77493643832868L210.45052083333334,39.3819426064054L210.5751953125,42.08395072009321L210.69986979166669,43.04551381381047L210.82454427083334,33.60442824271336L210.94921875,29.66695712669904L211.19856770833331,36.21641293365286L211.3232421875,35.91113310971969L211.82194010416666,27.535686416938553L211.94661458333334,33.60736867796267L212.0712890625,39.641911441152594L212.32063802083334,29.48150611762125L212.69466145833331,25.400364038411315L213.193359375,28.80090364440095L213.31803385416666,35.70332279577143L213.44270833333334,32.80120815500193L213.69205729166666,32.797862801936645L213.94140625,35.669977955413344L214.06608072916669,34.979416989719354L214.93880208333334,27.68849909112971L215.31282552083334,29.933382962978605L215.56217447916669,33.61262402624092L216.31022135416666,31.681244001926235L216.68424479166666,27.960731823925908L216.80891927083334,25.82308775565112L217.18294270833334,31.33514319090692L217.681640625,34.641821286451744L217.93098958333334,48.70455128830983L218.0556640625,46.21734035143648L218.4296875,39.719010473068934L218.55436197916669,31.198754001126566L218.67903645833334,30.553447601278183L218.92838541666669,34.26911766355007L219.177734375,35.43150640542178L219.80110677083334,34.510871972729035L220.05045572916669,37.83927897180474L220.17513020833334,42.68357252020846L220.2998046875,38.944036080077574L220.54915364583331,42.84803811329717L220.79850260416666,48.21556674411763L220.92317708333331,36.38689467293542L221.0478515625,32.747757989063935L221.17252604166666,30.82070247206797L221.54654947916666,29.16740088387552L221.7958984375,32.786610472545405L221.92057291666669,29.391985814777215L222.04524739583331,18.708941794042076L222.16992187500003,28.662381627125054L222.29459635416666,30.428630911089492L222.66861979166666,43.816658069358795L223.2919921875,32.20256859242906L223.91536458333331,25.750208859721713L224.0400390625,21.529248749264056L224.16471354166666,21.514393731980284L224.66341145833334,25.67244874936068L224.7880859375,17.531824148704846L224.91276041666669,18.85861220976317L225.78548177083334,23.88507699382667L225.91015625,27.243988192552578L226.15950520833334,35.36828724333104L226.2841796875,33.776312667857326L226.53352864583334,29.431691836554254L227.0322265625,33.06336029643127L227.28157552083334,40.86278297269926L227.53092447916666,47.89288772998999L227.7802734375,41.62103638962161L227.90494791666669,34.600949012728L228.40364583333331,37.13828496346359L228.90234375,39.42057321196495L229.02701822916666,37.659607365085904L229.15169270833334,32.637224837752676L229.2763671875,23.69968312856307L229.52571614583334,28.38462031211508L229.650390625,28.133274120049045L230.27376302083331,32.30668134011209L230.3984375,25.859490473175274L230.64778645833334,36.689530546926015L230.89713541666666,31.90956030813611L231.02180989583334,31.552922311590663L231.146484375,23.480750375886682L231.27115885416669,13.088221852322398L231.52050781250003,20.574237941308844L231.76985677083331,23.183791167698676L232.2685546875,19.99134871591868L232.51790364583334,24.04815980531618L232.76725260416669,28.580442361461152L233.14127604166666,25.562460414028408L233.26595052083331,29.313125255578495L233.7646484375,24.006189769232552L234.138671875,17.28703397058898L234.38802083333334,23.92162223782216L234.51269531249997,24.773431818442024L234.63736979166666,29.04549448535229L234.76204427083331,35.73491794772183L235.13606770833334,36.082618452552396L235.2607421875,33.38208093888173L235.38541666666666,29.551434079686437L235.51009114583334,33.06705531272075L235.634765625,33.915766990936504L235.75944010416669,35.4808289588034L236.13346354166669,47.98800197326387L236.25813802083331,46.01352821439455L236.3828125,33.50679653475655L236.63216145833334,31.993039458532973L236.7568359375,45.29151815347268L236.88151041666666,33.39834737483098L237.00618489583334,31.322674399833478L237.25553385416669,21.34049439006286L237.5048828125,19.921399702071536L237.87890625,23.23407507108018L238.12825520833331,25.033209070561476L238.2529296875,18.999172471959323L238.37760416666666,29.273765466411245L238.50227864583334,28.01711241908829L239.25032552083331,20.353364375281142L239.375,26.087557769048836L239.7490234375,33.103745446341435L239.87369791666666,29.333297530255958L239.99837239583334,33.18274193571542L240.123046875,40.730396097301686L240.74641927083331,34.45626108570847L241.74381510416666,23.357157123430234L241.86848958333334,17.820239606903247L241.9931640625,19.126249700828158L242.36718750000003,15.892077233420018L242.61653645833331,21.871986452356694L242.99055989583334,33.367425829340426L243.115234375,27.271848625045674L243.23990885416666,34.80650593406058L243.36458333333334,34.581414597627145L243.61393229166669,31.46199954592982L243.73860677083334,31.421331705910823L244.11263020833331,38.353336132921534L244.73600260416666,37.871504344954715L244.86067708333334,32.3206206550685L245.11002604166669,26.25827052536532L245.23470052083334,30.17114273514106L245.48404947916669,21.354035535290333L246.35677083333334,29.059417882860448L246.4814453125,26.624301751037912L246.60611979166669,31.517852687585663L246.98014322916669,30.43668486898047L247.10481770833331,35.174485998699495L247.47884114583331,28.723964467058302L247.603515625,34.39730846946024L247.72819010416666,30.863485281057603L247.85286458333334,31.108031811945125L248.10221354166669,23.829689794361034L248.22688802083334,15.088429721343163L248.47623697916669,12.014821341920475L248.7255859375,17.400758090389974L248.97493489583331,23.29789529409397L249.099609375,12.560724175968094L249.4736328125,14.312695898810043L249.72298177083334,15.78727523378469L249.84765625,16.503372525524725L249.97233072916669,26.98323892872631L250.47102864583331,28.724202390438922L250.72037760416666,23.106733144875367L251.21907552083334,24.09385149174296L251.46842447916669,26.183944307724843L251.71777343750003,25.628565233723506L251.84244791666666,29.39840175416635L252.34114583333334,25.561104244231505L252.71516927083334,25.881838226063625L252.83984375,26.16915191635111L253.08919270833334,35.565631723948016L253.21386718749997,28.018141343125293L253.46321614583331,30.596967264371255L253.587890625,27.437538777405337L253.71256510416666,22.181089143721856L253.9619140625,24.59797614858661L254.08658854166666,31.81291802354324L254.21126302083334,33.80220521069172L254.95930989583331,30.823212825715157L255.083984375,26.06110502290304L255.20865885416666,21.53234172467933L255.33333333333334,23.782810643938404L255.4580078125,13.424394231415098L255.83203125,16.280255282745575L256.0813802083333,21.141245821014568L256.4554036458333,20.02061581943162L256.9541015625,23.842543492716917L257.4527994791667,30.656308617195908L257.5774739583333,21.954227268299295L257.7021484375,24.46685551381154L257.8268229166667,26.98522398537025L258.3255208333333,20.90935185948391L258.4501953125,26.077907868620073L258.5748697916667,31.8289369513966L258.69954427083337,24.543986926697375L258.82421875,26.45221002711214L259.0735677083333,24.234310737133143L259.3229166666667,31.014945827452426L259.4475911458333,25.13642467013682L259.8216145833333,28.77908075423051L259.9462890625,22.52654726845629L260.19563802083337,18.011029272532124L260.44498697916663,25.781804737998474L260.6943359375,36.979889625839434L260.8190104166667,23.574767475047917L261.3177083333333,33.3979887910997L261.81640625,25.37936639477703L262.0657552083333,24.853051151970373L262.1904296875,26.491700025085194L262.6891276041667,24.066832708329134L262.9384765625,22.386260005043088L263.0631510416667,33.58767361573742L263.18782552083337,33.92084630607983L263.5618489583333,28.91890818444542L263.9358723958333,25.13758758644848L264.1852213541667,31.063984894398388L264.93326822916663,21.874226202752336L265.0579427083333,21.335210007540077L265.1826171875,22.553075060513603L265.4319661458333,21.272113997896746L265.556640625,18.664258694148252L265.9306640625,19.04190492758931L266.3046875,13.536452771006664L266.42936197916663,8.770755227870891L266.8033854166667,11.073326549808451L266.9280598958333,9.514202126987954L267.052734375,10.665970108386766L267.1774088541667,27.91130412110304L267.5514322916667,29.763120312424167L267.80078125,22.722353286901093L268.1748046875,21.415093287244872L268.29947916666663,36.4907684153808L268.548828125,36.94115955590165L268.9228515625,38.13798064565037L269.4215494791667,33.03151580438246L269.54622395833337,35.21593249288339L269.6708984375,35.145900641563394L269.79557291666663,27.64995798747714L269.9202473958333,19.51323681641211L270.1695963541667,12.35472502848664L270.2942708333333,15.705853866782775L270.4189453125,25.479291840740228L270.5436197916667,10.925713939079536L271.29166666666663,20.303264412845483L271.541015625,17.656161630291972L271.6656901041667,10.755355201645227L271.7903645833333,17.388505174209804L271.9150390625,19.865201747510913L272.0397135416667,25.75255763297922L272.1643880208333,18.307156426304463L272.2890625,30.699424979643364L272.53841145833337,29.767990253899267L272.78776041666663,24.592702314774485L272.9124348958333,21.798842417510503L273.037109375,21.798856536932075L273.2864583333333,21.069977577758152L273.4111328125,16.000438389916635L273.5358072916667,15.768363009536035L273.78515625,18.16128814060123L274.28385416666663,18.658768327069044" style="fill: none;" fill="none"></path></g></g></g></g><g opacity="0.2"><g><g><g><path stroke="rgb(255, 112, 67)" stroke-width="2px" d="M31.41796875,182.35584767659506L31.542643229166668,171.34563827514648L31.7919921875,179.72758865356445L32.5400390625,185.83744875590008L32.664713541666664,169.8341999053955L32.789388020833336,222.96838760375977L32.9140625,184.12393760681152L33.163411458333336,175.16566530863443L33.2880859375,178.5713062286377L33.412760416666664,190.19017219543457L33.53743489583333,173.61393992106122L33.786783854166664,170.36858431498212L33.91145833333333,167.89329592386883L34.659505208333336,175.87957827250165L34.908854166666664,168.2509651184082L35.033528645833336,182.42595609029135L35.282877604166664,161.76614316304526L35.407552083333336,162.23664601643878L35.65690104166667,166.38302040100098L36.155598958333336,167.51923433939618L36.2802734375,159.49469057718912L36.903645833333336,153.96591631571454L37.40234375,152.43444697062174L37.52701822916667,152.5583839416504L37.90104166666667,147.10114351908368L38.27506510416667,157.35403951009116L38.39973958333333,162.9847691853841L38.64908854166667,152.2058162689209L39.2724609375,145.17415618896484L39.521809895833336,145.64878527323407L40.145182291666664,141.31305440266928L40.643880208333336,141.34718958536783L40.7685546875,152.06151072184247L41.017903645833336,154.43671925862628L41.267252604166664,144.1486752827962L41.391927083333336,137.0012181599935L41.51660156250001,132.81909561157227L42.015299479166664,136.90121332804364L42.139973958333336,133.9734649658203L42.888020833333336,121.61472829182942L43.0126953125,144.8239517211914L43.262044270833336,152.47972297668457L43.38671875,126.6584078470866L43.7607421875,146.2528279622396L44.633463541666664,137.65676371256512L44.8828125,142.75134595235187L45.00748697916667,137.30697186787924L45.2568359375,122.25992075602214L45.50618489583333,120.94931729634602L45.75553385416667,126.37283515930177L46.25423177083333,139.5083910624186L46.37890625,116.2709217071533L46.50358072916667,119.5096378326416L46.87760416666667,135.35811551411948L47.00227864583333,130.93599637349445L47.126953125,127.5966002146403L47.25162760416667,118.30567868550618L47.5009765625,137.49929173787433L47.62565104166667,113.6539535522461L47.99967447916667,119.63792610168457L48.12434895833333,110.23945999145508L48.2490234375,153.415252049764L48.623046875,152.8571605682373L48.747721354166664,121.24940681457521L48.872395833333336,142.79283332824707L48.9970703125,133.64220364888507L49.37109375,115.50974464416504L49.869791666666664,113.99931907653809L49.994466145833336,125.85664367675783L50.243815104166664,129.75776990254718L50.368489583333336,118.39375495910643L50.4931640625,131.5493418375651L50.617838541666664,124.72931989034018L50.86718750000001,114.25124422709148L51.116536458333336,120.06142743428548L51.365885416666664,124.76052920023601L51.61523437499999,124.84249114990236L51.864583333333336,128.14388847351074L51.98925781249999,120.86724281311037L52.238606770833336,142.03739547729492L52.36328125,102.18333180745444L52.487955729166664,126.90421867370607L52.612630208333336,141.24598439534503L52.7373046875,128.05862553914386L52.986653645833336,106.05966313680014L53.111328125,104.52072906494139L53.610026041666664,102.48177083333334L54.35807291666667,101.44777488708498L54.607421875,121.33902104695638L54.73209635416667,119.89686584472656L54.85677083333333,125.6699504852295L55.10611979166667,113.11518033345541L55.23079427083333,111.23616981506349L55.48014322916667,120.33267084757486L55.60481770833333,121.92123222351076L55.7294921875,131.3402919769287L55.85416666666667,113.92557207743327L56.4775390625,126.8078524271647L56.60221354166667,123.87192662556966L56.72688802083333,106.51542409261069L57.10091145833333,137.54985682169595L57.2255859375,117.22115516662599L57.35026041666667,116.85635884602864L57.47493489583333,112.14000193277995L57.724283854166664,123.61474990844725L58.7216796875,109.02567291259764L58.846354166666664,125.27660814921062L59.220377604166664,109.63207880655924L59.345052083333336,115.11160087585448L59.4697265625,99.87106704711914L59.719075520833336,130.82732645670572L59.968424479166664,137.69686317443848L60.21777343750001,114.90258852640788L60.342447916666664,123.63691902160646L60.59179687500001,115.6684544881185L60.841145833333336,113.69859186808269L60.96582031249999,105.32013003031413L61.215169270833336,129.6017608642578L61.838541666666664,104.68187713623047L61.963216145833336,125.90330759684245L62.087890625,95.97474225362141L62.212565104166664,115.95845349629721L62.960611979166664,95.4356689453125L63.2099609375,127.74720764160158L63.459309895833336,122.03661664326987L63.583984375,123.49865277608235L63.9580078125,118.10758209228516L64.08268229166667,108.5764013926188L64.45670572916667,109.83512687683107L64.7060546875,117.23634719848634L64.83072916666667,124.18124389648436L65.20475260416667,103.98720741271974L65.4541015625,108.8404426574707L66.07747395833333,88.63466517130533L66.2021484375,101.21378008524577L66.32682291666667,92.27463849385579L66.45149739583333,117.72470537821451L67.07486979166666,102.8517812093099L67.19954427083333,96.43057823181152L67.44889322916666,117.52522087097168L67.82291666666666,98.6246452331543L67.94759114583333,85.47299702962239L68.072265625,110.96987787882487L68.19694010416666,83.7379919687907L68.4462890625,99.27058792114259L68.69563802083333,98.01711400349934L68.94498697916666,103.74417241414388L69.06966145833333,86.59716987609863L69.1943359375,93.97573343912761L69.69303385416667,98.74576886494954L69.9423828125,95.7857608795166L70.19173177083333,96.75985145568849L70.31640625,119.8469009399414L70.44108072916667,105.28524462381999L70.56575520833333,110.47660573323567L70.6904296875,88.95362281799315L70.81510416666667,97.24036979675292L70.93977864583333,102.4119249979655L71.68782552083334,91.95403035481772L72.06184895833334,121.24876912434895L72.1865234375,108.41382789611818L73.05924479166667,104.43899218241374L73.18391927083334,105.69554201761882L73.6826171875,102.90512212117514L73.80729166666667,117.27333323160806L73.93196614583333,99.87511825561523L74.056640625,101.425230662028L74.18131510416667,84.18201192220052L74.30598958333333,84.62670707702637L74.4306640625,81.2075621287028L74.55533854166667,90.57530657450359L74.68001302083333,127.35592842102052L74.8046875,100.91759173075357L75.05403645833334,103.30397860209148L75.17871093749999,98.95650672912598L75.42805989583333,94.31295903523763L75.92675781249999,119.96138509114584L76.05143229166666,85.14724985758463L76.42545572916667,89.37153498331706L76.55013020833334,95.02162043253581L76.6748046875,87.36281077067058L76.79947916666666,91.85447565714519L77.17350260416667,88.59827931722006L77.54752604166666,94.69317245483397L77.67220052083333,105.22192573547362L78.04622395833333,93.0220489501953L78.1708984375,108.63188044230144L78.66959635416667,128.0176633199056L78.79427083333333,106.08513323465984L79.16829427083333,92.62266731262206L79.29296875,94.8561585744222L79.41764322916667,97.68348948160808L79.54231770833333,112.06891822814941L79.6669921875,105.67742411295572L79.79166666666667,83.25567309061685L79.91634114583333,100.58164151509602L80.041015625,94.79077657063802L80.29036458333333,83.48092778523764L80.4150390625,88.14214324951172L80.53971354166667,93.20033963521321L80.66438802083334,103.43736839294432L81.1630859375,104.05525271097818L81.28776041666667,99.97118441263835L81.41243489583334,91.01640065511067L81.537109375,105.53934542338052L81.66178385416666,105.57040468851724L81.9111328125,81.2516377766927L82.16048177083334,104.55527687072754L82.40983072916666,94.05439440409343L82.53450520833333,103.5725212097168L82.90852864583334,98.99979464213054L83.03320312500001,83.21279780069986L83.15787760416666,79.32435035705566L83.4072265625,90.55039914449056L83.65657552083334,97.00179862976074L84.1552734375,91.72033564249674L84.27994791666667,75.24080721537273L84.65397135416666,109.01355679829915L84.77864583333333,93.11256345113118L84.9033203125,99.31777699788412L85.02799479166667,102.60717074076335L85.15266927083334,106.54490788777669L85.27734374999999,86.60958607991536L85.40201822916666,103.47634251912436L85.6513671875,91.76174799601237L85.77604166666667,91.72164853413899L85.90071614583334,89.34508959452312L86.025390625,82.52157910664876L86.27473958333333,76.28564389546713L86.64876302083334,65.62162526448567L87.1474609375,95.53991254170735L87.521484375,89.42262522379556L87.64615885416666,56.02978897094727L87.77083333333333,106.51767476399739L88.14485677083333,68.92774899800618L88.39420572916667,96.00081253051758L88.51888020833333,75.37986119588217L88.6435546875,69.17824872334798L88.76822916666667,63.26768557230631L88.89290364583333,82.91653442382812L89.017578125,101.0368398030599L89.14225260416667,87.58318901062012L89.51627604166667,101.81290880839029L89.64095052083333,97.47428957621257L89.765625,86.8619613647461L89.89029947916667,92.85947545369467L90.26432291666667,128.12048149108887L91.13704427083333,91.12593332926433L91.51106770833334,113.52060127258301L91.6357421875,101.18380864461263L91.88509114583333,74.27391878763835L92.009765625,65.62290064493816L92.13444010416667,81.57412147521973L92.25911458333334,98.4888172149658L92.38378906250001,86.54686737060547L92.63313802083333,107.7088425954183L92.7578125,113.66048049926759L92.88248697916667,82.14279111226399L93.13183593750001,81.70327250162761L93.25651041666666,64.65301132202148L93.63053385416667,80.67246500651042L93.87988281249999,73.51495488484701L94.12923177083333,76.18867746988931L94.25390625,70.30849838256836L94.37858072916667,86.96894327799478L95.12662760416667,79.25045331319174L95.25130208333334,88.67611503601073L95.3759765625,81.88884035746257L95.87467447916667,82.5195910135905L96.24869791666666,92.85594940185545L96.498046875,58.3577709197998L96.8720703125,84.03684361775716L97.37076822916667,62.82681655883789L97.86946614583333,79.47390747070312L97.994140625,98.08414649963379L98.11881510416667,97.44289271036784L98.3681640625,83.27574157714844L98.61751302083333,71.25655619303386L98.7421875,94.07074928283691L98.86686197916667,67.39815521240234L99.1162109375,51.86323356628418L99.36555989583334,86.69995053609213L99.490234375,65.85295677185059L99.61490885416667,75.42930094401042L99.73958333333333,85.25682004292806L99.98893229166667,88.20444933573405L100.11360677083334,87.34788131713867L100.23828125,98.21566073099773L100.48763020833333,60.791872024536126L100.86165364583334,61.006661097208664L101.11100260416666,87.88324101765951L101.48502604166667,54.17628606160481L101.60970052083334,74.54133605957031L101.85904947916666,93.31658681233725L102.1083984375,91.94574038187663L102.35774739583334,77.82986704508464L102.60709635416666,59.67257563273112L102.73177083333333,76.78022893269858L103.10579427083334,77.80589739481609L103.35514322916666,76.49233055114746L103.47981770833333,89.52810668945314L103.97851562499999,69.85044924418132L104.22786458333333,74.89679209391277L104.47721354166667,71.31038475036621L104.85123697916666,92.29241879781087L104.97591145833333,76.80738703409831L105.1005859375,71.83801714579263L105.22526041666667,93.00543149312337L105.34993489583334,56.05747222900391L105.474609375,79.88090387980144L105.97330729166667,109.44290987650554L106.22265625,78.29815673828125L106.34733072916666,77.2514820098877L106.47200520833333,76.15225410461426L106.5966796875,62.80719820658366L106.72135416666667,71.54876836140951L107.09537760416667,75.83119583129883L107.22005208333333,83.05637613932292L107.3447265625,85.24264081319173L108.21744791666667,107.68134689331053L108.59147135416667,70.40801556905112L109.21484375,68.847287495931L109.33951822916667,73.29090054829915L109.46419270833334,73.98594538370769L109.83821614583333,92.02421379089355L110.08756510416667,72.15810012817383L110.21223958333334,89.21402549743652L110.3369140625,70.42219479878744L110.7109375,57.37148920694987L111.33430989583333,59.42533938090007L111.58365885416667,54.0287545522054L111.70833333333334,83.96639760335287L111.83300781250001,78.85223452250163L111.95768229166666,62.934061050415046L112.20703125,67.95159530639648L112.58105468749999,55.6659304300944L112.70572916666666,73.79527600606282L112.955078125,52.87689844767253L113.45377604166666,56.88838259379069L113.57845052083333,67.32740910847983L113.82779947916667,66.26351674397786L114.20182291666666,68.9201717376709L114.451171875,62.06698989868163L114.70052083333334,62.97187232971192L114.8251953125,78.78583971659342L114.94986979166666,65.49956385294595L115.19921875,105.6419760386149L115.44856770833333,68.0299186706543L115.5732421875,93.1232541402181L115.69791666666666,69.89028612772624L115.82259114583333,72.86492347717285L115.947265625,53.638525644938156L116.19661458333333,56.7200698852539L116.3212890625,90.15049235026041L116.44596354166667,49.920379002889L117.0693359375,87.09490585327148L117.19401041666667,58.87024879455566L117.31868489583333,79.91530164082845L117.56803385416667,69.045046488444L117.69270833333333,73.05330467224121L117.8173828125,56.31213569641113L117.94205729166667,58.624062856038414L118.81477864583334,68.22985331217448L119.18880208333333,80.24367459615073L119.3134765625,64.52978706359863L119.56282552083334,58.97948137919108L120.18619791666667,72.8339017232259L120.31087239583334,74.31709416707358L120.43554687500001,85.08997027079265L120.8095703125,66.70956230163574L120.93424479166667,74.04037412007649L121.30826822916666,55.39517466227213L121.43294270833333,60.71099789937336L121.68229166666667,58.203975041707345L121.80696614583334,79.95787684122722L122.05631510416666,64.45315170288086L122.18098958333333,87.23812357584636L122.3056640625,75.40214284261069L122.43033854166667,64.71119117736816L122.55501302083334,89.03093338012694L123.30305989583334,48.92194366455079L123.427734375,93.77351061503093L123.67708333333333,57.17718124389648L123.92643229166667,71.15913963317871L124.17578125,70.15515263875326L124.30045572916666,78.72540918986002L124.67447916666667,82.48530578613281L124.79915364583333,65.67451604207358L125.2978515625,45.66218376159668L125.42252604166667,45.15919621785482L125.54720052083333,65.20821444193521L125.671875,95.73658370971681L126.0458984375,56.763995488484696L126.419921875,55.06425094604493L127.04329427083333,68.26365089416504L127.16796875,52.4470952351888L127.41731770833334,50.9487107594808L127.5419921875,71.31601142883301L127.66666666666667,61.69454129536947L127.916015625,56.53371429443359L128.04069010416666,66.46907806396484L128.16536458333334,90.1113306681315L128.2900390625,64.53728930155437L128.78873697916666,69.2829049428304L128.91341145833334,63.08298047383625L129.16276041666666,55.62609354654948L129.28743489583334,50.76880709330242L129.412109375,69.09456125895183L129.66145833333334,78.96184221903484L129.7861328125,39.867830276489265L130.16015625,71.24905395507812L130.40950520833334,61.25123405456543L131.03287760416666,76.13466135660806L131.15755208333334,63.59853426615397L131.53157552083334,65.13442993164062L131.90559895833334,59.762752532958984L132.27962239583334,43.829349517822266L132.52897135416666,73.83605066935222L132.90299479166666,69.22750091552734L133.02766927083334,79.6151746114095L133.5263671875,69.7635358174642L133.65104166666666,70.22012201944987L134.89778645833331,68.87118212381998L135.14713541666666,69.91965738932292L135.27180989583334,80.34818077087402L135.396484375,47.61865488688152L135.52115885416669,78.61756451924641L135.7705078125,56.00405629475911L136.01985677083334,70.58101717631023L136.26920572916669,70.44267590840657L136.64322916666666,56.40227508544922L136.892578125,80.50850359598796L137.01725260416669,38.855215708414725L137.39127604166666,71.63549423217773L137.51595052083334,66.64361763000488L137.76529947916666,64.60826047261556L138.0146484375,51.78716087341309L138.13932291666666,75.24309539794922L138.26399739583334,68.92943700154622L138.51334635416666,43.95381164550782L138.63802083333334,61.926435470581055L139.01204427083334,66.9748789469401L139.5107421875,75.77860514322917L139.63541666666666,32.76474889119465L139.884765625,58.7834103902181L140.13411458333334,61.6767234802246L140.6328125,49.43104553222657L140.75748697916666,65.1966609954834L140.88216145833334,57.49433835347492L141.0068359375,71.67405573527019L141.13151041666666,67.43101501464844L141.25618489583334,50.66700172424317L141.380859375,59.58438682556153L141.63020833333334,68.50522295633951L142.12890625,53.697193145751946L142.37825520833334,27.97925885518391L142.5029296875,47.41028022766113L142.876953125,75.30701446533203L143.37565104166669,46.649215698242195L143.74967447916666,56.0328648885091L143.9990234375,54.90310287475585L144.12369791666669,59.225404739379876L144.24837239583331,51.320784250895194L144.7470703125,76.5101858774821L144.99641927083331,56.11501439412435L145.12109375,61.329069773356125L145.24576822916666,43.63436635335286L145.37044270833334,56.74175135294597L145.61979166666669,59.15379587809246L145.74446614583331,81.85860633850098L146.11848958333334,89.92895126342772L146.74186197916666,26.83910624186198L146.9912109375,53.911757151285805L147.11588541666666,38.43970425923665L147.365234375,56.04205513000488L147.48990885416666,62.222473780314125L147.98860677083334,34.62237803141277L148.23795572916666,50.36589940388996L148.36263020833334,60.247359593709305L148.4873046875,48.187924702962235L148.73665364583334,67.1972827911377L148.98600260416666,54.59813690185547L149.11067708333334,63.63086891174317L149.2353515625,55.57845433553059L149.48470052083334,42.046667734781906L149.609375,19.34482065836588L149.85872395833334,43.497713088989265L149.9833984375,56.19059944152832L150.10807291666669,41.57368914286296L150.23274739583334,58.12733968098957L150.35742187499997,77.04205703735352L150.48209635416666,34.95750300089518L151.10546875,70.77937634785971L151.35481770833334,65.76476796468098L151.60416666666669,70.7893918355306L151.72884114583334,59.50816408793131L151.85351562499997,39.1324234008789L152.47688802083334,67.07372093200684L152.9755859375,47.803209940592446L153.22493489583334,37.85280418395996L153.349609375,61.00861167907714L154.09765625,61.9456787109375L154.22233072916666,49.61312484741211L154.34700520833334,46.54966100056965L154.4716796875,91.46263376871745L154.59635416666669,63.49357795715332L155.09505208333331,53.86584345499674L155.34440104166666,45.87663523356121L155.46907552083331,54.70650672912598L156.21712239583334,48.987288157145194L156.341796875,34.76807149251301L156.71582031250003,50.2058391571045L156.96516927083331,37.17508951822917L157.08984375,84.03526814778647L157.21451822916666,56.86778895060221L157.4638671875,48.5885066986084L157.837890625,41.208630243937186L157.96256510416669,34.580065409342446L158.08723958333334,54.91863250732421L158.33658854166666,59.015642166137695L158.46126302083331,35.2831376393636L158.5859375,79.59731928507487L158.71061197916666,59.96730105082194L158.83528645833334,64.5010534922282L158.9599609375,48.74260266621907L159.333984375,59.825883865356445L159.45865885416669,40.792443593343094L159.70800781249997,16.128911336263027L159.83268229166666,59.399906794230155L159.95735677083331,69.41603215535481L160.33138020833334,40.17744763692219L160.4560546875,61.02868016560871L160.58072916666666,42.2047398885091L161.07942708333334,44.45646158854167L161.20410156249997,57.07612609863281L161.32877604166669,65.28646278381348L161.9521484375,50.14953486124674L162.20149739583334,39.28670692443847L162.45084635416669,33.906139373779304L162.57552083333334,50.814683278401695L162.7001953125,65.3770523071289L163.07421875,50.86164728800457L163.19889322916666,61.46741104125976L163.32356770833331,42.358535766601555L163.4482421875,24.820516586303704L163.57291666666666,49.1191775004069L163.69759114583334,51.73190689086914L163.822265625,43.64850807189941L163.94694010416669,66.5447006225586L164.1962890625,28.32079823811849L164.5703125,89.53482119242351L164.81966145833331,50.81370798746746L164.9443359375,70.61856587727864L165.318359375,43.31915982564289L165.44303385416666,60.870532989501946L165.6923828125,31.43677775065105L165.81705729166669,44.69165674845379L165.94173177083331,39.173273086547844L166.06640625000003,63.287378946940116L166.19108072916666,37.19849650065104L166.4404296875,40.70012855529785L166.56510416666666,55.364152908325195L166.68977864583334,54.0675786336263L167.06380208333334,38.91819699605305L167.43782552083334,58.403046925862625L167.81184895833331,63.16663042704265L167.9365234375,78.39797401428223L168.18587239583334,63.18358548482258L168.310546875,64.11592610677083L168.43522135416666,58.89151763916015L168.55989583333334,70.11977958679199L168.6845703125,18.969333648681648L168.80924479166669,51.0113919576009L169.05859374999997,52.964224497477225L169.68196614583334,62.01983833312989L169.93131510416666,42.905824025472L170.1806640625,21.724267959594727L170.43001302083334,89.57342020670573L170.55468749999997,62.25192006429037L171.302734375,53.2414321899414L171.42740885416666,39.501833597819015L171.6767578125,60.41439692179363L171.80143229166669,62.747255325317376L171.92610677083334,47.82868003845214L172.4248046875,15.580197652180981L172.67415364583331,47.18224970499675L172.92350260416666,50.86145973205567L173.1728515625,55.55767313639324L173.29752604166669,46.28580729166668L173.42220052083334,39.40381685892742L173.79622395833331,30.325883865356452L173.9208984375,49.58562914530437L174.04557291666666,59.13091405232747L174.294921875,33.77368736267089L174.41959635416666,26.390134811401374L174.79361979166666,58.606695175170906L174.91829427083334,31.09336280822754L175.29231770833331,101.84167989095053L175.41699218750003,32.27815373738606L175.54166666666666,50.48304684956867L175.791015625,34.72650909423829L176.28971354166666,24.666233062744134L176.41438802083334,35.72948328653972L176.5390625,38.37402216593424L176.78841145833334,58.09755579630534L176.91308593750003,49.152562459309884L177.53645833333334,40.02522722880045L177.78580729166666,54.78126653035481L178.15983072916669,58.61363474527996L178.28450520833334,44.04638926188151L178.65852864583331,84.73657735188802L178.783203125,57.61358642578125L179.40657552083334,56.168317794799805L179.65592447916669,41.326415379842125L179.78059895833334,53.44703102111816L179.90527343749997,53.239031473795585L180.02994791666669,38.08177248636883L180.15462239583331,41.747741063435875L180.279296875,48.57916641235351L180.40397135416666,41.778500239054374L180.77799479166666,16.6401138305664L180.90266927083334,51.763378779093436L181.02734375,33.81825065612792L181.15201822916669,45.14861806233723L181.4013671875,53.22717793782552L181.65071614583331,44.801714579264335L181.775390625,35.71496645609538L182.1494140625,45.20109621683758L182.27408854166666,47.24279276529948L182.64811197916669,26.226736068725593L183.02213541666669,45.36295700073243L183.52083333333331,45.920823415120445L184.14420572916666,46.04273478190105L184.26888020833334,23.931051254272468L184.3935546875,35.11827596028646L184.89225260416666,18.88755925496419L185.26627604166666,62.436850229899086L185.8896484375,43.649220784505204L186.26367187500003,35.312058766682945L186.6376953125,34.309984842936196L186.88704427083334,30.51437759399414L187.01171875,51.33792686462402L187.3857421875,43.49842580159504L187.88444010416666,39.50247128804524L188.38313802083334,56.861262003580734L188.8818359375,30.652681350708015L189.00651041666669,13.693534851074212L189.6298828125,42.36926396687826L189.87923177083334,44.18356768290203L190.00390625,44.48298199971517L190.25325520833334,41.07336489359538L190.3779296875,40.489690780639656L190.62727864583334,33.060262044270836L191.5,39.266038258870445L192.6220703125,36.33915265401204L192.74674479166666,53.07248179117838L192.99609375,39.620669047037765L193.12076822916666,57.5321496327718L193.49479166666666,32.62081845601399L193.61946614583334,52.07123311360677L193.86881510416669,60.291472752889L194.36751302083331,60.447819391886405L194.61686197916666,53.9901180267334L195.11555989583334,46.87638346354167L195.240234375,36.76509221394857L195.36490885416669,41.40380096435546L195.48958333333334,48.976334889729806L195.61425781250003,39.937376022338874L196.11295572916666,31.77835464477539L196.23763020833334,56.68012046813965L196.48697916666666,29.598316828409832L196.61165364583334,22.72596677144369L197.11035156249997,18.825965881347656L197.73372395833334,46.86880620320638L197.8583984375,50.33697827657064L198.35709635416669,29.21686553955079L198.73111979166669,44.62361145019532L199.10514322916666,57.39744695027668L199.22981770833334,46.92649841308594L199.47916666666666,57.943047205607094L199.60384114583334,38.34491348266602L199.97786458333334,50.606233596801765L200.22721354166669,17.99899419148763L201.224609375,39.198143005371094L201.5986328125,24.705169677734382L201.72330729166669,49.03935368855794L201.97265625,62.80067125956218L202.22200520833331,30.00336265563964L202.3466796875,27.222245534261067L203.46875000000003,9.647352854410816L203.59342447916666,60.43896675109863L204.09212239583334,6.019420623779297L204.34147135416666,28.05803235371908L204.46614583333334,38.49645868937175L204.5908203125,35.76740709940592L204.71549479166669,31.991568247477215L205.08951822916666,39.247207641601555L205.3388671875,58.19557253519694L205.46354166666666,31.04174741109213L205.58821614583334,35.10672251383463L205.712890625,40.807710647583015L205.83756510416666,47.31781514485677L205.96223958333334,62.82437833150227L206.0869140625,21.761929194132488L206.33626302083334,42.54710451761881L206.46093749999997,46.00931231180828L206.58561197916666,35.10784784952801L206.71028645833331,83.46809895833334L206.8349609375,62.10435104370117L206.95963541666666,11.403551737467456L207.08430989583334,3.7031046549479125L207.208984375,22.65968449910481L207.45833333333334,32.419720967610665L208.3310546875,41.37930615743L208.705078125,67.60559209187826L208.82975260416666,41.3858331044515L209.0791015625,48.916204452514656L209.20377604166669,51.09402910868327L209.70247395833331,26.916979471842456L209.8271484375,40.46013196309408L209.95182291666666,31.906080245971673L210.45052083333334,43.292451858520515L210.5751953125,46.13696289062499L210.69986979166669,44.4878584543864L210.82454427083334,19.442799886067714L210.94921875,23.760750452677417L211.19856770833331,46.04059664408366L211.3232421875,35.45321337382L211.82194010416666,14.972516377766919L211.94661458333334,42.714892069498696L212.0712890625,48.69372558593751L212.32063802083334,14.240898132324226L212.69466145833331,19.27865091959635L213.193359375,33.90171305338542L213.31803385416666,46.05695152282714L213.44270833333334,28.44803619384765L213.69205729166666,32.79284477233887L213.94140625,39.97815068562825L214.06608072916669,33.94357554117839L214.93880208333334,16.75212224324545L215.31282552083334,33.300708770751946L215.56217447916669,39.131485621134445L216.31022135416666,28.7841739654541L216.68424479166666,22.379963556925464L216.80891927083334,22.61662165323894L217.18294270833334,39.60322634379069L217.681640625,39.60183842976887L217.93098958333334,69.79864629109701L218.0556640625,42.4865239461263L218.4296875,29.971515655517578L218.55436197916669,18.418369293212898L218.67903645833334,29.585488001505535L218.92838541666669,39.84262275695801L219.177734375,37.17508951822917L219.80110677083334,33.129920323689774L220.05045572916669,42.83188947041829L220.17513020833334,49.950012842814125L220.2998046875,33.33473141988119L220.54915364583331,48.70404116312664L220.79850260416666,56.266859690348305L220.92317708333331,18.643886566162116L221.0478515625,27.28905296325683L221.17252604166666,27.9301191965739L221.54654947916666,26.687448501586907L221.7958984375,38.21542485555013L221.92057291666669,24.300048828125007L222.04524739583331,2.6843757629394465L222.16992187500003,43.59254137674968L222.29459635416666,33.07800483703614L222.66861979166666,63.898698806762695L223.2919921875,14.781434377034497L223.91536458333331,16.07166926066081L224.0400390625,15.197808583577478L224.16471354166666,21.49211120605468L224.66341145833334,31.909531275431316L224.7880859375,5.32088724772135L224.91276041666669,20.848794301350903L225.78548177083334,31.424774169921882L225.91015625,32.282354990641274L226.15950520833334,47.554735819498696L226.2841796875,31.3883508046468L226.53352864583334,22.914760589599602L227.0322265625,38.51086298624676L227.28157552083334,52.56191698710124L227.53092447916666,58.43804486592611L227.7802734375,32.21325937906902L227.90494791666669,24.070817947387702L228.40364583333331,40.94428888956707L228.90234375,42.84400558471679L229.02701822916666,35.01815859476726L229.15169270833334,25.10365104675293L229.2763671875,10.293370564778638L229.52571614583334,35.412026087443046L229.650390625,27.756254831949878L230.27376302083331,38.5667921702067L230.3984375,16.18870417277019L230.64778645833334,52.93459065755208L230.89713541666666,24.73960494995118L231.02180989583334,31.017965316772468L231.146484375,11.372492472330737L231.27115885416669,-2.5005709330240844L231.52050781250003,31.803262074788403L231.76985677083331,27.09812100728352L232.2685546875,15.2026850382487L232.51790364583334,30.133376439412434L232.76725260416669,35.37886619567871L233.14127604166666,21.035487492879223L233.26595052083331,34.93912251790364L233.7646484375,16.045786539713536L234.138671875,7.2083002726237L234.38802083333334,33.873504638671875L234.51269531249997,26.051146189371746L234.63736979166666,35.453588485717766L234.76204427083331,45.769053141276046L235.13606770833334,36.60416920979817L235.2607421875,29.331274668375652L235.38541666666666,23.805463790893562L235.51009114583334,38.34048716227214L235.634765625,35.18883450826009L235.75944010416669,37.82842191060383L236.13346354166669,66.74876149495444L236.25813802083331,43.05181757609049L236.3828125,14.746699015299475L236.63216145833334,29.722403844197597L236.7568359375,65.23923619588216L236.88151041666666,15.558591206868481L237.00618489583334,28.20916493733723L237.25553385416669,6.367224375406909L237.5048828125,17.792757670084637L237.87890625,28.20308812459309L238.12825520833331,27.731910069783535L238.2529296875,9.948117574055994L238.37760416666666,44.68565495808919L238.50227864583334,26.13213284810384L239.25032552083331,8.857742309570305L239.375,34.68884785970052L239.7490234375,43.62802696228028L239.87369791666666,23.67762565612793L239.99837239583334,38.95690854390462L240.123046875,52.05187733968098L240.74641927083331,25.045058568318684L241.74381510416666,6.708501180013025L241.86848958333334,9.514863332112622L241.9931640625,21.085264841715503L242.36718750000003,11.040818532307934L242.61653645833331,30.84185028076172L242.99055989583334,50.610584894816085L243.115234375,18.128482818603516L243.23990885416666,46.10849189758301L243.36458333333334,34.243777592976876L243.61393229166669,26.78287696838379L243.73860677083334,31.360329945882153L244.11263020833331,48.75134277343749L244.73600260416666,37.14875666300456L244.86067708333334,23.994295120239258L245.11002604166669,17.16474533081054L245.23470052083334,36.040451049804695L245.48404947916669,8.128374735514319L246.35677083333334,40.61749140421551L246.4814453125,22.971627553304028L246.60611979166669,38.85817909240723L246.98014322916669,28.814933141072597L247.10481770833331,42.28118769327801L247.47884114583331,19.048182169596362L247.603515625,42.90732447306315L247.72819010416666,25.56275049845377L247.85286458333334,31.474851608276367L248.10221354166669,12.912176767985022L248.22688802083334,1.976539611816413L248.47623697916669,7.404408772786456L248.7255859375,25.479663213094067L248.97493489583331,32.14360109965006L249.099609375,-3.54503250122069L249.4736328125,16.940653483072918L249.72298177083334,17.99914423624674L249.84765625,17.577518463134766L249.97233072916669,42.703038533528634L250.47102864583331,31.33564758300782L250.72037760416666,14.680529276529944L251.21907552083334,25.574529012044263L251.46842447916669,29.31908353169759L251.71777343750003,24.795496622721362L251.84244791666666,35.05315653483074L252.34114583333334,19.805157979329426L252.71516927083334,26.362939198811855L252.83984375,26.600122451782234L253.08919270833334,49.66035143534342L253.21386718749997,16.696905771891277L253.46321614583331,34.46520614624024L253.587890625,22.69839604695638L253.71256510416666,14.296414693196619L253.9619140625,28.223306655883796L254.08658854166666,42.6353308359782L254.21126302083334,36.78613599141438L254.95930989583331,26.354724248250317L255.083984375,18.917943318684895L255.20865885416666,14.739196777343757L255.33333333333334,27.158514022827156L255.4580078125,-2.113230387369774L255.83203125,20.564046859741204L256.0813802083333,28.43273162841797L256.4554036458333,18.339670817057293L256.9541015625,29.57543500264485L257.4527994791667,40.876956303914376L257.5774739583333,8.901105244954419L257.7021484375,28.235797882080085L257.8268229166667,30.762776692708325L258.3255208333333,11.79554367065429L258.4501953125,33.83074188232421L258.5748697916667,40.455480575561516L258.69954427083337,13.61656188964843L258.82421875,29.314544677734375L259.0735677083333,20.907461802164715L259.3229166666667,41.18589846293131L259.4475911458333,16.318642934163417L259.8216145833333,34.2430648803711L259.9462890625,13.147747039794929L260.19563802083337,11.237752278645837L260.44498697916663,37.43796793619793L260.6943359375,53.7770169576009L260.8190104166667,3.4670842488606683L261.3177083333333,48.13282076517742L261.81640625,13.351432800292969L262.0657552083333,24.063578287760425L262.1904296875,28.949673334757495L262.6891276041667,20.42953173319498L262.9384765625,19.865400950113926L263.0631510416667,50.389794031778976L263.18782552083337,34.42060534159343L263.5618489583333,21.41600100199381L263.9358723958333,19.465606689453132L264.1852213541667,39.95358085632325L264.93326822916663,8.089588165283203L265.0579427083333,20.526685714721687L265.1826171875,24.379872639973964L265.4319661458333,19.350672403971362L265.556640625,14.75247573852539L265.9306640625,19.608374277750652L266.3046875,5.278274536132819L266.42936197916663,1.622208913167322L266.8033854166667,14.52718353271485L266.9280598958333,7.175515492757159L267.052734375,12.393622080485022L267.1774088541667,53.779305140177414L267.5514322916667,32.54084459940593L267.80078125,12.161202748616533L268.1748046875,19.45420328776041L268.29947916666663,59.10428110758464L268.548828125,37.61674626668293L268.9228515625,39.93321228027343L269.4215494791667,25.37181854248046L269.54622395833337,38.492557525634766L269.6708984375,35.04085286458332L269.79557291666663,16.406044006347656L269.9202473958333,7.308155059814447L270.1695963541667,1.6169573465983094L270.2942708333333,20.732547124226887L270.4189453125,40.139448801676444L270.5436197916667,-10.904652913411475L271.29166666666663,34.36959012349446L271.541015625,13.685507456461592L271.6656901041667,0.4041455586751346L271.7903645833333,27.33823013305664L271.9150390625,23.580246607462566L272.0397135416667,34.58359146118163L272.1643880208333,7.139054616292316L272.2890625,49.28782780965169L272.53841145833337,28.37083816528321L272.78776041666663,16.829770406087246L272.9124348958333,17.608052571614582L273.037109375,21.798877716064453L273.2864583333333,19.976659138997395L273.4111328125,8.396129608154297L273.5358072916667,15.420249938964844L273.78515625,21.7506758371989L274.28385416666663,19.40498860677084" style="fill: none;" fill="none"></path></g></g></g></g></g></g><g transform="translate(30, 177)" clip-path="url(#clip_1)"><clipPath id="clip_1"><rect width="299" height="23"></rect></clipPath><g><g><line x1="0" y1="0" x2="0" y2="5" style="visibility: inherit;" fill="rgb(0, 0, 0)" stroke="rgb(204, 204, 204)" stroke-width="1px"></line><line x1="24.934895833333332" y1="0" x2="24.934895833333332" y2="5" style="visibility: inherit;" fill="rgb(0, 0, 0)" stroke="rgb(204, 204, 204)" stroke-width="1px"></line><line x1="49.869791666666664" y1="0" x2="49.869791666666664" y2="5" style="visibility: inherit;" fill="rgb(0, 0, 0)" stroke="rgb(204, 204, 204)" stroke-width="1px"></line><line x1="74.8046875" y1="0" x2="74.8046875" y2="5" style="visibility: inherit;" fill="rgb(0, 0, 0)" stroke="rgb(204, 204, 204)" stroke-width="1px"></line><line x1="99.73958333333333" y1="0" x2="99.73958333333333" y2="5" style="visibility: inherit;" fill="rgb(0, 0, 0)" stroke="rgb(204, 204, 204)" stroke-width="1px"></line><line x1="124.67447916666667" y1="0" x2="124.67447916666667" y2="5" style="visibility: inherit;" fill="rgb(0, 0, 0)" stroke="rgb(204, 204, 204)" stroke-width="1px"></line><line x1="149.609375" y1="0" x2="149.609375" y2="5" style="visibility: inherit;" fill="rgb(0, 0, 0)" stroke="rgb(204, 204, 204)" stroke-width="1px"></line><line x1="174.54427083333334" y1="0" x2="174.54427083333334" y2="5" style="visibility: inherit;" fill="rgb(0, 0, 0)" stroke="rgb(204, 204, 204)" stroke-width="1px"></line><line x1="199.47916666666666" y1="0" x2="199.47916666666666" y2="5" style="visibility: inherit;" fill="rgb(0, 0, 0)" stroke="rgb(204, 204, 204)" stroke-width="1px"></line><line x1="224.4140625" y1="0" x2="224.4140625" y2="5" style="visibility: inherit;" fill="rgb(0, 0, 0)" stroke="rgb(204, 204, 204)" stroke-width="1px"></line><line x1="249.34895833333334" y1="0" x2="249.34895833333334" y2="5" style="visibility: inherit;" fill="rgb(0, 0, 0)" stroke="rgb(204, 204, 204)" stroke-width="1px"></line><line x1="274.28385416666663" y1="0" x2="274.28385416666663" y2="5" style="visibility: inherit;" fill="rgb(0, 0, 0)" stroke="rgb(204, 204, 204)" stroke-width="1px"></line><line x1="299.21875" y1="0" x2="299.21875" y2="5" style="visibility: inherit;" fill="rgb(0, 0, 0)" stroke="rgb(204, 204, 204)" stroke-width="1px"></line></g><g transform="translate(0, 8)"><text x="0" y="0" dx="0em" dy="0.95em" style="text-anchor: middle; visibility: hidden; font-family: Roboto, sans-serif; font-size: 12px; font-weight: 200;" fill="rgb(33, 33, 33)" stroke="none" stroke-width="1px">-20k</text><text x="24.934895833333332" y="0" dx="0em" dy="0.95em" style="text-anchor: middle; visibility: inherit; font-family: Roboto, sans-serif; font-size: 12px; font-weight: 200;" fill="rgb(33, 33, 33)" stroke="none" stroke-width="1px">0</text><text x="49.869791666666664" y="0" dx="0em" dy="0.95em" style="text-anchor: middle; visibility: hidden; font-family: Roboto, sans-serif; font-size: 12px; font-weight: 200;" fill="rgb(33, 33, 33)" stroke="none" stroke-width="1px">20k</text><text x="74.8046875" y="0" dx="0em" dy="0.95em" style="text-anchor: middle; visibility: inherit; font-family: Roboto, sans-serif; font-size: 12px; font-weight: 200;" fill="rgb(33, 33, 33)" stroke="none" stroke-width="1px">40k</text><text x="99.73958333333333" y="0" dx="0em" dy="0.95em" style="text-anchor: middle; visibility: hidden; font-family: Roboto, sans-serif; font-size: 12px; font-weight: 200;" fill="rgb(33, 33, 33)" stroke="none" stroke-width="1px">60k</text><text x="124.67447916666667" y="0" dx="0em" dy="0.95em" style="text-anchor: middle; visibility: inherit; font-family: Roboto, sans-serif; font-size: 12px; font-weight: 200;" fill="rgb(33, 33, 33)" stroke="none" stroke-width="1px">80k</text><text x="149.609375" y="0" dx="0em" dy="0.95em" style="text-anchor: middle; visibility: hidden; font-family: Roboto, sans-serif; font-size: 12px; font-weight: 200;" fill="rgb(33, 33, 33)" stroke="none" stroke-width="1px">100k</text><text x="174.54427083333334" y="0" dx="0em" dy="0.95em" style="text-anchor: middle; visibility: inherit; font-family: Roboto, sans-serif; font-size: 12px; font-weight: 200;" fill="rgb(33, 33, 33)" stroke="none" stroke-width="1px">120k</text><text x="199.47916666666666" y="0" dx="0em" dy="0.95em" style="text-anchor: middle; visibility: hidden; font-family: Roboto, sans-serif; font-size: 12px; font-weight: 200;" fill="rgb(33, 33, 33)" stroke="none" stroke-width="1px">140k</text><text x="224.4140625" y="0" dx="0em" dy="0.95em" style="text-anchor: middle; visibility: inherit; font-family: Roboto, sans-serif; font-size: 12px; font-weight: 200;" fill="rgb(33, 33, 33)" stroke="none" stroke-width="1px">160k</text><text x="249.34895833333334" y="0" dx="0em" dy="0.95em" style="text-anchor: middle; visibility: hidden; font-family: Roboto, sans-serif; font-size: 12px; font-weight: 200;" fill="rgb(33, 33, 33)" stroke="none" stroke-width="1px">180k</text><text x="274.28385416666663" y="0" dx="0em" dy="0.95em" style="text-anchor: middle; visibility: inherit; font-family: Roboto, sans-serif; font-size: 12px; font-weight: 200;" fill="rgb(33, 33, 33)" stroke="none" stroke-width="1px">200k</text><text x="299.21875" y="0" dx="0em" dy="0.95em" style="text-anchor: middle; visibility: hidden; font-family: Roboto, sans-serif; font-size: 12px; font-weight: 200;" fill="rgb(33, 33, 33)" stroke="none" stroke-width="1px">220k</text></g><line x1="0" y1="0" x2="299.21875" y2="0" fill="rgb(0, 0, 0)" stroke="rgb(204, 204, 204)" stroke-width="1px"></line></g></g></g></g></svg>